M48
; DRILL file {KiCad 9.0.7+dfsg-1} date 2026-04-18T22:28:57-0400
; FORMAT={-:-/ absolute / metric / decimal}
; #@! TF.CreationDate,2026-04-18T22:28:57-04:00
; #@! TF.GenerationSoftware,Kicad,Pcbnew,9.0.7+dfsg-1
; #@! TF.FileFunction,Plated,1,4,PTH
FMAT,2
METRIC
; #@! TA.AperFunction,Plated,PTH,ViaDrill
T1C0.300
; #@! TA.AperFunction,Plated,PTH,ViaDrill
T2C0.350
; #@! TA.AperFunction,Plated,PTH,ViaDrill
T3C0.400
; #@! TA.AperFunction,Plated,PTH,ComponentDrill
T4C1.000
; #@! TA.AperFunction,Plated,PTH,ComponentDrill
T5C3.200
%
G90
G05
T1
X-14.0Y4.0
X1.026Y-98.974
X3.65Y-86.838
X4.5Y-51.791
X7.734Y-83.891
X9.018Y-76.321
X9.48Y-68.942
X9.602Y-48.95
X10.82Y-7.266
X10.82Y-14.49
X10.902Y-12.501
X11.033Y-82.673
X11.033Y-82.673
X11.175Y-54.123
X12.82Y-36.753
X13.006Y-58.827
X13.578Y-21.764
X15.179Y-80.313
X15.667Y-79.024
X15.88Y-80.942
X17.5Y-6.0
X17.545Y-76.785
X19.305Y-13.16
X19.981Y-76.197
X20.007Y-83.519
X20.566Y-77.475
X21.081Y-83.828
X21.087Y-30.276
X21.087Y-30.276
X21.648Y-16.462
X22.003Y-39.684
X22.124Y-42.097
X22.15Y-81.356
X22.178Y-78.989
X22.833Y-80.597
X23.456Y-75.548
X24.263Y-19.103
X24.321Y-55.006
X25.069Y-77.415
X25.333Y-53.95
X27.062Y-90.0
X27.219Y-77.376
X27.219Y-81.937
X27.219Y-83.37
X27.424Y-14.969
X27.486Y-58.354
X27.805Y-74.78
X27.899Y-13.159
X27.915Y-10.982
X28.435Y-87.414
X28.854Y-81.005
X28.895Y-78.254
X29.07Y-86.212
X31.5Y-76.903
X31.704Y-73.222
X32.735Y-73.939
X32.782Y-77.975
X33.792Y-45.579
X34.473Y-72.581
X34.693Y-82.982
X34.792Y-78.096
X35.0Y-50.637
X36.096Y-33.047
X37.026Y-31.083
X37.667Y-83.891
X39.686Y-67.276
X40.781Y-50.649
X44.54Y-45.597
X47.6Y-83.144
X49.007Y-45.477
X49.424Y-82.732
X50.9Y-40.473
X50.9Y-42.16
X51.355Y-77.837
X51.863Y-21.446
X54.421Y-53.528
X54.421Y-71.745
X56.622Y-44.691
X58.094Y-53.126
X60.316Y-53.398
X61.337Y-82.046
X61.719Y-72.483
X62.439Y-37.505
X62.492Y-34.372
X62.871Y-39.369
X63.69Y-33.595
X63.719Y-81.009
X63.939Y-35.831
X63.976Y-36.699
X65.719Y-53.533
X65.79Y-41.663
X66.044Y-42.617
X66.21Y-54.421
X67.239Y-41.063
X68.564Y-68.784
X69.191Y-57.787
X69.846Y-61.082
X70.182Y-46.385
X72.0Y-80.0
X72.642Y-57.07
X72.889Y-13.947
X72.889Y-15.628
X72.889Y-18.371
X73.672Y-57.109
X74.089Y-39.642
X74.931Y-77.968
X75.051Y-43.377
X75.249Y-57.109
X76.052Y-35.824
X77.171Y-38.332
X77.329Y-61.26
X77.53Y-48.53
X78.433Y-61.372
X79.058Y-44.324
X79.306Y-72.102
X80.78Y-51.789
X84.59Y-54.376
X86.695Y-46.365
X86.84Y-10.213
X89.184Y-66.136
X89.303Y-11.893
X89.334Y-46.537
X89.408Y-13.16
X92.455Y-48.526
X93.354Y-13.692
X95.681Y-66.167
X95.752Y-57.57
T2
X1.95Y-13.95
X1.95Y-13.95
X1.95Y-25.95
X1.95Y-25.95
X1.95Y-37.95
X1.95Y-37.95
X1.95Y-49.95
X1.95Y-49.95
X1.95Y-61.95
X1.95Y-61.95
X1.95Y-73.95
X1.95Y-73.95
X4.95Y-7.95
X4.95Y-7.95
X4.95Y-79.95
X4.95Y-79.95
X4.95Y-91.95
X4.95Y-91.95
X7.95Y-1.95
X7.95Y-1.95
X7.95Y-13.95
X7.95Y-13.95
X7.95Y-25.95
X7.95Y-25.95
X7.95Y-37.95
X7.95Y-37.95
X7.95Y-49.95
X7.95Y-49.95
X7.95Y-97.95
X7.95Y-97.95
X10.95Y-91.95
X10.95Y-91.95
X13.95Y-1.95
X13.95Y-1.95
X13.95Y-13.95
X13.95Y-13.95
X13.95Y-49.95
X13.95Y-49.95
X13.95Y-61.95
X13.95Y-61.95
X13.95Y-97.95
X13.95Y-97.95
X16.95Y-19.95
X16.95Y-19.95
X16.95Y-31.95
X16.95Y-31.95
X16.95Y-43.95
X16.95Y-43.95
X16.95Y-55.95
X16.95Y-55.95
X16.95Y-67.95
X16.95Y-67.95
X19.95Y-1.95
X19.95Y-1.95
X19.95Y-25.95
X19.95Y-25.95
X19.95Y-61.95
X19.95Y-61.95
X19.95Y-85.95
X19.95Y-85.95
X19.95Y-97.95
X19.95Y-97.95
X22.95Y-7.95
X22.95Y-7.95
X22.95Y-19.95
X22.95Y-19.95
X22.95Y-67.95
X22.95Y-67.95
X25.95Y-1.95
X25.95Y-1.95
X25.95Y-37.95
X25.95Y-37.95
X25.95Y-61.95
X25.95Y-61.95
X25.95Y-73.95
X25.95Y-73.95
X25.95Y-97.95
X25.95Y-97.95
X28.95Y-7.95
X28.95Y-7.95
X28.95Y-19.95
X28.95Y-19.95
X28.95Y-67.95
X28.95Y-67.95
X31.95Y-1.95
X31.95Y-1.95
X31.95Y-25.95
X31.95Y-25.95
X31.95Y-37.95
X31.95Y-37.95
X31.95Y-61.95
X31.95Y-61.95
X31.95Y-97.95
X31.95Y-97.95
X34.95Y-7.95
X34.95Y-7.95
X34.95Y-19.95
X34.95Y-19.95
X34.95Y-79.95
X34.95Y-79.95
X37.95Y-1.95
X37.95Y-1.95
X37.95Y-25.95
X37.95Y-25.95
X37.95Y-49.95
X37.95Y-49.95
X37.95Y-61.95
X37.95Y-61.95
X37.95Y-85.95
X37.95Y-85.95
X37.95Y-97.95
X37.95Y-97.95
X40.95Y-7.95
X40.95Y-7.95
X40.95Y-19.95
X40.95Y-19.95
X40.95Y-91.95
X40.95Y-91.95
X43.95Y-1.95
X43.95Y-1.95
X43.95Y-25.95
X43.95Y-25.95
X43.95Y-37.95
X43.95Y-37.95
X43.95Y-61.95
X43.95Y-61.95
X43.95Y-85.95
X43.95Y-85.95
X43.95Y-97.95
X43.95Y-97.95
X46.95Y-7.95
X46.95Y-7.95
X46.95Y-19.95
X46.95Y-19.95
X46.95Y-31.95
X46.95Y-67.95
X46.95Y-67.95
X46.95Y-91.95
X46.95Y-91.95
X49.95Y-1.95
X49.95Y-1.95
X49.95Y-37.95
X49.95Y-37.95
X49.95Y-61.95
X49.95Y-61.95
X49.95Y-85.95
X49.95Y-85.95
X49.95Y-97.95
X49.95Y-97.95
X52.95Y-31.95
X52.95Y-91.95
X52.95Y-91.95
X55.95Y-1.95
X55.95Y-1.95
X55.95Y-25.95
X55.95Y-25.95
X55.95Y-37.95
X55.95Y-37.95
X55.95Y-85.95
X55.95Y-85.95
X55.95Y-97.95
X55.95Y-97.95
X58.95Y-7.95
X58.95Y-7.95
X58.95Y-19.95
X58.95Y-19.95
X58.95Y-31.95
X58.95Y-31.95
X58.95Y-91.95
X58.95Y-91.95
X61.95Y-1.95
X61.95Y-1.95
X61.95Y-25.95
X61.95Y-25.95
X61.95Y-49.95
X61.95Y-49.95
X61.95Y-61.95
X61.95Y-61.95
X61.95Y-85.95
X61.95Y-85.95
X61.95Y-97.95
X61.95Y-97.95
X64.95Y-7.95
X64.95Y-7.95
X64.95Y-19.95
X64.95Y-19.95
X64.95Y-91.95
X64.95Y-91.95
X67.95Y-1.95
X67.95Y-1.95
X67.95Y-25.95
X67.95Y-25.95
X67.95Y-49.95
X67.95Y-49.95
X67.95Y-85.95
X67.95Y-85.95
X67.95Y-97.95
X67.95Y-97.95
X70.95Y-7.95
X70.95Y-7.95
X70.95Y-31.95
X70.95Y-31.95
X70.95Y-91.95
X70.95Y-91.95
X73.95Y-1.95
X73.95Y-1.95
X73.95Y-25.95
X73.95Y-25.95
X73.95Y-49.95
X73.95Y-49.95
X73.95Y-61.95
X73.95Y-61.95
X73.95Y-85.95
X73.95Y-85.95
X73.95Y-97.95
X73.95Y-97.95
X76.95Y-31.95
X76.95Y-31.95
X76.95Y-43.95
X76.95Y-43.95
X76.95Y-55.95
X76.95Y-55.95
X76.95Y-91.95
X76.95Y-91.95
X79.95Y-1.95
X79.95Y-1.95
X79.95Y-13.95
X79.95Y-13.95
X79.95Y-25.95
X79.95Y-25.95
X79.95Y-49.95
X79.95Y-49.95
X79.95Y-61.95
X79.95Y-61.95
X79.95Y-73.95
X79.95Y-73.95
X79.95Y-85.95
X79.95Y-85.95
X79.95Y-97.95
X79.95Y-97.95
X82.95Y-7.95
X82.95Y-7.95
X82.95Y-19.95
X82.95Y-19.95
X82.95Y-31.95
X82.95Y-31.95
X82.95Y-43.95
X82.95Y-43.95
X82.95Y-55.95
X82.95Y-55.95
X82.95Y-79.95
X82.95Y-79.95
X82.95Y-91.95
X82.95Y-91.95
X85.95Y-1.95
X85.95Y-1.95
X85.95Y-13.95
X85.95Y-13.95
X85.95Y-25.95
X85.95Y-25.95
X85.95Y-37.95
X85.95Y-37.95
X85.95Y-49.95
X85.95Y-49.95
X85.95Y-61.95
X85.95Y-61.95
X85.95Y-73.95
X85.95Y-73.95
X85.95Y-85.95
X85.95Y-85.95
X85.95Y-97.95
X85.95Y-97.95
X88.95Y-7.95
X88.95Y-7.95
X88.95Y-31.95
X88.95Y-31.95
X88.95Y-43.95
X88.95Y-43.95
X88.95Y-55.95
X88.95Y-55.95
X88.95Y-79.95
X88.95Y-79.95
X88.95Y-91.95
X88.95Y-91.95
X91.95Y-1.95
X91.95Y-1.95
X91.95Y-25.95
X91.95Y-25.95
X91.95Y-37.95
X91.95Y-37.95
X91.95Y-61.95
X91.95Y-61.95
X91.95Y-73.95
X91.95Y-73.95
X91.95Y-85.95
X91.95Y-85.95
X91.95Y-97.95
X91.95Y-97.95
X94.95Y-7.95
X94.95Y-7.95
X94.95Y-19.95
X94.95Y-19.95
X94.95Y-31.95
X94.95Y-31.95
X94.95Y-43.95
X94.95Y-43.95
X94.95Y-55.95
X94.95Y-55.95
X94.95Y-67.95
X94.95Y-67.95
X94.95Y-79.95
X94.95Y-79.95
X94.95Y-91.95
X94.95Y-91.95
X97.95Y-13.95
X97.95Y-13.95
X97.95Y-25.95
X97.95Y-25.95
X97.95Y-37.95
X97.95Y-37.95
X97.95Y-49.95
X97.95Y-49.95
X97.95Y-61.95
X97.95Y-61.95
X97.95Y-73.95
X97.95Y-73.95
X97.95Y-85.95
X97.95Y-85.95
T3
X12.536Y-80.802
X16.152Y-83.004
X30.28Y-34.039
X39.686Y-34.785
T4
X5.0Y-54.5
X5.0Y-57.04
X5.0Y-59.58
X5.0Y-62.12
X5.0Y-64.66
X5.0Y-67.2
X5.0Y-69.74
X7.0Y-34.0
X7.54Y-54.5
X7.54Y-57.04
X7.54Y-59.58
X7.54Y-62.12
X7.54Y-64.66
X7.54Y-67.2
X7.54Y-69.74
X9.54Y-34.0
X12.08Y-34.0
X62.0Y-68.0
X62.0Y-70.54
T5
X-11.5Y1.5
X-11.5Y-116.5
X106.5Y1.5
X106.5Y-116.5
M30
