M48
; DRILL file {KiCad 9.0.7+dfsg-1} date 2026-04-17T08:38:13-0400
; FORMAT={-:-/ absolute / metric / decimal}
; #@! TF.CreationDate,2026-04-17T08:38:13-04:00
; #@! TF.GenerationSoftware,Kicad,Pcbnew,9.0.7+dfsg-1
; #@! TF.FileFunction,Plated,1,4,PTH
FMAT,2
METRIC
; #@! TA.AperFunction,Plated,PTH,ViaDrill
T1C0.300
; #@! TA.AperFunction,Plated,PTH,ComponentDrill
T2C1.000
; #@! TA.AperFunction,Plated,PTH,ComponentDrill
T3C3.200
%
G90
G05
T1
X3.65Y-83.891
X7.734Y-83.104
X8.081Y-44.842
X10.215Y-54.42
X10.82Y-7.266
X10.82Y-14.49
X10.902Y-12.501
X12.928Y-84.467
X12.936Y-77.576
X14.921Y-78.089
X15.574Y-81.623
X16.816Y-51.433
X17.11Y-81.893
X17.239Y-76.621
X18.12Y-75.275
X18.361Y-27.518
X19.265Y-86.838
X19.305Y-13.16
X19.44Y-77.25
X19.768Y-75.629
X19.947Y-85.951
X20.427Y-81.67
X21.492Y-51.182
X21.596Y-78.923
X21.882Y-81.153
X22.175Y-83.37
X22.422Y-77.613
X22.535Y-45.579
X22.966Y-78.77
X23.008Y-79.92
X24.219Y-20.283
X24.992Y-49.796
X25.147Y-58.198
X25.364Y-37.166
X25.783Y-88.854
X26.129Y-58.219
X26.938Y-76.846
X27.062Y-90.0
X27.4Y-14.968
X27.899Y-13.159
X27.915Y-10.982
X28.139Y-77.069
X28.536Y-93.104
X28.672Y-81.895
X30.207Y-74.043
X31.542Y-71.264
X31.928Y-82.554
X32.883Y-52.321
X33.792Y-80.944
X36.739Y-86.838
X39.555Y-48.526
X39.686Y-83.891
X41.847Y-32.941
X41.898Y-31.184
X42.424Y-50.54
X42.635Y-34.68
X43.379Y-43.303
X45.5Y-43.032
X46.543Y-83.196
X46.85Y-78.511
X47.708Y-77.162
X48.475Y-87.396
X49.445Y-82.084
X50.562Y-75.485
X51.513Y-35.95
X54.233Y-33.707
X54.421Y-22.002
X54.587Y-44.246
X54.77Y-80.576
X55.247Y-35.95
X56.416Y-56.353
X57.368Y-56.58
X57.368Y-77.194
X58.101Y-52.186
X63.719Y-81.009
X65.662Y-58.154
X66.21Y-42.323
X66.435Y-57.367
X69.157Y-36.737
X69.944Y-35.022
X70.301Y-67.145
X72.889Y-13.947
X72.889Y-15.628
X72.889Y-18.371
X74.089Y-39.684
X76.002Y-43.589
X78.352Y-36.384
X86.84Y-10.213
X89.303Y-11.893
X89.408Y-13.16
X92.397Y-36.437
X92.747Y-33.777
X93.354Y-13.692
T2
X7.0Y-34.0
X9.54Y-34.0
X12.08Y-34.0
X62.0Y-68.0
X62.0Y-70.54
T3
X3.5Y-3.5
X3.5Y-96.5
X96.5Y-3.5
X96.5Y-96.5
M30
