%TF.GenerationSoftware,KiCad,Pcbnew,9.0.7+dfsg-1*%
%TF.CreationDate,2026-04-16T23:30:33-04:00*%
%TF.ProjectId,warden-apex-master,77617264-656e-42d6-9170-65782d6d6173,rev?*%
%TF.SameCoordinates,Original*%
%TF.FileFunction,Copper,L2,Inr*%
%TF.FilePolarity,Positive*%
%FSLAX46Y46*%
G04 Gerber Fmt 4.6, Leading zero omitted, Abs format (unit mm)*
G04 Created by KiCad (PCBNEW 9.0.7+dfsg-1) date 2026-04-16 23:30:33*
%MOMM*%
%LPD*%
G01*
G04 APERTURE LIST*
%TA.AperFunction,ComponentPad*%
%ADD10R,1.700000X1.700000*%
%TD*%
%TA.AperFunction,ComponentPad*%
%ADD11C,1.700000*%
%TD*%
%TA.AperFunction,ComponentPad*%
%ADD12C,5.200000*%
%TD*%
%TA.AperFunction,ViaPad*%
%ADD13C,0.600000*%
%TD*%
G04 APERTURE END LIST*
D10*
%TO.N,SPK_P*%
%TO.C,J3*%
X62000000Y-68000000D03*
D11*
%TO.N,SPK_N*%
X62000000Y-70540000D03*
%TD*%
D12*
%TO.N,*%
%TO.C,MH1*%
X3500000Y-3500000D03*
%TD*%
%TO.N,*%
%TO.C,MH4*%
X96500000Y-96500000D03*
%TD*%
D10*
%TO.N,3V3*%
%TO.C,H1*%
X7000000Y-34000000D03*
D11*
%TO.N,GND*%
X9540000Y-34000000D03*
%TO.N,PIR_SIG*%
X12080000Y-34000000D03*
%TD*%
D12*
%TO.N,*%
%TO.C,MH2*%
X96500000Y-3500000D03*
%TD*%
%TO.N,*%
%TO.C,MH3*%
X3500000Y-96500000D03*
%TD*%
D13*
%TO.N,GND*%
X26000000Y-26000000D03*
X26000000Y-50000000D03*
X34000000Y-34000000D03*
X42000000Y-66000000D03*
X82000000Y-90000000D03*
X26000000Y-58000000D03*
X90000000Y-58000000D03*
X90000000Y-90000000D03*
X10000000Y-50000000D03*
X90000000Y-74000000D03*
X90000000Y-82000000D03*
X90000000Y-50000000D03*
X66000000Y-90000000D03*
X82000000Y-82000000D03*
X74000000Y-74000000D03*
X74000000Y-82000000D03*
X18000000Y-26000000D03*
X82000000Y-74000000D03*
X10000000Y-58000000D03*
X50000000Y-58000000D03*
X34000000Y-42000000D03*
X90000000Y-42000000D03*
X50000000Y-66000000D03*
X82000000Y-26000000D03*
X74000000Y-90000000D03*
X10000000Y-42000000D03*
X10000000Y-82000000D03*
X10000000Y-74000000D03*
X26000000Y-66000000D03*
X26000000Y-74000000D03*
X34000000Y-82000000D03*
X18000000Y-42000000D03*
X10000000Y-66000000D03*
X18000000Y-50000000D03*
X26000000Y-34000000D03*
X58000000Y-58000000D03*
X18000000Y-66000000D03*
X74000000Y-26000000D03*
X34000000Y-58000000D03*
X66000000Y-66000000D03*
X18000000Y-58000000D03*
X34000000Y-66000000D03*
%TO.N,PIR_SIG*%
X75051100Y-43377500D03*
%TO.N,LORA_RESET*%
X73908600Y-14786900D03*
X10214900Y-10213400D03*
%TO.N,CELL_RF*%
X92398900Y-36436600D03*
X40079700Y-29334800D03*
%TO.N,CHG_REGN*%
X21504900Y-79627600D03*
X16179300Y-79372100D03*
%TO.N,I2S_LRCLK*%
X28548400Y-22888600D03*
X45580100Y-27336200D03*
%TO.N,LORA_NSS*%
X13162000Y-7266300D03*
X89406500Y-10218500D03*
%TO.N,CHG_STAT1*%
X16978500Y-83215800D03*
X33617100Y-78448100D03*
%TO.N,LORA_DIO0*%
X72679700Y-13203800D03*
X10214900Y-13160500D03*
%TO.N,TS_BIAS*%
X17370800Y-81645100D03*
X28729700Y-79885000D03*
%TO.N,LORA_DIO1*%
X28660500Y-22001800D03*
X72679700Y-22001800D03*
%TO.N,UART1_RX*%
X54772500Y-27336200D03*
X45580100Y-22001800D03*
%TO.N,REG_IN*%
X39685900Y-83890900D03*
X49424200Y-82508300D03*
%TO.N,SPI_MISO*%
X89406500Y-13160500D03*
X28654400Y-11673500D03*
%TO.N,CHG_PH*%
X14914400Y-80057000D03*
X19403200Y-77324600D03*
X22888600Y-79627600D03*
%TO.N,SPI_SCK*%
X89955900Y-15039800D03*
X28660500Y-13380000D03*
%TO.N,SIM_VDD*%
X74088800Y-37280400D03*
X40079700Y-42217700D03*
%TO.N,I2C_SCL*%
X63318100Y-40629000D03*
X13852200Y-34017000D03*
%TO.N,MPPSET*%
X31900800Y-72000000D03*
X14914400Y-75786600D03*
%TO.N,FB_DIV*%
X62218200Y-77595300D03*
X45203300Y-81629200D03*
%TO.N,SIM_CLK*%
X48675600Y-33259900D03*
X80945300Y-35806900D03*
%TO.N,SOLAR_IN*%
X14625000Y-81457900D03*
X21202900Y-78656000D03*
X16759100Y-76956200D03*
X17564700Y-78223300D03*
%TO.N,SPI_MOSI*%
X28660500Y-15687000D03*
X93353600Y-12218500D03*
%TO.N,CHG_GATE_HI*%
X18072700Y-76033100D03*
X27930800Y-77567000D03*
%TO.N,3V3*%
X52538900Y-38661100D03*
%TO.N,CHG_SENSE_NEG*%
X24950400Y-83890900D03*
X7733700Y-83890900D03*
X22176000Y-80732400D03*
%TO.N,MODEM_VBAT*%
X52400000Y-43791300D03*
X34329800Y-45040500D03*
X10214900Y-45578600D03*
%TO.N,I2C_SDA*%
X7267800Y-48525700D03*
X66920200Y-61244300D03*
%TO.N,SIM_DATA*%
X48301800Y-50574600D03*
X80435900Y-40654000D03*
%TD*%
%TA.AperFunction,Conductor*%
%TO.N,GND*%
G36*
X99458691Y-519407D02*
G01*
X99494655Y-568907D01*
X99499500Y-599500D01*
X99499500Y-99400500D01*
X99480593Y-99458691D01*
X99431093Y-99494655D01*
X99400500Y-99499500D01*
X599500Y-99499500D01*
X541309Y-99480593D01*
X505345Y-99431093D01*
X500500Y-99400500D01*
X500500Y-96342727D01*
X699500Y-96342727D01*
X699500Y-96657272D01*
X734718Y-96969841D01*
X804711Y-97276501D01*
X908597Y-97573392D01*
X908598Y-97573394D01*
X1045066Y-97856774D01*
X1045070Y-97856781D01*
X1045074Y-97856789D01*
X1212423Y-98123123D01*
X1408539Y-98369044D01*
X1630956Y-98591461D01*
X1876877Y-98787577D01*
X2143211Y-98954926D01*
X2143222Y-98954931D01*
X2143225Y-98954933D01*
X2237377Y-99000274D01*
X2426606Y-99091402D01*
X2723500Y-99195289D01*
X3030160Y-99265282D01*
X3342727Y-99300500D01*
X3342728Y-99300500D01*
X3657272Y-99300500D01*
X3657273Y-99300500D01*
X3969840Y-99265282D01*
X4276500Y-99195289D01*
X4573394Y-99091402D01*
X4856789Y-98954926D01*
X5123123Y-98787577D01*
X5369044Y-98591461D01*
X5591461Y-98369044D01*
X5787577Y-98123123D01*
X5954926Y-97856789D01*
X6091402Y-97573394D01*
X6195289Y-97276500D01*
X6265282Y-96969840D01*
X6300500Y-96657273D01*
X6300500Y-96342727D01*
X93699500Y-96342727D01*
X93699500Y-96657272D01*
X93734718Y-96969841D01*
X93804711Y-97276501D01*
X93908597Y-97573392D01*
X93908598Y-97573394D01*
X94045066Y-97856774D01*
X94045070Y-97856781D01*
X94045074Y-97856789D01*
X94212423Y-98123123D01*
X94408539Y-98369044D01*
X94630956Y-98591461D01*
X94876877Y-98787577D01*
X95143211Y-98954926D01*
X95143222Y-98954931D01*
X95143225Y-98954933D01*
X95237377Y-99000274D01*
X95426606Y-99091402D01*
X95723500Y-99195289D01*
X96030160Y-99265282D01*
X96342727Y-99300500D01*
X96342728Y-99300500D01*
X96657272Y-99300500D01*
X96657273Y-99300500D01*
X96969840Y-99265282D01*
X97276500Y-99195289D01*
X97573394Y-99091402D01*
X97856789Y-98954926D01*
X98123123Y-98787577D01*
X98369044Y-98591461D01*
X98591461Y-98369044D01*
X98787577Y-98123123D01*
X98954926Y-97856789D01*
X99091402Y-97573394D01*
X99195289Y-97276500D01*
X99265282Y-96969840D01*
X99300500Y-96657273D01*
X99300500Y-96342727D01*
X99265282Y-96030160D01*
X99195289Y-95723500D01*
X99091402Y-95426606D01*
X98954926Y-95143211D01*
X98787577Y-94876877D01*
X98591461Y-94630956D01*
X98369044Y-94408539D01*
X98123123Y-94212423D01*
X97856789Y-94045074D01*
X97856781Y-94045070D01*
X97856774Y-94045066D01*
X97573394Y-93908598D01*
X97573392Y-93908597D01*
X97276501Y-93804711D01*
X96969841Y-93734718D01*
X96813556Y-93717109D01*
X96657273Y-93699500D01*
X96342727Y-93699500D01*
X96238538Y-93711239D01*
X96030158Y-93734718D01*
X95723498Y-93804711D01*
X95426607Y-93908597D01*
X95426605Y-93908598D01*
X95143225Y-94045066D01*
X95143213Y-94045073D01*
X94876876Y-94212423D01*
X94630957Y-94408538D01*
X94408538Y-94630957D01*
X94212423Y-94876876D01*
X94045073Y-95143213D01*
X94045066Y-95143225D01*
X93908598Y-95426605D01*
X93908597Y-95426607D01*
X93804711Y-95723498D01*
X93734718Y-96030158D01*
X93699500Y-96342727D01*
X6300500Y-96342727D01*
X6265282Y-96030160D01*
X6195289Y-95723500D01*
X6091402Y-95426606D01*
X5954926Y-95143211D01*
X5787577Y-94876877D01*
X5591461Y-94630956D01*
X5369044Y-94408539D01*
X5123123Y-94212423D01*
X4856789Y-94045074D01*
X4856781Y-94045070D01*
X4856774Y-94045066D01*
X4573394Y-93908598D01*
X4573392Y-93908597D01*
X4276501Y-93804711D01*
X3969841Y-93734718D01*
X3813556Y-93717109D01*
X3657273Y-93699500D01*
X3342727Y-93699500D01*
X3238538Y-93711239D01*
X3030158Y-93734718D01*
X2723498Y-93804711D01*
X2426607Y-93908597D01*
X2426605Y-93908598D01*
X2143225Y-94045066D01*
X2143213Y-94045073D01*
X1876876Y-94212423D01*
X1630957Y-94408538D01*
X1408538Y-94630957D01*
X1212423Y-94876876D01*
X1045073Y-95143213D01*
X1045066Y-95143225D01*
X908598Y-95426605D01*
X908597Y-95426607D01*
X804711Y-95723498D01*
X734718Y-96030158D01*
X699500Y-96342727D01*
X500500Y-96342727D01*
X500500Y-83825008D01*
X7233200Y-83825008D01*
X7233200Y-83956792D01*
X7263279Y-84069051D01*
X7267309Y-84084090D01*
X7333196Y-84198209D01*
X7333198Y-84198211D01*
X7333200Y-84198214D01*
X7426386Y-84291400D01*
X7426388Y-84291401D01*
X7426390Y-84291403D01*
X7540510Y-84357290D01*
X7540508Y-84357290D01*
X7540512Y-84357291D01*
X7540514Y-84357292D01*
X7667808Y-84391400D01*
X7667810Y-84391400D01*
X7799590Y-84391400D01*
X7799592Y-84391400D01*
X7926886Y-84357292D01*
X7926888Y-84357290D01*
X7926890Y-84357290D01*
X8041009Y-84291403D01*
X8041009Y-84291402D01*
X8041014Y-84291400D01*
X8134200Y-84198214D01*
X8200092Y-84084086D01*
X8234200Y-83956792D01*
X8234200Y-83825008D01*
X24449900Y-83825008D01*
X24449900Y-83956792D01*
X24479979Y-84069051D01*
X24484009Y-84084090D01*
X24549896Y-84198209D01*
X24549898Y-84198211D01*
X24549900Y-84198214D01*
X24643086Y-84291400D01*
X24643088Y-84291401D01*
X24643090Y-84291403D01*
X24757210Y-84357290D01*
X24757208Y-84357290D01*
X24757212Y-84357291D01*
X24757214Y-84357292D01*
X24884508Y-84391400D01*
X24884510Y-84391400D01*
X25016290Y-84391400D01*
X25016292Y-84391400D01*
X25143586Y-84357292D01*
X25143588Y-84357290D01*
X25143590Y-84357290D01*
X25257709Y-84291403D01*
X25257709Y-84291402D01*
X25257714Y-84291400D01*
X25350900Y-84198214D01*
X25416792Y-84084086D01*
X25450900Y-83956792D01*
X25450900Y-83825008D01*
X39185400Y-83825008D01*
X39185400Y-83956792D01*
X39215479Y-84069051D01*
X39219509Y-84084090D01*
X39285396Y-84198209D01*
X39285398Y-84198211D01*
X39285400Y-84198214D01*
X39378586Y-84291400D01*
X39378588Y-84291401D01*
X39378590Y-84291403D01*
X39492710Y-84357290D01*
X39492708Y-84357290D01*
X39492712Y-84357291D01*
X39492714Y-84357292D01*
X39620008Y-84391400D01*
X39620010Y-84391400D01*
X39751790Y-84391400D01*
X39751792Y-84391400D01*
X39879086Y-84357292D01*
X39879088Y-84357290D01*
X39879090Y-84357290D01*
X39993209Y-84291403D01*
X39993209Y-84291402D01*
X39993214Y-84291400D01*
X40086400Y-84198214D01*
X40152292Y-84084086D01*
X40186400Y-83956792D01*
X40186400Y-83825008D01*
X40152292Y-83697714D01*
X40152290Y-83697711D01*
X40152290Y-83697709D01*
X40086403Y-83583590D01*
X40086401Y-83583588D01*
X40086400Y-83583586D01*
X39993214Y-83490400D01*
X39993211Y-83490398D01*
X39993209Y-83490396D01*
X39879089Y-83424509D01*
X39879091Y-83424509D01*
X39821171Y-83408990D01*
X39751792Y-83390400D01*
X39620008Y-83390400D01*
X39550629Y-83408990D01*
X39492709Y-83424509D01*
X39378590Y-83490396D01*
X39285396Y-83583590D01*
X39219509Y-83697709D01*
X39219508Y-83697714D01*
X39185400Y-83825008D01*
X25450900Y-83825008D01*
X25416792Y-83697714D01*
X25416790Y-83697711D01*
X25416790Y-83697709D01*
X25350903Y-83583590D01*
X25350901Y-83583588D01*
X25350900Y-83583586D01*
X25257714Y-83490400D01*
X25257711Y-83490398D01*
X25257709Y-83490396D01*
X25143589Y-83424509D01*
X25143591Y-83424509D01*
X25085671Y-83408990D01*
X25016292Y-83390400D01*
X24884508Y-83390400D01*
X24815129Y-83408990D01*
X24757209Y-83424509D01*
X24643090Y-83490396D01*
X24549896Y-83583590D01*
X24484009Y-83697709D01*
X24484008Y-83697714D01*
X24449900Y-83825008D01*
X8234200Y-83825008D01*
X8200092Y-83697714D01*
X8200090Y-83697711D01*
X8200090Y-83697709D01*
X8134203Y-83583590D01*
X8134201Y-83583588D01*
X8134200Y-83583586D01*
X8041014Y-83490400D01*
X8041011Y-83490398D01*
X8041009Y-83490396D01*
X7926889Y-83424509D01*
X7926891Y-83424509D01*
X7868971Y-83408990D01*
X7799592Y-83390400D01*
X7667808Y-83390400D01*
X7598429Y-83408990D01*
X7540509Y-83424509D01*
X7426390Y-83490396D01*
X7333196Y-83583590D01*
X7267309Y-83697709D01*
X7267308Y-83697714D01*
X7233200Y-83825008D01*
X500500Y-83825008D01*
X500500Y-83149908D01*
X16478000Y-83149908D01*
X16478000Y-83281692D01*
X16507128Y-83390400D01*
X16512109Y-83408990D01*
X16577996Y-83523109D01*
X16577998Y-83523111D01*
X16578000Y-83523114D01*
X16671186Y-83616300D01*
X16671188Y-83616301D01*
X16671190Y-83616303D01*
X16785310Y-83682190D01*
X16785308Y-83682190D01*
X16785312Y-83682191D01*
X16785314Y-83682192D01*
X16912608Y-83716300D01*
X16912610Y-83716300D01*
X17044390Y-83716300D01*
X17044392Y-83716300D01*
X17171686Y-83682192D01*
X17171688Y-83682190D01*
X17171690Y-83682190D01*
X17285809Y-83616303D01*
X17285809Y-83616302D01*
X17285814Y-83616300D01*
X17379000Y-83523114D01*
X17379003Y-83523109D01*
X17444890Y-83408990D01*
X17444890Y-83408988D01*
X17444892Y-83408986D01*
X17479000Y-83281692D01*
X17479000Y-83149908D01*
X17444892Y-83022614D01*
X17444890Y-83022611D01*
X17444890Y-83022609D01*
X17379003Y-82908490D01*
X17379001Y-82908488D01*
X17379000Y-82908486D01*
X17285814Y-82815300D01*
X17285811Y-82815298D01*
X17285809Y-82815296D01*
X17171689Y-82749409D01*
X17171691Y-82749409D01*
X17122299Y-82736175D01*
X17044392Y-82715300D01*
X16912608Y-82715300D01*
X16834700Y-82736175D01*
X16785309Y-82749409D01*
X16671190Y-82815296D01*
X16577996Y-82908490D01*
X16512109Y-83022609D01*
X16512108Y-83022614D01*
X16478000Y-83149908D01*
X500500Y-83149908D01*
X500500Y-82442408D01*
X48923700Y-82442408D01*
X48923700Y-82574192D01*
X48953779Y-82686451D01*
X48957809Y-82701490D01*
X49023696Y-82815609D01*
X49023698Y-82815611D01*
X49023700Y-82815614D01*
X49116886Y-82908800D01*
X49116888Y-82908801D01*
X49116890Y-82908803D01*
X49231010Y-82974690D01*
X49231008Y-82974690D01*
X49231012Y-82974691D01*
X49231014Y-82974692D01*
X49358308Y-83008800D01*
X49358310Y-83008800D01*
X49490090Y-83008800D01*
X49490092Y-83008800D01*
X49617386Y-82974692D01*
X49617388Y-82974690D01*
X49617390Y-82974690D01*
X49731509Y-82908803D01*
X49731509Y-82908802D01*
X49731514Y-82908800D01*
X49824700Y-82815614D01*
X49862924Y-82749408D01*
X49890590Y-82701490D01*
X49890590Y-82701488D01*
X49890592Y-82701486D01*
X49924700Y-82574192D01*
X49924700Y-82442408D01*
X49890592Y-82315114D01*
X49890590Y-82315111D01*
X49890590Y-82315109D01*
X49824703Y-82200990D01*
X49824701Y-82200988D01*
X49824700Y-82200986D01*
X49731514Y-82107800D01*
X49731511Y-82107798D01*
X49731509Y-82107796D01*
X49617389Y-82041909D01*
X49617391Y-82041909D01*
X49567999Y-82028675D01*
X49490092Y-82007800D01*
X49358308Y-82007800D01*
X49280400Y-82028675D01*
X49231009Y-82041909D01*
X49116890Y-82107796D01*
X49023696Y-82200990D01*
X48957809Y-82315109D01*
X48957808Y-82315114D01*
X48923700Y-82442408D01*
X500500Y-82442408D01*
X500500Y-81392008D01*
X14124500Y-81392008D01*
X14124500Y-81523792D01*
X14139349Y-81579208D01*
X14158609Y-81651090D01*
X14224496Y-81765209D01*
X14224498Y-81765211D01*
X14224500Y-81765214D01*
X14317686Y-81858400D01*
X14317688Y-81858401D01*
X14317690Y-81858403D01*
X14431810Y-81924290D01*
X14431808Y-81924290D01*
X14431812Y-81924291D01*
X14431814Y-81924292D01*
X14559108Y-81958400D01*
X14559110Y-81958400D01*
X14690890Y-81958400D01*
X14690892Y-81958400D01*
X14818186Y-81924292D01*
X14818188Y-81924290D01*
X14818190Y-81924290D01*
X14932309Y-81858403D01*
X14932309Y-81858402D01*
X14932314Y-81858400D01*
X15025500Y-81765214D01*
X15056805Y-81710992D01*
X15091390Y-81651090D01*
X15091390Y-81651088D01*
X15091392Y-81651086D01*
X15110651Y-81579208D01*
X16870300Y-81579208D01*
X16870300Y-81710992D01*
X16884829Y-81765214D01*
X16904409Y-81838290D01*
X16970296Y-81952409D01*
X16970298Y-81952411D01*
X16970300Y-81952414D01*
X17063486Y-82045600D01*
X17063488Y-82045601D01*
X17063490Y-82045603D01*
X17177610Y-82111490D01*
X17177608Y-82111490D01*
X17177612Y-82111491D01*
X17177614Y-82111492D01*
X17304908Y-82145600D01*
X17304910Y-82145600D01*
X17436690Y-82145600D01*
X17436692Y-82145600D01*
X17563986Y-82111492D01*
X17563988Y-82111490D01*
X17563990Y-82111490D01*
X17678109Y-82045603D01*
X17678109Y-82045602D01*
X17678114Y-82045600D01*
X17771300Y-81952414D01*
X17787536Y-81924292D01*
X17837190Y-81838290D01*
X17837190Y-81838288D01*
X17837192Y-81838286D01*
X17871300Y-81710992D01*
X17871300Y-81579208D01*
X17867040Y-81563308D01*
X44702800Y-81563308D01*
X44702800Y-81695092D01*
X44721588Y-81765209D01*
X44736909Y-81822390D01*
X44802796Y-81936509D01*
X44802798Y-81936511D01*
X44802800Y-81936514D01*
X44895986Y-82029700D01*
X44895988Y-82029701D01*
X44895990Y-82029703D01*
X45010110Y-82095590D01*
X45010108Y-82095590D01*
X45010112Y-82095591D01*
X45010114Y-82095592D01*
X45137408Y-82129700D01*
X45137410Y-82129700D01*
X45269190Y-82129700D01*
X45269192Y-82129700D01*
X45396486Y-82095592D01*
X45396488Y-82095590D01*
X45396490Y-82095590D01*
X45510609Y-82029703D01*
X45510609Y-82029702D01*
X45510614Y-82029700D01*
X45603800Y-81936514D01*
X45603803Y-81936509D01*
X45669690Y-81822390D01*
X45669690Y-81822388D01*
X45669692Y-81822386D01*
X45703800Y-81695092D01*
X45703800Y-81563308D01*
X45669692Y-81436014D01*
X45669690Y-81436011D01*
X45669690Y-81436009D01*
X45603803Y-81321890D01*
X45603801Y-81321888D01*
X45603800Y-81321886D01*
X45510614Y-81228700D01*
X45510611Y-81228698D01*
X45510609Y-81228696D01*
X45396489Y-81162809D01*
X45396491Y-81162809D01*
X45328532Y-81144600D01*
X45269192Y-81128700D01*
X45137408Y-81128700D01*
X45078068Y-81144600D01*
X45010109Y-81162809D01*
X44895990Y-81228696D01*
X44802796Y-81321890D01*
X44736909Y-81436009D01*
X44717839Y-81507178D01*
X44702800Y-81563308D01*
X17867040Y-81563308D01*
X17837192Y-81451914D01*
X17837190Y-81451911D01*
X17837190Y-81451909D01*
X17771303Y-81337790D01*
X17771301Y-81337788D01*
X17771300Y-81337786D01*
X17678114Y-81244600D01*
X17678111Y-81244598D01*
X17678109Y-81244596D01*
X17563989Y-81178709D01*
X17563991Y-81178709D01*
X17514599Y-81165475D01*
X17436692Y-81144600D01*
X17304908Y-81144600D01*
X17227000Y-81165475D01*
X17177609Y-81178709D01*
X17063490Y-81244596D01*
X16970296Y-81337790D01*
X16904409Y-81451909D01*
X16904408Y-81451914D01*
X16870300Y-81579208D01*
X15110651Y-81579208D01*
X15125500Y-81523792D01*
X15125500Y-81392008D01*
X15091392Y-81264714D01*
X15091390Y-81264711D01*
X15091390Y-81264709D01*
X15025503Y-81150590D01*
X15025501Y-81150588D01*
X15025500Y-81150586D01*
X14932314Y-81057400D01*
X14932311Y-81057398D01*
X14932309Y-81057396D01*
X14818189Y-80991509D01*
X14818191Y-80991509D01*
X14768799Y-80978275D01*
X14690892Y-80957400D01*
X14559108Y-80957400D01*
X14481200Y-80978275D01*
X14431809Y-80991509D01*
X14317690Y-81057396D01*
X14224496Y-81150590D01*
X14158609Y-81264709D01*
X14158608Y-81264714D01*
X14124500Y-81392008D01*
X500500Y-81392008D01*
X500500Y-80666508D01*
X21675500Y-80666508D01*
X21675500Y-80798292D01*
X21705579Y-80910551D01*
X21709609Y-80925590D01*
X21775496Y-81039709D01*
X21775498Y-81039711D01*
X21775500Y-81039714D01*
X21868686Y-81132900D01*
X21868688Y-81132901D01*
X21868690Y-81132903D01*
X21982810Y-81198790D01*
X21982808Y-81198790D01*
X21982812Y-81198791D01*
X21982814Y-81198792D01*
X22110108Y-81232900D01*
X22110110Y-81232900D01*
X22241890Y-81232900D01*
X22241892Y-81232900D01*
X22369186Y-81198792D01*
X22369188Y-81198790D01*
X22369190Y-81198790D01*
X22483309Y-81132903D01*
X22483309Y-81132902D01*
X22483314Y-81132900D01*
X22576500Y-81039714D01*
X22642392Y-80925586D01*
X22676500Y-80798292D01*
X22676500Y-80666508D01*
X22642392Y-80539214D01*
X22642390Y-80539211D01*
X22642390Y-80539209D01*
X22576503Y-80425090D01*
X22576501Y-80425088D01*
X22576500Y-80425086D01*
X22483314Y-80331900D01*
X22483311Y-80331898D01*
X22483309Y-80331896D01*
X22369189Y-80266009D01*
X22369191Y-80266009D01*
X22310137Y-80250186D01*
X22241892Y-80231900D01*
X22110108Y-80231900D01*
X22041863Y-80250186D01*
X21982809Y-80266009D01*
X21868690Y-80331896D01*
X21775496Y-80425090D01*
X21709609Y-80539209D01*
X21709608Y-80539214D01*
X21675500Y-80666508D01*
X500500Y-80666508D01*
X500500Y-79991108D01*
X14413900Y-79991108D01*
X14413900Y-80122892D01*
X14443108Y-80231900D01*
X14448009Y-80250190D01*
X14513896Y-80364309D01*
X14513898Y-80364311D01*
X14513900Y-80364314D01*
X14607086Y-80457500D01*
X14607088Y-80457501D01*
X14607090Y-80457503D01*
X14721210Y-80523390D01*
X14721208Y-80523390D01*
X14721212Y-80523391D01*
X14721214Y-80523392D01*
X14848508Y-80557500D01*
X14848510Y-80557500D01*
X14980290Y-80557500D01*
X14980292Y-80557500D01*
X15107586Y-80523392D01*
X15107588Y-80523390D01*
X15107590Y-80523390D01*
X15221709Y-80457503D01*
X15221709Y-80457502D01*
X15221714Y-80457500D01*
X15314900Y-80364314D01*
X15360402Y-80285503D01*
X15380790Y-80250190D01*
X15380790Y-80250188D01*
X15380792Y-80250186D01*
X15414900Y-80122892D01*
X15414900Y-79991108D01*
X15380792Y-79863814D01*
X15380790Y-79863811D01*
X15380790Y-79863809D01*
X15314903Y-79749690D01*
X15314901Y-79749688D01*
X15314900Y-79749686D01*
X15221714Y-79656500D01*
X15221711Y-79656498D01*
X15221709Y-79656496D01*
X15107589Y-79590609D01*
X15107591Y-79590609D01*
X15058199Y-79577375D01*
X14980292Y-79556500D01*
X14848508Y-79556500D01*
X14770600Y-79577375D01*
X14721209Y-79590609D01*
X14607090Y-79656496D01*
X14513896Y-79749690D01*
X14448009Y-79863809D01*
X14448008Y-79863814D01*
X14413900Y-79991108D01*
X500500Y-79991108D01*
X500500Y-79306208D01*
X15678800Y-79306208D01*
X15678800Y-79437992D01*
X15691261Y-79484496D01*
X15712909Y-79565290D01*
X15778796Y-79679409D01*
X15778798Y-79679411D01*
X15778800Y-79679414D01*
X15871986Y-79772600D01*
X15871988Y-79772601D01*
X15871990Y-79772603D01*
X15986110Y-79838490D01*
X15986108Y-79838490D01*
X15986112Y-79838491D01*
X15986114Y-79838492D01*
X16113408Y-79872600D01*
X16113410Y-79872600D01*
X16245190Y-79872600D01*
X16245192Y-79872600D01*
X16372486Y-79838492D01*
X16372488Y-79838490D01*
X16372490Y-79838490D01*
X16486609Y-79772603D01*
X16486609Y-79772602D01*
X16486614Y-79772600D01*
X16579800Y-79679414D01*
X16579803Y-79679409D01*
X16645690Y-79565290D01*
X16645690Y-79565288D01*
X16645692Y-79565286D01*
X16679800Y-79437992D01*
X16679800Y-79306208D01*
X16645692Y-79178914D01*
X16645690Y-79178911D01*
X16645690Y-79178909D01*
X16579803Y-79064790D01*
X16579801Y-79064788D01*
X16579800Y-79064786D01*
X16486614Y-78971600D01*
X16486611Y-78971598D01*
X16486609Y-78971596D01*
X16372489Y-78905709D01*
X16372491Y-78905709D01*
X16323099Y-78892475D01*
X16245192Y-78871600D01*
X16113408Y-78871600D01*
X16035500Y-78892475D01*
X15986109Y-78905709D01*
X15871990Y-78971596D01*
X15778796Y-79064790D01*
X15712909Y-79178909D01*
X15712908Y-79178914D01*
X15678800Y-79306208D01*
X500500Y-79306208D01*
X500500Y-78157408D01*
X17064200Y-78157408D01*
X17064200Y-78289192D01*
X17089123Y-78382208D01*
X17098309Y-78416490D01*
X17164196Y-78530609D01*
X17164198Y-78530611D01*
X17164200Y-78530614D01*
X17257386Y-78623800D01*
X17257388Y-78623801D01*
X17257390Y-78623803D01*
X17371510Y-78689690D01*
X17371508Y-78689690D01*
X17371512Y-78689691D01*
X17371514Y-78689692D01*
X17498808Y-78723800D01*
X17498810Y-78723800D01*
X17630590Y-78723800D01*
X17630592Y-78723800D01*
X17757886Y-78689692D01*
X17757888Y-78689690D01*
X17757890Y-78689690D01*
X17872009Y-78623803D01*
X17872009Y-78623802D01*
X17872014Y-78623800D01*
X17905706Y-78590108D01*
X20702400Y-78590108D01*
X20702400Y-78721892D01*
X20711381Y-78755409D01*
X20736509Y-78849190D01*
X20802396Y-78963309D01*
X20802398Y-78963311D01*
X20802400Y-78963314D01*
X20895586Y-79056500D01*
X20895588Y-79056501D01*
X20895590Y-79056503D01*
X21009710Y-79122390D01*
X21009708Y-79122390D01*
X21009712Y-79122391D01*
X21009714Y-79122392D01*
X21074835Y-79139841D01*
X21126148Y-79173164D01*
X21148075Y-79230285D01*
X21132240Y-79289386D01*
X21119216Y-79305469D01*
X21104401Y-79320284D01*
X21104396Y-79320290D01*
X21038509Y-79434409D01*
X21038508Y-79434414D01*
X21004400Y-79561708D01*
X21004400Y-79693492D01*
X21019457Y-79749686D01*
X21038509Y-79820790D01*
X21104396Y-79934909D01*
X21104398Y-79934911D01*
X21104400Y-79934914D01*
X21197586Y-80028100D01*
X21197588Y-80028101D01*
X21197590Y-80028103D01*
X21311710Y-80093990D01*
X21311708Y-80093990D01*
X21311712Y-80093991D01*
X21311714Y-80093992D01*
X21439008Y-80128100D01*
X21439010Y-80128100D01*
X21570790Y-80128100D01*
X21570792Y-80128100D01*
X21698086Y-80093992D01*
X21698088Y-80093990D01*
X21698090Y-80093990D01*
X21812209Y-80028103D01*
X21812209Y-80028102D01*
X21812214Y-80028100D01*
X21905400Y-79934914D01*
X21946453Y-79863809D01*
X21971290Y-79820790D01*
X21971290Y-79820788D01*
X21971292Y-79820786D01*
X22005400Y-79693492D01*
X22005400Y-79561708D01*
X22388100Y-79561708D01*
X22388100Y-79693492D01*
X22403157Y-79749686D01*
X22422209Y-79820790D01*
X22488096Y-79934909D01*
X22488098Y-79934911D01*
X22488100Y-79934914D01*
X22581286Y-80028100D01*
X22581288Y-80028101D01*
X22581290Y-80028103D01*
X22695410Y-80093990D01*
X22695408Y-80093990D01*
X22695412Y-80093991D01*
X22695414Y-80093992D01*
X22822708Y-80128100D01*
X22822710Y-80128100D01*
X22954490Y-80128100D01*
X22954492Y-80128100D01*
X23081786Y-80093992D01*
X23081788Y-80093990D01*
X23081790Y-80093990D01*
X23195909Y-80028103D01*
X23195909Y-80028102D01*
X23195914Y-80028100D01*
X23289100Y-79934914D01*
X23354992Y-79820786D01*
X23355442Y-79819108D01*
X28229200Y-79819108D01*
X28229200Y-79950892D01*
X28259279Y-80063151D01*
X28263309Y-80078190D01*
X28329196Y-80192309D01*
X28329198Y-80192311D01*
X28329200Y-80192314D01*
X28422386Y-80285500D01*
X28422388Y-80285501D01*
X28422390Y-80285503D01*
X28536510Y-80351390D01*
X28536508Y-80351390D01*
X28536512Y-80351391D01*
X28536514Y-80351392D01*
X28663808Y-80385500D01*
X28663810Y-80385500D01*
X28795590Y-80385500D01*
X28795592Y-80385500D01*
X28922886Y-80351392D01*
X28922888Y-80351390D01*
X28922890Y-80351390D01*
X29037009Y-80285503D01*
X29037009Y-80285502D01*
X29037014Y-80285500D01*
X29130200Y-80192314D01*
X29170282Y-80122890D01*
X29196090Y-80078190D01*
X29196090Y-80078188D01*
X29196092Y-80078186D01*
X29230200Y-79950892D01*
X29230200Y-79819108D01*
X29196092Y-79691814D01*
X29196090Y-79691811D01*
X29196090Y-79691809D01*
X29130203Y-79577690D01*
X29130201Y-79577688D01*
X29130200Y-79577686D01*
X29037014Y-79484500D01*
X29037011Y-79484498D01*
X29037009Y-79484496D01*
X28922889Y-79418609D01*
X28922891Y-79418609D01*
X28873499Y-79405375D01*
X28795592Y-79384500D01*
X28663808Y-79384500D01*
X28585900Y-79405375D01*
X28536509Y-79418609D01*
X28422390Y-79484496D01*
X28329196Y-79577690D01*
X28263309Y-79691809D01*
X28263308Y-79691814D01*
X28229200Y-79819108D01*
X23355442Y-79819108D01*
X23389100Y-79693492D01*
X23389100Y-79561708D01*
X23354992Y-79434414D01*
X23354990Y-79434411D01*
X23354990Y-79434409D01*
X23289103Y-79320290D01*
X23289101Y-79320288D01*
X23289100Y-79320286D01*
X23195914Y-79227100D01*
X23195911Y-79227098D01*
X23195909Y-79227096D01*
X23081789Y-79161209D01*
X23081791Y-79161209D01*
X23032399Y-79147975D01*
X22954492Y-79127100D01*
X22822708Y-79127100D01*
X22744800Y-79147975D01*
X22695409Y-79161209D01*
X22581290Y-79227096D01*
X22488096Y-79320290D01*
X22422209Y-79434409D01*
X22422208Y-79434414D01*
X22388100Y-79561708D01*
X22005400Y-79561708D01*
X21971292Y-79434414D01*
X21971290Y-79434411D01*
X21971290Y-79434409D01*
X21905403Y-79320290D01*
X21905401Y-79320288D01*
X21905400Y-79320286D01*
X21812214Y-79227100D01*
X21812211Y-79227098D01*
X21812209Y-79227096D01*
X21698091Y-79161210D01*
X21698088Y-79161209D01*
X21698086Y-79161208D01*
X21632963Y-79143758D01*
X21581650Y-79110434D01*
X21559724Y-79053313D01*
X21575560Y-78994212D01*
X21588581Y-78978132D01*
X21603400Y-78963314D01*
X21611895Y-78948600D01*
X21669290Y-78849190D01*
X21669290Y-78849188D01*
X21669292Y-78849186D01*
X21703400Y-78721892D01*
X21703400Y-78590108D01*
X21669292Y-78462814D01*
X21622754Y-78382208D01*
X33116600Y-78382208D01*
X33116600Y-78513992D01*
X33146679Y-78626251D01*
X33150709Y-78641290D01*
X33216596Y-78755409D01*
X33216598Y-78755411D01*
X33216600Y-78755414D01*
X33309786Y-78848600D01*
X33309788Y-78848601D01*
X33309790Y-78848603D01*
X33423910Y-78914490D01*
X33423908Y-78914490D01*
X33423912Y-78914491D01*
X33423914Y-78914492D01*
X33551208Y-78948600D01*
X33551210Y-78948600D01*
X33682990Y-78948600D01*
X33682992Y-78948600D01*
X33810286Y-78914492D01*
X33810288Y-78914490D01*
X33810290Y-78914490D01*
X33924409Y-78848603D01*
X33924409Y-78848602D01*
X33924414Y-78848600D01*
X34017600Y-78755414D01*
X34017603Y-78755409D01*
X34083490Y-78641290D01*
X34083490Y-78641288D01*
X34083492Y-78641286D01*
X34117600Y-78513992D01*
X34117600Y-78382208D01*
X34083492Y-78254914D01*
X34083490Y-78254911D01*
X34083490Y-78254909D01*
X34017603Y-78140790D01*
X34017601Y-78140788D01*
X34017600Y-78140786D01*
X33924414Y-78047600D01*
X33924411Y-78047598D01*
X33924409Y-78047596D01*
X33810289Y-77981709D01*
X33810291Y-77981709D01*
X33757272Y-77967503D01*
X33682992Y-77947600D01*
X33551208Y-77947600D01*
X33476928Y-77967503D01*
X33423909Y-77981709D01*
X33309790Y-78047596D01*
X33216596Y-78140790D01*
X33150709Y-78254909D01*
X33150708Y-78254914D01*
X33116600Y-78382208D01*
X21622754Y-78382208D01*
X21603400Y-78348686D01*
X21510214Y-78255500D01*
X21510211Y-78255498D01*
X21510209Y-78255496D01*
X21396089Y-78189609D01*
X21396091Y-78189609D01*
X21346699Y-78176375D01*
X21268792Y-78155500D01*
X21137008Y-78155500D01*
X21059100Y-78176375D01*
X21009709Y-78189609D01*
X20895590Y-78255496D01*
X20802396Y-78348690D01*
X20736509Y-78462809D01*
X20722795Y-78513992D01*
X20702400Y-78590108D01*
X17905706Y-78590108D01*
X17965200Y-78530614D01*
X18014047Y-78446008D01*
X18031090Y-78416490D01*
X18031090Y-78416488D01*
X18031092Y-78416486D01*
X18065200Y-78289192D01*
X18065200Y-78157408D01*
X18031092Y-78030114D01*
X18031090Y-78030111D01*
X18031090Y-78030109D01*
X17965203Y-77915990D01*
X17965201Y-77915988D01*
X17965200Y-77915986D01*
X17872014Y-77822800D01*
X17872011Y-77822798D01*
X17872009Y-77822796D01*
X17757889Y-77756909D01*
X17757891Y-77756909D01*
X17708499Y-77743675D01*
X17630592Y-77722800D01*
X17498808Y-77722800D01*
X17420900Y-77743675D01*
X17371509Y-77756909D01*
X17257390Y-77822796D01*
X17164196Y-77915990D01*
X17098309Y-78030109D01*
X17080708Y-78095800D01*
X17064200Y-78157408D01*
X500500Y-78157408D01*
X500500Y-76890308D01*
X16258600Y-76890308D01*
X16258600Y-77022092D01*
X16287221Y-77128908D01*
X16292709Y-77149390D01*
X16358596Y-77263509D01*
X16358598Y-77263511D01*
X16358600Y-77263514D01*
X16451786Y-77356700D01*
X16451788Y-77356701D01*
X16451790Y-77356703D01*
X16565910Y-77422590D01*
X16565908Y-77422590D01*
X16565912Y-77422591D01*
X16565914Y-77422592D01*
X16693208Y-77456700D01*
X16693210Y-77456700D01*
X16824990Y-77456700D01*
X16824992Y-77456700D01*
X16952286Y-77422592D01*
X16952288Y-77422590D01*
X16952290Y-77422590D01*
X17066409Y-77356703D01*
X17066409Y-77356702D01*
X17066414Y-77356700D01*
X17159600Y-77263514D01*
X17162375Y-77258708D01*
X18902700Y-77258708D01*
X18902700Y-77390492D01*
X18911301Y-77422590D01*
X18936809Y-77517790D01*
X19002696Y-77631909D01*
X19002698Y-77631911D01*
X19002700Y-77631914D01*
X19095886Y-77725100D01*
X19095888Y-77725101D01*
X19095890Y-77725103D01*
X19210010Y-77790990D01*
X19210008Y-77790990D01*
X19210012Y-77790991D01*
X19210014Y-77790992D01*
X19337308Y-77825100D01*
X19337310Y-77825100D01*
X19469090Y-77825100D01*
X19469092Y-77825100D01*
X19596386Y-77790992D01*
X19596388Y-77790990D01*
X19596390Y-77790990D01*
X19710509Y-77725103D01*
X19710509Y-77725102D01*
X19710514Y-77725100D01*
X19803700Y-77631914D01*
X19803703Y-77631909D01*
X19869590Y-77517790D01*
X19869590Y-77517788D01*
X19869592Y-77517786D01*
X19874061Y-77501108D01*
X27430300Y-77501108D01*
X27430300Y-77632892D01*
X27437883Y-77661192D01*
X27464409Y-77760190D01*
X27530296Y-77874309D01*
X27530298Y-77874311D01*
X27530300Y-77874314D01*
X27623486Y-77967500D01*
X27623488Y-77967501D01*
X27623490Y-77967503D01*
X27737610Y-78033390D01*
X27737608Y-78033390D01*
X27737612Y-78033391D01*
X27737614Y-78033392D01*
X27864908Y-78067500D01*
X27864910Y-78067500D01*
X27996690Y-78067500D01*
X27996692Y-78067500D01*
X28123986Y-78033392D01*
X28123988Y-78033390D01*
X28123990Y-78033390D01*
X28238109Y-77967503D01*
X28238109Y-77967502D01*
X28238114Y-77967500D01*
X28331300Y-77874314D01*
X28379406Y-77790992D01*
X28397190Y-77760190D01*
X28397190Y-77760188D01*
X28397192Y-77760186D01*
X28431300Y-77632892D01*
X28431300Y-77529408D01*
X61717700Y-77529408D01*
X61717700Y-77661192D01*
X61734208Y-77722800D01*
X61751809Y-77788490D01*
X61817696Y-77902609D01*
X61817698Y-77902611D01*
X61817700Y-77902614D01*
X61910886Y-77995800D01*
X61910888Y-77995801D01*
X61910890Y-77995803D01*
X62025010Y-78061690D01*
X62025008Y-78061690D01*
X62025012Y-78061691D01*
X62025014Y-78061692D01*
X62152308Y-78095800D01*
X62152310Y-78095800D01*
X62284090Y-78095800D01*
X62284092Y-78095800D01*
X62411386Y-78061692D01*
X62411388Y-78061690D01*
X62411390Y-78061690D01*
X62525509Y-77995803D01*
X62525509Y-77995802D01*
X62525514Y-77995800D01*
X62618700Y-77902614D01*
X62683145Y-77790992D01*
X62684590Y-77788490D01*
X62684590Y-77788488D01*
X62684592Y-77788486D01*
X62718700Y-77661192D01*
X62718700Y-77529408D01*
X62684592Y-77402114D01*
X62684590Y-77402111D01*
X62684590Y-77402109D01*
X62618703Y-77287990D01*
X62618701Y-77287988D01*
X62618700Y-77287986D01*
X62525514Y-77194800D01*
X62525511Y-77194798D01*
X62525509Y-77194796D01*
X62411389Y-77128909D01*
X62411391Y-77128909D01*
X62361999Y-77115675D01*
X62284092Y-77094800D01*
X62152308Y-77094800D01*
X62074400Y-77115675D01*
X62025009Y-77128909D01*
X61910890Y-77194796D01*
X61817696Y-77287990D01*
X61751809Y-77402109D01*
X61746321Y-77422592D01*
X61717700Y-77529408D01*
X28431300Y-77529408D01*
X28431300Y-77501108D01*
X28397192Y-77373814D01*
X28397190Y-77373811D01*
X28397190Y-77373809D01*
X28331303Y-77259690D01*
X28331301Y-77259688D01*
X28331300Y-77259686D01*
X28238114Y-77166500D01*
X28238111Y-77166498D01*
X28238109Y-77166496D01*
X28123989Y-77100609D01*
X28123991Y-77100609D01*
X28074599Y-77087375D01*
X27996692Y-77066500D01*
X27864908Y-77066500D01*
X27787000Y-77087375D01*
X27737609Y-77100609D01*
X27623490Y-77166496D01*
X27530296Y-77259690D01*
X27464409Y-77373809D01*
X27459939Y-77390491D01*
X27430300Y-77501108D01*
X19874061Y-77501108D01*
X19903700Y-77390492D01*
X19903700Y-77258708D01*
X19869592Y-77131414D01*
X19869590Y-77131411D01*
X19869590Y-77131409D01*
X19803703Y-77017290D01*
X19803701Y-77017288D01*
X19803700Y-77017286D01*
X19710514Y-76924100D01*
X19710511Y-76924098D01*
X19710509Y-76924096D01*
X19596389Y-76858209D01*
X19596391Y-76858209D01*
X19546999Y-76844975D01*
X19469092Y-76824100D01*
X19337308Y-76824100D01*
X19259400Y-76844975D01*
X19210009Y-76858209D01*
X19095890Y-76924096D01*
X19002696Y-77017290D01*
X18936809Y-77131409D01*
X18936808Y-77131414D01*
X18902700Y-77258708D01*
X17162375Y-77258708D01*
X17194701Y-77202719D01*
X17225490Y-77149390D01*
X17225490Y-77149388D01*
X17225492Y-77149386D01*
X17259600Y-77022092D01*
X17259600Y-76890308D01*
X17225492Y-76763014D01*
X17225490Y-76763011D01*
X17225490Y-76763009D01*
X17159603Y-76648890D01*
X17159601Y-76648888D01*
X17159600Y-76648886D01*
X17066414Y-76555700D01*
X17066411Y-76555698D01*
X17066409Y-76555696D01*
X16952289Y-76489809D01*
X16952291Y-76489809D01*
X16902899Y-76476575D01*
X16824992Y-76455700D01*
X16693208Y-76455700D01*
X16615300Y-76476575D01*
X16565909Y-76489809D01*
X16451790Y-76555696D01*
X16358596Y-76648890D01*
X16292709Y-76763009D01*
X16292708Y-76763014D01*
X16258600Y-76890308D01*
X500500Y-76890308D01*
X500500Y-75720708D01*
X14413900Y-75720708D01*
X14413900Y-75852492D01*
X14443979Y-75964751D01*
X14448009Y-75979790D01*
X14513896Y-76093909D01*
X14513898Y-76093911D01*
X14513900Y-76093914D01*
X14607086Y-76187100D01*
X14607088Y-76187101D01*
X14607090Y-76187103D01*
X14721210Y-76252990D01*
X14721208Y-76252990D01*
X14721212Y-76252991D01*
X14721214Y-76252992D01*
X14848508Y-76287100D01*
X14848510Y-76287100D01*
X14980290Y-76287100D01*
X14980292Y-76287100D01*
X15107586Y-76252992D01*
X15107588Y-76252990D01*
X15107590Y-76252990D01*
X15221709Y-76187103D01*
X15221709Y-76187102D01*
X15221714Y-76187100D01*
X15314900Y-76093914D01*
X15380792Y-75979786D01*
X15384162Y-75967208D01*
X17572200Y-75967208D01*
X17572200Y-76098992D01*
X17595808Y-76187100D01*
X17606309Y-76226290D01*
X17672196Y-76340409D01*
X17672198Y-76340411D01*
X17672200Y-76340414D01*
X17765386Y-76433600D01*
X17765388Y-76433601D01*
X17765390Y-76433603D01*
X17879510Y-76499490D01*
X17879508Y-76499490D01*
X17879512Y-76499491D01*
X17879514Y-76499492D01*
X18006808Y-76533600D01*
X18006810Y-76533600D01*
X18138590Y-76533600D01*
X18138592Y-76533600D01*
X18265886Y-76499492D01*
X18265888Y-76499490D01*
X18265890Y-76499490D01*
X18380009Y-76433603D01*
X18380009Y-76433602D01*
X18380014Y-76433600D01*
X18473200Y-76340414D01*
X18503981Y-76287100D01*
X18539090Y-76226290D01*
X18539090Y-76226288D01*
X18539092Y-76226286D01*
X18573200Y-76098992D01*
X18573200Y-75967208D01*
X18539092Y-75839914D01*
X18539090Y-75839911D01*
X18539090Y-75839909D01*
X18473203Y-75725790D01*
X18473201Y-75725788D01*
X18473200Y-75725786D01*
X18380014Y-75632600D01*
X18380011Y-75632598D01*
X18380009Y-75632596D01*
X18265889Y-75566709D01*
X18265891Y-75566709D01*
X18216499Y-75553475D01*
X18138592Y-75532600D01*
X18006808Y-75532600D01*
X17928900Y-75553475D01*
X17879509Y-75566709D01*
X17765390Y-75632596D01*
X17672196Y-75725790D01*
X17606309Y-75839909D01*
X17587239Y-75911078D01*
X17572200Y-75967208D01*
X15384162Y-75967208D01*
X15414900Y-75852492D01*
X15414900Y-75720708D01*
X15380792Y-75593414D01*
X15380790Y-75593411D01*
X15380790Y-75593409D01*
X15314903Y-75479290D01*
X15314901Y-75479288D01*
X15314900Y-75479286D01*
X15221714Y-75386100D01*
X15221711Y-75386098D01*
X15221709Y-75386096D01*
X15107589Y-75320209D01*
X15107591Y-75320209D01*
X15058199Y-75306975D01*
X14980292Y-75286100D01*
X14848508Y-75286100D01*
X14770600Y-75306975D01*
X14721209Y-75320209D01*
X14607090Y-75386096D01*
X14513896Y-75479290D01*
X14448009Y-75593409D01*
X14448008Y-75593414D01*
X14413900Y-75720708D01*
X500500Y-75720708D01*
X500500Y-71934108D01*
X31400300Y-71934108D01*
X31400300Y-72065892D01*
X31430379Y-72178151D01*
X31434409Y-72193190D01*
X31500296Y-72307309D01*
X31500298Y-72307311D01*
X31500300Y-72307314D01*
X31593486Y-72400500D01*
X31593488Y-72400501D01*
X31593490Y-72400503D01*
X31707610Y-72466390D01*
X31707608Y-72466390D01*
X31707612Y-72466391D01*
X31707614Y-72466392D01*
X31834908Y-72500500D01*
X31834910Y-72500500D01*
X31966690Y-72500500D01*
X31966692Y-72500500D01*
X32093986Y-72466392D01*
X32093988Y-72466390D01*
X32093990Y-72466390D01*
X32208109Y-72400503D01*
X32208109Y-72400502D01*
X32208114Y-72400500D01*
X32301300Y-72307314D01*
X32367192Y-72193186D01*
X32401300Y-72065892D01*
X32401300Y-71934108D01*
X32367192Y-71806814D01*
X32367190Y-71806811D01*
X32367190Y-71806809D01*
X32301303Y-71692690D01*
X32301301Y-71692688D01*
X32301300Y-71692686D01*
X32208114Y-71599500D01*
X32208111Y-71599498D01*
X32208109Y-71599496D01*
X32093989Y-71533609D01*
X32093991Y-71533609D01*
X32044599Y-71520375D01*
X31966692Y-71499500D01*
X31834908Y-71499500D01*
X31757000Y-71520375D01*
X31707609Y-71533609D01*
X31593490Y-71599496D01*
X31500296Y-71692690D01*
X31434409Y-71806809D01*
X31434408Y-71806814D01*
X31400300Y-71934108D01*
X500500Y-71934108D01*
X500500Y-70436532D01*
X60949500Y-70436532D01*
X60949500Y-70643467D01*
X60989869Y-70846418D01*
X61069058Y-71037597D01*
X61069059Y-71037598D01*
X61184023Y-71209655D01*
X61330345Y-71355977D01*
X61502402Y-71470941D01*
X61693580Y-71550130D01*
X61896535Y-71590500D01*
X61896536Y-71590500D01*
X62103464Y-71590500D01*
X62103465Y-71590500D01*
X62306420Y-71550130D01*
X62497598Y-71470941D01*
X62669655Y-71355977D01*
X62815977Y-71209655D01*
X62930941Y-71037598D01*
X63010130Y-70846420D01*
X63050500Y-70643465D01*
X63050500Y-70436535D01*
X63010130Y-70233580D01*
X62930941Y-70042402D01*
X62815977Y-69870345D01*
X62669655Y-69724023D01*
X62497598Y-69609059D01*
X62497599Y-69609059D01*
X62497597Y-69609058D01*
X62306418Y-69529869D01*
X62103467Y-69489500D01*
X62103465Y-69489500D01*
X61896535Y-69489500D01*
X61896532Y-69489500D01*
X61693581Y-69529869D01*
X61502402Y-69609058D01*
X61330348Y-69724020D01*
X61184020Y-69870348D01*
X61069058Y-70042402D01*
X60989869Y-70233581D01*
X60949500Y-70436532D01*
X500500Y-70436532D01*
X500500Y-67130253D01*
X60949500Y-67130253D01*
X60949500Y-68869746D01*
X60949501Y-68869758D01*
X60961132Y-68928227D01*
X60961133Y-68928231D01*
X61005448Y-68994552D01*
X61071769Y-69038867D01*
X61116231Y-69047711D01*
X61130241Y-69050498D01*
X61130246Y-69050498D01*
X61130252Y-69050500D01*
X61130253Y-69050500D01*
X62869747Y-69050500D01*
X62869748Y-69050500D01*
X62928231Y-69038867D01*
X62994552Y-68994552D01*
X63038867Y-68928231D01*
X63050500Y-68869748D01*
X63050500Y-67130252D01*
X63038867Y-67071769D01*
X62994552Y-67005448D01*
X62994548Y-67005445D01*
X62928233Y-66961134D01*
X62928231Y-66961133D01*
X62928228Y-66961132D01*
X62928227Y-66961132D01*
X62869758Y-66949501D01*
X62869748Y-66949500D01*
X61130252Y-66949500D01*
X61130251Y-66949500D01*
X61130241Y-66949501D01*
X61071772Y-66961132D01*
X61071766Y-66961134D01*
X61005451Y-67005445D01*
X61005445Y-67005451D01*
X60961134Y-67071766D01*
X60961132Y-67071772D01*
X60949501Y-67130241D01*
X60949500Y-67130253D01*
X500500Y-67130253D01*
X500500Y-61178408D01*
X66419700Y-61178408D01*
X66419700Y-61310192D01*
X66449779Y-61422451D01*
X66453809Y-61437490D01*
X66519696Y-61551609D01*
X66519698Y-61551611D01*
X66519700Y-61551614D01*
X66612886Y-61644800D01*
X66612888Y-61644801D01*
X66612890Y-61644803D01*
X66727010Y-61710690D01*
X66727008Y-61710690D01*
X66727012Y-61710691D01*
X66727014Y-61710692D01*
X66854308Y-61744800D01*
X66854310Y-61744800D01*
X66986090Y-61744800D01*
X66986092Y-61744800D01*
X67113386Y-61710692D01*
X67113388Y-61710690D01*
X67113390Y-61710690D01*
X67227509Y-61644803D01*
X67227509Y-61644802D01*
X67227514Y-61644800D01*
X67320700Y-61551614D01*
X67386592Y-61437486D01*
X67420700Y-61310192D01*
X67420700Y-61178408D01*
X67386592Y-61051114D01*
X67386590Y-61051111D01*
X67386590Y-61051109D01*
X67320703Y-60936990D01*
X67320701Y-60936988D01*
X67320700Y-60936986D01*
X67227514Y-60843800D01*
X67227511Y-60843798D01*
X67227509Y-60843796D01*
X67113389Y-60777909D01*
X67113391Y-60777909D01*
X67063999Y-60764675D01*
X66986092Y-60743800D01*
X66854308Y-60743800D01*
X66776400Y-60764675D01*
X66727009Y-60777909D01*
X66612890Y-60843796D01*
X66519696Y-60936990D01*
X66453809Y-61051109D01*
X66453808Y-61051114D01*
X66419700Y-61178408D01*
X500500Y-61178408D01*
X500500Y-50508708D01*
X47801300Y-50508708D01*
X47801300Y-50640492D01*
X47831379Y-50752751D01*
X47835409Y-50767790D01*
X47901296Y-50881909D01*
X47901298Y-50881911D01*
X47901300Y-50881914D01*
X47994486Y-50975100D01*
X47994488Y-50975101D01*
X47994490Y-50975103D01*
X48108610Y-51040990D01*
X48108608Y-51040990D01*
X48108612Y-51040991D01*
X48108614Y-51040992D01*
X48235908Y-51075100D01*
X48235910Y-51075100D01*
X48367690Y-51075100D01*
X48367692Y-51075100D01*
X48494986Y-51040992D01*
X48494988Y-51040990D01*
X48494990Y-51040990D01*
X48609109Y-50975103D01*
X48609109Y-50975102D01*
X48609114Y-50975100D01*
X48702300Y-50881914D01*
X48768192Y-50767786D01*
X48802300Y-50640492D01*
X48802300Y-50508708D01*
X48768192Y-50381414D01*
X48768190Y-50381411D01*
X48768190Y-50381409D01*
X48702303Y-50267290D01*
X48702301Y-50267288D01*
X48702300Y-50267286D01*
X48609114Y-50174100D01*
X48609111Y-50174098D01*
X48609109Y-50174096D01*
X48494989Y-50108209D01*
X48494991Y-50108209D01*
X48445599Y-50094975D01*
X48367692Y-50074100D01*
X48235908Y-50074100D01*
X48158000Y-50094975D01*
X48108609Y-50108209D01*
X47994490Y-50174096D01*
X47901296Y-50267290D01*
X47835409Y-50381409D01*
X47835408Y-50381414D01*
X47801300Y-50508708D01*
X500500Y-50508708D01*
X500500Y-48459808D01*
X6767300Y-48459808D01*
X6767300Y-48591592D01*
X6797379Y-48703851D01*
X6801409Y-48718890D01*
X6867296Y-48833009D01*
X6867298Y-48833011D01*
X6867300Y-48833014D01*
X6960486Y-48926200D01*
X6960488Y-48926201D01*
X6960490Y-48926203D01*
X7074610Y-48992090D01*
X7074608Y-48992090D01*
X7074612Y-48992091D01*
X7074614Y-48992092D01*
X7201908Y-49026200D01*
X7201910Y-49026200D01*
X7333690Y-49026200D01*
X7333692Y-49026200D01*
X7460986Y-48992092D01*
X7460988Y-48992090D01*
X7460990Y-48992090D01*
X7575109Y-48926203D01*
X7575109Y-48926202D01*
X7575114Y-48926200D01*
X7668300Y-48833014D01*
X7734192Y-48718886D01*
X7768300Y-48591592D01*
X7768300Y-48459808D01*
X7734192Y-48332514D01*
X7734190Y-48332511D01*
X7734190Y-48332509D01*
X7668303Y-48218390D01*
X7668301Y-48218388D01*
X7668300Y-48218386D01*
X7575114Y-48125200D01*
X7575111Y-48125198D01*
X7575109Y-48125196D01*
X7460989Y-48059309D01*
X7460991Y-48059309D01*
X7411599Y-48046075D01*
X7333692Y-48025200D01*
X7201908Y-48025200D01*
X7124000Y-48046075D01*
X7074609Y-48059309D01*
X6960490Y-48125196D01*
X6867296Y-48218390D01*
X6801409Y-48332509D01*
X6801408Y-48332514D01*
X6767300Y-48459808D01*
X500500Y-48459808D01*
X500500Y-45512708D01*
X9714400Y-45512708D01*
X9714400Y-45644492D01*
X9744479Y-45756751D01*
X9748509Y-45771790D01*
X9814396Y-45885909D01*
X9814398Y-45885911D01*
X9814400Y-45885914D01*
X9907586Y-45979100D01*
X9907588Y-45979101D01*
X9907590Y-45979103D01*
X10021710Y-46044990D01*
X10021708Y-46044990D01*
X10021712Y-46044991D01*
X10021714Y-46044992D01*
X10149008Y-46079100D01*
X10149010Y-46079100D01*
X10280790Y-46079100D01*
X10280792Y-46079100D01*
X10408086Y-46044992D01*
X10408088Y-46044990D01*
X10408090Y-46044990D01*
X10522209Y-45979103D01*
X10522209Y-45979102D01*
X10522214Y-45979100D01*
X10615400Y-45885914D01*
X10681292Y-45771786D01*
X10715400Y-45644492D01*
X10715400Y-45512708D01*
X10681292Y-45385414D01*
X10681290Y-45385411D01*
X10681290Y-45385409D01*
X10615403Y-45271290D01*
X10615401Y-45271288D01*
X10615400Y-45271286D01*
X10522214Y-45178100D01*
X10522211Y-45178098D01*
X10522209Y-45178096D01*
X10408089Y-45112209D01*
X10408091Y-45112209D01*
X10358699Y-45098975D01*
X10280792Y-45078100D01*
X10149008Y-45078100D01*
X10071100Y-45098975D01*
X10021709Y-45112209D01*
X9907590Y-45178096D01*
X9814396Y-45271290D01*
X9748509Y-45385409D01*
X9748508Y-45385414D01*
X9714400Y-45512708D01*
X500500Y-45512708D01*
X500500Y-44974608D01*
X33829300Y-44974608D01*
X33829300Y-45106392D01*
X33830859Y-45112209D01*
X33863409Y-45233690D01*
X33929296Y-45347809D01*
X33929298Y-45347811D01*
X33929300Y-45347814D01*
X34022486Y-45441000D01*
X34022488Y-45441001D01*
X34022490Y-45441003D01*
X34136610Y-45506890D01*
X34136608Y-45506890D01*
X34136612Y-45506891D01*
X34136614Y-45506892D01*
X34263908Y-45541000D01*
X34263910Y-45541000D01*
X34395690Y-45541000D01*
X34395692Y-45541000D01*
X34522986Y-45506892D01*
X34522988Y-45506890D01*
X34522990Y-45506890D01*
X34637109Y-45441003D01*
X34637109Y-45441002D01*
X34637114Y-45441000D01*
X34730300Y-45347814D01*
X34730303Y-45347809D01*
X34796190Y-45233690D01*
X34796190Y-45233688D01*
X34796192Y-45233686D01*
X34830300Y-45106392D01*
X34830300Y-44974608D01*
X34796192Y-44847314D01*
X34796190Y-44847311D01*
X34796190Y-44847309D01*
X34730303Y-44733190D01*
X34730301Y-44733188D01*
X34730300Y-44733186D01*
X34637114Y-44640000D01*
X34637111Y-44639998D01*
X34637109Y-44639996D01*
X34522989Y-44574109D01*
X34522991Y-44574109D01*
X34473599Y-44560875D01*
X34395692Y-44540000D01*
X34263908Y-44540000D01*
X34186000Y-44560875D01*
X34136609Y-44574109D01*
X34022490Y-44639996D01*
X33929296Y-44733190D01*
X33863409Y-44847309D01*
X33863408Y-44847314D01*
X33829300Y-44974608D01*
X500500Y-44974608D01*
X500500Y-43725408D01*
X51899500Y-43725408D01*
X51899500Y-43857192D01*
X51929579Y-43969451D01*
X51933609Y-43984490D01*
X51999496Y-44098609D01*
X51999498Y-44098611D01*
X51999500Y-44098614D01*
X52092686Y-44191800D01*
X52092688Y-44191801D01*
X52092690Y-44191803D01*
X52206810Y-44257690D01*
X52206808Y-44257690D01*
X52206812Y-44257691D01*
X52206814Y-44257692D01*
X52334108Y-44291800D01*
X52334110Y-44291800D01*
X52465890Y-44291800D01*
X52465892Y-44291800D01*
X52593186Y-44257692D01*
X52593188Y-44257690D01*
X52593190Y-44257690D01*
X52707309Y-44191803D01*
X52707309Y-44191802D01*
X52707314Y-44191800D01*
X52800500Y-44098614D01*
X52866392Y-43984486D01*
X52900500Y-43857192D01*
X52900500Y-43725408D01*
X52866392Y-43598114D01*
X52866390Y-43598111D01*
X52866390Y-43598109D01*
X52800503Y-43483990D01*
X52800501Y-43483988D01*
X52800500Y-43483986D01*
X52707314Y-43390800D01*
X52707311Y-43390798D01*
X52593187Y-43324908D01*
X52543549Y-43311608D01*
X74550600Y-43311608D01*
X74550600Y-43443392D01*
X74561477Y-43483986D01*
X74584709Y-43570690D01*
X74650596Y-43684809D01*
X74650598Y-43684811D01*
X74650600Y-43684814D01*
X74743786Y-43778000D01*
X74743788Y-43778001D01*
X74743790Y-43778003D01*
X74857910Y-43843890D01*
X74857908Y-43843890D01*
X74857912Y-43843891D01*
X74857914Y-43843892D01*
X74985208Y-43878000D01*
X74985210Y-43878000D01*
X75116990Y-43878000D01*
X75116992Y-43878000D01*
X75244286Y-43843892D01*
X75244288Y-43843890D01*
X75244290Y-43843890D01*
X75358409Y-43778003D01*
X75358409Y-43778002D01*
X75358414Y-43778000D01*
X75451600Y-43684814D01*
X75451603Y-43684809D01*
X75517490Y-43570690D01*
X75517490Y-43570688D01*
X75517492Y-43570686D01*
X75551600Y-43443392D01*
X75551600Y-43311608D01*
X75517492Y-43184314D01*
X75517490Y-43184311D01*
X75517490Y-43184309D01*
X75451603Y-43070190D01*
X75451601Y-43070188D01*
X75451600Y-43070186D01*
X75358414Y-42977000D01*
X75358411Y-42976998D01*
X75358409Y-42976996D01*
X75244289Y-42911109D01*
X75244291Y-42911109D01*
X75194899Y-42897875D01*
X75116992Y-42877000D01*
X74985208Y-42877000D01*
X74907300Y-42897875D01*
X74857909Y-42911109D01*
X74743790Y-42976996D01*
X74650596Y-43070190D01*
X74584709Y-43184309D01*
X74584708Y-43184314D01*
X74550600Y-43311608D01*
X52543549Y-43311608D01*
X52465892Y-43290800D01*
X52334108Y-43290800D01*
X52256451Y-43311608D01*
X52206809Y-43324909D01*
X52092690Y-43390796D01*
X51999496Y-43483990D01*
X51933609Y-43598109D01*
X51933608Y-43598114D01*
X51899500Y-43725408D01*
X500500Y-43725408D01*
X500500Y-42151808D01*
X39579200Y-42151808D01*
X39579200Y-42283592D01*
X39609279Y-42395851D01*
X39613309Y-42410890D01*
X39679196Y-42525009D01*
X39679198Y-42525011D01*
X39679200Y-42525014D01*
X39772386Y-42618200D01*
X39772388Y-42618201D01*
X39772390Y-42618203D01*
X39886510Y-42684090D01*
X39886508Y-42684090D01*
X39886512Y-42684091D01*
X39886514Y-42684092D01*
X40013808Y-42718200D01*
X40013810Y-42718200D01*
X40145590Y-42718200D01*
X40145592Y-42718200D01*
X40272886Y-42684092D01*
X40272888Y-42684090D01*
X40272890Y-42684090D01*
X40387009Y-42618203D01*
X40387009Y-42618202D01*
X40387014Y-42618200D01*
X40480200Y-42525014D01*
X40546092Y-42410886D01*
X40580200Y-42283592D01*
X40580200Y-42151808D01*
X40546092Y-42024514D01*
X40546090Y-42024511D01*
X40546090Y-42024509D01*
X40480203Y-41910390D01*
X40480201Y-41910388D01*
X40480200Y-41910386D01*
X40387014Y-41817200D01*
X40387011Y-41817198D01*
X40387009Y-41817196D01*
X40272889Y-41751309D01*
X40272891Y-41751309D01*
X40223499Y-41738075D01*
X40145592Y-41717200D01*
X40013808Y-41717200D01*
X39935900Y-41738075D01*
X39886509Y-41751309D01*
X39772390Y-41817196D01*
X39679196Y-41910390D01*
X39613309Y-42024509D01*
X39613308Y-42024514D01*
X39579200Y-42151808D01*
X500500Y-42151808D01*
X500500Y-40563108D01*
X62817600Y-40563108D01*
X62817600Y-40694892D01*
X62824299Y-40719892D01*
X62851709Y-40822190D01*
X62917596Y-40936309D01*
X62917598Y-40936311D01*
X62917600Y-40936314D01*
X63010786Y-41029500D01*
X63010788Y-41029501D01*
X63010790Y-41029503D01*
X63124910Y-41095390D01*
X63124908Y-41095390D01*
X63124912Y-41095391D01*
X63124914Y-41095392D01*
X63252208Y-41129500D01*
X63252210Y-41129500D01*
X63383990Y-41129500D01*
X63383992Y-41129500D01*
X63511286Y-41095392D01*
X63511288Y-41095390D01*
X63511290Y-41095390D01*
X63625409Y-41029503D01*
X63625409Y-41029502D01*
X63625414Y-41029500D01*
X63718600Y-40936314D01*
X63784492Y-40822186D01*
X63818600Y-40694892D01*
X63818600Y-40588108D01*
X79935400Y-40588108D01*
X79935400Y-40719892D01*
X79962809Y-40822186D01*
X79969509Y-40847190D01*
X80035396Y-40961309D01*
X80035398Y-40961311D01*
X80035400Y-40961314D01*
X80128586Y-41054500D01*
X80128588Y-41054501D01*
X80128590Y-41054503D01*
X80242710Y-41120390D01*
X80242708Y-41120390D01*
X80242712Y-41120391D01*
X80242714Y-41120392D01*
X80370008Y-41154500D01*
X80370010Y-41154500D01*
X80501790Y-41154500D01*
X80501792Y-41154500D01*
X80629086Y-41120392D01*
X80629088Y-41120390D01*
X80629090Y-41120390D01*
X80743209Y-41054503D01*
X80743209Y-41054502D01*
X80743214Y-41054500D01*
X80836400Y-40961314D01*
X80902292Y-40847186D01*
X80936400Y-40719892D01*
X80936400Y-40588108D01*
X80902292Y-40460814D01*
X80902290Y-40460811D01*
X80902290Y-40460809D01*
X80836403Y-40346690D01*
X80836401Y-40346688D01*
X80836400Y-40346686D01*
X80743214Y-40253500D01*
X80743211Y-40253498D01*
X80743209Y-40253496D01*
X80629089Y-40187609D01*
X80629091Y-40187609D01*
X80579699Y-40174375D01*
X80501792Y-40153500D01*
X80370008Y-40153500D01*
X80292100Y-40174375D01*
X80242709Y-40187609D01*
X80128590Y-40253496D01*
X80035396Y-40346690D01*
X79969509Y-40460809D01*
X79969508Y-40460814D01*
X79935400Y-40588108D01*
X63818600Y-40588108D01*
X63818600Y-40563108D01*
X63784492Y-40435814D01*
X63784490Y-40435811D01*
X63784490Y-40435809D01*
X63718603Y-40321690D01*
X63718601Y-40321688D01*
X63718600Y-40321686D01*
X63625414Y-40228500D01*
X63625411Y-40228498D01*
X63625409Y-40228496D01*
X63511289Y-40162609D01*
X63511291Y-40162609D01*
X63461899Y-40149375D01*
X63383992Y-40128500D01*
X63252208Y-40128500D01*
X63174300Y-40149375D01*
X63124909Y-40162609D01*
X63010790Y-40228496D01*
X62917596Y-40321690D01*
X62851709Y-40435809D01*
X62845009Y-40460814D01*
X62817600Y-40563108D01*
X500500Y-40563108D01*
X500500Y-38595208D01*
X52038400Y-38595208D01*
X52038400Y-38726992D01*
X52068479Y-38839251D01*
X52072509Y-38854290D01*
X52138396Y-38968409D01*
X52138398Y-38968411D01*
X52138400Y-38968414D01*
X52231586Y-39061600D01*
X52231588Y-39061601D01*
X52231590Y-39061603D01*
X52345710Y-39127490D01*
X52345708Y-39127490D01*
X52345712Y-39127491D01*
X52345714Y-39127492D01*
X52473008Y-39161600D01*
X52473010Y-39161600D01*
X52604790Y-39161600D01*
X52604792Y-39161600D01*
X52732086Y-39127492D01*
X52732088Y-39127490D01*
X52732090Y-39127490D01*
X52846209Y-39061603D01*
X52846209Y-39061602D01*
X52846214Y-39061600D01*
X52939400Y-38968414D01*
X52950031Y-38950000D01*
X94485000Y-38950000D01*
X94485001Y-38950000D01*
X96574999Y-38950000D01*
X96575000Y-38950000D01*
X96575000Y-37050000D01*
X94485000Y-37050000D01*
X94485000Y-38950000D01*
X52950031Y-38950000D01*
X53005292Y-38854286D01*
X53039400Y-38726992D01*
X53039400Y-38595208D01*
X53005292Y-38467914D01*
X53005290Y-38467911D01*
X53005290Y-38467909D01*
X52939403Y-38353790D01*
X52939401Y-38353788D01*
X52939400Y-38353786D01*
X52846214Y-38260600D01*
X52846211Y-38260598D01*
X52846209Y-38260596D01*
X52732089Y-38194709D01*
X52732091Y-38194709D01*
X52682699Y-38181475D01*
X52604792Y-38160600D01*
X52473008Y-38160600D01*
X52395100Y-38181475D01*
X52345709Y-38194709D01*
X52231590Y-38260596D01*
X52138396Y-38353790D01*
X52072509Y-38467909D01*
X52072508Y-38467914D01*
X52038400Y-38595208D01*
X500500Y-38595208D01*
X500500Y-37214508D01*
X73588300Y-37214508D01*
X73588300Y-37346292D01*
X73618379Y-37458551D01*
X73622409Y-37473590D01*
X73688296Y-37587709D01*
X73688298Y-37587711D01*
X73688300Y-37587714D01*
X73781486Y-37680900D01*
X73781488Y-37680901D01*
X73781490Y-37680903D01*
X73895610Y-37746790D01*
X73895608Y-37746790D01*
X73895612Y-37746791D01*
X73895614Y-37746792D01*
X74022908Y-37780900D01*
X74022910Y-37780900D01*
X74154690Y-37780900D01*
X74154692Y-37780900D01*
X74281986Y-37746792D01*
X74281988Y-37746790D01*
X74281990Y-37746790D01*
X74396109Y-37680903D01*
X74396109Y-37680902D01*
X74396114Y-37680900D01*
X74489300Y-37587714D01*
X74555192Y-37473586D01*
X74589300Y-37346292D01*
X74589300Y-37214508D01*
X74555192Y-37087214D01*
X74555190Y-37087211D01*
X74555190Y-37087209D01*
X74489303Y-36973090D01*
X74489301Y-36973088D01*
X74489300Y-36973086D01*
X74396114Y-36879900D01*
X74396111Y-36879898D01*
X74396109Y-36879896D01*
X74281989Y-36814009D01*
X74281991Y-36814009D01*
X74232599Y-36800775D01*
X74154692Y-36779900D01*
X74022908Y-36779900D01*
X73945000Y-36800775D01*
X73895609Y-36814009D01*
X73781490Y-36879896D01*
X73688296Y-36973090D01*
X73622409Y-37087209D01*
X73622408Y-37087214D01*
X73588300Y-37214508D01*
X500500Y-37214508D01*
X500500Y-36370708D01*
X91898400Y-36370708D01*
X91898400Y-36502492D01*
X91928479Y-36614751D01*
X91932509Y-36629790D01*
X91998396Y-36743909D01*
X91998398Y-36743911D01*
X91998400Y-36743914D01*
X92091586Y-36837100D01*
X92091588Y-36837101D01*
X92091590Y-36837103D01*
X92205710Y-36902990D01*
X92205708Y-36902990D01*
X92205712Y-36902991D01*
X92205714Y-36902992D01*
X92333008Y-36937100D01*
X92333010Y-36937100D01*
X92464790Y-36937100D01*
X92464792Y-36937100D01*
X92592086Y-36902992D01*
X92592088Y-36902990D01*
X92592090Y-36902990D01*
X92706209Y-36837103D01*
X92706209Y-36837102D01*
X92706214Y-36837100D01*
X92799400Y-36743914D01*
X92865292Y-36629786D01*
X92899400Y-36502492D01*
X92899400Y-36370708D01*
X92865292Y-36243414D01*
X92865290Y-36243411D01*
X92865290Y-36243409D01*
X92799403Y-36129290D01*
X92799401Y-36129288D01*
X92799400Y-36129286D01*
X92706214Y-36036100D01*
X92706211Y-36036098D01*
X92706209Y-36036096D01*
X92592089Y-35970209D01*
X92592091Y-35970209D01*
X92542699Y-35956975D01*
X92464792Y-35936100D01*
X92333008Y-35936100D01*
X92255100Y-35956975D01*
X92205709Y-35970209D01*
X92091590Y-36036096D01*
X91998396Y-36129290D01*
X91932509Y-36243409D01*
X91932508Y-36243414D01*
X91898400Y-36370708D01*
X500500Y-36370708D01*
X500500Y-35741008D01*
X80444800Y-35741008D01*
X80444800Y-35872792D01*
X80461763Y-35936100D01*
X80478909Y-36000090D01*
X80544796Y-36114209D01*
X80544798Y-36114211D01*
X80544800Y-36114214D01*
X80637986Y-36207400D01*
X80637988Y-36207401D01*
X80637990Y-36207403D01*
X80752110Y-36273290D01*
X80752108Y-36273290D01*
X80752112Y-36273291D01*
X80752114Y-36273292D01*
X80879408Y-36307400D01*
X80879410Y-36307400D01*
X81011190Y-36307400D01*
X81011192Y-36307400D01*
X81138486Y-36273292D01*
X81138488Y-36273290D01*
X81138490Y-36273290D01*
X81252609Y-36207403D01*
X81252609Y-36207402D01*
X81252614Y-36207400D01*
X81345800Y-36114214D01*
X81345803Y-36114209D01*
X81411690Y-36000090D01*
X81411690Y-36000088D01*
X81411692Y-36000086D01*
X81445800Y-35872792D01*
X81445800Y-35741008D01*
X81411692Y-35613714D01*
X81411690Y-35613711D01*
X81411690Y-35613709D01*
X81345803Y-35499590D01*
X81345801Y-35499588D01*
X81345800Y-35499586D01*
X81252614Y-35406400D01*
X81252611Y-35406398D01*
X81252609Y-35406396D01*
X81138489Y-35340509D01*
X81138491Y-35340509D01*
X81089099Y-35327275D01*
X81011192Y-35306400D01*
X80879408Y-35306400D01*
X80801500Y-35327275D01*
X80752109Y-35340509D01*
X80637990Y-35406396D01*
X80544796Y-35499590D01*
X80478909Y-35613709D01*
X80478908Y-35613714D01*
X80444800Y-35741008D01*
X500500Y-35741008D01*
X500500Y-33130253D01*
X5949500Y-33130253D01*
X5949500Y-34869746D01*
X5949501Y-34869758D01*
X5961132Y-34928227D01*
X5961134Y-34928233D01*
X6005445Y-34994548D01*
X6005448Y-34994552D01*
X6071769Y-35038867D01*
X6116231Y-35047711D01*
X6130241Y-35050498D01*
X6130246Y-35050498D01*
X6130252Y-35050500D01*
X6130253Y-35050500D01*
X7869747Y-35050500D01*
X7869748Y-35050500D01*
X7928231Y-35038867D01*
X7994552Y-34994552D01*
X8038867Y-34928231D01*
X8050500Y-34869748D01*
X8050500Y-34409543D01*
X8069407Y-34351352D01*
X8118907Y-34315388D01*
X8180093Y-34315388D01*
X8229593Y-34351352D01*
X8243655Y-34378951D01*
X8288903Y-34518213D01*
X8385376Y-34707553D01*
X8385380Y-34707559D01*
X8424728Y-34761716D01*
X8424729Y-34761716D01*
X9057037Y-34129407D01*
X9074075Y-34192993D01*
X9139901Y-34307007D01*
X9232993Y-34400099D01*
X9347007Y-34465925D01*
X9410589Y-34482962D01*
X8778282Y-35115269D01*
X8778282Y-35115270D01*
X8832440Y-35154619D01*
X8832446Y-35154623D01*
X9021784Y-35251095D01*
X9223878Y-35316759D01*
X9433750Y-35350000D01*
X9646250Y-35350000D01*
X9856121Y-35316759D01*
X10058215Y-35251095D01*
X10247556Y-35154620D01*
X10301716Y-35115270D01*
X9669408Y-34482962D01*
X9732993Y-34465925D01*
X9847007Y-34400099D01*
X9940099Y-34307007D01*
X10005925Y-34192993D01*
X10022962Y-34129408D01*
X10655270Y-34761716D01*
X10694620Y-34707556D01*
X10791095Y-34518215D01*
X10856759Y-34316121D01*
X10865359Y-34261823D01*
X10893136Y-34207307D01*
X10947653Y-34179529D01*
X11008085Y-34189100D01*
X11051349Y-34232365D01*
X11060238Y-34257996D01*
X11069869Y-34306418D01*
X11149058Y-34497597D01*
X11264020Y-34669651D01*
X11264023Y-34669655D01*
X11410345Y-34815977D01*
X11582402Y-34930941D01*
X11773580Y-35010130D01*
X11976535Y-35050500D01*
X11976536Y-35050500D01*
X12183464Y-35050500D01*
X12183465Y-35050500D01*
X12386420Y-35010130D01*
X12577598Y-34930941D01*
X12749655Y-34815977D01*
X12895977Y-34669655D01*
X13010941Y-34497598D01*
X13090130Y-34306420D01*
X13130500Y-34103465D01*
X13130500Y-33951108D01*
X13351700Y-33951108D01*
X13351700Y-34082892D01*
X13357213Y-34103467D01*
X13385809Y-34210190D01*
X13451696Y-34324309D01*
X13451698Y-34324311D01*
X13451700Y-34324314D01*
X13544886Y-34417500D01*
X13544888Y-34417501D01*
X13544890Y-34417503D01*
X13659010Y-34483390D01*
X13659008Y-34483390D01*
X13659012Y-34483391D01*
X13659014Y-34483392D01*
X13786308Y-34517500D01*
X13786310Y-34517500D01*
X13918090Y-34517500D01*
X13918092Y-34517500D01*
X14045386Y-34483392D01*
X14045388Y-34483390D01*
X14045390Y-34483390D01*
X14159509Y-34417503D01*
X14159509Y-34417502D01*
X14159514Y-34417500D01*
X14252700Y-34324314D01*
X14257430Y-34316121D01*
X14318590Y-34210190D01*
X14318590Y-34210188D01*
X14318592Y-34210186D01*
X14352700Y-34082892D01*
X14352700Y-33951108D01*
X14318592Y-33823814D01*
X14318590Y-33823811D01*
X14318590Y-33823809D01*
X14252703Y-33709690D01*
X14252701Y-33709688D01*
X14252700Y-33709686D01*
X14159514Y-33616500D01*
X14159511Y-33616498D01*
X14159509Y-33616496D01*
X14045389Y-33550609D01*
X14045391Y-33550609D01*
X13983683Y-33534075D01*
X13918092Y-33516500D01*
X13786308Y-33516500D01*
X13720717Y-33534075D01*
X13659009Y-33550609D01*
X13544890Y-33616496D01*
X13451696Y-33709690D01*
X13385809Y-33823809D01*
X13385808Y-33823814D01*
X13351700Y-33951108D01*
X13130500Y-33951108D01*
X13130500Y-33896535D01*
X13090130Y-33693580D01*
X13010941Y-33502402D01*
X12895977Y-33330345D01*
X12759640Y-33194008D01*
X48175100Y-33194008D01*
X48175100Y-33325792D01*
X48176320Y-33330345D01*
X48209209Y-33453090D01*
X48275096Y-33567209D01*
X48275098Y-33567211D01*
X48275100Y-33567214D01*
X48368286Y-33660400D01*
X48368288Y-33660401D01*
X48368290Y-33660403D01*
X48482410Y-33726290D01*
X48482408Y-33726290D01*
X48482412Y-33726291D01*
X48482414Y-33726292D01*
X48609708Y-33760400D01*
X48609710Y-33760400D01*
X48741490Y-33760400D01*
X48741492Y-33760400D01*
X48868786Y-33726292D01*
X48868788Y-33726290D01*
X48868790Y-33726290D01*
X48982909Y-33660403D01*
X48982909Y-33660402D01*
X48982914Y-33660400D01*
X49076100Y-33567214D01*
X49105380Y-33516500D01*
X49141990Y-33453090D01*
X49141990Y-33453088D01*
X49141992Y-33453086D01*
X49176100Y-33325792D01*
X49176100Y-33194008D01*
X49141992Y-33066714D01*
X49141990Y-33066711D01*
X49141990Y-33066709D01*
X49076103Y-32952590D01*
X49076101Y-32952588D01*
X49076100Y-32952586D01*
X48982914Y-32859400D01*
X48982911Y-32859398D01*
X48982909Y-32859396D01*
X48868789Y-32793509D01*
X48868791Y-32793509D01*
X48819399Y-32780275D01*
X48741492Y-32759400D01*
X48609708Y-32759400D01*
X48531800Y-32780275D01*
X48482409Y-32793509D01*
X48368290Y-32859396D01*
X48275096Y-32952590D01*
X48209209Y-33066709D01*
X48192186Y-33130241D01*
X48175100Y-33194008D01*
X12759640Y-33194008D01*
X12749655Y-33184023D01*
X12669182Y-33130253D01*
X12577597Y-33069058D01*
X12386418Y-32989869D01*
X12183467Y-32949500D01*
X12183465Y-32949500D01*
X11976535Y-32949500D01*
X11976532Y-32949500D01*
X11773581Y-32989869D01*
X11582402Y-33069058D01*
X11410348Y-33184020D01*
X11264020Y-33330348D01*
X11149058Y-33502402D01*
X11069869Y-33693581D01*
X11060238Y-33742003D01*
X11030341Y-33795387D01*
X10974776Y-33821003D01*
X10914766Y-33809066D01*
X10873234Y-33764136D01*
X10865359Y-33738176D01*
X10856759Y-33683878D01*
X10791095Y-33481784D01*
X10694623Y-33292446D01*
X10694619Y-33292440D01*
X10655270Y-33238282D01*
X10655269Y-33238282D01*
X10022962Y-33870589D01*
X10005925Y-33807007D01*
X9940099Y-33692993D01*
X9847007Y-33599901D01*
X9732993Y-33534075D01*
X9669407Y-33517037D01*
X10301716Y-32884729D01*
X10301716Y-32884728D01*
X10247559Y-32845380D01*
X10247553Y-32845376D01*
X10058215Y-32748904D01*
X9856121Y-32683240D01*
X9646250Y-32650000D01*
X9433750Y-32650000D01*
X9223878Y-32683240D01*
X9021784Y-32748904D01*
X8832446Y-32845376D01*
X8832442Y-32845378D01*
X8778282Y-32884728D01*
X9410591Y-33517037D01*
X9347007Y-33534075D01*
X9232993Y-33599901D01*
X9139901Y-33692993D01*
X9074075Y-33807007D01*
X9057037Y-33870591D01*
X8424728Y-33238282D01*
X8385378Y-33292442D01*
X8385376Y-33292446D01*
X8288904Y-33481784D01*
X8243655Y-33621049D01*
X8207691Y-33670549D01*
X8149500Y-33689456D01*
X8091309Y-33670549D01*
X8055345Y-33621049D01*
X8050500Y-33590456D01*
X8050500Y-33130253D01*
X8050498Y-33130241D01*
X8047711Y-33116231D01*
X8038867Y-33071769D01*
X7994552Y-33005448D01*
X7993542Y-33004773D01*
X7928233Y-32961134D01*
X7928231Y-32961133D01*
X7928228Y-32961132D01*
X7928227Y-32961132D01*
X7869758Y-32949501D01*
X7869748Y-32949500D01*
X6130252Y-32949500D01*
X6130251Y-32949500D01*
X6130241Y-32949501D01*
X6071772Y-32961132D01*
X6071766Y-32961134D01*
X6005451Y-33005445D01*
X6005445Y-33005451D01*
X5961134Y-33071766D01*
X5961132Y-33071772D01*
X5949501Y-33130241D01*
X5949500Y-33130253D01*
X500500Y-33130253D01*
X500500Y-30950000D01*
X94485000Y-30950000D01*
X94485001Y-30950000D01*
X96574999Y-30950000D01*
X96575000Y-30950000D01*
X96575000Y-29050000D01*
X94485000Y-29050000D01*
X94485000Y-30950000D01*
X500500Y-30950000D01*
X500500Y-29268908D01*
X39579200Y-29268908D01*
X39579200Y-29400692D01*
X39609279Y-29512951D01*
X39613309Y-29527990D01*
X39679196Y-29642109D01*
X39679198Y-29642111D01*
X39679200Y-29642114D01*
X39772386Y-29735300D01*
X39772388Y-29735301D01*
X39772390Y-29735303D01*
X39886510Y-29801190D01*
X39886508Y-29801190D01*
X39886512Y-29801191D01*
X39886514Y-29801192D01*
X40013808Y-29835300D01*
X40013810Y-29835300D01*
X40145590Y-29835300D01*
X40145592Y-29835300D01*
X40272886Y-29801192D01*
X40272888Y-29801190D01*
X40272890Y-29801190D01*
X40387009Y-29735303D01*
X40387009Y-29735302D01*
X40387014Y-29735300D01*
X40480200Y-29642114D01*
X40546092Y-29527986D01*
X40580200Y-29400692D01*
X40580200Y-29268908D01*
X40546092Y-29141614D01*
X40493198Y-29050000D01*
X40480201Y-29027488D01*
X40480200Y-29027486D01*
X40387014Y-28934300D01*
X40387011Y-28934298D01*
X40387009Y-28934296D01*
X40272889Y-28868409D01*
X40272891Y-28868409D01*
X40223499Y-28855175D01*
X40145592Y-28834300D01*
X40013808Y-28834300D01*
X39935900Y-28855175D01*
X39886509Y-28868409D01*
X39772390Y-28934296D01*
X39679196Y-29027490D01*
X39613309Y-29141609D01*
X39613308Y-29141614D01*
X39579200Y-29268908D01*
X500500Y-29268908D01*
X500500Y-27270308D01*
X45079600Y-27270308D01*
X45079600Y-27402092D01*
X45109679Y-27514351D01*
X45113709Y-27529390D01*
X45179596Y-27643509D01*
X45179598Y-27643511D01*
X45179600Y-27643514D01*
X45272786Y-27736700D01*
X45272788Y-27736701D01*
X45272790Y-27736703D01*
X45386910Y-27802590D01*
X45386908Y-27802590D01*
X45386912Y-27802591D01*
X45386914Y-27802592D01*
X45514208Y-27836700D01*
X45514210Y-27836700D01*
X45645990Y-27836700D01*
X45645992Y-27836700D01*
X45773286Y-27802592D01*
X45773288Y-27802590D01*
X45773290Y-27802590D01*
X45887409Y-27736703D01*
X45887409Y-27736702D01*
X45887414Y-27736700D01*
X45980600Y-27643514D01*
X46046492Y-27529386D01*
X46080600Y-27402092D01*
X46080600Y-27270308D01*
X54272000Y-27270308D01*
X54272000Y-27402092D01*
X54302079Y-27514351D01*
X54306109Y-27529390D01*
X54371996Y-27643509D01*
X54371998Y-27643511D01*
X54372000Y-27643514D01*
X54465186Y-27736700D01*
X54465188Y-27736701D01*
X54465190Y-27736703D01*
X54579310Y-27802590D01*
X54579308Y-27802590D01*
X54579312Y-27802591D01*
X54579314Y-27802592D01*
X54706608Y-27836700D01*
X54706610Y-27836700D01*
X54838390Y-27836700D01*
X54838392Y-27836700D01*
X54965686Y-27802592D01*
X54965688Y-27802590D01*
X54965690Y-27802590D01*
X55079809Y-27736703D01*
X55079809Y-27736702D01*
X55079814Y-27736700D01*
X55173000Y-27643514D01*
X55238892Y-27529386D01*
X55273000Y-27402092D01*
X55273000Y-27270308D01*
X55238892Y-27143014D01*
X55238890Y-27143011D01*
X55238890Y-27143009D01*
X55173003Y-27028890D01*
X55173001Y-27028888D01*
X55173000Y-27028886D01*
X55079814Y-26935700D01*
X55079811Y-26935698D01*
X55079809Y-26935696D01*
X54965689Y-26869809D01*
X54965691Y-26869809D01*
X54916299Y-26856575D01*
X54838392Y-26835700D01*
X54706608Y-26835700D01*
X54628700Y-26856575D01*
X54579309Y-26869809D01*
X54465190Y-26935696D01*
X54371996Y-27028890D01*
X54306109Y-27143009D01*
X54306108Y-27143014D01*
X54272000Y-27270308D01*
X46080600Y-27270308D01*
X46046492Y-27143014D01*
X46046490Y-27143011D01*
X46046490Y-27143009D01*
X45980603Y-27028890D01*
X45980601Y-27028888D01*
X45980600Y-27028886D01*
X45887414Y-26935700D01*
X45887411Y-26935698D01*
X45887409Y-26935696D01*
X45773289Y-26869809D01*
X45773291Y-26869809D01*
X45723899Y-26856575D01*
X45645992Y-26835700D01*
X45514208Y-26835700D01*
X45436300Y-26856575D01*
X45386909Y-26869809D01*
X45272790Y-26935696D01*
X45179596Y-27028890D01*
X45113709Y-27143009D01*
X45113708Y-27143014D01*
X45079600Y-27270308D01*
X500500Y-27270308D01*
X500500Y-22822708D01*
X28047900Y-22822708D01*
X28047900Y-22954492D01*
X28077979Y-23066751D01*
X28082009Y-23081790D01*
X28147896Y-23195909D01*
X28147898Y-23195911D01*
X28147900Y-23195914D01*
X28241086Y-23289100D01*
X28241088Y-23289101D01*
X28241090Y-23289103D01*
X28355210Y-23354990D01*
X28355208Y-23354990D01*
X28355212Y-23354991D01*
X28355214Y-23354992D01*
X28482508Y-23389100D01*
X28482510Y-23389100D01*
X28614290Y-23389100D01*
X28614292Y-23389100D01*
X28741586Y-23354992D01*
X28741588Y-23354990D01*
X28741590Y-23354990D01*
X28855709Y-23289103D01*
X28855709Y-23289102D01*
X28855714Y-23289100D01*
X28948900Y-23195914D01*
X29014792Y-23081786D01*
X29048900Y-22954492D01*
X29048900Y-22822708D01*
X29014792Y-22695414D01*
X29014790Y-22695411D01*
X29014790Y-22695409D01*
X28948903Y-22581290D01*
X28948901Y-22581288D01*
X28948900Y-22581286D01*
X28933578Y-22565964D01*
X28905803Y-22511450D01*
X28915374Y-22451018D01*
X28954084Y-22410226D01*
X28967814Y-22402300D01*
X29061000Y-22309114D01*
X29126892Y-22194986D01*
X29161000Y-22067692D01*
X29161000Y-21935908D01*
X45079600Y-21935908D01*
X45079600Y-22067692D01*
X45109679Y-22179951D01*
X45113709Y-22194990D01*
X45179596Y-22309109D01*
X45179598Y-22309111D01*
X45179600Y-22309114D01*
X45272786Y-22402300D01*
X45272788Y-22402301D01*
X45272790Y-22402303D01*
X45386910Y-22468190D01*
X45386908Y-22468190D01*
X45386912Y-22468191D01*
X45386914Y-22468192D01*
X45514208Y-22502300D01*
X45514210Y-22502300D01*
X45645990Y-22502300D01*
X45645992Y-22502300D01*
X45773286Y-22468192D01*
X45773288Y-22468190D01*
X45773290Y-22468190D01*
X45887409Y-22402303D01*
X45887409Y-22402302D01*
X45887414Y-22402300D01*
X45980600Y-22309114D01*
X46046492Y-22194986D01*
X46080600Y-22067692D01*
X46080600Y-21935908D01*
X72179200Y-21935908D01*
X72179200Y-22067692D01*
X72209279Y-22179951D01*
X72213309Y-22194990D01*
X72279196Y-22309109D01*
X72279198Y-22309111D01*
X72279200Y-22309114D01*
X72372386Y-22402300D01*
X72372388Y-22402301D01*
X72372390Y-22402303D01*
X72486510Y-22468190D01*
X72486508Y-22468190D01*
X72486512Y-22468191D01*
X72486514Y-22468192D01*
X72613808Y-22502300D01*
X72613810Y-22502300D01*
X72745590Y-22502300D01*
X72745592Y-22502300D01*
X72872886Y-22468192D01*
X72872888Y-22468190D01*
X72872890Y-22468190D01*
X72987009Y-22402303D01*
X72987009Y-22402302D01*
X72987014Y-22402300D01*
X73080200Y-22309114D01*
X73146092Y-22194986D01*
X73180200Y-22067692D01*
X73180200Y-21935908D01*
X73146092Y-21808614D01*
X73146090Y-21808611D01*
X73146090Y-21808609D01*
X73080203Y-21694490D01*
X73080201Y-21694488D01*
X73080200Y-21694486D01*
X72987014Y-21601300D01*
X72987011Y-21601298D01*
X72987009Y-21601296D01*
X72872889Y-21535409D01*
X72872891Y-21535409D01*
X72823499Y-21522175D01*
X72745592Y-21501300D01*
X72613808Y-21501300D01*
X72535900Y-21522175D01*
X72486509Y-21535409D01*
X72372390Y-21601296D01*
X72279196Y-21694490D01*
X72213309Y-21808609D01*
X72213308Y-21808614D01*
X72179200Y-21935908D01*
X46080600Y-21935908D01*
X46046492Y-21808614D01*
X46046490Y-21808611D01*
X46046490Y-21808609D01*
X45980603Y-21694490D01*
X45980601Y-21694488D01*
X45980600Y-21694486D01*
X45887414Y-21601300D01*
X45887411Y-21601298D01*
X45887409Y-21601296D01*
X45773289Y-21535409D01*
X45773291Y-21535409D01*
X45723899Y-21522175D01*
X45645992Y-21501300D01*
X45514208Y-21501300D01*
X45436300Y-21522175D01*
X45386909Y-21535409D01*
X45272790Y-21601296D01*
X45179596Y-21694490D01*
X45113709Y-21808609D01*
X45113708Y-21808614D01*
X45079600Y-21935908D01*
X29161000Y-21935908D01*
X29126892Y-21808614D01*
X29126890Y-21808611D01*
X29126890Y-21808609D01*
X29061003Y-21694490D01*
X29061001Y-21694488D01*
X29061000Y-21694486D01*
X28967814Y-21601300D01*
X28967811Y-21601298D01*
X28967809Y-21601296D01*
X28853689Y-21535409D01*
X28853691Y-21535409D01*
X28804299Y-21522175D01*
X28726392Y-21501300D01*
X28594608Y-21501300D01*
X28516700Y-21522175D01*
X28467309Y-21535409D01*
X28353190Y-21601296D01*
X28259996Y-21694490D01*
X28194109Y-21808609D01*
X28194108Y-21808614D01*
X28160000Y-21935908D01*
X28160000Y-22067692D01*
X28190079Y-22179951D01*
X28194109Y-22194990D01*
X28259996Y-22309109D01*
X28259998Y-22309111D01*
X28260000Y-22309114D01*
X28275320Y-22324434D01*
X28303096Y-22378949D01*
X28293525Y-22439381D01*
X28254818Y-22480171D01*
X28241088Y-22488098D01*
X28147896Y-22581290D01*
X28082009Y-22695409D01*
X28082008Y-22695414D01*
X28047900Y-22822708D01*
X500500Y-22822708D01*
X500500Y-15621108D01*
X28160000Y-15621108D01*
X28160000Y-15752892D01*
X28190079Y-15865151D01*
X28194109Y-15880190D01*
X28259996Y-15994309D01*
X28259998Y-15994311D01*
X28260000Y-15994314D01*
X28353186Y-16087500D01*
X28353188Y-16087501D01*
X28353190Y-16087503D01*
X28467310Y-16153390D01*
X28467308Y-16153390D01*
X28467312Y-16153391D01*
X28467314Y-16153392D01*
X28594608Y-16187500D01*
X28594610Y-16187500D01*
X28726390Y-16187500D01*
X28726392Y-16187500D01*
X28853686Y-16153392D01*
X28853688Y-16153390D01*
X28853690Y-16153390D01*
X28967809Y-16087503D01*
X28967809Y-16087502D01*
X28967814Y-16087500D01*
X29061000Y-15994314D01*
X29126892Y-15880186D01*
X29161000Y-15752892D01*
X29161000Y-15621108D01*
X29126892Y-15493814D01*
X29126890Y-15493811D01*
X29126890Y-15493809D01*
X29061003Y-15379690D01*
X29061001Y-15379688D01*
X29061000Y-15379686D01*
X28967814Y-15286500D01*
X28967811Y-15286498D01*
X28967809Y-15286496D01*
X28853689Y-15220609D01*
X28853691Y-15220609D01*
X28804299Y-15207375D01*
X28726392Y-15186500D01*
X28594608Y-15186500D01*
X28516700Y-15207375D01*
X28467309Y-15220609D01*
X28353190Y-15286496D01*
X28259996Y-15379690D01*
X28194109Y-15493809D01*
X28194108Y-15493814D01*
X28160000Y-15621108D01*
X500500Y-15621108D01*
X500500Y-14721008D01*
X73408100Y-14721008D01*
X73408100Y-14852792D01*
X73431948Y-14941796D01*
X73442209Y-14980090D01*
X73508096Y-15094209D01*
X73508098Y-15094211D01*
X73508100Y-15094214D01*
X73601286Y-15187400D01*
X73601288Y-15187401D01*
X73601290Y-15187403D01*
X73715410Y-15253290D01*
X73715408Y-15253290D01*
X73715412Y-15253291D01*
X73715414Y-15253292D01*
X73842708Y-15287400D01*
X73842710Y-15287400D01*
X73974490Y-15287400D01*
X73974492Y-15287400D01*
X74101786Y-15253292D01*
X74101788Y-15253290D01*
X74101790Y-15253290D01*
X74215909Y-15187403D01*
X74215909Y-15187402D01*
X74215914Y-15187400D01*
X74309100Y-15094214D01*
X74374992Y-14980086D01*
X74376647Y-14973908D01*
X89455400Y-14973908D01*
X89455400Y-15105692D01*
X89477294Y-15187403D01*
X89489509Y-15232990D01*
X89555396Y-15347109D01*
X89555398Y-15347111D01*
X89555400Y-15347114D01*
X89648586Y-15440300D01*
X89648588Y-15440301D01*
X89648590Y-15440303D01*
X89762710Y-15506190D01*
X89762708Y-15506190D01*
X89762712Y-15506191D01*
X89762714Y-15506192D01*
X89890008Y-15540300D01*
X89890010Y-15540300D01*
X90021790Y-15540300D01*
X90021792Y-15540300D01*
X90149086Y-15506192D01*
X90149088Y-15506190D01*
X90149090Y-15506190D01*
X90263209Y-15440303D01*
X90263209Y-15440302D01*
X90263214Y-15440300D01*
X90356400Y-15347114D01*
X90391398Y-15286496D01*
X90422290Y-15232990D01*
X90422290Y-15232988D01*
X90422292Y-15232986D01*
X90456400Y-15105692D01*
X90456400Y-14973908D01*
X90422292Y-14846614D01*
X90422290Y-14846611D01*
X90422290Y-14846609D01*
X90356403Y-14732490D01*
X90356401Y-14732488D01*
X90356400Y-14732486D01*
X90263214Y-14639300D01*
X90263211Y-14639298D01*
X90263209Y-14639296D01*
X90149089Y-14573409D01*
X90149091Y-14573409D01*
X90099699Y-14560175D01*
X90021792Y-14539300D01*
X89890008Y-14539300D01*
X89812100Y-14560175D01*
X89762709Y-14573409D01*
X89648590Y-14639296D01*
X89555396Y-14732490D01*
X89489509Y-14846609D01*
X89470439Y-14917778D01*
X89455400Y-14973908D01*
X74376647Y-14973908D01*
X74409100Y-14852792D01*
X74409100Y-14721008D01*
X74374992Y-14593714D01*
X74374990Y-14593711D01*
X74374990Y-14593709D01*
X74309103Y-14479590D01*
X74309101Y-14479588D01*
X74309100Y-14479586D01*
X74215914Y-14386400D01*
X74215911Y-14386398D01*
X74215909Y-14386396D01*
X74101789Y-14320509D01*
X74101791Y-14320509D01*
X74052399Y-14307275D01*
X73974492Y-14286400D01*
X73842708Y-14286400D01*
X73764800Y-14307275D01*
X73715409Y-14320509D01*
X73601290Y-14386396D01*
X73508096Y-14479590D01*
X73442209Y-14593709D01*
X73442208Y-14593714D01*
X73408100Y-14721008D01*
X500500Y-14721008D01*
X500500Y-13094608D01*
X9714400Y-13094608D01*
X9714400Y-13226392D01*
X9744479Y-13338651D01*
X9748509Y-13353690D01*
X9814396Y-13467809D01*
X9814398Y-13467811D01*
X9814400Y-13467814D01*
X9907586Y-13561000D01*
X9907588Y-13561001D01*
X9907590Y-13561003D01*
X10021710Y-13626890D01*
X10021708Y-13626890D01*
X10021712Y-13626891D01*
X10021714Y-13626892D01*
X10149008Y-13661000D01*
X10149010Y-13661000D01*
X10280790Y-13661000D01*
X10280792Y-13661000D01*
X10408086Y-13626892D01*
X10408088Y-13626890D01*
X10408090Y-13626890D01*
X10522209Y-13561003D01*
X10522209Y-13561002D01*
X10522214Y-13561000D01*
X10615400Y-13467814D01*
X10628058Y-13445890D01*
X10681290Y-13353690D01*
X10681290Y-13353688D01*
X10681292Y-13353686D01*
X10691897Y-13314108D01*
X28160000Y-13314108D01*
X28160000Y-13445892D01*
X28165873Y-13467809D01*
X28194109Y-13573190D01*
X28259996Y-13687309D01*
X28259998Y-13687311D01*
X28260000Y-13687314D01*
X28353186Y-13780500D01*
X28353188Y-13780501D01*
X28353190Y-13780503D01*
X28467310Y-13846390D01*
X28467308Y-13846390D01*
X28467312Y-13846391D01*
X28467314Y-13846392D01*
X28594608Y-13880500D01*
X28594610Y-13880500D01*
X28726390Y-13880500D01*
X28726392Y-13880500D01*
X28853686Y-13846392D01*
X28853688Y-13846390D01*
X28853690Y-13846390D01*
X28967809Y-13780503D01*
X28967809Y-13780502D01*
X28967814Y-13780500D01*
X29061000Y-13687314D01*
X29061003Y-13687309D01*
X29126890Y-13573190D01*
X29126890Y-13573188D01*
X29126892Y-13573186D01*
X29161000Y-13445892D01*
X29161000Y-13314108D01*
X29126892Y-13186814D01*
X29098656Y-13137908D01*
X72179200Y-13137908D01*
X72179200Y-13269692D01*
X72201706Y-13353686D01*
X72213309Y-13396990D01*
X72279196Y-13511109D01*
X72279198Y-13511111D01*
X72279200Y-13511114D01*
X72372386Y-13604300D01*
X72372388Y-13604301D01*
X72372390Y-13604303D01*
X72486510Y-13670190D01*
X72486508Y-13670190D01*
X72486512Y-13670191D01*
X72486514Y-13670192D01*
X72613808Y-13704300D01*
X72613810Y-13704300D01*
X72745590Y-13704300D01*
X72745592Y-13704300D01*
X72872886Y-13670192D01*
X72872888Y-13670190D01*
X72872890Y-13670190D01*
X72987009Y-13604303D01*
X72987009Y-13604302D01*
X72987014Y-13604300D01*
X73080200Y-13511114D01*
X73080203Y-13511109D01*
X73146090Y-13396990D01*
X73146090Y-13396988D01*
X73146092Y-13396986D01*
X73180200Y-13269692D01*
X73180200Y-13137908D01*
X73168598Y-13094608D01*
X88906000Y-13094608D01*
X88906000Y-13226392D01*
X88936079Y-13338651D01*
X88940109Y-13353690D01*
X89005996Y-13467809D01*
X89005998Y-13467811D01*
X89006000Y-13467814D01*
X89099186Y-13561000D01*
X89099188Y-13561001D01*
X89099190Y-13561003D01*
X89213310Y-13626890D01*
X89213308Y-13626890D01*
X89213312Y-13626891D01*
X89213314Y-13626892D01*
X89340608Y-13661000D01*
X89340610Y-13661000D01*
X89472390Y-13661000D01*
X89472392Y-13661000D01*
X89599686Y-13626892D01*
X89599688Y-13626890D01*
X89599690Y-13626890D01*
X89713809Y-13561003D01*
X89713809Y-13561002D01*
X89713814Y-13561000D01*
X89807000Y-13467814D01*
X89819658Y-13445890D01*
X89872890Y-13353690D01*
X89872890Y-13353688D01*
X89872892Y-13353686D01*
X89907000Y-13226392D01*
X89907000Y-13094608D01*
X89872892Y-12967314D01*
X89872890Y-12967311D01*
X89872890Y-12967309D01*
X89807003Y-12853190D01*
X89807001Y-12853188D01*
X89807000Y-12853186D01*
X89713814Y-12760000D01*
X89713811Y-12759998D01*
X89713809Y-12759996D01*
X89599689Y-12694109D01*
X89599691Y-12694109D01*
X89550299Y-12680875D01*
X89472392Y-12660000D01*
X89340608Y-12660000D01*
X89262700Y-12680875D01*
X89213309Y-12694109D01*
X89099190Y-12759996D01*
X89005996Y-12853190D01*
X88940109Y-12967309D01*
X88940108Y-12967314D01*
X88906000Y-13094608D01*
X73168598Y-13094608D01*
X73146092Y-13010614D01*
X73146090Y-13010611D01*
X73146090Y-13010609D01*
X73080203Y-12896490D01*
X73080201Y-12896488D01*
X73080200Y-12896486D01*
X72987014Y-12803300D01*
X72987011Y-12803298D01*
X72987009Y-12803296D01*
X72872889Y-12737409D01*
X72872891Y-12737409D01*
X72823499Y-12724175D01*
X72745592Y-12703300D01*
X72613808Y-12703300D01*
X72535900Y-12724175D01*
X72486509Y-12737409D01*
X72372390Y-12803296D01*
X72279196Y-12896490D01*
X72213309Y-13010609D01*
X72213308Y-13010614D01*
X72179200Y-13137908D01*
X29098656Y-13137908D01*
X29061000Y-13072686D01*
X28967814Y-12979500D01*
X28967811Y-12979498D01*
X28967809Y-12979496D01*
X28853689Y-12913609D01*
X28853691Y-12913609D01*
X28789785Y-12896486D01*
X28726392Y-12879500D01*
X28594608Y-12879500D01*
X28531215Y-12896486D01*
X28467309Y-12913609D01*
X28353190Y-12979496D01*
X28259996Y-13072690D01*
X28194109Y-13186809D01*
X28194108Y-13186814D01*
X28160000Y-13314108D01*
X10691897Y-13314108D01*
X10715400Y-13226392D01*
X10715400Y-13094608D01*
X10681292Y-12967314D01*
X10681290Y-12967311D01*
X10681290Y-12967309D01*
X10615403Y-12853190D01*
X10615401Y-12853188D01*
X10615400Y-12853186D01*
X10522214Y-12760000D01*
X10522211Y-12759998D01*
X10522209Y-12759996D01*
X10408089Y-12694109D01*
X10408091Y-12694109D01*
X10358699Y-12680875D01*
X10280792Y-12660000D01*
X10149008Y-12660000D01*
X10071100Y-12680875D01*
X10021709Y-12694109D01*
X9907590Y-12759996D01*
X9814396Y-12853190D01*
X9748509Y-12967309D01*
X9748508Y-12967314D01*
X9714400Y-13094608D01*
X500500Y-13094608D01*
X500500Y-11607608D01*
X28153900Y-11607608D01*
X28153900Y-11739392D01*
X28174962Y-11817996D01*
X28188009Y-11866690D01*
X28253896Y-11980809D01*
X28253898Y-11980811D01*
X28253900Y-11980814D01*
X28347086Y-12074000D01*
X28347088Y-12074001D01*
X28347090Y-12074003D01*
X28461210Y-12139890D01*
X28461208Y-12139890D01*
X28461212Y-12139891D01*
X28461214Y-12139892D01*
X28588508Y-12174000D01*
X28588510Y-12174000D01*
X28720290Y-12174000D01*
X28720292Y-12174000D01*
X28800129Y-12152608D01*
X92853100Y-12152608D01*
X92853100Y-12284392D01*
X92883179Y-12396651D01*
X92887209Y-12411690D01*
X92953096Y-12525809D01*
X92953098Y-12525811D01*
X92953100Y-12525814D01*
X93046286Y-12619000D01*
X93046288Y-12619001D01*
X93046290Y-12619003D01*
X93160410Y-12684890D01*
X93160408Y-12684890D01*
X93160412Y-12684891D01*
X93160414Y-12684892D01*
X93287708Y-12719000D01*
X93287710Y-12719000D01*
X93419490Y-12719000D01*
X93419492Y-12719000D01*
X93546786Y-12684892D01*
X93546788Y-12684890D01*
X93546790Y-12684890D01*
X93660909Y-12619003D01*
X93660909Y-12619002D01*
X93660914Y-12619000D01*
X93754100Y-12525814D01*
X93819992Y-12411686D01*
X93854100Y-12284392D01*
X93854100Y-12152608D01*
X93819992Y-12025314D01*
X93819990Y-12025311D01*
X93819990Y-12025309D01*
X93754103Y-11911190D01*
X93754101Y-11911188D01*
X93754100Y-11911186D01*
X93660914Y-11818000D01*
X93660911Y-11817998D01*
X93660909Y-11817996D01*
X93546789Y-11752109D01*
X93546791Y-11752109D01*
X93497399Y-11738875D01*
X93419492Y-11718000D01*
X93287708Y-11718000D01*
X93209800Y-11738875D01*
X93160409Y-11752109D01*
X93046290Y-11817996D01*
X92953096Y-11911190D01*
X92887209Y-12025309D01*
X92887208Y-12025314D01*
X92853100Y-12152608D01*
X28800129Y-12152608D01*
X28847586Y-12139892D01*
X28847588Y-12139890D01*
X28847590Y-12139890D01*
X28961709Y-12074003D01*
X28961709Y-12074002D01*
X28961714Y-12074000D01*
X29054900Y-11980814D01*
X29120792Y-11866686D01*
X29154900Y-11739392D01*
X29154900Y-11607608D01*
X29120792Y-11480314D01*
X29120790Y-11480311D01*
X29120790Y-11480309D01*
X29054903Y-11366190D01*
X29054901Y-11366188D01*
X29054900Y-11366186D01*
X28961714Y-11273000D01*
X28961711Y-11272998D01*
X28961709Y-11272996D01*
X28847589Y-11207109D01*
X28847591Y-11207109D01*
X28798199Y-11193875D01*
X28720292Y-11173000D01*
X28588508Y-11173000D01*
X28510600Y-11193875D01*
X28461209Y-11207109D01*
X28347090Y-11272996D01*
X28253896Y-11366190D01*
X28188009Y-11480309D01*
X28188008Y-11480314D01*
X28153900Y-11607608D01*
X500500Y-11607608D01*
X500500Y-10147508D01*
X9714400Y-10147508D01*
X9714400Y-10279292D01*
X9715767Y-10284392D01*
X9748509Y-10406590D01*
X9814396Y-10520709D01*
X9814398Y-10520711D01*
X9814400Y-10520714D01*
X9907586Y-10613900D01*
X9907588Y-10613901D01*
X9907590Y-10613903D01*
X10021710Y-10679790D01*
X10021708Y-10679790D01*
X10021712Y-10679791D01*
X10021714Y-10679792D01*
X10149008Y-10713900D01*
X10149010Y-10713900D01*
X10280790Y-10713900D01*
X10280792Y-10713900D01*
X10408086Y-10679792D01*
X10408088Y-10679790D01*
X10408090Y-10679790D01*
X10522209Y-10613903D01*
X10522209Y-10613902D01*
X10522214Y-10613900D01*
X10615400Y-10520714D01*
X10681292Y-10406586D01*
X10715400Y-10279292D01*
X10715400Y-10152608D01*
X88906000Y-10152608D01*
X88906000Y-10284392D01*
X88936079Y-10396651D01*
X88940109Y-10411690D01*
X89005996Y-10525809D01*
X89005998Y-10525811D01*
X89006000Y-10525814D01*
X89099186Y-10619000D01*
X89099188Y-10619001D01*
X89099190Y-10619003D01*
X89213310Y-10684890D01*
X89213308Y-10684890D01*
X89213312Y-10684891D01*
X89213314Y-10684892D01*
X89340608Y-10719000D01*
X89340610Y-10719000D01*
X89472390Y-10719000D01*
X89472392Y-10719000D01*
X89599686Y-10684892D01*
X89599688Y-10684890D01*
X89599690Y-10684890D01*
X89713809Y-10619003D01*
X89713809Y-10619002D01*
X89713814Y-10619000D01*
X89807000Y-10525814D01*
X89807003Y-10525809D01*
X89872890Y-10411690D01*
X89872890Y-10411688D01*
X89872892Y-10411686D01*
X89907000Y-10284392D01*
X89907000Y-10152608D01*
X89872892Y-10025314D01*
X89872890Y-10025311D01*
X89872890Y-10025309D01*
X89807003Y-9911190D01*
X89807001Y-9911188D01*
X89807000Y-9911186D01*
X89713814Y-9818000D01*
X89713811Y-9817998D01*
X89713809Y-9817996D01*
X89599689Y-9752109D01*
X89599691Y-9752109D01*
X89550299Y-9738875D01*
X89472392Y-9718000D01*
X89340608Y-9718000D01*
X89262700Y-9738875D01*
X89213309Y-9752109D01*
X89099190Y-9817996D01*
X89005996Y-9911190D01*
X88940109Y-10025309D01*
X88940108Y-10025314D01*
X88906000Y-10152608D01*
X10715400Y-10152608D01*
X10715400Y-10147508D01*
X10681292Y-10020214D01*
X10681290Y-10020211D01*
X10681290Y-10020209D01*
X10615403Y-9906090D01*
X10615401Y-9906088D01*
X10615400Y-9906086D01*
X10522214Y-9812900D01*
X10522211Y-9812898D01*
X10522209Y-9812896D01*
X10408089Y-9747009D01*
X10408091Y-9747009D01*
X10358699Y-9733775D01*
X10280792Y-9712900D01*
X10149008Y-9712900D01*
X10071100Y-9733775D01*
X10021709Y-9747009D01*
X9907590Y-9812896D01*
X9814396Y-9906090D01*
X9748509Y-10020209D01*
X9747141Y-10025314D01*
X9714400Y-10147508D01*
X500500Y-10147508D01*
X500500Y-7200408D01*
X12661500Y-7200408D01*
X12661500Y-7332192D01*
X12691579Y-7444451D01*
X12695609Y-7459490D01*
X12761496Y-7573609D01*
X12761498Y-7573611D01*
X12761500Y-7573614D01*
X12854686Y-7666800D01*
X12854688Y-7666801D01*
X12854690Y-7666803D01*
X12968810Y-7732690D01*
X12968808Y-7732690D01*
X12968812Y-7732691D01*
X12968814Y-7732692D01*
X13096108Y-7766800D01*
X13096110Y-7766800D01*
X13227890Y-7766800D01*
X13227892Y-7766800D01*
X13355186Y-7732692D01*
X13355188Y-7732690D01*
X13355190Y-7732690D01*
X13469309Y-7666803D01*
X13469309Y-7666802D01*
X13469314Y-7666800D01*
X13562500Y-7573614D01*
X13628392Y-7459486D01*
X13662500Y-7332192D01*
X13662500Y-7200408D01*
X13628392Y-7073114D01*
X13628390Y-7073111D01*
X13628390Y-7073109D01*
X13562503Y-6958990D01*
X13562501Y-6958988D01*
X13562500Y-6958986D01*
X13469314Y-6865800D01*
X13469311Y-6865798D01*
X13469309Y-6865796D01*
X13355189Y-6799909D01*
X13355191Y-6799909D01*
X13305799Y-6786675D01*
X13227892Y-6765800D01*
X13096108Y-6765800D01*
X13018200Y-6786675D01*
X12968809Y-6799909D01*
X12854690Y-6865796D01*
X12761496Y-6958990D01*
X12695609Y-7073109D01*
X12695608Y-7073114D01*
X12661500Y-7200408D01*
X500500Y-7200408D01*
X500500Y-3342727D01*
X699500Y-3342727D01*
X699500Y-3657272D01*
X734718Y-3969841D01*
X804711Y-4276501D01*
X908597Y-4573392D01*
X908598Y-4573394D01*
X1045066Y-4856774D01*
X1045070Y-4856781D01*
X1045074Y-4856789D01*
X1212423Y-5123123D01*
X1408539Y-5369044D01*
X1630956Y-5591461D01*
X1876877Y-5787577D01*
X2143211Y-5954926D01*
X2143222Y-5954931D01*
X2143225Y-5954933D01*
X2237377Y-6000274D01*
X2426606Y-6091402D01*
X2723500Y-6195289D01*
X3030160Y-6265282D01*
X3342727Y-6300500D01*
X3342728Y-6300500D01*
X3657272Y-6300500D01*
X3657273Y-6300500D01*
X3969840Y-6265282D01*
X4276500Y-6195289D01*
X4573394Y-6091402D01*
X4856789Y-5954926D01*
X5123123Y-5787577D01*
X5369044Y-5591461D01*
X5591461Y-5369044D01*
X5787577Y-5123123D01*
X5954926Y-4856789D01*
X6091402Y-4573394D01*
X6195289Y-4276500D01*
X6265282Y-3969840D01*
X6300500Y-3657273D01*
X6300500Y-3342727D01*
X93699500Y-3342727D01*
X93699500Y-3657272D01*
X93734718Y-3969841D01*
X93804711Y-4276501D01*
X93908597Y-4573392D01*
X93908598Y-4573394D01*
X94045066Y-4856774D01*
X94045070Y-4856781D01*
X94045074Y-4856789D01*
X94212423Y-5123123D01*
X94408539Y-5369044D01*
X94630956Y-5591461D01*
X94876877Y-5787577D01*
X95143211Y-5954926D01*
X95143222Y-5954931D01*
X95143225Y-5954933D01*
X95237377Y-6000274D01*
X95426606Y-6091402D01*
X95723500Y-6195289D01*
X96030160Y-6265282D01*
X96342727Y-6300500D01*
X96342728Y-6300500D01*
X96657272Y-6300500D01*
X96657273Y-6300500D01*
X96969840Y-6265282D01*
X97276500Y-6195289D01*
X97573394Y-6091402D01*
X97856789Y-5954926D01*
X98123123Y-5787577D01*
X98369044Y-5591461D01*
X98591461Y-5369044D01*
X98787577Y-5123123D01*
X98954926Y-4856789D01*
X99091402Y-4573394D01*
X99195289Y-4276500D01*
X99265282Y-3969840D01*
X99300500Y-3657273D01*
X99300500Y-3342727D01*
X99265282Y-3030160D01*
X99195289Y-2723500D01*
X99091402Y-2426606D01*
X98954926Y-2143211D01*
X98787577Y-1876877D01*
X98591461Y-1630956D01*
X98369044Y-1408539D01*
X98123123Y-1212423D01*
X97856789Y-1045074D01*
X97856781Y-1045070D01*
X97856774Y-1045066D01*
X97573394Y-908598D01*
X97573392Y-908597D01*
X97276501Y-804711D01*
X96969841Y-734718D01*
X96813556Y-717109D01*
X96657273Y-699500D01*
X96342727Y-699500D01*
X96238538Y-711239D01*
X96030158Y-734718D01*
X95723498Y-804711D01*
X95426607Y-908597D01*
X95426605Y-908598D01*
X95143225Y-1045066D01*
X95143213Y-1045073D01*
X94876876Y-1212423D01*
X94630957Y-1408538D01*
X94408538Y-1630957D01*
X94212423Y-1876876D01*
X94045073Y-2143213D01*
X94045066Y-2143225D01*
X93908598Y-2426605D01*
X93908597Y-2426607D01*
X93804711Y-2723498D01*
X93734718Y-3030158D01*
X93699500Y-3342727D01*
X6300500Y-3342727D01*
X6265282Y-3030160D01*
X6195289Y-2723500D01*
X6091402Y-2426606D01*
X5954926Y-2143211D01*
X5787577Y-1876877D01*
X5591461Y-1630956D01*
X5369044Y-1408539D01*
X5123123Y-1212423D01*
X4856789Y-1045074D01*
X4856781Y-1045070D01*
X4856774Y-1045066D01*
X4573394Y-908598D01*
X4573392Y-908597D01*
X4276501Y-804711D01*
X3969841Y-734718D01*
X3813556Y-717109D01*
X3657273Y-699500D01*
X3342727Y-699500D01*
X3238538Y-711239D01*
X3030158Y-734718D01*
X2723498Y-804711D01*
X2426607Y-908597D01*
X2426605Y-908598D01*
X2143225Y-1045066D01*
X2143213Y-1045073D01*
X1876876Y-1212423D01*
X1630957Y-1408538D01*
X1408538Y-1630957D01*
X1212423Y-1876876D01*
X1045073Y-2143213D01*
X1045066Y-2143225D01*
X908598Y-2426605D01*
X908597Y-2426607D01*
X804711Y-2723498D01*
X734718Y-3030158D01*
X699500Y-3342727D01*
X500500Y-3342727D01*
X500500Y-599500D01*
X519407Y-541309D01*
X568907Y-505345D01*
X599500Y-500500D01*
X99400500Y-500500D01*
X99458691Y-519407D01*
G37*
%TD.AperFunction*%
%TD*%
M02*
