%TF.GenerationSoftware,KiCad,Pcbnew,9.0.7+dfsg-1*%
%TF.CreationDate,2026-04-16T23:30:33-04:00*%
%TF.ProjectId,warden-apex-master,77617264-656e-42d6-9170-65782d6d6173,rev?*%
%TF.SameCoordinates,Original*%
%TF.FileFunction,Copper,L4,Bot*%
%TF.FilePolarity,Positive*%
%FSLAX46Y46*%
G04 Gerber Fmt 4.6, Leading zero omitted, Abs format (unit mm)*
G04 Created by KiCad (PCBNEW 9.0.7+dfsg-1) date 2026-04-16 23:30:33*
%MOMM*%
%LPD*%
G01*
G04 APERTURE LIST*
%TA.AperFunction,ComponentPad*%
%ADD10R,1.700000X1.700000*%
%TD*%
%TA.AperFunction,ComponentPad*%
%ADD11C,1.700000*%
%TD*%
%TA.AperFunction,ComponentPad*%
%ADD12C,5.200000*%
%TD*%
%TA.AperFunction,ViaPad*%
%ADD13C,0.600000*%
%TD*%
%TA.AperFunction,Conductor*%
%ADD14C,0.200000*%
%TD*%
G04 APERTURE END LIST*
D10*
%TO.P,J3,1*%
%TO.N,SPK_P*%
X62000000Y-68000000D03*
D11*
%TO.P,J3,2*%
%TO.N,SPK_N*%
X62000000Y-70540000D03*
%TD*%
D12*
%TO.P,MH1,*%
%TO.N,*%
X3500000Y-3500000D03*
%TD*%
%TO.P,MH4,*%
%TO.N,*%
X96500000Y-96500000D03*
%TD*%
D10*
%TO.P,H1,1*%
%TO.N,3V3*%
X7000000Y-34000000D03*
D11*
%TO.P,H1,2*%
%TO.N,GND*%
X9540000Y-34000000D03*
%TO.P,H1,3*%
%TO.N,PIR_SIG*%
X12080000Y-34000000D03*
%TD*%
D12*
%TO.P,MH2,*%
%TO.N,*%
X96500000Y-3500000D03*
%TD*%
%TO.P,MH3,*%
%TO.N,*%
X3500000Y-96500000D03*
%TD*%
D13*
%TO.N,GND*%
X26000000Y-26000000D03*
X26000000Y-50000000D03*
X34000000Y-34000000D03*
X42000000Y-66000000D03*
X82000000Y-90000000D03*
X26000000Y-58000000D03*
X90000000Y-58000000D03*
X90000000Y-90000000D03*
X10000000Y-50000000D03*
X90000000Y-74000000D03*
X90000000Y-82000000D03*
X90000000Y-50000000D03*
X66000000Y-90000000D03*
X82000000Y-82000000D03*
X74000000Y-74000000D03*
X74000000Y-82000000D03*
X18000000Y-26000000D03*
X82000000Y-74000000D03*
X10000000Y-58000000D03*
X50000000Y-58000000D03*
X34000000Y-42000000D03*
X90000000Y-42000000D03*
X50000000Y-66000000D03*
X82000000Y-26000000D03*
X74000000Y-90000000D03*
X10000000Y-42000000D03*
X10000000Y-82000000D03*
X10000000Y-74000000D03*
X26000000Y-66000000D03*
X26000000Y-74000000D03*
X34000000Y-82000000D03*
X18000000Y-42000000D03*
X10000000Y-66000000D03*
X18000000Y-50000000D03*
X26000000Y-34000000D03*
X58000000Y-58000000D03*
X18000000Y-66000000D03*
X74000000Y-26000000D03*
X34000000Y-58000000D03*
X66000000Y-66000000D03*
X18000000Y-58000000D03*
X34000000Y-66000000D03*
%TO.N,PIR_SIG*%
X75051100Y-43377500D03*
%TO.N,LORA_RESET*%
X73908600Y-14786900D03*
X10214900Y-10213400D03*
%TO.N,CELL_RF*%
X92398900Y-36436600D03*
X40079700Y-29334800D03*
%TO.N,CHG_REGN*%
X21504900Y-79627600D03*
X16179300Y-79372100D03*
%TO.N,I2S_LRCLK*%
X28548400Y-22888600D03*
X45580100Y-27336200D03*
%TO.N,LORA_NSS*%
X13162000Y-7266300D03*
X89406500Y-10218500D03*
%TO.N,CHG_STAT1*%
X16978500Y-83215800D03*
X33617100Y-78448100D03*
%TO.N,LORA_DIO0*%
X72679700Y-13203800D03*
X10214900Y-13160500D03*
%TO.N,TS_BIAS*%
X17370800Y-81645100D03*
X28729700Y-79885000D03*
%TO.N,LORA_DIO1*%
X28660500Y-22001800D03*
X72679700Y-22001800D03*
%TO.N,UART1_RX*%
X54772500Y-27336200D03*
X45580100Y-22001800D03*
%TO.N,REG_IN*%
X39685900Y-83890900D03*
X49424200Y-82508300D03*
%TO.N,SPI_MISO*%
X89406500Y-13160500D03*
X28654400Y-11673500D03*
%TO.N,CHG_PH*%
X14914400Y-80057000D03*
X19403200Y-77324600D03*
X22888600Y-79627600D03*
%TO.N,SPI_SCK*%
X89955900Y-15039800D03*
X28660500Y-13380000D03*
%TO.N,SIM_VDD*%
X74088800Y-37280400D03*
X40079700Y-42217700D03*
%TO.N,I2C_SCL*%
X63318100Y-40629000D03*
X13852200Y-34017000D03*
%TO.N,MPPSET*%
X31900800Y-72000000D03*
X14914400Y-75786600D03*
%TO.N,FB_DIV*%
X62218200Y-77595300D03*
X45203300Y-81629200D03*
%TO.N,SIM_CLK*%
X48675600Y-33259900D03*
X80945300Y-35806900D03*
%TO.N,SOLAR_IN*%
X14625000Y-81457900D03*
X21202900Y-78656000D03*
X16759100Y-76956200D03*
X17564700Y-78223300D03*
%TO.N,SPI_MOSI*%
X28660500Y-15687000D03*
X93353600Y-12218500D03*
%TO.N,CHG_GATE_HI*%
X18072700Y-76033100D03*
X27930800Y-77567000D03*
%TO.N,3V3*%
X52538900Y-38661100D03*
%TO.N,CHG_SENSE_NEG*%
X24950400Y-83890900D03*
X7733700Y-83890900D03*
X22176000Y-80732400D03*
%TO.N,MODEM_VBAT*%
X52400000Y-43791300D03*
X34329800Y-45040500D03*
X10214900Y-45578600D03*
%TO.N,I2C_SDA*%
X7267800Y-48525700D03*
X66920200Y-61244300D03*
%TO.N,SIM_DATA*%
X48301800Y-50574600D03*
X80435900Y-40654000D03*
%TD*%
D14*
%TO.N,PIR_SIG*%
X21269600Y-43189600D02*
X12080000Y-34000000D01*
X74863200Y-43189600D02*
X21269600Y-43189600D01*
X75051100Y-43377500D02*
X74863200Y-43189600D01*
%TO.N,LORA_RESET*%
X12320400Y-12318900D02*
X72662000Y-12318900D01*
X10214900Y-10213400D02*
X12320400Y-12318900D01*
X72662000Y-12318900D02*
X73908600Y-13565500D01*
X73908600Y-13565500D02*
X73908600Y-14786900D01*
%TO.N,CELL_RF*%
X85297100Y-29334800D02*
X92398900Y-36436600D01*
X40079700Y-29334800D02*
X85297100Y-29334800D01*
%TO.N,CHG_REGN*%
X21504900Y-79627600D02*
X21249400Y-79372100D01*
X21249400Y-79372100D02*
X16179300Y-79372100D01*
%TO.N,I2S_LRCLK*%
X32996000Y-27336200D02*
X45580100Y-27336200D01*
X28548400Y-22888600D02*
X32996000Y-27336200D01*
%TO.N,LORA_NSS*%
X86454300Y-7266300D02*
X89406500Y-10218500D01*
X13162000Y-7266300D02*
X86454300Y-7266300D01*
%TO.N,CHG_STAT1*%
X28849400Y-83215800D02*
X33617100Y-78448100D01*
X16978500Y-83215800D02*
X28849400Y-83215800D01*
%TO.N,LORA_DIO0*%
X10611000Y-12764400D02*
X72240300Y-12764400D01*
X72240300Y-12764400D02*
X72679700Y-13203800D01*
X10214900Y-13160500D02*
X10611000Y-12764400D01*
%TO.N,TS_BIAS*%
X22639500Y-80229300D02*
X28385400Y-80229300D01*
X22098400Y-79885000D02*
X22295200Y-79885000D01*
X28385400Y-80229300D02*
X28729700Y-79885000D01*
X22295200Y-79885000D02*
X22639500Y-80229300D01*
X20338300Y-81645100D02*
X22098400Y-79885000D01*
X17370800Y-81645100D02*
X20338300Y-81645100D01*
%TO.N,LORA_DIO1*%
X28660500Y-22001800D02*
X29316900Y-21345400D01*
X29316900Y-21345400D02*
X72023300Y-21345400D01*
X72023300Y-21345400D02*
X72679700Y-22001800D01*
%TO.N,UART1_RX*%
X54772500Y-27336200D02*
X49438100Y-22001800D01*
X49438100Y-22001800D02*
X45580100Y-22001800D01*
%TO.N,REG_IN*%
X41068400Y-82508400D02*
X49424200Y-82508400D01*
X49424200Y-82508400D02*
X49424200Y-82508300D01*
X39685900Y-83890900D02*
X41068400Y-82508400D01*
%TO.N,SPI_MISO*%
X89406500Y-13160500D02*
X87919500Y-11673500D01*
X87919500Y-11673500D02*
X28654400Y-11673500D01*
%TO.N,CHG_PH*%
X17374300Y-77324600D02*
X14914400Y-79784500D01*
X19403200Y-77324600D02*
X17374300Y-77324600D01*
X14914400Y-79784500D02*
X14914400Y-80057000D01*
X20791000Y-77324600D02*
X22888600Y-79422200D01*
X22888600Y-79422200D02*
X22888600Y-79627600D01*
X19403200Y-77324600D02*
X20791000Y-77324600D01*
%TO.N,SPI_SCK*%
X30669100Y-15388600D02*
X89607100Y-15388600D01*
X28660500Y-13380000D02*
X30669100Y-15388600D01*
X89607100Y-15388600D02*
X89955900Y-15039800D01*
%TO.N,SIM_VDD*%
X69151500Y-42217700D02*
X74088800Y-37280400D01*
X40079700Y-42217700D02*
X69151500Y-42217700D01*
%TO.N,I2C_SCL*%
X20464200Y-40629000D02*
X63318100Y-40629000D01*
X13852200Y-34017000D02*
X20464200Y-40629000D01*
%TO.N,MPPSET*%
X14914400Y-75786600D02*
X18701000Y-72000000D01*
X18701000Y-72000000D02*
X31900800Y-72000000D01*
%TO.N,FB_DIV*%
X45203300Y-81629200D02*
X49237200Y-77595300D01*
X49237200Y-77595300D02*
X62218200Y-77595300D01*
%TO.N,SIM_CLK*%
X78398300Y-33259900D02*
X80945300Y-35806900D01*
X48675600Y-33259900D02*
X78398300Y-33259900D01*
%TO.N,SOLAR_IN*%
X14274700Y-81107600D02*
X14625000Y-81457900D01*
X16759100Y-76956200D02*
X14274700Y-79440600D01*
X17564700Y-78223300D02*
X20770200Y-78223300D01*
X20770200Y-78223300D02*
X21202900Y-78656000D01*
X14274700Y-79440600D02*
X14274700Y-81107600D01*
%TO.N,SPI_MOSI*%
X93353600Y-12493000D02*
X93353600Y-12218500D01*
X28660500Y-15687000D02*
X28763800Y-15790300D01*
X28763800Y-15790300D02*
X90056300Y-15790300D01*
X90056300Y-15790300D02*
X93353600Y-12493000D01*
%TO.N,CHG_GATE_HI*%
X26396900Y-76033100D02*
X27930800Y-77567000D01*
X18072700Y-76033100D02*
X26396900Y-76033100D01*
%TO.N,3V3*%
X8151700Y-34000000D02*
X8151700Y-33712100D01*
X46686900Y-32809100D02*
X52538900Y-38661100D01*
X7000000Y-34000000D02*
X8151700Y-34000000D01*
X9054700Y-32809100D02*
X46686900Y-32809100D01*
X8151700Y-33712100D02*
X9054700Y-32809100D01*
%TO.N,CHG_SENSE_NEG*%
X20448300Y-82460100D02*
X22176000Y-80732400D01*
X16373200Y-83890900D02*
X16373200Y-82916100D01*
X16373200Y-83890900D02*
X24950400Y-83890900D01*
X7733700Y-83890900D02*
X16373200Y-83890900D01*
X16373200Y-82916100D02*
X16829200Y-82460100D01*
X16829200Y-82460100D02*
X20448300Y-82460100D01*
%TO.N,MODEM_VBAT*%
X33791700Y-45578600D02*
X34329800Y-45040500D01*
X34329800Y-45040500D02*
X51150800Y-45040500D01*
X51150800Y-45040500D02*
X52400000Y-43791300D01*
X10214900Y-45578600D02*
X33791700Y-45578600D01*
%TO.N,I2C_SDA*%
X7267800Y-48525700D02*
X19986400Y-61244300D01*
X19986400Y-61244300D02*
X66920200Y-61244300D01*
%TO.N,SIM_DATA*%
X70515300Y-50574600D02*
X80435900Y-40654000D01*
X48301800Y-50574600D02*
X70515300Y-50574600D01*
%TD*%
%TA.AperFunction,Conductor*%
%TO.N,GND*%
G36*
X99458691Y-519407D02*
G01*
X99494655Y-568907D01*
X99499500Y-599500D01*
X99499500Y-99400500D01*
X99480593Y-99458691D01*
X99431093Y-99494655D01*
X99400500Y-99499500D01*
X599500Y-99499500D01*
X541309Y-99480593D01*
X505345Y-99431093D01*
X500500Y-99400500D01*
X500500Y-96342727D01*
X699500Y-96342727D01*
X699500Y-96657272D01*
X734718Y-96969841D01*
X804711Y-97276501D01*
X908597Y-97573392D01*
X908598Y-97573394D01*
X1045066Y-97856774D01*
X1045070Y-97856781D01*
X1045074Y-97856789D01*
X1212423Y-98123123D01*
X1408539Y-98369044D01*
X1630956Y-98591461D01*
X1876877Y-98787577D01*
X2143211Y-98954926D01*
X2143222Y-98954931D01*
X2143225Y-98954933D01*
X2237377Y-99000274D01*
X2426606Y-99091402D01*
X2723500Y-99195289D01*
X3030160Y-99265282D01*
X3342727Y-99300500D01*
X3342728Y-99300500D01*
X3657272Y-99300500D01*
X3657273Y-99300500D01*
X3969840Y-99265282D01*
X4276500Y-99195289D01*
X4573394Y-99091402D01*
X4856789Y-98954926D01*
X5123123Y-98787577D01*
X5369044Y-98591461D01*
X5591461Y-98369044D01*
X5787577Y-98123123D01*
X5954926Y-97856789D01*
X6091402Y-97573394D01*
X6195289Y-97276500D01*
X6265282Y-96969840D01*
X6300500Y-96657273D01*
X6300500Y-96342727D01*
X93699500Y-96342727D01*
X93699500Y-96657272D01*
X93734718Y-96969841D01*
X93804711Y-97276501D01*
X93908597Y-97573392D01*
X93908598Y-97573394D01*
X94045066Y-97856774D01*
X94045070Y-97856781D01*
X94045074Y-97856789D01*
X94212423Y-98123123D01*
X94408539Y-98369044D01*
X94630956Y-98591461D01*
X94876877Y-98787577D01*
X95143211Y-98954926D01*
X95143222Y-98954931D01*
X95143225Y-98954933D01*
X95237377Y-99000274D01*
X95426606Y-99091402D01*
X95723500Y-99195289D01*
X96030160Y-99265282D01*
X96342727Y-99300500D01*
X96342728Y-99300500D01*
X96657272Y-99300500D01*
X96657273Y-99300500D01*
X96969840Y-99265282D01*
X97276500Y-99195289D01*
X97573394Y-99091402D01*
X97856789Y-98954926D01*
X98123123Y-98787577D01*
X98369044Y-98591461D01*
X98591461Y-98369044D01*
X98787577Y-98123123D01*
X98954926Y-97856789D01*
X99091402Y-97573394D01*
X99195289Y-97276500D01*
X99265282Y-96969840D01*
X99300500Y-96657273D01*
X99300500Y-96342727D01*
X99265282Y-96030160D01*
X99195289Y-95723500D01*
X99091402Y-95426606D01*
X98954926Y-95143211D01*
X98787577Y-94876877D01*
X98591461Y-94630956D01*
X98369044Y-94408539D01*
X98123123Y-94212423D01*
X97856789Y-94045074D01*
X97856781Y-94045070D01*
X97856774Y-94045066D01*
X97573394Y-93908598D01*
X97573392Y-93908597D01*
X97276501Y-93804711D01*
X96969841Y-93734718D01*
X96813556Y-93717109D01*
X96657273Y-93699500D01*
X96342727Y-93699500D01*
X96238538Y-93711239D01*
X96030158Y-93734718D01*
X95723498Y-93804711D01*
X95426607Y-93908597D01*
X95426605Y-93908598D01*
X95143225Y-94045066D01*
X95143213Y-94045073D01*
X94876876Y-94212423D01*
X94630957Y-94408538D01*
X94408538Y-94630957D01*
X94212423Y-94876876D01*
X94045073Y-95143213D01*
X94045066Y-95143225D01*
X93908598Y-95426605D01*
X93908597Y-95426607D01*
X93804711Y-95723498D01*
X93734718Y-96030158D01*
X93699500Y-96342727D01*
X6300500Y-96342727D01*
X6265282Y-96030160D01*
X6195289Y-95723500D01*
X6091402Y-95426606D01*
X5954926Y-95143211D01*
X5787577Y-94876877D01*
X5591461Y-94630956D01*
X5369044Y-94408539D01*
X5123123Y-94212423D01*
X4856789Y-94045074D01*
X4856781Y-94045070D01*
X4856774Y-94045066D01*
X4573394Y-93908598D01*
X4573392Y-93908597D01*
X4276501Y-93804711D01*
X3969841Y-93734718D01*
X3813556Y-93717109D01*
X3657273Y-93699500D01*
X3342727Y-93699500D01*
X3238538Y-93711239D01*
X3030158Y-93734718D01*
X2723498Y-93804711D01*
X2426607Y-93908597D01*
X2426605Y-93908598D01*
X2143225Y-94045066D01*
X2143213Y-94045073D01*
X1876876Y-94212423D01*
X1630957Y-94408538D01*
X1408538Y-94630957D01*
X1212423Y-94876876D01*
X1045073Y-95143213D01*
X1045066Y-95143225D01*
X908598Y-95426605D01*
X908597Y-95426607D01*
X804711Y-95723498D01*
X734718Y-96030158D01*
X699500Y-96342727D01*
X500500Y-96342727D01*
X500500Y-83825008D01*
X7233200Y-83825008D01*
X7233200Y-83956792D01*
X7263279Y-84069051D01*
X7267309Y-84084090D01*
X7333196Y-84198209D01*
X7333198Y-84198211D01*
X7333200Y-84198214D01*
X7426386Y-84291400D01*
X7426388Y-84291401D01*
X7426390Y-84291403D01*
X7540510Y-84357290D01*
X7540508Y-84357290D01*
X7540512Y-84357291D01*
X7540514Y-84357292D01*
X7667808Y-84391400D01*
X7667810Y-84391400D01*
X7799590Y-84391400D01*
X7799592Y-84391400D01*
X7926886Y-84357292D01*
X7926888Y-84357290D01*
X7926890Y-84357290D01*
X8041009Y-84291403D01*
X8041009Y-84291402D01*
X8041014Y-84291400D01*
X8112019Y-84220394D01*
X8166534Y-84192619D01*
X8182021Y-84191400D01*
X16333638Y-84191400D01*
X24502079Y-84191400D01*
X24560270Y-84210307D01*
X24572076Y-84220390D01*
X24643086Y-84291400D01*
X24643088Y-84291401D01*
X24643090Y-84291403D01*
X24757210Y-84357290D01*
X24757208Y-84357290D01*
X24757212Y-84357291D01*
X24757214Y-84357292D01*
X24884508Y-84391400D01*
X24884510Y-84391400D01*
X25016290Y-84391400D01*
X25016292Y-84391400D01*
X25143586Y-84357292D01*
X25143588Y-84357290D01*
X25143590Y-84357290D01*
X25257709Y-84291403D01*
X25257709Y-84291402D01*
X25257714Y-84291400D01*
X25350900Y-84198214D01*
X25416792Y-84084086D01*
X25450900Y-83956792D01*
X25450900Y-83825008D01*
X39185400Y-83825008D01*
X39185400Y-83956792D01*
X39215479Y-84069051D01*
X39219509Y-84084090D01*
X39285396Y-84198209D01*
X39285398Y-84198211D01*
X39285400Y-84198214D01*
X39378586Y-84291400D01*
X39378588Y-84291401D01*
X39378590Y-84291403D01*
X39492710Y-84357290D01*
X39492708Y-84357290D01*
X39492712Y-84357291D01*
X39492714Y-84357292D01*
X39620008Y-84391400D01*
X39620010Y-84391400D01*
X39751790Y-84391400D01*
X39751792Y-84391400D01*
X39879086Y-84357292D01*
X39879088Y-84357290D01*
X39879090Y-84357290D01*
X39993209Y-84291403D01*
X39993209Y-84291402D01*
X39993214Y-84291400D01*
X40086400Y-84198214D01*
X40152292Y-84084086D01*
X40186400Y-83956792D01*
X40186400Y-83856378D01*
X40205307Y-83798187D01*
X40215396Y-83786374D01*
X41163875Y-82837896D01*
X41218392Y-82810119D01*
X41233879Y-82808900D01*
X48975979Y-82808900D01*
X49034170Y-82827807D01*
X49045976Y-82837890D01*
X49116886Y-82908800D01*
X49116888Y-82908801D01*
X49116890Y-82908803D01*
X49231010Y-82974690D01*
X49231008Y-82974690D01*
X49231012Y-82974691D01*
X49231014Y-82974692D01*
X49358308Y-83008800D01*
X49358310Y-83008800D01*
X49490090Y-83008800D01*
X49490092Y-83008800D01*
X49617386Y-82974692D01*
X49617388Y-82974690D01*
X49617390Y-82974690D01*
X49731509Y-82908803D01*
X49731509Y-82908802D01*
X49731514Y-82908800D01*
X49824700Y-82815614D01*
X49841967Y-82785707D01*
X49890590Y-82701490D01*
X49890590Y-82701488D01*
X49890592Y-82701486D01*
X49924700Y-82574192D01*
X49924700Y-82442408D01*
X49890592Y-82315114D01*
X49890590Y-82315111D01*
X49890590Y-82315109D01*
X49824703Y-82200990D01*
X49824701Y-82200988D01*
X49824700Y-82200986D01*
X49731514Y-82107800D01*
X49731511Y-82107798D01*
X49731509Y-82107796D01*
X49617389Y-82041909D01*
X49617391Y-82041909D01*
X49567999Y-82028675D01*
X49490092Y-82007800D01*
X49358308Y-82007800D01*
X49280400Y-82028675D01*
X49231009Y-82041909D01*
X49116890Y-82107796D01*
X49116889Y-82107797D01*
X49116886Y-82107799D01*
X49116886Y-82107800D01*
X49045780Y-82178905D01*
X48991266Y-82206681D01*
X48975779Y-82207900D01*
X45570024Y-82207900D01*
X45511833Y-82188993D01*
X45475869Y-82139493D01*
X45475869Y-82078307D01*
X45506583Y-82034846D01*
X45506025Y-82034288D01*
X45509275Y-82031037D01*
X45509755Y-82030359D01*
X45510608Y-82029703D01*
X45510614Y-82029700D01*
X45603800Y-81936514D01*
X45610378Y-81925121D01*
X45669690Y-81822390D01*
X45669690Y-81822388D01*
X45669692Y-81822386D01*
X45703800Y-81695092D01*
X45703800Y-81594678D01*
X45722707Y-81536487D01*
X45732796Y-81524674D01*
X49332675Y-77924796D01*
X49387192Y-77897019D01*
X49402679Y-77895800D01*
X61769879Y-77895800D01*
X61828070Y-77914707D01*
X61839876Y-77924790D01*
X61910886Y-77995800D01*
X61910888Y-77995801D01*
X61910890Y-77995803D01*
X62025010Y-78061690D01*
X62025008Y-78061690D01*
X62025012Y-78061691D01*
X62025014Y-78061692D01*
X62152308Y-78095800D01*
X62152310Y-78095800D01*
X62284090Y-78095800D01*
X62284092Y-78095800D01*
X62411386Y-78061692D01*
X62411388Y-78061690D01*
X62411390Y-78061690D01*
X62525509Y-77995803D01*
X62525509Y-77995802D01*
X62525514Y-77995800D01*
X62618700Y-77902614D01*
X62618703Y-77902609D01*
X62684590Y-77788490D01*
X62684590Y-77788488D01*
X62684592Y-77788486D01*
X62718700Y-77661192D01*
X62718700Y-77529408D01*
X62684592Y-77402114D01*
X62684590Y-77402111D01*
X62684590Y-77402109D01*
X62618703Y-77287990D01*
X62618701Y-77287988D01*
X62618700Y-77287986D01*
X62525514Y-77194800D01*
X62525511Y-77194798D01*
X62525509Y-77194796D01*
X62411389Y-77128909D01*
X62411391Y-77128909D01*
X62361999Y-77115675D01*
X62284092Y-77094800D01*
X62152308Y-77094800D01*
X62074400Y-77115675D01*
X62025009Y-77128909D01*
X61910890Y-77194796D01*
X61910889Y-77194797D01*
X61910886Y-77194799D01*
X61910886Y-77194800D01*
X61839880Y-77265805D01*
X61785366Y-77293581D01*
X61769879Y-77294800D01*
X49197635Y-77294800D01*
X49121212Y-77315278D01*
X49062134Y-77349387D01*
X49052690Y-77354839D01*
X45307824Y-81099704D01*
X45253307Y-81127481D01*
X45237820Y-81128700D01*
X45137408Y-81128700D01*
X45078068Y-81144600D01*
X45010109Y-81162809D01*
X44895990Y-81228696D01*
X44802796Y-81321890D01*
X44736909Y-81436009D01*
X44717839Y-81507178D01*
X44702800Y-81563308D01*
X44702800Y-81695092D01*
X44721588Y-81765209D01*
X44736909Y-81822390D01*
X44802796Y-81936509D01*
X44802798Y-81936511D01*
X44802800Y-81936514D01*
X44895986Y-82029700D01*
X44895988Y-82029701D01*
X44895989Y-82029702D01*
X44896845Y-82030359D01*
X44897282Y-82030995D01*
X44900575Y-82034288D01*
X44899964Y-82034898D01*
X44931500Y-82080784D01*
X44929897Y-82141949D01*
X44892648Y-82190490D01*
X44836576Y-82207900D01*
X41028835Y-82207900D01*
X40952414Y-82228377D01*
X40952410Y-82228379D01*
X40893507Y-82262385D01*
X40893508Y-82262386D01*
X40883891Y-82267938D01*
X39790424Y-83361404D01*
X39735907Y-83389181D01*
X39720420Y-83390400D01*
X39620008Y-83390400D01*
X39542100Y-83411275D01*
X39492709Y-83424509D01*
X39378590Y-83490396D01*
X39285396Y-83583590D01*
X39219509Y-83697709D01*
X39219508Y-83697714D01*
X39185400Y-83825008D01*
X25450900Y-83825008D01*
X25416792Y-83697714D01*
X25397788Y-83664799D01*
X25385068Y-83604952D01*
X25409955Y-83549056D01*
X25462943Y-83518463D01*
X25483526Y-83516300D01*
X28888963Y-83516300D01*
X28888963Y-83516299D01*
X28965389Y-83495821D01*
X29033911Y-83456260D01*
X29089860Y-83400311D01*
X33512574Y-78977595D01*
X33567091Y-78949819D01*
X33582578Y-78948600D01*
X33682990Y-78948600D01*
X33682992Y-78948600D01*
X33810286Y-78914492D01*
X33810288Y-78914490D01*
X33810290Y-78914490D01*
X33924409Y-78848603D01*
X33924409Y-78848602D01*
X33924414Y-78848600D01*
X34017600Y-78755414D01*
X34017603Y-78755409D01*
X34083490Y-78641290D01*
X34083490Y-78641288D01*
X34083492Y-78641286D01*
X34117600Y-78513992D01*
X34117600Y-78382208D01*
X34083492Y-78254914D01*
X34083490Y-78254911D01*
X34083490Y-78254909D01*
X34017603Y-78140790D01*
X34017601Y-78140788D01*
X34017600Y-78140786D01*
X33924414Y-78047600D01*
X33924411Y-78047598D01*
X33924409Y-78047596D01*
X33810289Y-77981709D01*
X33810291Y-77981709D01*
X33757272Y-77967503D01*
X33682992Y-77947600D01*
X33551208Y-77947600D01*
X33476928Y-77967503D01*
X33423909Y-77981709D01*
X33309790Y-78047596D01*
X33216596Y-78140790D01*
X33150709Y-78254909D01*
X33116600Y-78382209D01*
X33116600Y-78482620D01*
X33097693Y-78540811D01*
X33087604Y-78552624D01*
X28753925Y-82886304D01*
X28699408Y-82914081D01*
X28683921Y-82915300D01*
X20630343Y-82915300D01*
X20572152Y-82896393D01*
X20536188Y-82846893D01*
X20536188Y-82785707D01*
X20572152Y-82736207D01*
X20580843Y-82730564D01*
X20602398Y-82718118D01*
X20632811Y-82700560D01*
X20688760Y-82644611D01*
X22071474Y-81261895D01*
X22125991Y-81234119D01*
X22141478Y-81232900D01*
X22241890Y-81232900D01*
X22241892Y-81232900D01*
X22369186Y-81198792D01*
X22369188Y-81198790D01*
X22369190Y-81198790D01*
X22483309Y-81132903D01*
X22483309Y-81132902D01*
X22483314Y-81132900D01*
X22576500Y-81039714D01*
X22642392Y-80925586D01*
X22676500Y-80798292D01*
X22676500Y-80666508D01*
X22673262Y-80654423D01*
X22676463Y-80593323D01*
X22714967Y-80545773D01*
X22768888Y-80529800D01*
X28424963Y-80529800D01*
X28424963Y-80529799D01*
X28501389Y-80509321D01*
X28569911Y-80469760D01*
X28625176Y-80414494D01*
X28679691Y-80386719D01*
X28695178Y-80385500D01*
X28795590Y-80385500D01*
X28795592Y-80385500D01*
X28922886Y-80351392D01*
X28922888Y-80351390D01*
X28922890Y-80351390D01*
X29037009Y-80285503D01*
X29037009Y-80285502D01*
X29037014Y-80285500D01*
X29130200Y-80192314D01*
X29170282Y-80122890D01*
X29196090Y-80078190D01*
X29196090Y-80078188D01*
X29196092Y-80078186D01*
X29230200Y-79950892D01*
X29230200Y-79819108D01*
X29196092Y-79691814D01*
X29196090Y-79691811D01*
X29196090Y-79691809D01*
X29130203Y-79577690D01*
X29130201Y-79577688D01*
X29130200Y-79577686D01*
X29037014Y-79484500D01*
X29037011Y-79484498D01*
X29037009Y-79484496D01*
X28922889Y-79418609D01*
X28922891Y-79418609D01*
X28854969Y-79400410D01*
X28795592Y-79384500D01*
X28663808Y-79384500D01*
X28604431Y-79400410D01*
X28536509Y-79418609D01*
X28422390Y-79484496D01*
X28329196Y-79577690D01*
X28263309Y-79691809D01*
X28229200Y-79819109D01*
X28229200Y-79829800D01*
X28210293Y-79887991D01*
X28160793Y-79923955D01*
X28130200Y-79928800D01*
X23455069Y-79928800D01*
X23396878Y-79909893D01*
X23360914Y-79860393D01*
X23359442Y-79804177D01*
X23367902Y-79772603D01*
X23389100Y-79693492D01*
X23389100Y-79561708D01*
X23354992Y-79434414D01*
X23354990Y-79434410D01*
X23354990Y-79434409D01*
X23289103Y-79320290D01*
X23289101Y-79320288D01*
X23289100Y-79320286D01*
X23195914Y-79227100D01*
X23195911Y-79227098D01*
X23195909Y-79227096D01*
X23081789Y-79161209D01*
X23081786Y-79161208D01*
X23067508Y-79157382D01*
X23023131Y-79131760D01*
X22032157Y-78140786D01*
X20975511Y-77084140D01*
X20944957Y-77066500D01*
X20944956Y-77066499D01*
X20944955Y-77066499D01*
X20906989Y-77044579D01*
X20906986Y-77044578D01*
X20830564Y-77024100D01*
X20830562Y-77024100D01*
X19851521Y-77024100D01*
X19793330Y-77005193D01*
X19781523Y-76995109D01*
X19710514Y-76924100D01*
X19710511Y-76924098D01*
X19710509Y-76924096D01*
X19596389Y-76858209D01*
X19596391Y-76858209D01*
X19546999Y-76844975D01*
X19469092Y-76824100D01*
X19337308Y-76824100D01*
X19259400Y-76844975D01*
X19210009Y-76858209D01*
X19095890Y-76924096D01*
X19095889Y-76924097D01*
X19095886Y-76924099D01*
X19095886Y-76924100D01*
X19024880Y-76995105D01*
X18970366Y-77022881D01*
X18954879Y-77024100D01*
X17358600Y-77024100D01*
X17300409Y-77005193D01*
X17264445Y-76955693D01*
X17259600Y-76925100D01*
X17259600Y-76890309D01*
X17250999Y-76858208D01*
X17225492Y-76763014D01*
X17225490Y-76763011D01*
X17225490Y-76763009D01*
X17159603Y-76648890D01*
X17159601Y-76648888D01*
X17159600Y-76648886D01*
X17066414Y-76555700D01*
X17066411Y-76555698D01*
X17066409Y-76555696D01*
X16952289Y-76489809D01*
X16952291Y-76489809D01*
X16902899Y-76476575D01*
X16824992Y-76455700D01*
X16693208Y-76455700D01*
X16615300Y-76476575D01*
X16565909Y-76489809D01*
X16451790Y-76555696D01*
X16358596Y-76648890D01*
X16292709Y-76763009D01*
X16258600Y-76890309D01*
X16258600Y-76990720D01*
X16239693Y-77048911D01*
X16229604Y-77060724D01*
X14090189Y-79200140D01*
X14090188Y-79200139D01*
X14034239Y-79256089D01*
X13994680Y-79324607D01*
X13994678Y-79324611D01*
X13974200Y-79401035D01*
X13974200Y-81147164D01*
X13994677Y-81223585D01*
X13994679Y-81223590D01*
X14016795Y-81261896D01*
X14022567Y-81271893D01*
X14034240Y-81292111D01*
X14095505Y-81353376D01*
X14123281Y-81407891D01*
X14124500Y-81423378D01*
X14124500Y-81523792D01*
X14139349Y-81579208D01*
X14158609Y-81651090D01*
X14224496Y-81765209D01*
X14224498Y-81765211D01*
X14224500Y-81765214D01*
X14317686Y-81858400D01*
X14317688Y-81858401D01*
X14317690Y-81858403D01*
X14431810Y-81924290D01*
X14431808Y-81924290D01*
X14431812Y-81924291D01*
X14431814Y-81924292D01*
X14559108Y-81958400D01*
X14559110Y-81958400D01*
X14690890Y-81958400D01*
X14690892Y-81958400D01*
X14818186Y-81924292D01*
X14818188Y-81924290D01*
X14818190Y-81924290D01*
X14932309Y-81858403D01*
X14932309Y-81858402D01*
X14932314Y-81858400D01*
X15025500Y-81765214D01*
X15056805Y-81710992D01*
X15091390Y-81651090D01*
X15091390Y-81651088D01*
X15091392Y-81651086D01*
X15125500Y-81523792D01*
X15125500Y-81392008D01*
X15091392Y-81264714D01*
X15091390Y-81264711D01*
X15091390Y-81264709D01*
X15025503Y-81150590D01*
X15025501Y-81150588D01*
X15025500Y-81150586D01*
X14932314Y-81057400D01*
X14932311Y-81057398D01*
X14932309Y-81057396D01*
X14818189Y-80991509D01*
X14818191Y-80991509D01*
X14768799Y-80978275D01*
X14690892Y-80957400D01*
X14690890Y-80957400D01*
X14674200Y-80957400D01*
X14616009Y-80938493D01*
X14580045Y-80888993D01*
X14575200Y-80858400D01*
X14575200Y-80610564D01*
X14594107Y-80552373D01*
X14643607Y-80516409D01*
X14704793Y-80516409D01*
X14715166Y-80521027D01*
X14715216Y-80520908D01*
X14721208Y-80523390D01*
X14721212Y-80523391D01*
X14721214Y-80523392D01*
X14848508Y-80557500D01*
X14848510Y-80557500D01*
X14980290Y-80557500D01*
X14980292Y-80557500D01*
X15107586Y-80523392D01*
X15107588Y-80523390D01*
X15107590Y-80523390D01*
X15221709Y-80457503D01*
X15221709Y-80457502D01*
X15221714Y-80457500D01*
X15314900Y-80364314D01*
X15360402Y-80285503D01*
X15380790Y-80250190D01*
X15380790Y-80250188D01*
X15380792Y-80250186D01*
X15414900Y-80122892D01*
X15414900Y-79991108D01*
X15380792Y-79863814D01*
X15374582Y-79853058D01*
X15361861Y-79793209D01*
X15386748Y-79737314D01*
X15390296Y-79733573D01*
X15565192Y-79558677D01*
X15619707Y-79530902D01*
X15680139Y-79540473D01*
X15720930Y-79579182D01*
X15778798Y-79679411D01*
X15778800Y-79679414D01*
X15871986Y-79772600D01*
X15871988Y-79772601D01*
X15871990Y-79772603D01*
X15986110Y-79838490D01*
X15986108Y-79838490D01*
X15986112Y-79838491D01*
X15986114Y-79838492D01*
X16113408Y-79872600D01*
X16113410Y-79872600D01*
X16245190Y-79872600D01*
X16245192Y-79872600D01*
X16372486Y-79838492D01*
X16372488Y-79838490D01*
X16372490Y-79838490D01*
X16486609Y-79772603D01*
X16486609Y-79772602D01*
X16486614Y-79772600D01*
X16557619Y-79701594D01*
X16612134Y-79673819D01*
X16627621Y-79672600D01*
X20922837Y-79672600D01*
X20981028Y-79691507D01*
X21016992Y-79741007D01*
X21018455Y-79745947D01*
X21025598Y-79772603D01*
X21038509Y-79820790D01*
X21104396Y-79934909D01*
X21104398Y-79934911D01*
X21104400Y-79934914D01*
X21197586Y-80028100D01*
X21296802Y-80085382D01*
X21337742Y-80130851D01*
X21344138Y-80191701D01*
X21317305Y-80241122D01*
X20242825Y-81315604D01*
X20188308Y-81343381D01*
X20172821Y-81344600D01*
X17819121Y-81344600D01*
X17760930Y-81325693D01*
X17749123Y-81315609D01*
X17678114Y-81244600D01*
X17678111Y-81244598D01*
X17678109Y-81244596D01*
X17563989Y-81178709D01*
X17563991Y-81178709D01*
X17514599Y-81165475D01*
X17436692Y-81144600D01*
X17304908Y-81144600D01*
X17227000Y-81165475D01*
X17177609Y-81178709D01*
X17063490Y-81244596D01*
X16970296Y-81337790D01*
X16904409Y-81451909D01*
X16904408Y-81451914D01*
X16870300Y-81579208D01*
X16870300Y-81710992D01*
X16884829Y-81765214D01*
X16904409Y-81838290D01*
X16970296Y-81952409D01*
X16970298Y-81952411D01*
X16970300Y-81952414D01*
X17008484Y-81990598D01*
X17036260Y-82045113D01*
X17026689Y-82105545D01*
X16983424Y-82148810D01*
X16938479Y-82159600D01*
X16789635Y-82159600D01*
X16713211Y-82180078D01*
X16713207Y-82180080D01*
X16644689Y-82219639D01*
X16132739Y-82731589D01*
X16093180Y-82800107D01*
X16093178Y-82800111D01*
X16072700Y-82876535D01*
X16072700Y-83491400D01*
X16053793Y-83549591D01*
X16004293Y-83585555D01*
X15973700Y-83590400D01*
X8182021Y-83590400D01*
X8123830Y-83571493D01*
X8112023Y-83561409D01*
X8041014Y-83490400D01*
X8041011Y-83490398D01*
X8041009Y-83490396D01*
X7926889Y-83424509D01*
X7926891Y-83424509D01*
X7877499Y-83411275D01*
X7799592Y-83390400D01*
X7667808Y-83390400D01*
X7589900Y-83411275D01*
X7540509Y-83424509D01*
X7426390Y-83490396D01*
X7333196Y-83583590D01*
X7267309Y-83697709D01*
X7267308Y-83697714D01*
X7233200Y-83825008D01*
X500500Y-83825008D01*
X500500Y-75720708D01*
X14413900Y-75720708D01*
X14413900Y-75852492D01*
X14443979Y-75964751D01*
X14448009Y-75979790D01*
X14513896Y-76093909D01*
X14513898Y-76093911D01*
X14513900Y-76093914D01*
X14607086Y-76187100D01*
X14607088Y-76187101D01*
X14607090Y-76187103D01*
X14721210Y-76252990D01*
X14721208Y-76252990D01*
X14721212Y-76252991D01*
X14721214Y-76252992D01*
X14848508Y-76287100D01*
X14848510Y-76287100D01*
X14980290Y-76287100D01*
X14980292Y-76287100D01*
X15107586Y-76252992D01*
X15107588Y-76252990D01*
X15107590Y-76252990D01*
X15221709Y-76187103D01*
X15221709Y-76187102D01*
X15221714Y-76187100D01*
X15314900Y-76093914D01*
X15380792Y-75979786D01*
X15384162Y-75967208D01*
X17572200Y-75967208D01*
X17572200Y-76098992D01*
X17595808Y-76187100D01*
X17606309Y-76226290D01*
X17672196Y-76340409D01*
X17672198Y-76340411D01*
X17672200Y-76340414D01*
X17765386Y-76433600D01*
X17765388Y-76433601D01*
X17765390Y-76433603D01*
X17879510Y-76499490D01*
X17879508Y-76499490D01*
X17879512Y-76499491D01*
X17879514Y-76499492D01*
X18006808Y-76533600D01*
X18006810Y-76533600D01*
X18138590Y-76533600D01*
X18138592Y-76533600D01*
X18265886Y-76499492D01*
X18265888Y-76499490D01*
X18265890Y-76499490D01*
X18380009Y-76433603D01*
X18380009Y-76433602D01*
X18380014Y-76433600D01*
X18451019Y-76362594D01*
X18505534Y-76334819D01*
X18521021Y-76333600D01*
X26231421Y-76333600D01*
X26289612Y-76352507D01*
X26301425Y-76362596D01*
X27401304Y-77462475D01*
X27429081Y-77516992D01*
X27430300Y-77532479D01*
X27430300Y-77632892D01*
X27437883Y-77661192D01*
X27464409Y-77760190D01*
X27530296Y-77874309D01*
X27530298Y-77874311D01*
X27530300Y-77874314D01*
X27623486Y-77967500D01*
X27623488Y-77967501D01*
X27623490Y-77967503D01*
X27737610Y-78033390D01*
X27737608Y-78033390D01*
X27737612Y-78033391D01*
X27737614Y-78033392D01*
X27864908Y-78067500D01*
X27864910Y-78067500D01*
X27996690Y-78067500D01*
X27996692Y-78067500D01*
X28123986Y-78033392D01*
X28123988Y-78033390D01*
X28123990Y-78033390D01*
X28238109Y-77967503D01*
X28238109Y-77967502D01*
X28238114Y-77967500D01*
X28331300Y-77874314D01*
X28334515Y-77868745D01*
X28397190Y-77760190D01*
X28397190Y-77760188D01*
X28397192Y-77760186D01*
X28431300Y-77632892D01*
X28431300Y-77501108D01*
X28397192Y-77373814D01*
X28397190Y-77373811D01*
X28397190Y-77373809D01*
X28331303Y-77259690D01*
X28331301Y-77259688D01*
X28331300Y-77259686D01*
X28238114Y-77166500D01*
X28238111Y-77166498D01*
X28238109Y-77166496D01*
X28123989Y-77100609D01*
X28123991Y-77100609D01*
X28062526Y-77084140D01*
X27996692Y-77066500D01*
X27896279Y-77066500D01*
X27838088Y-77047593D01*
X27826275Y-77037504D01*
X27222371Y-76433600D01*
X26581411Y-75792640D01*
X26571966Y-75787187D01*
X26512889Y-75753079D01*
X26512888Y-75753078D01*
X26512887Y-75753078D01*
X26436464Y-75732600D01*
X26436462Y-75732600D01*
X18521021Y-75732600D01*
X18462830Y-75713693D01*
X18451023Y-75703609D01*
X18380014Y-75632600D01*
X18380011Y-75632598D01*
X18380009Y-75632596D01*
X18265889Y-75566709D01*
X18265891Y-75566709D01*
X18216499Y-75553475D01*
X18138592Y-75532600D01*
X18006808Y-75532600D01*
X17928900Y-75553475D01*
X17879509Y-75566709D01*
X17765390Y-75632596D01*
X17672196Y-75725790D01*
X17606309Y-75839909D01*
X17587239Y-75911078D01*
X17572200Y-75967208D01*
X15384162Y-75967208D01*
X15414900Y-75852492D01*
X15414900Y-75752078D01*
X15433807Y-75693887D01*
X15443896Y-75682074D01*
X18796475Y-72329496D01*
X18850992Y-72301719D01*
X18866479Y-72300500D01*
X31452479Y-72300500D01*
X31510670Y-72319407D01*
X31522476Y-72329490D01*
X31593486Y-72400500D01*
X31593488Y-72400501D01*
X31593490Y-72400503D01*
X31707610Y-72466390D01*
X31707608Y-72466390D01*
X31707612Y-72466391D01*
X31707614Y-72466392D01*
X31834908Y-72500500D01*
X31834910Y-72500500D01*
X31966690Y-72500500D01*
X31966692Y-72500500D01*
X32093986Y-72466392D01*
X32093988Y-72466390D01*
X32093990Y-72466390D01*
X32208109Y-72400503D01*
X32208109Y-72400502D01*
X32208114Y-72400500D01*
X32301300Y-72307314D01*
X32367192Y-72193186D01*
X32401300Y-72065892D01*
X32401300Y-71934108D01*
X32367192Y-71806814D01*
X32367190Y-71806811D01*
X32367190Y-71806809D01*
X32301303Y-71692690D01*
X32301301Y-71692688D01*
X32301300Y-71692686D01*
X32208114Y-71599500D01*
X32208111Y-71599498D01*
X32208109Y-71599496D01*
X32093989Y-71533609D01*
X32093991Y-71533609D01*
X32044599Y-71520375D01*
X31966692Y-71499500D01*
X31834908Y-71499500D01*
X31757000Y-71520375D01*
X31707609Y-71533609D01*
X31593490Y-71599496D01*
X31593489Y-71599497D01*
X31593486Y-71599499D01*
X31593486Y-71599500D01*
X31522480Y-71670505D01*
X31467966Y-71698281D01*
X31452479Y-71699500D01*
X18661435Y-71699500D01*
X18585012Y-71719978D01*
X18525934Y-71754087D01*
X18516490Y-71759539D01*
X15018924Y-75257104D01*
X14964407Y-75284881D01*
X14948920Y-75286100D01*
X14848508Y-75286100D01*
X14770600Y-75306975D01*
X14721209Y-75320209D01*
X14607090Y-75386096D01*
X14513896Y-75479290D01*
X14448009Y-75593409D01*
X14448008Y-75593414D01*
X14413900Y-75720708D01*
X500500Y-75720708D01*
X500500Y-70436532D01*
X60949500Y-70436532D01*
X60949500Y-70643467D01*
X60989869Y-70846418D01*
X61069058Y-71037597D01*
X61069059Y-71037598D01*
X61184023Y-71209655D01*
X61330345Y-71355977D01*
X61502402Y-71470941D01*
X61693580Y-71550130D01*
X61896535Y-71590500D01*
X61896536Y-71590500D01*
X62103464Y-71590500D01*
X62103465Y-71590500D01*
X62306420Y-71550130D01*
X62497598Y-71470941D01*
X62669655Y-71355977D01*
X62815977Y-71209655D01*
X62930941Y-71037598D01*
X63010130Y-70846420D01*
X63050500Y-70643465D01*
X63050500Y-70436535D01*
X63010130Y-70233580D01*
X62930941Y-70042402D01*
X62815977Y-69870345D01*
X62669655Y-69724023D01*
X62497598Y-69609059D01*
X62497599Y-69609059D01*
X62497597Y-69609058D01*
X62306418Y-69529869D01*
X62103467Y-69489500D01*
X62103465Y-69489500D01*
X61896535Y-69489500D01*
X61896532Y-69489500D01*
X61693581Y-69529869D01*
X61502402Y-69609058D01*
X61330348Y-69724020D01*
X61184020Y-69870348D01*
X61069058Y-70042402D01*
X60989869Y-70233581D01*
X60949500Y-70436532D01*
X500500Y-70436532D01*
X500500Y-67130253D01*
X60949500Y-67130253D01*
X60949500Y-68869746D01*
X60949501Y-68869758D01*
X60961132Y-68928227D01*
X60961133Y-68928231D01*
X61005448Y-68994552D01*
X61071769Y-69038867D01*
X61116231Y-69047711D01*
X61130241Y-69050498D01*
X61130246Y-69050498D01*
X61130252Y-69050500D01*
X61130253Y-69050500D01*
X62869747Y-69050500D01*
X62869748Y-69050500D01*
X62928231Y-69038867D01*
X62994552Y-68994552D01*
X63038867Y-68928231D01*
X63050500Y-68869748D01*
X63050500Y-67130252D01*
X63038867Y-67071769D01*
X62994552Y-67005448D01*
X62994548Y-67005445D01*
X62928233Y-66961134D01*
X62928231Y-66961133D01*
X62928228Y-66961132D01*
X62928227Y-66961132D01*
X62869758Y-66949501D01*
X62869748Y-66949500D01*
X61130252Y-66949500D01*
X61130251Y-66949500D01*
X61130241Y-66949501D01*
X61071772Y-66961132D01*
X61071766Y-66961134D01*
X61005451Y-67005445D01*
X61005445Y-67005451D01*
X60961134Y-67071766D01*
X60961132Y-67071772D01*
X60949501Y-67130241D01*
X60949500Y-67130253D01*
X500500Y-67130253D01*
X500500Y-48459808D01*
X6767300Y-48459808D01*
X6767300Y-48591592D01*
X6777652Y-48630225D01*
X6801409Y-48718890D01*
X6867296Y-48833009D01*
X6867298Y-48833011D01*
X6867300Y-48833014D01*
X6960486Y-48926200D01*
X6960488Y-48926201D01*
X6960490Y-48926203D01*
X7074610Y-48992090D01*
X7074608Y-48992090D01*
X7074612Y-48992091D01*
X7074614Y-48992092D01*
X7201908Y-49026200D01*
X7201910Y-49026200D01*
X7302321Y-49026200D01*
X7360512Y-49045107D01*
X7372325Y-49055196D01*
X19801889Y-61484760D01*
X19801891Y-61484761D01*
X19801892Y-61484762D01*
X19801893Y-61484763D01*
X19870408Y-61524320D01*
X19870406Y-61524320D01*
X19870410Y-61524321D01*
X19870412Y-61524322D01*
X19946838Y-61544800D01*
X66471879Y-61544800D01*
X66530070Y-61563707D01*
X66541876Y-61573790D01*
X66612886Y-61644800D01*
X66612888Y-61644801D01*
X66612890Y-61644803D01*
X66727010Y-61710690D01*
X66727008Y-61710690D01*
X66727012Y-61710691D01*
X66727014Y-61710692D01*
X66854308Y-61744800D01*
X66854310Y-61744800D01*
X66986090Y-61744800D01*
X66986092Y-61744800D01*
X67113386Y-61710692D01*
X67113388Y-61710690D01*
X67113390Y-61710690D01*
X67227509Y-61644803D01*
X67227509Y-61644802D01*
X67227514Y-61644800D01*
X67320700Y-61551614D01*
X67359297Y-61484762D01*
X67386590Y-61437490D01*
X67386590Y-61437488D01*
X67386592Y-61437486D01*
X67420700Y-61310192D01*
X67420700Y-61178408D01*
X67386592Y-61051114D01*
X67386590Y-61051111D01*
X67386590Y-61051109D01*
X67320703Y-60936990D01*
X67320701Y-60936988D01*
X67320700Y-60936986D01*
X67227514Y-60843800D01*
X67227511Y-60843798D01*
X67227509Y-60843796D01*
X67113389Y-60777909D01*
X67113391Y-60777909D01*
X67063999Y-60764675D01*
X66986092Y-60743800D01*
X66854308Y-60743800D01*
X66776400Y-60764675D01*
X66727009Y-60777909D01*
X66612890Y-60843796D01*
X66612889Y-60843797D01*
X66612886Y-60843799D01*
X66612886Y-60843800D01*
X66541880Y-60914805D01*
X66487366Y-60942581D01*
X66471879Y-60943800D01*
X20151879Y-60943800D01*
X20093688Y-60924893D01*
X20081875Y-60914804D01*
X9675779Y-50508708D01*
X47801300Y-50508708D01*
X47801300Y-50640492D01*
X47831379Y-50752751D01*
X47835409Y-50767790D01*
X47901296Y-50881909D01*
X47901298Y-50881911D01*
X47901300Y-50881914D01*
X47994486Y-50975100D01*
X47994488Y-50975101D01*
X47994490Y-50975103D01*
X48108610Y-51040990D01*
X48108608Y-51040990D01*
X48108612Y-51040991D01*
X48108614Y-51040992D01*
X48235908Y-51075100D01*
X48235910Y-51075100D01*
X48367690Y-51075100D01*
X48367692Y-51075100D01*
X48494986Y-51040992D01*
X48494988Y-51040990D01*
X48494990Y-51040990D01*
X48609109Y-50975103D01*
X48609109Y-50975102D01*
X48609114Y-50975100D01*
X48680119Y-50904094D01*
X48734634Y-50876319D01*
X48750121Y-50875100D01*
X70554863Y-50875100D01*
X70554863Y-50875099D01*
X70631289Y-50854621D01*
X70699811Y-50815060D01*
X70755760Y-50759111D01*
X80331374Y-41183495D01*
X80385891Y-41155719D01*
X80401378Y-41154500D01*
X80501790Y-41154500D01*
X80501792Y-41154500D01*
X80629086Y-41120392D01*
X80629088Y-41120390D01*
X80629090Y-41120390D01*
X80743209Y-41054503D01*
X80743209Y-41054502D01*
X80743214Y-41054500D01*
X80836400Y-40961314D01*
X80854768Y-40929500D01*
X80902290Y-40847190D01*
X80902290Y-40847188D01*
X80902292Y-40847186D01*
X80936400Y-40719892D01*
X80936400Y-40588108D01*
X80902292Y-40460814D01*
X80902290Y-40460811D01*
X80902290Y-40460809D01*
X80836403Y-40346690D01*
X80836401Y-40346688D01*
X80836400Y-40346686D01*
X80743214Y-40253500D01*
X80743211Y-40253498D01*
X80743209Y-40253496D01*
X80629089Y-40187609D01*
X80629091Y-40187609D01*
X80579699Y-40174375D01*
X80501792Y-40153500D01*
X80370008Y-40153500D01*
X80292100Y-40174375D01*
X80242709Y-40187609D01*
X80128590Y-40253496D01*
X80035396Y-40346690D01*
X79969509Y-40460809D01*
X79969508Y-40460814D01*
X79942099Y-40563109D01*
X79935400Y-40588109D01*
X79935400Y-40688520D01*
X79916493Y-40746711D01*
X79906404Y-40758524D01*
X70419825Y-50245104D01*
X70365308Y-50272881D01*
X70349821Y-50274100D01*
X48750121Y-50274100D01*
X48691930Y-50255193D01*
X48680123Y-50245109D01*
X48609114Y-50174100D01*
X48609111Y-50174098D01*
X48609109Y-50174096D01*
X48494989Y-50108209D01*
X48494991Y-50108209D01*
X48445599Y-50094975D01*
X48367692Y-50074100D01*
X48235908Y-50074100D01*
X48158000Y-50094975D01*
X48108609Y-50108209D01*
X47994490Y-50174096D01*
X47901296Y-50267290D01*
X47835409Y-50381409D01*
X47835408Y-50381414D01*
X47801300Y-50508708D01*
X9675779Y-50508708D01*
X7797296Y-48630225D01*
X7769519Y-48575708D01*
X7768300Y-48560221D01*
X7768300Y-48459809D01*
X7768300Y-48459808D01*
X7734192Y-48332514D01*
X7734190Y-48332511D01*
X7734190Y-48332509D01*
X7668303Y-48218390D01*
X7668301Y-48218388D01*
X7668300Y-48218386D01*
X7575114Y-48125200D01*
X7575111Y-48125198D01*
X7575109Y-48125196D01*
X7460989Y-48059309D01*
X7460991Y-48059309D01*
X7411599Y-48046075D01*
X7333692Y-48025200D01*
X7201908Y-48025200D01*
X7124000Y-48046075D01*
X7074609Y-48059309D01*
X6960490Y-48125196D01*
X6867296Y-48218390D01*
X6801409Y-48332509D01*
X6801408Y-48332514D01*
X6767300Y-48459808D01*
X500500Y-48459808D01*
X500500Y-33130253D01*
X5949500Y-33130253D01*
X5949500Y-34869746D01*
X5949501Y-34869758D01*
X5961132Y-34928227D01*
X5961134Y-34928233D01*
X5975012Y-34949002D01*
X6005448Y-34994552D01*
X6071769Y-35038867D01*
X6116231Y-35047711D01*
X6130241Y-35050498D01*
X6130246Y-35050498D01*
X6130252Y-35050500D01*
X6130253Y-35050500D01*
X7869747Y-35050500D01*
X7869748Y-35050500D01*
X7928231Y-35038867D01*
X7994552Y-34994552D01*
X8038867Y-34928231D01*
X8050500Y-34869748D01*
X8050500Y-34409542D01*
X8069407Y-34351351D01*
X8118907Y-34315387D01*
X8180093Y-34315387D01*
X8229593Y-34351351D01*
X8243655Y-34378950D01*
X8288903Y-34518213D01*
X8385376Y-34707553D01*
X8385380Y-34707559D01*
X8424728Y-34761716D01*
X8424729Y-34761716D01*
X9057037Y-34129407D01*
X9074075Y-34192993D01*
X9139901Y-34307007D01*
X9232993Y-34400099D01*
X9347007Y-34465925D01*
X9410589Y-34482962D01*
X8778282Y-35115269D01*
X8778282Y-35115270D01*
X8832440Y-35154619D01*
X8832446Y-35154623D01*
X9021784Y-35251095D01*
X9223878Y-35316759D01*
X9433750Y-35350000D01*
X9646250Y-35350000D01*
X9856121Y-35316759D01*
X10058215Y-35251095D01*
X10247556Y-35154620D01*
X10301716Y-35115270D01*
X9669408Y-34482962D01*
X9732993Y-34465925D01*
X9847007Y-34400099D01*
X9940099Y-34307007D01*
X10005925Y-34192993D01*
X10022962Y-34129408D01*
X10655270Y-34761716D01*
X10694620Y-34707556D01*
X10791095Y-34518215D01*
X10856759Y-34316121D01*
X10865359Y-34261823D01*
X10893136Y-34207307D01*
X10947653Y-34179529D01*
X11008085Y-34189100D01*
X11051349Y-34232365D01*
X11060238Y-34257996D01*
X11069869Y-34306418D01*
X11149058Y-34497597D01*
X11264020Y-34669651D01*
X11264023Y-34669655D01*
X11410345Y-34815977D01*
X11582402Y-34930941D01*
X11773580Y-35010130D01*
X11976535Y-35050500D01*
X11976536Y-35050500D01*
X12183464Y-35050500D01*
X12183465Y-35050500D01*
X12386420Y-35010130D01*
X12522405Y-34953802D01*
X12583399Y-34949002D01*
X12630292Y-34975263D01*
X21029140Y-43374111D01*
X21029139Y-43374111D01*
X21085089Y-43430060D01*
X21153607Y-43469619D01*
X21153611Y-43469621D01*
X21230035Y-43490099D01*
X21230037Y-43490100D01*
X21230038Y-43490100D01*
X51833531Y-43490100D01*
X51891722Y-43509007D01*
X51927686Y-43558507D01*
X51929157Y-43614721D01*
X51910377Y-43684814D01*
X51899500Y-43725409D01*
X51899500Y-43825820D01*
X51880593Y-43884011D01*
X51870504Y-43895824D01*
X51055325Y-44711004D01*
X51000808Y-44738781D01*
X50985321Y-44740000D01*
X34778121Y-44740000D01*
X34719930Y-44721093D01*
X34708123Y-44711009D01*
X34637114Y-44640000D01*
X34637111Y-44639998D01*
X34637109Y-44639996D01*
X34522989Y-44574109D01*
X34522991Y-44574109D01*
X34473599Y-44560875D01*
X34395692Y-44540000D01*
X34263908Y-44540000D01*
X34186000Y-44560875D01*
X34136609Y-44574109D01*
X34022490Y-44639996D01*
X33929296Y-44733190D01*
X33863409Y-44847309D01*
X33829300Y-44974609D01*
X33829300Y-45075021D01*
X33826831Y-45082618D01*
X33828081Y-45090508D01*
X33817557Y-45111162D01*
X33810393Y-45133212D01*
X33800304Y-45145024D01*
X33696226Y-45249103D01*
X33641709Y-45276881D01*
X33626222Y-45278100D01*
X10663221Y-45278100D01*
X10605030Y-45259193D01*
X10593223Y-45249109D01*
X10522214Y-45178100D01*
X10522211Y-45178098D01*
X10522209Y-45178096D01*
X10408089Y-45112209D01*
X10408091Y-45112209D01*
X10358699Y-45098975D01*
X10280792Y-45078100D01*
X10149008Y-45078100D01*
X10071100Y-45098975D01*
X10021709Y-45112209D01*
X9907590Y-45178096D01*
X9814396Y-45271290D01*
X9748509Y-45385409D01*
X9748508Y-45385414D01*
X9714400Y-45512708D01*
X9714400Y-45644492D01*
X9744479Y-45756751D01*
X9748509Y-45771790D01*
X9814396Y-45885909D01*
X9814398Y-45885911D01*
X9814400Y-45885914D01*
X9907586Y-45979100D01*
X9907588Y-45979101D01*
X9907590Y-45979103D01*
X10021710Y-46044990D01*
X10021708Y-46044990D01*
X10021712Y-46044991D01*
X10021714Y-46044992D01*
X10149008Y-46079100D01*
X10149010Y-46079100D01*
X10280790Y-46079100D01*
X10280792Y-46079100D01*
X10408086Y-46044992D01*
X10408088Y-46044990D01*
X10408090Y-46044990D01*
X10522209Y-45979103D01*
X10522209Y-45979102D01*
X10522214Y-45979100D01*
X10593219Y-45908094D01*
X10647734Y-45880319D01*
X10663221Y-45879100D01*
X33831263Y-45879100D01*
X33831263Y-45879099D01*
X33907689Y-45858621D01*
X33976211Y-45819060D01*
X34032160Y-45763111D01*
X34225273Y-45569996D01*
X34279790Y-45542219D01*
X34295277Y-45541000D01*
X34395690Y-45541000D01*
X34395692Y-45541000D01*
X34522986Y-45506892D01*
X34522988Y-45506890D01*
X34522990Y-45506890D01*
X34637109Y-45441003D01*
X34637109Y-45441002D01*
X34637114Y-45441000D01*
X34708119Y-45369994D01*
X34762634Y-45342219D01*
X34778121Y-45341000D01*
X51190363Y-45341000D01*
X51190363Y-45340999D01*
X51266789Y-45320521D01*
X51335311Y-45280960D01*
X51391260Y-45225011D01*
X52295474Y-44320795D01*
X52349991Y-44293019D01*
X52365478Y-44291800D01*
X52465890Y-44291800D01*
X52465892Y-44291800D01*
X52593186Y-44257692D01*
X52593188Y-44257690D01*
X52593190Y-44257690D01*
X52707309Y-44191803D01*
X52707309Y-44191802D01*
X52707314Y-44191800D01*
X52800500Y-44098614D01*
X52866392Y-43984486D01*
X52900500Y-43857192D01*
X52900500Y-43725408D01*
X52870842Y-43614721D01*
X52874045Y-43553621D01*
X52912550Y-43506071D01*
X52966469Y-43490100D01*
X74487150Y-43490100D01*
X74545341Y-43509007D01*
X74581305Y-43558507D01*
X74582777Y-43563478D01*
X74584709Y-43570689D01*
X74650596Y-43684809D01*
X74650598Y-43684811D01*
X74650600Y-43684814D01*
X74743786Y-43778000D01*
X74743788Y-43778001D01*
X74743790Y-43778003D01*
X74857910Y-43843890D01*
X74857908Y-43843890D01*
X74857912Y-43843891D01*
X74857914Y-43843892D01*
X74985208Y-43878000D01*
X74985210Y-43878000D01*
X75116990Y-43878000D01*
X75116992Y-43878000D01*
X75244286Y-43843892D01*
X75244288Y-43843890D01*
X75244290Y-43843890D01*
X75358409Y-43778003D01*
X75358409Y-43778002D01*
X75358414Y-43778000D01*
X75451600Y-43684814D01*
X75492067Y-43614723D01*
X75517490Y-43570690D01*
X75517490Y-43570688D01*
X75517492Y-43570686D01*
X75551600Y-43443392D01*
X75551600Y-43311608D01*
X75517492Y-43184314D01*
X75517490Y-43184311D01*
X75517490Y-43184309D01*
X75451603Y-43070190D01*
X75451601Y-43070188D01*
X75451600Y-43070186D01*
X75358414Y-42977000D01*
X75358411Y-42976998D01*
X75358409Y-42976996D01*
X75244289Y-42911109D01*
X75244291Y-42911109D01*
X75180792Y-42894095D01*
X75116992Y-42877000D01*
X74985208Y-42877000D01*
X74985204Y-42877000D01*
X74946781Y-42887295D01*
X74908240Y-42889821D01*
X74902763Y-42889100D01*
X74902762Y-42889100D01*
X40259764Y-42889100D01*
X40201573Y-42870193D01*
X40165609Y-42820693D01*
X40165609Y-42759507D01*
X40201573Y-42710007D01*
X40234138Y-42694474D01*
X40272886Y-42684092D01*
X40272888Y-42684090D01*
X40272890Y-42684090D01*
X40387009Y-42618203D01*
X40387009Y-42618202D01*
X40387014Y-42618200D01*
X40458019Y-42547194D01*
X40512534Y-42519419D01*
X40528021Y-42518200D01*
X69191063Y-42518200D01*
X69191063Y-42518199D01*
X69267489Y-42497721D01*
X69336011Y-42458160D01*
X69391960Y-42402211D01*
X72844169Y-38950000D01*
X94485000Y-38950000D01*
X94485001Y-38950000D01*
X96574999Y-38950000D01*
X96575000Y-38950000D01*
X96575000Y-37050000D01*
X94485000Y-37050000D01*
X94485000Y-38950000D01*
X72844169Y-38950000D01*
X73984274Y-37809895D01*
X74038791Y-37782119D01*
X74054278Y-37780900D01*
X74154690Y-37780900D01*
X74154692Y-37780900D01*
X74281986Y-37746792D01*
X74281988Y-37746790D01*
X74281990Y-37746790D01*
X74396109Y-37680903D01*
X74396109Y-37680902D01*
X74396114Y-37680900D01*
X74489300Y-37587714D01*
X74555192Y-37473586D01*
X74589300Y-37346292D01*
X74589300Y-37214508D01*
X74555192Y-37087214D01*
X74555190Y-37087211D01*
X74555190Y-37087209D01*
X74489303Y-36973090D01*
X74489301Y-36973088D01*
X74489300Y-36973086D01*
X74396114Y-36879900D01*
X74396111Y-36879898D01*
X74396109Y-36879896D01*
X74281989Y-36814009D01*
X74281991Y-36814009D01*
X74232599Y-36800775D01*
X74154692Y-36779900D01*
X74022908Y-36779900D01*
X73945000Y-36800775D01*
X73895609Y-36814009D01*
X73781490Y-36879896D01*
X73688296Y-36973090D01*
X73622409Y-37087209D01*
X73588300Y-37214509D01*
X73588300Y-37314920D01*
X73569393Y-37373111D01*
X73559304Y-37384924D01*
X69056025Y-41888204D01*
X69001508Y-41915981D01*
X68986021Y-41917200D01*
X40528021Y-41917200D01*
X40469830Y-41898293D01*
X40458023Y-41888209D01*
X40387014Y-41817200D01*
X40387011Y-41817198D01*
X40387009Y-41817196D01*
X40272889Y-41751309D01*
X40272891Y-41751309D01*
X40223499Y-41738075D01*
X40145592Y-41717200D01*
X40013808Y-41717200D01*
X39935900Y-41738075D01*
X39886509Y-41751309D01*
X39772390Y-41817196D01*
X39679196Y-41910390D01*
X39613309Y-42024509D01*
X39613308Y-42024514D01*
X39579200Y-42151808D01*
X39579200Y-42283592D01*
X39609279Y-42395851D01*
X39613309Y-42410890D01*
X39679196Y-42525009D01*
X39679198Y-42525011D01*
X39679200Y-42525014D01*
X39772386Y-42618200D01*
X39772388Y-42618201D01*
X39772390Y-42618203D01*
X39886510Y-42684090D01*
X39886508Y-42684090D01*
X39886512Y-42684091D01*
X39886514Y-42684092D01*
X39925260Y-42694474D01*
X39976573Y-42727797D01*
X39998500Y-42784918D01*
X39982665Y-42844019D01*
X39935115Y-42882524D01*
X39899636Y-42889100D01*
X21435079Y-42889100D01*
X21376888Y-42870193D01*
X21365075Y-42860104D01*
X13055263Y-34550292D01*
X13027486Y-34495775D01*
X13033802Y-34442405D01*
X13090130Y-34306420D01*
X13130500Y-34103465D01*
X13130500Y-33951108D01*
X13351700Y-33951108D01*
X13351700Y-34082892D01*
X13380158Y-34189100D01*
X13385809Y-34210190D01*
X13451696Y-34324309D01*
X13451698Y-34324311D01*
X13451700Y-34324314D01*
X13544886Y-34417500D01*
X13544888Y-34417501D01*
X13544890Y-34417503D01*
X13659010Y-34483390D01*
X13659008Y-34483390D01*
X13659012Y-34483391D01*
X13659014Y-34483392D01*
X13786308Y-34517500D01*
X13786310Y-34517500D01*
X13886721Y-34517500D01*
X13944912Y-34536407D01*
X13956725Y-34546496D01*
X20223740Y-40813511D01*
X20223739Y-40813511D01*
X20279689Y-40869460D01*
X20348207Y-40909019D01*
X20348211Y-40909021D01*
X20424635Y-40929499D01*
X20424637Y-40929500D01*
X20424638Y-40929500D01*
X20503762Y-40929500D01*
X62869779Y-40929500D01*
X62927970Y-40948407D01*
X62939776Y-40958490D01*
X63010786Y-41029500D01*
X63010788Y-41029501D01*
X63010790Y-41029503D01*
X63124910Y-41095390D01*
X63124908Y-41095390D01*
X63124912Y-41095391D01*
X63124914Y-41095392D01*
X63252208Y-41129500D01*
X63252210Y-41129500D01*
X63383990Y-41129500D01*
X63383992Y-41129500D01*
X63511286Y-41095392D01*
X63511288Y-41095390D01*
X63511290Y-41095390D01*
X63625409Y-41029503D01*
X63625409Y-41029502D01*
X63625414Y-41029500D01*
X63718600Y-40936314D01*
X63734359Y-40909019D01*
X63784490Y-40822190D01*
X63784490Y-40822188D01*
X63784492Y-40822186D01*
X63818600Y-40694892D01*
X63818600Y-40563108D01*
X63784492Y-40435814D01*
X63784490Y-40435811D01*
X63784490Y-40435809D01*
X63718603Y-40321690D01*
X63718601Y-40321688D01*
X63718600Y-40321686D01*
X63625414Y-40228500D01*
X63625411Y-40228498D01*
X63625409Y-40228496D01*
X63511289Y-40162609D01*
X63511291Y-40162609D01*
X63461899Y-40149375D01*
X63383992Y-40128500D01*
X63252208Y-40128500D01*
X63174300Y-40149375D01*
X63124909Y-40162609D01*
X63010790Y-40228496D01*
X63010789Y-40228497D01*
X63010786Y-40228499D01*
X63010786Y-40228500D01*
X62939780Y-40299505D01*
X62885266Y-40327281D01*
X62869779Y-40328500D01*
X20629679Y-40328500D01*
X20571488Y-40309593D01*
X20559675Y-40299504D01*
X14381696Y-34121525D01*
X14353919Y-34067008D01*
X14352700Y-34051521D01*
X14352700Y-33951109D01*
X14352700Y-33951108D01*
X14318592Y-33823814D01*
X14318590Y-33823811D01*
X14318590Y-33823809D01*
X14252703Y-33709690D01*
X14252701Y-33709688D01*
X14252700Y-33709686D01*
X14159514Y-33616500D01*
X14159511Y-33616498D01*
X14159509Y-33616496D01*
X14045389Y-33550609D01*
X14045391Y-33550609D01*
X13983683Y-33534075D01*
X13918092Y-33516500D01*
X13786308Y-33516500D01*
X13720717Y-33534075D01*
X13659009Y-33550609D01*
X13544890Y-33616496D01*
X13451696Y-33709690D01*
X13385809Y-33823809D01*
X13367209Y-33893226D01*
X13351700Y-33951108D01*
X13130500Y-33951108D01*
X13130500Y-33896535D01*
X13090130Y-33693580D01*
X13010941Y-33502402D01*
X12895977Y-33330345D01*
X12844233Y-33278601D01*
X12816458Y-33224087D01*
X12826029Y-33163655D01*
X12869294Y-33120390D01*
X12914239Y-33109600D01*
X46521421Y-33109600D01*
X46579612Y-33128507D01*
X46591425Y-33138596D01*
X52009404Y-38556575D01*
X52037181Y-38611092D01*
X52038400Y-38626579D01*
X52038400Y-38726992D01*
X52068479Y-38839251D01*
X52072509Y-38854290D01*
X52138396Y-38968409D01*
X52138398Y-38968411D01*
X52138400Y-38968414D01*
X52231586Y-39061600D01*
X52231588Y-39061601D01*
X52231590Y-39061603D01*
X52345710Y-39127490D01*
X52345708Y-39127490D01*
X52345712Y-39127491D01*
X52345714Y-39127492D01*
X52473008Y-39161600D01*
X52473010Y-39161600D01*
X52604790Y-39161600D01*
X52604792Y-39161600D01*
X52732086Y-39127492D01*
X52732088Y-39127490D01*
X52732090Y-39127490D01*
X52846209Y-39061603D01*
X52846209Y-39061602D01*
X52846214Y-39061600D01*
X52939400Y-38968414D01*
X53005292Y-38854286D01*
X53039400Y-38726992D01*
X53039400Y-38595208D01*
X53005292Y-38467914D01*
X53005290Y-38467911D01*
X53005290Y-38467909D01*
X52939403Y-38353790D01*
X52939401Y-38353788D01*
X52939400Y-38353786D01*
X52846214Y-38260600D01*
X52846211Y-38260598D01*
X52846209Y-38260596D01*
X52732089Y-38194709D01*
X52732091Y-38194709D01*
X52682699Y-38181475D01*
X52604792Y-38160600D01*
X52504379Y-38160600D01*
X52446188Y-38141693D01*
X52434375Y-38131604D01*
X50005146Y-35702375D01*
X47496779Y-33194008D01*
X48175100Y-33194008D01*
X48175100Y-33325792D01*
X48176320Y-33330345D01*
X48209209Y-33453090D01*
X48275096Y-33567209D01*
X48275098Y-33567211D01*
X48275100Y-33567214D01*
X48368286Y-33660400D01*
X48368288Y-33660401D01*
X48368290Y-33660403D01*
X48482410Y-33726290D01*
X48482408Y-33726290D01*
X48482412Y-33726291D01*
X48482414Y-33726292D01*
X48609708Y-33760400D01*
X48609710Y-33760400D01*
X48741490Y-33760400D01*
X48741492Y-33760400D01*
X48868786Y-33726292D01*
X48868788Y-33726290D01*
X48868790Y-33726290D01*
X48982909Y-33660403D01*
X48982909Y-33660402D01*
X48982914Y-33660400D01*
X49053919Y-33589394D01*
X49108434Y-33561619D01*
X49123921Y-33560400D01*
X78232821Y-33560400D01*
X78291012Y-33579307D01*
X78302825Y-33589396D01*
X80415804Y-35702375D01*
X80443581Y-35756892D01*
X80444800Y-35772379D01*
X80444800Y-35872792D01*
X80453994Y-35907104D01*
X80478909Y-36000090D01*
X80544796Y-36114209D01*
X80544798Y-36114211D01*
X80544800Y-36114214D01*
X80637986Y-36207400D01*
X80637988Y-36207401D01*
X80637990Y-36207403D01*
X80752110Y-36273290D01*
X80752108Y-36273290D01*
X80752112Y-36273291D01*
X80752114Y-36273292D01*
X80879408Y-36307400D01*
X80879410Y-36307400D01*
X81011190Y-36307400D01*
X81011192Y-36307400D01*
X81138486Y-36273292D01*
X81138488Y-36273290D01*
X81138490Y-36273290D01*
X81252609Y-36207403D01*
X81252609Y-36207402D01*
X81252614Y-36207400D01*
X81345800Y-36114214D01*
X81345803Y-36114209D01*
X81411690Y-36000090D01*
X81411690Y-36000088D01*
X81411692Y-36000086D01*
X81445800Y-35872792D01*
X81445800Y-35741008D01*
X81411692Y-35613714D01*
X81411690Y-35613711D01*
X81411690Y-35613709D01*
X81345803Y-35499590D01*
X81345801Y-35499588D01*
X81345800Y-35499586D01*
X81252614Y-35406400D01*
X81252611Y-35406398D01*
X81252609Y-35406396D01*
X81138489Y-35340509D01*
X81138491Y-35340509D01*
X81089099Y-35327275D01*
X81011192Y-35306400D01*
X80910779Y-35306400D01*
X80852588Y-35287493D01*
X80840775Y-35277404D01*
X79742900Y-34179529D01*
X78582811Y-33019440D01*
X78558576Y-33005448D01*
X78558574Y-33005446D01*
X78514287Y-32979878D01*
X78437864Y-32959400D01*
X78437862Y-32959400D01*
X49123921Y-32959400D01*
X49065730Y-32940493D01*
X49053923Y-32930409D01*
X48982914Y-32859400D01*
X48982911Y-32859398D01*
X48982909Y-32859396D01*
X48868789Y-32793509D01*
X48868791Y-32793509D01*
X48819399Y-32780275D01*
X48741492Y-32759400D01*
X48609708Y-32759400D01*
X48531800Y-32780275D01*
X48482409Y-32793509D01*
X48368290Y-32859396D01*
X48275096Y-32952590D01*
X48209209Y-33066709D01*
X48197717Y-33109600D01*
X48175100Y-33194008D01*
X47496779Y-33194008D01*
X46871411Y-32568640D01*
X46871408Y-32568638D01*
X46802892Y-32529080D01*
X46802888Y-32529078D01*
X46726464Y-32508600D01*
X46726462Y-32508600D01*
X9015138Y-32508600D01*
X9015135Y-32508600D01*
X8938711Y-32529078D01*
X8938707Y-32529080D01*
X8870191Y-32568638D01*
X8219504Y-33219325D01*
X8164987Y-33247102D01*
X8104555Y-33237531D01*
X8061290Y-33194266D01*
X8050500Y-33149321D01*
X8050500Y-33130253D01*
X8050498Y-33130241D01*
X8046392Y-33109600D01*
X8038867Y-33071769D01*
X7994552Y-33005448D01*
X7956286Y-32979879D01*
X7928233Y-32961134D01*
X7928231Y-32961133D01*
X7928228Y-32961132D01*
X7928227Y-32961132D01*
X7869758Y-32949501D01*
X7869748Y-32949500D01*
X6130252Y-32949500D01*
X6130251Y-32949500D01*
X6130241Y-32949501D01*
X6071772Y-32961132D01*
X6071766Y-32961134D01*
X6005451Y-33005445D01*
X6005445Y-33005451D01*
X5961134Y-33071766D01*
X5961132Y-33071772D01*
X5949501Y-33130241D01*
X5949500Y-33130253D01*
X500500Y-33130253D01*
X500500Y-29268908D01*
X39579200Y-29268908D01*
X39579200Y-29400692D01*
X39609279Y-29512951D01*
X39613309Y-29527990D01*
X39679196Y-29642109D01*
X39679198Y-29642111D01*
X39679200Y-29642114D01*
X39772386Y-29735300D01*
X39772388Y-29735301D01*
X39772390Y-29735303D01*
X39886510Y-29801190D01*
X39886508Y-29801190D01*
X39886512Y-29801191D01*
X39886514Y-29801192D01*
X40013808Y-29835300D01*
X40013810Y-29835300D01*
X40145590Y-29835300D01*
X40145592Y-29835300D01*
X40272886Y-29801192D01*
X40272888Y-29801190D01*
X40272890Y-29801190D01*
X40387009Y-29735303D01*
X40387009Y-29735302D01*
X40387014Y-29735300D01*
X40458019Y-29664294D01*
X40512534Y-29636519D01*
X40528021Y-29635300D01*
X85131621Y-29635300D01*
X85189812Y-29654207D01*
X85201625Y-29664296D01*
X91869404Y-36332075D01*
X91897181Y-36386592D01*
X91898400Y-36402079D01*
X91898400Y-36502492D01*
X91928479Y-36614751D01*
X91932509Y-36629790D01*
X91998396Y-36743909D01*
X91998398Y-36743911D01*
X91998400Y-36743914D01*
X92091586Y-36837100D01*
X92091588Y-36837101D01*
X92091590Y-36837103D01*
X92205710Y-36902990D01*
X92205708Y-36902990D01*
X92205712Y-36902991D01*
X92205714Y-36902992D01*
X92333008Y-36937100D01*
X92333010Y-36937100D01*
X92464790Y-36937100D01*
X92464792Y-36937100D01*
X92592086Y-36902992D01*
X92592088Y-36902990D01*
X92592090Y-36902990D01*
X92706209Y-36837103D01*
X92706209Y-36837102D01*
X92706214Y-36837100D01*
X92799400Y-36743914D01*
X92865292Y-36629786D01*
X92899400Y-36502492D01*
X92899400Y-36370708D01*
X92865292Y-36243414D01*
X92865290Y-36243411D01*
X92865290Y-36243409D01*
X92799403Y-36129290D01*
X92799401Y-36129288D01*
X92799400Y-36129286D01*
X92706214Y-36036100D01*
X92706211Y-36036098D01*
X92706209Y-36036096D01*
X92592089Y-35970209D01*
X92592091Y-35970209D01*
X92542699Y-35956975D01*
X92464792Y-35936100D01*
X92364379Y-35936100D01*
X92306188Y-35917193D01*
X92294375Y-35907104D01*
X88895871Y-32508600D01*
X87337271Y-30950000D01*
X94485000Y-30950000D01*
X94485001Y-30950000D01*
X96574999Y-30950000D01*
X96575000Y-30950000D01*
X96575000Y-29050000D01*
X94485000Y-29050000D01*
X94485000Y-30950000D01*
X87337271Y-30950000D01*
X85481611Y-29094340D01*
X85472166Y-29088887D01*
X85413089Y-29054779D01*
X85413088Y-29054778D01*
X85413087Y-29054778D01*
X85336664Y-29034300D01*
X85336662Y-29034300D01*
X40528021Y-29034300D01*
X40469830Y-29015393D01*
X40458023Y-29005309D01*
X40387014Y-28934300D01*
X40387011Y-28934298D01*
X40387009Y-28934296D01*
X40272889Y-28868409D01*
X40272891Y-28868409D01*
X40223499Y-28855175D01*
X40145592Y-28834300D01*
X40013808Y-28834300D01*
X39935900Y-28855175D01*
X39886509Y-28868409D01*
X39772390Y-28934296D01*
X39679196Y-29027490D01*
X39613309Y-29141609D01*
X39613308Y-29141614D01*
X39579200Y-29268908D01*
X500500Y-29268908D01*
X500500Y-22822708D01*
X28047900Y-22822708D01*
X28047900Y-22954492D01*
X28058252Y-22993125D01*
X28082009Y-23081790D01*
X28147896Y-23195909D01*
X28147898Y-23195911D01*
X28147900Y-23195914D01*
X28241086Y-23289100D01*
X28241088Y-23289101D01*
X28241090Y-23289103D01*
X28355210Y-23354990D01*
X28355208Y-23354990D01*
X28355212Y-23354991D01*
X28355214Y-23354992D01*
X28482508Y-23389100D01*
X28482510Y-23389100D01*
X28582921Y-23389100D01*
X28641112Y-23408007D01*
X28652925Y-23418096D01*
X32755540Y-27520711D01*
X32755539Y-27520711D01*
X32811489Y-27576660D01*
X32880007Y-27616219D01*
X32880011Y-27616221D01*
X32956435Y-27636699D01*
X32956437Y-27636700D01*
X32956438Y-27636700D01*
X33035562Y-27636700D01*
X45131779Y-27636700D01*
X45189970Y-27655607D01*
X45201776Y-27665690D01*
X45272786Y-27736700D01*
X45272788Y-27736701D01*
X45272790Y-27736703D01*
X45386910Y-27802590D01*
X45386908Y-27802590D01*
X45386912Y-27802591D01*
X45386914Y-27802592D01*
X45514208Y-27836700D01*
X45514210Y-27836700D01*
X45645990Y-27836700D01*
X45645992Y-27836700D01*
X45773286Y-27802592D01*
X45773288Y-27802590D01*
X45773290Y-27802590D01*
X45887409Y-27736703D01*
X45887409Y-27736702D01*
X45887414Y-27736700D01*
X45980600Y-27643514D01*
X45996359Y-27616219D01*
X46046490Y-27529390D01*
X46046490Y-27529388D01*
X46046492Y-27529386D01*
X46080600Y-27402092D01*
X46080600Y-27270308D01*
X46046492Y-27143014D01*
X46046490Y-27143011D01*
X46046490Y-27143009D01*
X45980603Y-27028890D01*
X45980601Y-27028888D01*
X45980600Y-27028886D01*
X45887414Y-26935700D01*
X45887411Y-26935698D01*
X45887409Y-26935696D01*
X45773289Y-26869809D01*
X45773291Y-26869809D01*
X45723899Y-26856575D01*
X45645992Y-26835700D01*
X45514208Y-26835700D01*
X45436300Y-26856575D01*
X45386909Y-26869809D01*
X45272790Y-26935696D01*
X45272789Y-26935697D01*
X45272786Y-26935699D01*
X45272786Y-26935700D01*
X45201780Y-27006705D01*
X45147266Y-27034481D01*
X45131779Y-27035700D01*
X33161479Y-27035700D01*
X33103288Y-27016793D01*
X33091475Y-27006704D01*
X29077896Y-22993125D01*
X29050119Y-22938608D01*
X29048900Y-22923121D01*
X29048900Y-22822709D01*
X29048900Y-22822708D01*
X29014792Y-22695414D01*
X29014790Y-22695411D01*
X29014790Y-22695409D01*
X28948903Y-22581290D01*
X28948901Y-22581288D01*
X28948900Y-22581286D01*
X28933578Y-22565964D01*
X28905803Y-22511450D01*
X28915374Y-22451018D01*
X28954084Y-22410226D01*
X28967814Y-22402300D01*
X29061000Y-22309114D01*
X29126892Y-22194986D01*
X29161000Y-22067692D01*
X29161000Y-21967277D01*
X29179907Y-21909086D01*
X29189997Y-21897273D01*
X29412375Y-21674896D01*
X29466891Y-21647119D01*
X29482378Y-21645900D01*
X45036178Y-21645900D01*
X45094369Y-21664807D01*
X45130333Y-21714307D01*
X45130333Y-21775493D01*
X45121914Y-21794401D01*
X45113709Y-21808611D01*
X45113708Y-21808613D01*
X45113708Y-21808614D01*
X45079600Y-21935908D01*
X45079600Y-22067692D01*
X45109679Y-22179951D01*
X45113709Y-22194990D01*
X45179596Y-22309109D01*
X45179598Y-22309111D01*
X45179600Y-22309114D01*
X45272786Y-22402300D01*
X45272788Y-22402301D01*
X45272790Y-22402303D01*
X45386910Y-22468190D01*
X45386908Y-22468190D01*
X45386912Y-22468191D01*
X45386914Y-22468192D01*
X45514208Y-22502300D01*
X45514210Y-22502300D01*
X45645990Y-22502300D01*
X45645992Y-22502300D01*
X45773286Y-22468192D01*
X45773288Y-22468190D01*
X45773290Y-22468190D01*
X45887409Y-22402303D01*
X45887409Y-22402302D01*
X45887414Y-22402300D01*
X45958419Y-22331294D01*
X46012934Y-22303519D01*
X46028421Y-22302300D01*
X49272621Y-22302300D01*
X49330812Y-22321207D01*
X49342625Y-22331296D01*
X54243004Y-27231675D01*
X54270781Y-27286192D01*
X54272000Y-27301679D01*
X54272000Y-27402092D01*
X54302079Y-27514351D01*
X54306109Y-27529390D01*
X54371996Y-27643509D01*
X54371998Y-27643511D01*
X54372000Y-27643514D01*
X54465186Y-27736700D01*
X54465188Y-27736701D01*
X54465190Y-27736703D01*
X54579310Y-27802590D01*
X54579308Y-27802590D01*
X54579312Y-27802591D01*
X54579314Y-27802592D01*
X54706608Y-27836700D01*
X54706610Y-27836700D01*
X54838390Y-27836700D01*
X54838392Y-27836700D01*
X54965686Y-27802592D01*
X54965688Y-27802590D01*
X54965690Y-27802590D01*
X55079809Y-27736703D01*
X55079809Y-27736702D01*
X55079814Y-27736700D01*
X55173000Y-27643514D01*
X55188759Y-27616219D01*
X55238890Y-27529390D01*
X55238890Y-27529388D01*
X55238892Y-27529386D01*
X55273000Y-27402092D01*
X55273000Y-27270308D01*
X55238892Y-27143014D01*
X55238890Y-27143011D01*
X55238890Y-27143009D01*
X55173003Y-27028890D01*
X55173001Y-27028888D01*
X55173000Y-27028886D01*
X55079814Y-26935700D01*
X55079811Y-26935698D01*
X55079809Y-26935696D01*
X54965689Y-26869809D01*
X54965691Y-26869809D01*
X54916299Y-26856575D01*
X54838392Y-26835700D01*
X54737979Y-26835700D01*
X54679788Y-26816793D01*
X54667975Y-26806704D01*
X49676172Y-21814901D01*
X49648397Y-21760387D01*
X49657968Y-21699955D01*
X49701233Y-21656690D01*
X49746178Y-21645900D01*
X71857821Y-21645900D01*
X71916012Y-21664807D01*
X71927825Y-21674896D01*
X72150204Y-21897275D01*
X72177981Y-21951792D01*
X72179200Y-21967277D01*
X72179200Y-22067692D01*
X72209279Y-22179951D01*
X72213309Y-22194990D01*
X72279196Y-22309109D01*
X72279198Y-22309111D01*
X72279200Y-22309114D01*
X72372386Y-22402300D01*
X72372388Y-22402301D01*
X72372390Y-22402303D01*
X72486510Y-22468190D01*
X72486508Y-22468190D01*
X72486512Y-22468191D01*
X72486514Y-22468192D01*
X72613808Y-22502300D01*
X72613810Y-22502300D01*
X72745590Y-22502300D01*
X72745592Y-22502300D01*
X72872886Y-22468192D01*
X72872888Y-22468190D01*
X72872890Y-22468190D01*
X72987009Y-22402303D01*
X72987009Y-22402302D01*
X72987014Y-22402300D01*
X73080200Y-22309114D01*
X73146092Y-22194986D01*
X73180200Y-22067692D01*
X73180200Y-21935908D01*
X73146092Y-21808614D01*
X73146090Y-21808611D01*
X73146090Y-21808609D01*
X73080203Y-21694490D01*
X73080201Y-21694488D01*
X73080200Y-21694486D01*
X72987014Y-21601300D01*
X72987011Y-21601298D01*
X72987009Y-21601296D01*
X72872889Y-21535409D01*
X72872891Y-21535409D01*
X72823499Y-21522175D01*
X72745592Y-21501300D01*
X72645179Y-21501300D01*
X72586988Y-21482393D01*
X72575176Y-21472304D01*
X72207810Y-21104939D01*
X72139292Y-21065380D01*
X72139288Y-21065378D01*
X72062864Y-21044900D01*
X72062862Y-21044900D01*
X29356462Y-21044900D01*
X29277338Y-21044900D01*
X29230561Y-21057433D01*
X29200907Y-21065379D01*
X29132393Y-21104936D01*
X29132388Y-21104940D01*
X28765024Y-21472304D01*
X28710508Y-21500081D01*
X28695021Y-21501300D01*
X28594608Y-21501300D01*
X28516700Y-21522175D01*
X28467309Y-21535409D01*
X28353190Y-21601296D01*
X28259996Y-21694490D01*
X28194109Y-21808609D01*
X28175039Y-21879778D01*
X28160000Y-21935908D01*
X28160000Y-22067692D01*
X28190079Y-22179951D01*
X28194109Y-22194990D01*
X28259996Y-22309109D01*
X28259998Y-22309111D01*
X28260000Y-22309114D01*
X28275320Y-22324434D01*
X28303096Y-22378949D01*
X28293525Y-22439381D01*
X28254818Y-22480171D01*
X28241088Y-22488098D01*
X28147896Y-22581290D01*
X28082009Y-22695409D01*
X28082008Y-22695414D01*
X28047900Y-22822708D01*
X500500Y-22822708D01*
X500500Y-10147508D01*
X9714400Y-10147508D01*
X9714400Y-10279292D01*
X9724752Y-10317925D01*
X9748509Y-10406590D01*
X9814396Y-10520709D01*
X9814398Y-10520711D01*
X9814400Y-10520714D01*
X9907586Y-10613900D01*
X9907588Y-10613901D01*
X9907590Y-10613903D01*
X10021710Y-10679790D01*
X10021708Y-10679790D01*
X10021712Y-10679791D01*
X10021714Y-10679792D01*
X10149008Y-10713900D01*
X10149010Y-10713900D01*
X10249421Y-10713900D01*
X10307612Y-10732807D01*
X10319425Y-10742896D01*
X11871425Y-12294896D01*
X11899202Y-12349413D01*
X11889631Y-12409845D01*
X11846366Y-12453110D01*
X11801421Y-12463900D01*
X10571435Y-12463900D01*
X10495011Y-12484378D01*
X10495007Y-12484380D01*
X10426489Y-12523939D01*
X10319424Y-12631004D01*
X10264908Y-12658781D01*
X10249421Y-12660000D01*
X10149008Y-12660000D01*
X10071100Y-12680875D01*
X10021709Y-12694109D01*
X9907590Y-12759996D01*
X9814396Y-12853190D01*
X9748509Y-12967309D01*
X9748508Y-12967314D01*
X9714400Y-13094608D01*
X9714400Y-13226392D01*
X9744479Y-13338651D01*
X9748509Y-13353690D01*
X9814396Y-13467809D01*
X9814398Y-13467811D01*
X9814400Y-13467814D01*
X9907586Y-13561000D01*
X9907588Y-13561001D01*
X9907590Y-13561003D01*
X10021710Y-13626890D01*
X10021708Y-13626890D01*
X10021712Y-13626891D01*
X10021714Y-13626892D01*
X10149008Y-13661000D01*
X10149010Y-13661000D01*
X10280790Y-13661000D01*
X10280792Y-13661000D01*
X10408086Y-13626892D01*
X10408088Y-13626890D01*
X10408090Y-13626890D01*
X10522209Y-13561003D01*
X10522209Y-13561002D01*
X10522214Y-13561000D01*
X10615400Y-13467814D01*
X10628058Y-13445890D01*
X10681290Y-13353690D01*
X10681290Y-13353688D01*
X10681292Y-13353686D01*
X10715400Y-13226392D01*
X10715400Y-13163900D01*
X10734307Y-13105709D01*
X10783807Y-13069745D01*
X10814400Y-13064900D01*
X28097756Y-13064900D01*
X28155947Y-13083807D01*
X28191911Y-13133307D01*
X28193382Y-13189520D01*
X28160000Y-13314108D01*
X28160000Y-13445892D01*
X28177476Y-13511114D01*
X28194109Y-13573190D01*
X28259996Y-13687309D01*
X28259998Y-13687311D01*
X28260000Y-13687314D01*
X28353186Y-13780500D01*
X28353188Y-13780501D01*
X28353190Y-13780503D01*
X28467310Y-13846390D01*
X28467308Y-13846390D01*
X28467312Y-13846391D01*
X28467314Y-13846392D01*
X28594608Y-13880500D01*
X28594610Y-13880500D01*
X28695021Y-13880500D01*
X28753212Y-13899407D01*
X28765025Y-13909496D01*
X30176325Y-15320796D01*
X30204102Y-15375313D01*
X30194531Y-15435745D01*
X30151266Y-15479010D01*
X30106321Y-15489800D01*
X29181732Y-15489800D01*
X29123541Y-15470893D01*
X29095997Y-15440302D01*
X29061000Y-15379686D01*
X28967814Y-15286500D01*
X28967811Y-15286498D01*
X28967809Y-15286496D01*
X28853689Y-15220609D01*
X28853691Y-15220609D01*
X28804299Y-15207375D01*
X28726392Y-15186500D01*
X28594608Y-15186500D01*
X28516700Y-15207375D01*
X28467309Y-15220609D01*
X28353190Y-15286496D01*
X28259996Y-15379690D01*
X28194109Y-15493809D01*
X28194108Y-15493814D01*
X28160000Y-15621108D01*
X28160000Y-15752892D01*
X28190079Y-15865151D01*
X28194109Y-15880190D01*
X28259996Y-15994309D01*
X28259998Y-15994311D01*
X28260000Y-15994314D01*
X28353186Y-16087500D01*
X28353188Y-16087501D01*
X28353190Y-16087503D01*
X28467310Y-16153390D01*
X28467308Y-16153390D01*
X28467312Y-16153391D01*
X28467314Y-16153392D01*
X28594608Y-16187500D01*
X28594610Y-16187500D01*
X28726390Y-16187500D01*
X28726392Y-16187500D01*
X28853686Y-16153392D01*
X28939125Y-16104063D01*
X28988624Y-16090800D01*
X90095863Y-16090800D01*
X90095863Y-16090799D01*
X90172289Y-16070321D01*
X90240811Y-16030760D01*
X90296760Y-15974811D01*
X93594060Y-12677511D01*
X93598038Y-12670619D01*
X93634275Y-12634379D01*
X93660914Y-12619000D01*
X93754100Y-12525814D01*
X93778023Y-12484378D01*
X93819990Y-12411690D01*
X93819990Y-12411688D01*
X93819992Y-12411686D01*
X93854100Y-12284392D01*
X93854100Y-12152608D01*
X93819992Y-12025314D01*
X93819990Y-12025311D01*
X93819990Y-12025309D01*
X93754103Y-11911190D01*
X93754101Y-11911188D01*
X93754100Y-11911186D01*
X93660914Y-11818000D01*
X93660911Y-11817998D01*
X93660909Y-11817996D01*
X93546789Y-11752109D01*
X93546791Y-11752109D01*
X93497399Y-11738875D01*
X93419492Y-11718000D01*
X93287708Y-11718000D01*
X93209800Y-11738875D01*
X93160409Y-11752109D01*
X93046290Y-11817996D01*
X92953096Y-11911190D01*
X92887209Y-12025309D01*
X92872973Y-12078440D01*
X92853100Y-12152608D01*
X92853100Y-12284392D01*
X92886715Y-12409845D01*
X92887209Y-12411689D01*
X92894147Y-12423705D01*
X92906870Y-12483553D01*
X92881985Y-12539449D01*
X92878416Y-12543211D01*
X90569422Y-14852205D01*
X90514905Y-14879982D01*
X90454473Y-14870411D01*
X90413683Y-14831703D01*
X90356400Y-14732486D01*
X90263214Y-14639300D01*
X90263211Y-14639298D01*
X90263209Y-14639296D01*
X90149089Y-14573409D01*
X90149091Y-14573409D01*
X90099699Y-14560175D01*
X90021792Y-14539300D01*
X89890008Y-14539300D01*
X89812100Y-14560175D01*
X89762709Y-14573409D01*
X89648590Y-14639296D01*
X89555396Y-14732490D01*
X89489509Y-14846609D01*
X89455400Y-14973909D01*
X89455400Y-14989100D01*
X89436493Y-15047291D01*
X89386993Y-15083255D01*
X89356400Y-15088100D01*
X74475069Y-15088100D01*
X74416878Y-15069193D01*
X74380914Y-15019693D01*
X74379442Y-14963477D01*
X74409100Y-14852792D01*
X74409100Y-14721008D01*
X74374992Y-14593714D01*
X74374990Y-14593711D01*
X74374990Y-14593709D01*
X74309103Y-14479590D01*
X74309101Y-14479588D01*
X74309100Y-14479586D01*
X74238094Y-14408580D01*
X74210319Y-14354066D01*
X74209100Y-14338579D01*
X74209100Y-13525939D01*
X74209100Y-13525938D01*
X74197815Y-13483821D01*
X74197815Y-13483820D01*
X74197815Y-13483819D01*
X74188622Y-13449512D01*
X74188620Y-13449508D01*
X74149063Y-13380993D01*
X74149061Y-13380991D01*
X74149060Y-13380989D01*
X72911072Y-12143001D01*
X72883297Y-12088487D01*
X72892868Y-12028055D01*
X72936133Y-11984790D01*
X72981078Y-11974000D01*
X87754021Y-11974000D01*
X87812212Y-11992907D01*
X87824025Y-12002996D01*
X88877004Y-13055975D01*
X88904781Y-13110492D01*
X88906000Y-13125979D01*
X88906000Y-13226392D01*
X88936079Y-13338651D01*
X88940109Y-13353690D01*
X89005996Y-13467809D01*
X89005998Y-13467811D01*
X89006000Y-13467814D01*
X89099186Y-13561000D01*
X89099188Y-13561001D01*
X89099190Y-13561003D01*
X89213310Y-13626890D01*
X89213308Y-13626890D01*
X89213312Y-13626891D01*
X89213314Y-13626892D01*
X89340608Y-13661000D01*
X89340610Y-13661000D01*
X89472390Y-13661000D01*
X89472392Y-13661000D01*
X89599686Y-13626892D01*
X89599688Y-13626890D01*
X89599690Y-13626890D01*
X89713809Y-13561003D01*
X89713809Y-13561002D01*
X89713814Y-13561000D01*
X89807000Y-13467814D01*
X89819658Y-13445890D01*
X89872890Y-13353690D01*
X89872890Y-13353688D01*
X89872892Y-13353686D01*
X89907000Y-13226392D01*
X89907000Y-13094608D01*
X89872892Y-12967314D01*
X89872890Y-12967311D01*
X89872890Y-12967309D01*
X89807003Y-12853190D01*
X89807001Y-12853188D01*
X89807000Y-12853186D01*
X89713814Y-12760000D01*
X89713811Y-12759998D01*
X89713809Y-12759996D01*
X89599689Y-12694109D01*
X89599691Y-12694109D01*
X89550299Y-12680875D01*
X89472392Y-12660000D01*
X89371979Y-12660000D01*
X89313788Y-12641093D01*
X89301975Y-12631004D01*
X88709850Y-12038879D01*
X88104011Y-11433040D01*
X88094566Y-11427587D01*
X88035489Y-11393479D01*
X88035488Y-11393478D01*
X88035487Y-11393478D01*
X87959064Y-11373000D01*
X87959062Y-11373000D01*
X29102721Y-11373000D01*
X29044530Y-11354093D01*
X29032723Y-11344009D01*
X28961714Y-11273000D01*
X28961711Y-11272998D01*
X28961709Y-11272996D01*
X28847589Y-11207109D01*
X28847591Y-11207109D01*
X28798199Y-11193875D01*
X28720292Y-11173000D01*
X28588508Y-11173000D01*
X28510600Y-11193875D01*
X28461209Y-11207109D01*
X28347090Y-11272996D01*
X28253896Y-11366190D01*
X28188009Y-11480309D01*
X28188008Y-11480314D01*
X28153900Y-11607608D01*
X28153900Y-11739392D01*
X28174962Y-11817996D01*
X28188009Y-11866689D01*
X28189862Y-11869898D01*
X28190414Y-11872496D01*
X28190492Y-11872684D01*
X28190457Y-11872698D01*
X28202585Y-11929746D01*
X28177700Y-11985642D01*
X28124712Y-12016236D01*
X28104127Y-12018400D01*
X12485879Y-12018400D01*
X12427688Y-11999493D01*
X12415875Y-11989404D01*
X10744396Y-10317925D01*
X10716619Y-10263408D01*
X10715400Y-10247921D01*
X10715400Y-10147509D01*
X10706415Y-10113975D01*
X10681292Y-10020214D01*
X10681290Y-10020211D01*
X10681290Y-10020209D01*
X10615403Y-9906090D01*
X10615401Y-9906088D01*
X10615400Y-9906086D01*
X10522214Y-9812900D01*
X10522211Y-9812898D01*
X10522209Y-9812896D01*
X10408089Y-9747009D01*
X10408091Y-9747009D01*
X10358699Y-9733775D01*
X10280792Y-9712900D01*
X10149008Y-9712900D01*
X10071100Y-9733775D01*
X10021709Y-9747009D01*
X9907590Y-9812896D01*
X9814396Y-9906090D01*
X9748509Y-10020209D01*
X9747141Y-10025314D01*
X9714400Y-10147508D01*
X500500Y-10147508D01*
X500500Y-7200408D01*
X12661500Y-7200408D01*
X12661500Y-7332192D01*
X12691579Y-7444451D01*
X12695609Y-7459490D01*
X12761496Y-7573609D01*
X12761498Y-7573611D01*
X12761500Y-7573614D01*
X12854686Y-7666800D01*
X12854688Y-7666801D01*
X12854690Y-7666803D01*
X12968810Y-7732690D01*
X12968808Y-7732690D01*
X12968812Y-7732691D01*
X12968814Y-7732692D01*
X13096108Y-7766800D01*
X13096110Y-7766800D01*
X13227890Y-7766800D01*
X13227892Y-7766800D01*
X13355186Y-7732692D01*
X13355188Y-7732690D01*
X13355190Y-7732690D01*
X13469309Y-7666803D01*
X13469309Y-7666802D01*
X13469314Y-7666800D01*
X13540319Y-7595794D01*
X13594834Y-7568019D01*
X13610321Y-7566800D01*
X86288821Y-7566800D01*
X86347012Y-7585707D01*
X86358825Y-7595796D01*
X88877004Y-10113975D01*
X88904781Y-10168492D01*
X88906000Y-10183979D01*
X88906000Y-10284392D01*
X88906670Y-10286892D01*
X88940109Y-10411690D01*
X89005996Y-10525809D01*
X89005998Y-10525811D01*
X89006000Y-10525814D01*
X89099186Y-10619000D01*
X89099188Y-10619001D01*
X89099190Y-10619003D01*
X89213310Y-10684890D01*
X89213308Y-10684890D01*
X89213312Y-10684891D01*
X89213314Y-10684892D01*
X89340608Y-10719000D01*
X89340610Y-10719000D01*
X89472390Y-10719000D01*
X89472392Y-10719000D01*
X89599686Y-10684892D01*
X89599688Y-10684890D01*
X89599690Y-10684890D01*
X89713809Y-10619003D01*
X89713809Y-10619002D01*
X89713814Y-10619000D01*
X89807000Y-10525814D01*
X89807003Y-10525809D01*
X89872890Y-10411690D01*
X89872890Y-10411688D01*
X89872892Y-10411686D01*
X89907000Y-10284392D01*
X89907000Y-10152608D01*
X89872892Y-10025314D01*
X89872890Y-10025311D01*
X89872890Y-10025309D01*
X89807003Y-9911190D01*
X89807001Y-9911188D01*
X89807000Y-9911186D01*
X89713814Y-9818000D01*
X89713811Y-9817998D01*
X89713809Y-9817996D01*
X89599689Y-9752109D01*
X89599691Y-9752109D01*
X89550299Y-9738875D01*
X89472392Y-9718000D01*
X89371979Y-9718000D01*
X89313788Y-9699093D01*
X89301975Y-9689004D01*
X86638811Y-7025840D01*
X86629366Y-7020387D01*
X86570289Y-6986279D01*
X86570288Y-6986278D01*
X86570287Y-6986278D01*
X86493864Y-6965800D01*
X86493862Y-6965800D01*
X13610321Y-6965800D01*
X13552130Y-6946893D01*
X13540323Y-6936809D01*
X13469314Y-6865800D01*
X13469311Y-6865798D01*
X13469309Y-6865796D01*
X13355189Y-6799909D01*
X13355191Y-6799909D01*
X13305799Y-6786675D01*
X13227892Y-6765800D01*
X13096108Y-6765800D01*
X13018200Y-6786675D01*
X12968809Y-6799909D01*
X12854690Y-6865796D01*
X12761496Y-6958990D01*
X12695609Y-7073109D01*
X12695608Y-7073114D01*
X12661500Y-7200408D01*
X500500Y-7200408D01*
X500500Y-3342727D01*
X699500Y-3342727D01*
X699500Y-3657272D01*
X734718Y-3969841D01*
X804711Y-4276501D01*
X908597Y-4573392D01*
X908598Y-4573394D01*
X1045066Y-4856774D01*
X1045070Y-4856781D01*
X1045074Y-4856789D01*
X1212423Y-5123123D01*
X1408539Y-5369044D01*
X1630956Y-5591461D01*
X1876877Y-5787577D01*
X2143211Y-5954926D01*
X2143222Y-5954931D01*
X2143225Y-5954933D01*
X2237377Y-6000274D01*
X2426606Y-6091402D01*
X2723500Y-6195289D01*
X3030160Y-6265282D01*
X3342727Y-6300500D01*
X3342728Y-6300500D01*
X3657272Y-6300500D01*
X3657273Y-6300500D01*
X3969840Y-6265282D01*
X4276500Y-6195289D01*
X4573394Y-6091402D01*
X4856789Y-5954926D01*
X5123123Y-5787577D01*
X5369044Y-5591461D01*
X5591461Y-5369044D01*
X5787577Y-5123123D01*
X5954926Y-4856789D01*
X6091402Y-4573394D01*
X6195289Y-4276500D01*
X6265282Y-3969840D01*
X6300500Y-3657273D01*
X6300500Y-3342727D01*
X93699500Y-3342727D01*
X93699500Y-3657272D01*
X93734718Y-3969841D01*
X93804711Y-4276501D01*
X93908597Y-4573392D01*
X93908598Y-4573394D01*
X94045066Y-4856774D01*
X94045070Y-4856781D01*
X94045074Y-4856789D01*
X94212423Y-5123123D01*
X94408539Y-5369044D01*
X94630956Y-5591461D01*
X94876877Y-5787577D01*
X95143211Y-5954926D01*
X95143222Y-5954931D01*
X95143225Y-5954933D01*
X95237377Y-6000274D01*
X95426606Y-6091402D01*
X95723500Y-6195289D01*
X96030160Y-6265282D01*
X96342727Y-6300500D01*
X96342728Y-6300500D01*
X96657272Y-6300500D01*
X96657273Y-6300500D01*
X96969840Y-6265282D01*
X97276500Y-6195289D01*
X97573394Y-6091402D01*
X97856789Y-5954926D01*
X98123123Y-5787577D01*
X98369044Y-5591461D01*
X98591461Y-5369044D01*
X98787577Y-5123123D01*
X98954926Y-4856789D01*
X99091402Y-4573394D01*
X99195289Y-4276500D01*
X99265282Y-3969840D01*
X99300500Y-3657273D01*
X99300500Y-3342727D01*
X99265282Y-3030160D01*
X99195289Y-2723500D01*
X99091402Y-2426606D01*
X98954926Y-2143211D01*
X98787577Y-1876877D01*
X98591461Y-1630956D01*
X98369044Y-1408539D01*
X98123123Y-1212423D01*
X97856789Y-1045074D01*
X97856781Y-1045070D01*
X97856774Y-1045066D01*
X97573394Y-908598D01*
X97573392Y-908597D01*
X97276501Y-804711D01*
X96969841Y-734718D01*
X96813556Y-717109D01*
X96657273Y-699500D01*
X96342727Y-699500D01*
X96238538Y-711239D01*
X96030158Y-734718D01*
X95723498Y-804711D01*
X95426607Y-908597D01*
X95426605Y-908598D01*
X95143225Y-1045066D01*
X95143213Y-1045073D01*
X94876876Y-1212423D01*
X94630957Y-1408538D01*
X94408538Y-1630957D01*
X94212423Y-1876876D01*
X94045073Y-2143213D01*
X94045066Y-2143225D01*
X93908598Y-2426605D01*
X93908597Y-2426607D01*
X93804711Y-2723498D01*
X93734718Y-3030158D01*
X93699500Y-3342727D01*
X6300500Y-3342727D01*
X6265282Y-3030160D01*
X6195289Y-2723500D01*
X6091402Y-2426606D01*
X5954926Y-2143211D01*
X5787577Y-1876877D01*
X5591461Y-1630956D01*
X5369044Y-1408539D01*
X5123123Y-1212423D01*
X4856789Y-1045074D01*
X4856781Y-1045070D01*
X4856774Y-1045066D01*
X4573394Y-908598D01*
X4573392Y-908597D01*
X4276501Y-804711D01*
X3969841Y-734718D01*
X3813556Y-717109D01*
X3657273Y-699500D01*
X3342727Y-699500D01*
X3238538Y-711239D01*
X3030158Y-734718D01*
X2723498Y-804711D01*
X2426607Y-908597D01*
X2426605Y-908598D01*
X2143225Y-1045066D01*
X2143213Y-1045073D01*
X1876876Y-1212423D01*
X1630957Y-1408538D01*
X1408538Y-1630957D01*
X1212423Y-1876876D01*
X1045073Y-2143213D01*
X1045066Y-2143225D01*
X908598Y-2426605D01*
X908597Y-2426607D01*
X804711Y-2723498D01*
X734718Y-3030158D01*
X699500Y-3342727D01*
X500500Y-3342727D01*
X500500Y-599500D01*
X519407Y-541309D01*
X568907Y-505345D01*
X599500Y-500500D01*
X99400500Y-500500D01*
X99458691Y-519407D01*
G37*
%TD.AperFunction*%
%TD*%
M02*
