%TF.GenerationSoftware,KiCad,Pcbnew,9.0.7+dfsg-1*%
%TF.CreationDate,2026-04-16T23:30:33-04:00*%
%TF.ProjectId,warden-apex-master,77617264-656e-42d6-9170-65782d6d6173,rev?*%
%TF.SameCoordinates,Original*%
%TF.FileFunction,Soldermask,Top*%
%TF.FilePolarity,Negative*%
%FSLAX46Y46*%
G04 Gerber Fmt 4.6, Leading zero omitted, Abs format (unit mm)*
G04 Created by KiCad (PCBNEW 9.0.7+dfsg-1) date 2026-04-16 23:30:33*
%MOMM*%
%LPD*%
G01*
G04 APERTURE LIST*
G04 Aperture macros list*
%AMRoundRect*
0 Rectangle with rounded corners*
0 $1 Rounding radius*
0 $2 $3 $4 $5 $6 $7 $8 $9 X,Y pos of 4 corners*
0 Add a 4 corners polygon primitive as box body*
4,1,4,$2,$3,$4,$5,$6,$7,$8,$9,$2,$3,0*
0 Add four circle primitives for the rounded corners*
1,1,$1+$1,$2,$3*
1,1,$1+$1,$4,$5*
1,1,$1+$1,$6,$7*
1,1,$1+$1,$8,$9*
0 Add four rect primitives between the rounded corners*
20,1,$1+$1,$2,$3,$4,$5,0*
20,1,$1+$1,$4,$5,$6,$7,0*
20,1,$1+$1,$6,$7,$8,$9,0*
20,1,$1+$1,$8,$9,$2,$3,0*%
G04 Aperture macros list end*
%ADD10RoundRect,0.250000X-0.250000X-0.475000X0.250000X-0.475000X0.250000X0.475000X-0.250000X0.475000X0*%
%ADD11RoundRect,0.150000X-0.512500X-0.150000X0.512500X-0.150000X0.512500X0.150000X-0.512500X0.150000X0*%
%ADD12R,1.700000X1.700000*%
%ADD13C,1.700000*%
%ADD14RoundRect,0.250000X0.450000X-0.262500X0.450000X0.262500X-0.450000X0.262500X-0.450000X-0.262500X0*%
%ADD15C,5.200000*%
%ADD16C,1.500000*%
%ADD17RoundRect,0.250000X-0.275000X-0.250000X0.275000X-0.250000X0.275000X0.250000X-0.275000X0.250000X0*%
%ADD18RoundRect,0.250000X-0.850000X-0.275000X0.850000X-0.275000X0.850000X0.275000X-0.850000X0.275000X0*%
%ADD19RoundRect,0.112500X-0.187500X-0.112500X0.187500X-0.112500X0.187500X0.112500X-0.187500X0.112500X0*%
%ADD20R,1.800000X1.300000*%
%ADD21R,1.600000X2.000000*%
%ADD22RoundRect,0.062500X-0.375000X-0.062500X0.375000X-0.062500X0.375000X0.062500X-0.375000X0.062500X0*%
%ADD23RoundRect,0.062500X-0.062500X-0.375000X0.062500X-0.375000X0.062500X0.375000X-0.062500X0.375000X0*%
%ADD24R,1.600000X1.600000*%
%ADD25RoundRect,0.250000X1.425000X-0.362500X1.425000X0.362500X-1.425000X0.362500X-1.425000X-0.362500X0*%
%ADD26R,0.700000X0.280000*%
%ADD27R,0.280000X0.700000*%
%ADD28RoundRect,0.362500X-0.362500X-0.862500X0.362500X-0.862500X0.362500X0.862500X-0.362500X0.862500X0*%
%ADD29R,2.450000X5.900000*%
%ADD30R,1.450000X1.450000*%
%ADD31RoundRect,0.250000X-0.262500X-0.450000X0.262500X-0.450000X0.262500X0.450000X-0.262500X0.450000X0*%
%ADD32RoundRect,0.250000X0.475000X-0.250000X0.475000X0.250000X-0.475000X0.250000X-0.475000X-0.250000X0*%
%ADD33R,2.000000X1.500000*%
%ADD34RoundRect,0.150000X0.150000X-0.875000X0.150000X0.875000X-0.150000X0.875000X-0.150000X-0.875000X0*%
%ADD35R,1.000000X1.600000*%
%ADD36R,0.900000X1.600000*%
%ADD37R,1.500000X1.200000*%
%ADD38R,0.800000X0.800000*%
%ADD39R,3.000000X3.000000*%
%ADD40RoundRect,0.250000X-0.300000X-1.600000X0.300000X-1.600000X0.300000X1.600000X-0.300000X1.600000X0*%
%ADD41R,0.900000X0.600000*%
%ADD42R,1.400000X1.400000*%
G04 APERTURE END LIST*
%TO.C,J2*%
G36*
X94485000Y-29060000D02*
G01*
X96575000Y-29060000D01*
X96575000Y-30940000D01*
X94485000Y-30940000D01*
X94485000Y-29060000D01*
G37*
%TO.C,J1*%
G36*
X94485000Y-37060000D02*
G01*
X96575000Y-37060000D01*
X96575000Y-38940000D01*
X94485000Y-38940000D01*
X94485000Y-37060000D01*
G37*
%TD*%
D10*
%TO.C,C1*%
X18050000Y-74000000D03*
X19950000Y-74000000D03*
%TD*%
D11*
%TO.C,U5*%
X90862500Y-63050000D03*
X90862500Y-64000000D03*
X90862500Y-64950000D03*
X93137500Y-64950000D03*
X93137500Y-64000000D03*
X93137500Y-63050000D03*
%TD*%
D12*
%TO.C,J3*%
X62000000Y-68000000D03*
D13*
X62000000Y-70540000D03*
%TD*%
D14*
%TO.C,R4*%
X33000000Y-76912500D03*
X33000000Y-75087500D03*
%TD*%
D15*
%TO.C,MH1*%
X3500000Y-3500000D03*
%TD*%
D14*
%TO.C,R12*%
X66000000Y-80912500D03*
X66000000Y-79087500D03*
%TD*%
%TO.C,R2*%
X33000000Y-72912500D03*
X33000000Y-71087500D03*
%TD*%
D16*
%TO.C,TP2*%
X10000000Y-94000000D03*
%TD*%
D10*
%TO.C,C19*%
X22050000Y-74000000D03*
X23950000Y-74000000D03*
%TD*%
D15*
%TO.C,MH4*%
X96500000Y-96500000D03*
%TD*%
D17*
%TO.C,J2*%
X93950000Y-30000000D03*
D18*
X95475000Y-28525000D03*
X95475000Y-31475000D03*
%TD*%
D19*
%TO.C,D3*%
X13950000Y-74000000D03*
X16050000Y-74000000D03*
%TD*%
D10*
%TO.C,C16*%
X55050000Y-74000000D03*
X56950000Y-74000000D03*
%TD*%
D20*
%TO.C,Card1*%
X75500000Y-37000000D03*
X80500000Y-37000000D03*
X75500000Y-39500000D03*
X80500000Y-39500000D03*
X75500000Y-42000000D03*
X80500000Y-42000000D03*
D21*
X72400000Y-36500000D03*
X83600000Y-36500000D03*
X72400000Y-47500000D03*
X83600000Y-47500000D03*
%TD*%
D22*
%TO.C,IC2*%
X17562500Y-79250000D03*
X17562500Y-79750000D03*
X17562500Y-80250000D03*
X17562500Y-80750000D03*
D23*
X18250000Y-81437500D03*
X18750000Y-81437500D03*
X19250000Y-81437500D03*
X19750000Y-81437500D03*
D22*
X20437500Y-80750000D03*
X20437500Y-80250000D03*
X20437500Y-79750000D03*
X20437500Y-79250000D03*
D23*
X19750000Y-78562500D03*
X19250000Y-78562500D03*
X18750000Y-78562500D03*
X18250000Y-78562500D03*
D24*
X19000000Y-80000000D03*
%TD*%
D25*
%TO.C,RSNS*%
X33000000Y-90962500D03*
X33000000Y-85037500D03*
%TD*%
D10*
%TO.C,C14*%
X23050000Y-94000000D03*
X24950000Y-94000000D03*
%TD*%
D26*
%TO.C,IC3*%
X46650000Y-79250000D03*
X46650000Y-79750000D03*
X46650000Y-80250000D03*
X46650000Y-80750000D03*
X49350000Y-79250000D03*
X49350000Y-79750000D03*
X49350000Y-80250000D03*
X49350000Y-80750000D03*
D27*
X47250000Y-81850000D03*
X47750000Y-81850000D03*
X48250000Y-81850000D03*
X48750000Y-81850000D03*
X47500000Y-78150000D03*
X48000000Y-78150000D03*
X48500000Y-78150000D03*
D28*
X48000000Y-80000000D03*
%TD*%
D10*
%TO.C,C2*%
X39050000Y-74000000D03*
X40950000Y-74000000D03*
%TD*%
D16*
%TO.C,TP3*%
X16000000Y-94000000D03*
%TD*%
D19*
%TO.C,D2*%
X89950000Y-30000000D03*
X92050000Y-30000000D03*
%TD*%
D10*
%TO.C,C17*%
X59050000Y-74000000D03*
X60950000Y-74000000D03*
%TD*%
D29*
%TO.C,L1*%
X11225000Y-88000000D03*
X16775000Y-88000000D03*
%TD*%
D22*
%TO.C,IC4*%
X56562500Y-63250000D03*
X56562500Y-63750000D03*
X56562500Y-64250000D03*
X56562500Y-64750000D03*
D23*
X57250000Y-65437500D03*
X57750000Y-65437500D03*
X58250000Y-65437500D03*
X58750000Y-65437500D03*
D22*
X59437500Y-64750000D03*
X59437500Y-64250000D03*
X59437500Y-63750000D03*
X59437500Y-63250000D03*
D23*
X58750000Y-62562500D03*
X58250000Y-62562500D03*
X57750000Y-62562500D03*
X57250000Y-62562500D03*
D30*
X58000000Y-64000000D03*
%TD*%
D16*
%TO.C,TP5*%
X58000000Y-90000000D03*
%TD*%
D31*
%TO.C,R13*%
X65087500Y-60000000D03*
X66912500Y-60000000D03*
%TD*%
D32*
%TO.C,C20*%
X6000000Y-80950000D03*
X6000000Y-79050000D03*
%TD*%
D10*
%TO.C,C3*%
X43050000Y-74000000D03*
X44950000Y-74000000D03*
%TD*%
D33*
%TO.C,U2*%
X75500000Y-8000000D03*
X75500000Y-10000000D03*
X75500000Y-12000000D03*
X75500000Y-14000000D03*
X75500000Y-16000000D03*
X75500000Y-18000000D03*
X75500000Y-20000000D03*
X75500000Y-22000000D03*
X91500000Y-22000000D03*
X91500000Y-20000000D03*
X91500000Y-18000000D03*
X91500000Y-16000000D03*
X91500000Y-14000000D03*
X91500000Y-12000000D03*
X91500000Y-10000000D03*
X91500000Y-8000000D03*
%TD*%
D34*
%TO.C,U4*%
X69745000Y-68650000D03*
X71015000Y-68650000D03*
X72285000Y-68650000D03*
X73555000Y-68650000D03*
X74825000Y-68650000D03*
X76095000Y-68650000D03*
X77365000Y-68650000D03*
X78635000Y-68650000D03*
X79905000Y-68650000D03*
X81175000Y-68650000D03*
X82445000Y-68650000D03*
X83715000Y-68650000D03*
X84985000Y-68650000D03*
X86255000Y-68650000D03*
X86255000Y-59350000D03*
X84985000Y-59350000D03*
X83715000Y-59350000D03*
X82445000Y-59350000D03*
X81175000Y-59350000D03*
X79905000Y-59350000D03*
X78635000Y-59350000D03*
X77365000Y-59350000D03*
X76095000Y-59350000D03*
X74825000Y-59350000D03*
X73555000Y-59350000D03*
X72285000Y-59350000D03*
X71015000Y-59350000D03*
X69745000Y-59350000D03*
%TD*%
D14*
%TO.C,R3*%
X30000000Y-76912500D03*
X30000000Y-75087500D03*
%TD*%
%TO.C,R5*%
X27000000Y-88912500D03*
X27000000Y-87087500D03*
%TD*%
D35*
%TO.C,U3*%
X31121000Y-5700000D03*
X32492000Y-5700000D03*
X33863000Y-5700000D03*
X35234000Y-5700000D03*
X36605000Y-5700000D03*
X37976000Y-5700000D03*
X39347000Y-5700000D03*
X40718000Y-5700000D03*
X42089000Y-5700000D03*
X43460000Y-5700000D03*
X44831000Y-5700000D03*
X46202000Y-5700000D03*
X47573000Y-5700000D03*
X48944000Y-5700000D03*
X50315000Y-5700000D03*
X51685000Y-5700000D03*
X53056000Y-5700000D03*
X54427000Y-5700000D03*
X55798000Y-5700000D03*
X57169000Y-5700000D03*
X58540000Y-5700000D03*
X59911000Y-5700000D03*
X61282000Y-5700000D03*
X62653000Y-5700000D03*
X64024000Y-5700000D03*
X65395000Y-5700000D03*
X66766000Y-5700000D03*
X68137000Y-5700000D03*
X69508000Y-5700000D03*
X70879000Y-5700000D03*
X70879000Y-24300000D03*
X69508000Y-24300000D03*
X68137000Y-24300000D03*
X66766000Y-24300000D03*
X65395000Y-24300000D03*
X64024000Y-24300000D03*
X62653000Y-24300000D03*
X61282000Y-24300000D03*
X59911000Y-24300000D03*
X58540000Y-24300000D03*
X57169000Y-24300000D03*
X55798000Y-24300000D03*
X54427000Y-24300000D03*
X53056000Y-24300000D03*
X51685000Y-24300000D03*
X50315000Y-24300000D03*
X48944000Y-24300000D03*
X47573000Y-24300000D03*
X46202000Y-24300000D03*
X44831000Y-24300000D03*
X43460000Y-24300000D03*
X42089000Y-24300000D03*
X40718000Y-24300000D03*
X39347000Y-24300000D03*
X37976000Y-24300000D03*
X36605000Y-24300000D03*
X35234000Y-24300000D03*
X33863000Y-24300000D03*
X32492000Y-24300000D03*
X31121000Y-24300000D03*
%TD*%
D16*
%TO.C,TP4*%
X7000000Y-46000000D03*
%TD*%
D14*
%TO.C,R15*%
X40000000Y-80912500D03*
X40000000Y-79087500D03*
%TD*%
D10*
%TO.C,C5*%
X51050000Y-74000000D03*
X52950000Y-74000000D03*
%TD*%
D17*
%TO.C,J1*%
X93950000Y-38000000D03*
D18*
X95475000Y-36525000D03*
X95475000Y-39475000D03*
%TD*%
D36*
%TO.C,U1*%
X7500000Y-7380000D03*
X7500000Y-9920000D03*
X7500000Y-12460000D03*
X7500000Y-15000000D03*
X7500000Y-17540000D03*
X7500000Y-20080000D03*
X7500000Y-22620000D03*
X27500000Y-7380000D03*
X27500000Y-9920000D03*
X27500000Y-12460000D03*
X27500000Y-15000000D03*
X27500000Y-17540000D03*
X27500000Y-20080000D03*
X27500000Y-22620000D03*
D37*
X9880000Y-21750000D03*
X12420000Y-21750000D03*
X14960000Y-21750000D03*
X17500000Y-21750000D03*
X20040000Y-21750000D03*
X22580000Y-21750000D03*
X25120000Y-21750000D03*
D38*
X16230000Y-19250000D03*
X18770000Y-19250000D03*
D39*
X17500000Y-15000000D03*
%TD*%
D32*
%TO.C,C21*%
X6000000Y-84950000D03*
X6000000Y-83050000D03*
%TD*%
%TO.C,C15*%
X6000000Y-74950000D03*
X6000000Y-73050000D03*
%TD*%
D31*
%TO.C,R14*%
X65087500Y-63000000D03*
X66912500Y-63000000D03*
%TD*%
D40*
%TO.C,L3*%
X53500000Y-80000000D03*
X56500000Y-80000000D03*
%TD*%
D41*
%TO.C,IC1*%
X38550000Y-29600000D03*
X38550000Y-31200000D03*
X38550000Y-32800000D03*
X38550000Y-34400000D03*
X38550000Y-36000000D03*
X38550000Y-37600000D03*
X38550000Y-39200000D03*
X38550000Y-40800000D03*
X38550000Y-42400000D03*
X38550000Y-44000000D03*
X38550000Y-45600000D03*
X38550000Y-47200000D03*
X38550000Y-48800000D03*
X38550000Y-50400000D03*
X43600000Y-51450000D03*
X45200000Y-51450000D03*
X46800000Y-51450000D03*
X48400000Y-51450000D03*
X50000000Y-51450000D03*
X51600000Y-51450000D03*
X53200000Y-51450000D03*
X54800000Y-51450000D03*
X56400000Y-51450000D03*
X61450000Y-50400000D03*
X61450000Y-48800000D03*
X61450000Y-47200000D03*
X61450000Y-45600000D03*
X61450000Y-44000000D03*
X61450000Y-42400000D03*
X61450000Y-40800000D03*
X61450000Y-39200000D03*
X61450000Y-37600000D03*
X61450000Y-36000000D03*
X61450000Y-34400000D03*
X61450000Y-32800000D03*
X61450000Y-31200000D03*
X61450000Y-29600000D03*
X56400000Y-28550000D03*
X54800000Y-28550000D03*
X53200000Y-28550000D03*
X51600000Y-28550000D03*
X50000000Y-28550000D03*
X48400000Y-28550000D03*
X46800000Y-28550000D03*
X45200000Y-28550000D03*
X43600000Y-28550000D03*
D42*
X44000000Y-35200000D03*
X46400000Y-35200000D03*
X48800000Y-35200000D03*
X51200000Y-35200000D03*
X53600000Y-35200000D03*
X56000000Y-35200000D03*
X44000000Y-37600000D03*
X46400000Y-37600000D03*
X48800000Y-37600000D03*
X51200000Y-37600000D03*
X53600000Y-37600000D03*
X56000000Y-37600000D03*
X44000000Y-40000000D03*
X46400000Y-40000000D03*
X48800000Y-40000000D03*
X51200000Y-40000000D03*
X53600000Y-40000000D03*
X56000000Y-40000000D03*
X44000000Y-42400000D03*
X46400000Y-42400000D03*
X48800000Y-42400000D03*
X51200000Y-42400000D03*
X53600000Y-42400000D03*
X56000000Y-42400000D03*
X44000000Y-44800000D03*
X46400000Y-44800000D03*
X48800000Y-44800000D03*
X51200000Y-44800000D03*
X53600000Y-44800000D03*
X56000000Y-44800000D03*
X41500000Y-48000000D03*
%TD*%
D12*
%TO.C,H1*%
X7000000Y-34000000D03*
D13*
X9540000Y-34000000D03*
X12080000Y-34000000D03*
%TD*%
D10*
%TO.C,C13*%
X19050000Y-94000000D03*
X20950000Y-94000000D03*
%TD*%
D11*
%TO.C,Q1*%
X24862500Y-79050000D03*
X24862500Y-80000000D03*
X24862500Y-80950000D03*
X27137500Y-80950000D03*
X27137500Y-80000000D03*
X27137500Y-79050000D03*
%TD*%
D14*
%TO.C,R1*%
X30000000Y-72912500D03*
X30000000Y-71087500D03*
%TD*%
D15*
%TO.C,MH2*%
X96500000Y-3500000D03*
%TD*%
D32*
%TO.C,C22*%
X6000000Y-92950000D03*
X6000000Y-91050000D03*
%TD*%
D15*
%TO.C,MH3*%
X3500000Y-96500000D03*
%TD*%
D14*
%TO.C,R11*%
X62000000Y-80912500D03*
X62000000Y-79087500D03*
%TD*%
D19*
%TO.C,D1*%
X93950000Y-48000000D03*
X96050000Y-48000000D03*
%TD*%
D16*
%TO.C,TP1*%
X52000000Y-90000000D03*
%TD*%
D14*
%TO.C,R10*%
X27000000Y-92912500D03*
X27000000Y-91087500D03*
%TD*%
D10*
%TO.C,C18*%
X63050000Y-74000000D03*
X64950000Y-74000000D03*
%TD*%
%TO.C,C4*%
X47050000Y-74000000D03*
X48950000Y-74000000D03*
%TD*%
M02*
