M48
; DRILL file {KiCad 9.0.7+dfsg-1} date 2026-04-16T23:30:33-0400
; FORMAT={-:-/ absolute / metric / decimal}
; #@! TF.CreationDate,2026-04-16T23:30:33-04:00
; #@! TF.GenerationSoftware,Kicad,Pcbnew,9.0.7+dfsg-1
; #@! TF.FileFunction,Plated,1,4,PTH
FMAT,2
METRIC
; #@! TA.AperFunction,Plated,PTH,ViaDrill
T1C0.300
; #@! TA.AperFunction,Plated,PTH,ComponentDrill
T2C1.000
; #@! TA.AperFunction,Plated,PTH,ComponentDrill
T3C3.200
%
G90
G05
T1
X7.268Y-48.526
X7.734Y-83.891
X10.0Y-42.0
X10.0Y-50.0
X10.0Y-58.0
X10.0Y-66.0
X10.0Y-74.0
X10.0Y-82.0
X10.215Y-10.213
X10.215Y-13.16
X10.215Y-45.579
X13.162Y-7.266
X13.852Y-34.017
X14.625Y-81.458
X14.914Y-75.787
X14.914Y-80.057
X16.179Y-79.372
X16.759Y-76.956
X16.979Y-83.216
X17.371Y-81.645
X17.565Y-78.223
X18.0Y-26.0
X18.0Y-42.0
X18.0Y-50.0
X18.0Y-58.0
X18.0Y-66.0
X18.073Y-76.033
X19.403Y-77.325
X21.203Y-78.656
X21.505Y-79.628
X22.176Y-80.732
X22.889Y-79.628
X24.95Y-83.891
X26.0Y-26.0
X26.0Y-34.0
X26.0Y-50.0
X26.0Y-58.0
X26.0Y-66.0
X26.0Y-74.0
X27.931Y-77.567
X28.548Y-22.889
X28.654Y-11.673
X28.66Y-13.38
X28.66Y-15.687
X28.66Y-22.002
X28.73Y-79.885
X31.901Y-72.0
X33.617Y-78.448
X34.0Y-34.0
X34.0Y-42.0
X34.0Y-58.0
X34.0Y-66.0
X34.0Y-82.0
X34.33Y-45.04
X39.686Y-83.891
X40.08Y-29.335
X40.08Y-42.218
X42.0Y-66.0
X45.203Y-81.629
X45.58Y-22.002
X45.58Y-27.336
X48.302Y-50.575
X48.676Y-33.26
X49.424Y-82.508
X50.0Y-58.0
X50.0Y-66.0
X52.4Y-43.791
X52.539Y-38.661
X54.773Y-27.336
X58.0Y-58.0
X62.218Y-77.595
X63.318Y-40.629
X66.0Y-66.0
X66.0Y-90.0
X66.92Y-61.244
X72.68Y-13.204
X72.68Y-22.002
X73.909Y-14.787
X74.0Y-26.0
X74.0Y-74.0
X74.0Y-82.0
X74.0Y-90.0
X74.089Y-37.28
X75.051Y-43.377
X80.436Y-40.654
X80.945Y-35.807
X82.0Y-26.0
X82.0Y-74.0
X82.0Y-82.0
X82.0Y-90.0
X89.406Y-10.218
X89.406Y-13.16
X89.956Y-15.04
X90.0Y-42.0
X90.0Y-50.0
X90.0Y-58.0
X90.0Y-74.0
X90.0Y-82.0
X90.0Y-90.0
X92.399Y-36.437
X93.354Y-12.218
T2
X7.0Y-34.0
X9.54Y-34.0
X12.08Y-34.0
X62.0Y-68.0
X62.0Y-70.54
T3
X3.5Y-3.5
X3.5Y-96.5
X96.5Y-3.5
X96.5Y-96.5
M30
