%TF.GenerationSoftware,KiCad,Pcbnew,9.0.7+dfsg-1*%
%TF.CreationDate,2026-04-17T08:38:16-04:00*%
%TF.ProjectId,warden-apex-master,77617264-656e-42d6-9170-65782d6d6173,rev?*%
%TF.SameCoordinates,Original*%
%TF.FileFunction,Copper,L3,Inr*%
%TF.FilePolarity,Positive*%
%FSLAX46Y46*%
G04 Gerber Fmt 4.6, Leading zero omitted, Abs format (unit mm)*
G04 Created by KiCad (PCBNEW 9.0.7+dfsg-1) date 2026-04-17 08:38:16*
%MOMM*%
%LPD*%
G01*
G04 APERTURE LIST*
%TA.AperFunction,ComponentPad*%
%ADD10R,1.700000X1.700000*%
%TD*%
%TA.AperFunction,ComponentPad*%
%ADD11C,1.700000*%
%TD*%
%TA.AperFunction,ComponentPad*%
%ADD12C,5.200000*%
%TD*%
%TA.AperFunction,ViaPad*%
%ADD13C,0.600000*%
%TD*%
G04 APERTURE END LIST*
D10*
%TO.N,/SPK_P*%
%TO.C,J3*%
X62000000Y-68000000D03*
D11*
%TO.N,/SPK_N*%
X62000000Y-70540000D03*
%TD*%
D12*
%TO.N,*%
%TO.C,MH1*%
X3500000Y-3500000D03*
%TD*%
%TO.N,*%
%TO.C,MH4*%
X96500000Y-96500000D03*
%TD*%
D10*
%TO.N,/3V3*%
%TO.C,H1*%
X7000000Y-34000000D03*
D11*
%TO.N,/GND*%
X9540000Y-34000000D03*
%TO.N,/PIR_SIG*%
X12080000Y-34000000D03*
%TD*%
D12*
%TO.N,*%
%TO.C,MH2*%
X96500000Y-3500000D03*
%TD*%
%TO.N,*%
%TO.C,MH3*%
X3500000Y-96500000D03*
%TD*%
D13*
%TO.N,/CHG_REF*%
X19947300Y-85951200D03*
X12927800Y-84467300D03*
%TO.N,/GND*%
X22422100Y-77612700D03*
X22966200Y-78770500D03*
%TO.N,/3V3*%
X25364300Y-37166500D03*
X51512700Y-35950500D03*
X57368500Y-77194500D03*
X66209800Y-42323300D03*
X47708400Y-77161600D03*
X69943700Y-35022000D03*
%TO.N,/CHG_STAT1*%
X33791700Y-80943800D03*
X22175400Y-83370000D03*
%TO.N,/FB2_LINK*%
X46542600Y-83196300D03*
X63718900Y-81008900D03*
%TO.N,/CHG_SENSE_NEG*%
X20426700Y-81670100D03*
X31928200Y-82554000D03*
X7733700Y-83104100D03*
%TO.N,/MPPSET*%
X31542000Y-71263900D03*
X18119700Y-75275000D03*
%TO.N,/SOLAR_IN*%
X15574000Y-81623100D03*
X23008000Y-79919600D03*
X17238800Y-76621400D03*
%TO.N,/CHG_PH*%
X14921000Y-78088800D03*
X26937900Y-76845900D03*
X19439900Y-77250400D03*
%TO.N,/CHG_REGN*%
X12936000Y-77576000D03*
X21596000Y-78922900D03*
%TO.N,/VBAT_SYS*%
X54769800Y-80576500D03*
X36738800Y-86838000D03*
%TO.N,/MODEM_VBAT_SW*%
X22535200Y-45578600D03*
X8080900Y-44842300D03*
X54586800Y-44245800D03*
%TO.N,/SIM_CLK*%
X78351600Y-36383900D03*
X55247500Y-35950500D03*
%TO.N,/SIM_RST*%
X74088800Y-39684400D03*
X45500000Y-43032500D03*
%TO.N,/TS_BIAS*%
X17109500Y-81892800D03*
X28671600Y-81895500D03*
%TO.N,/CHG_STAT2*%
X19264900Y-86838000D03*
X25782900Y-88853700D03*
%TO.N,/CHG_VFB*%
X30206600Y-74042900D03*
X21881800Y-81152700D03*
%TO.N,/CHG_GATE_HI*%
X19768000Y-75629400D03*
X28138600Y-77068600D03*
%TO.N,/LORA_NSS*%
X86839500Y-10213400D03*
X10819700Y-7266300D03*
%TO.N,/LORA_RESET*%
X72889200Y-13947300D03*
X10902300Y-12500900D03*
%TO.N,/LORA_DIO0*%
X10819700Y-14490100D03*
X72889200Y-15627900D03*
%TO.N,/PG_MON*%
X3650300Y-83890900D03*
X27062500Y-90000000D03*
%TO.N,/I2C_SDA*%
X26128700Y-58218900D03*
X66435400Y-57367000D03*
X10214900Y-54419900D03*
%TO.N,/I2C_SCL*%
X25146700Y-58198400D03*
X65661500Y-58153800D03*
%TO.N,/I2S_DOUT*%
X56415700Y-56352900D03*
X16816300Y-51433200D03*
%TO.N,/I2S_LRCLK*%
X41898300Y-31184200D03*
X58101500Y-52185700D03*
X42424400Y-50540500D03*
X24218600Y-20283400D03*
%TO.N,/SPI_SCK*%
X89302800Y-11893500D03*
X27915100Y-10982500D03*
%TO.N,/SPI_MISO*%
X93353600Y-13692000D03*
X27399600Y-14968100D03*
%TO.N,/SPI_MOSI*%
X27898800Y-13159200D03*
X89408100Y-13160500D03*
%TO.N,/I2S_BCLK*%
X21492400Y-51181700D03*
X57368500Y-56580200D03*
%TO.N,/LORA_DIO1*%
X19305200Y-13160100D03*
X72889200Y-18371500D03*
%TO.N,/UART1_RX*%
X54421400Y-22001800D03*
X18360700Y-27518300D03*
X41847000Y-32941000D03*
%TO.N,/UART1_TX*%
X69156900Y-36737300D03*
X43378600Y-43302800D03*
%TO.N,/REG_IN*%
X49445400Y-82083700D03*
X39685900Y-83890900D03*
%TO.N,/PGOOD*%
X48474800Y-87396500D03*
X28536000Y-93104200D03*
%TO.N,/VAUX*%
X46850000Y-78511000D03*
X50562500Y-75484800D03*
%TO.N,/MODEM_EN*%
X39555500Y-48525700D03*
X70301100Y-67144800D03*
%TO.N,/PIR_SIG*%
X76002000Y-43588700D03*
%TO.N,/U6_UART_RX*%
X32883200Y-52321100D03*
X24992400Y-49795700D03*
%TO.N,/CELL_RF*%
X42634600Y-34680300D03*
X92397300Y-36436600D03*
%TO.N,/SIM_VDD*%
X92746900Y-33777000D03*
X54233000Y-33706800D03*
%TD*%
%TA.AperFunction,Conductor*%
%TO.N,VBAT_SYS*%
G36*
X679593Y-96988820D02*
G01*
X696018Y-97024981D01*
X756590Y-97290366D01*
X862330Y-97592554D01*
X862332Y-97592558D01*
X1001245Y-97881013D01*
X1171581Y-98152101D01*
X1371198Y-98402413D01*
X1597587Y-98628802D01*
X1847899Y-98828419D01*
X2118987Y-98998755D01*
X2407442Y-99137668D01*
X2407445Y-99137669D01*
X2709633Y-99243409D01*
X2975019Y-99303982D01*
X3027543Y-99335364D01*
X3051590Y-99391626D01*
X3037975Y-99451277D01*
X2991898Y-99491533D01*
X2952989Y-99499500D01*
X599500Y-99499500D01*
X541309Y-99480593D01*
X505345Y-99431093D01*
X500500Y-99400500D01*
X500500Y-97047011D01*
X519407Y-96988820D01*
X568907Y-96952856D01*
X630093Y-96952856D01*
X679593Y-96988820D01*
G37*
%TD.AperFunction*%
%TA.AperFunction,Conductor*%
G36*
X96011180Y-519407D02*
G01*
X96047144Y-568907D01*
X96047144Y-630093D01*
X96011180Y-679593D01*
X95975019Y-696018D01*
X95709633Y-756590D01*
X95407445Y-862330D01*
X95118994Y-1001241D01*
X95118989Y-1001244D01*
X94847898Y-1171581D01*
X94597588Y-1371197D01*
X94371197Y-1597588D01*
X94171581Y-1847898D01*
X94001244Y-2118989D01*
X94001241Y-2118994D01*
X93862330Y-2407445D01*
X93756590Y-2709633D01*
X93685347Y-3021768D01*
X93685346Y-3021774D01*
X93649500Y-3339902D01*
X93649500Y-3660097D01*
X93685346Y-3978225D01*
X93685347Y-3978231D01*
X93756590Y-4290366D01*
X93862330Y-4592554D01*
X93862332Y-4592558D01*
X94001245Y-4881013D01*
X94171581Y-5152101D01*
X94371198Y-5402413D01*
X94597587Y-5628802D01*
X94847899Y-5828419D01*
X95118987Y-5998755D01*
X95407442Y-6137668D01*
X95407445Y-6137669D01*
X95709633Y-6243409D01*
X95709636Y-6243409D01*
X95709637Y-6243410D01*
X96021771Y-6314653D01*
X96107562Y-6324319D01*
X96339902Y-6350499D01*
X96339918Y-6350499D01*
X96339919Y-6350500D01*
X96339920Y-6350500D01*
X96660080Y-6350500D01*
X96660081Y-6350500D01*
X96660082Y-6350499D01*
X96660097Y-6350499D01*
X96863840Y-6327541D01*
X96978229Y-6314653D01*
X97290363Y-6243410D01*
X97592558Y-6137668D01*
X97881013Y-5998755D01*
X98152101Y-5828419D01*
X98402413Y-5628802D01*
X98628802Y-5402413D01*
X98828419Y-5152101D01*
X98998755Y-4881013D01*
X99137668Y-4592558D01*
X99243410Y-4290363D01*
X99303982Y-4024980D01*
X99335364Y-3972457D01*
X99391626Y-3948410D01*
X99451277Y-3962025D01*
X99491533Y-4008102D01*
X99499500Y-4047011D01*
X99499500Y-95952988D01*
X99480593Y-96011179D01*
X99431093Y-96047143D01*
X99369907Y-96047143D01*
X99320407Y-96011179D01*
X99303982Y-95975018D01*
X99243409Y-95709633D01*
X99137669Y-95407445D01*
X98998758Y-95118994D01*
X98998755Y-95118987D01*
X98828419Y-94847899D01*
X98628802Y-94597587D01*
X98402413Y-94371198D01*
X98152101Y-94171581D01*
X97881013Y-94001245D01*
X97592558Y-93862332D01*
X97592554Y-93862330D01*
X97290366Y-93756590D01*
X96978231Y-93685347D01*
X96978225Y-93685346D01*
X96660097Y-93649500D01*
X96660081Y-93649500D01*
X96339919Y-93649500D01*
X96339902Y-93649500D01*
X96021774Y-93685346D01*
X96021768Y-93685347D01*
X95709633Y-93756590D01*
X95407445Y-93862330D01*
X95118994Y-94001241D01*
X95118989Y-94001244D01*
X94847898Y-94171581D01*
X94597588Y-94371197D01*
X94371197Y-94597588D01*
X94171581Y-94847898D01*
X94001244Y-95118989D01*
X94001241Y-95118994D01*
X93862330Y-95407445D01*
X93756590Y-95709633D01*
X93685347Y-96021768D01*
X93685346Y-96021774D01*
X93649500Y-96339902D01*
X93649500Y-96660097D01*
X93685346Y-96978225D01*
X93685347Y-96978231D01*
X93756590Y-97290366D01*
X93862330Y-97592554D01*
X93862332Y-97592558D01*
X94001245Y-97881013D01*
X94171581Y-98152101D01*
X94371198Y-98402413D01*
X94597587Y-98628802D01*
X94847899Y-98828419D01*
X95118987Y-98998755D01*
X95407442Y-99137668D01*
X95407445Y-99137669D01*
X95709633Y-99243409D01*
X95975019Y-99303982D01*
X96027543Y-99335364D01*
X96051590Y-99391626D01*
X96037975Y-99451277D01*
X95991898Y-99491533D01*
X95952989Y-99499500D01*
X4047011Y-99499500D01*
X3988820Y-99480593D01*
X3952856Y-99431093D01*
X3952856Y-99369907D01*
X3988820Y-99320407D01*
X4024981Y-99303982D01*
X4290363Y-99243410D01*
X4592558Y-99137668D01*
X4881013Y-98998755D01*
X5152101Y-98828419D01*
X5402413Y-98628802D01*
X5628802Y-98402413D01*
X5828419Y-98152101D01*
X5998755Y-97881013D01*
X6137668Y-97592558D01*
X6243410Y-97290363D01*
X6314653Y-96978229D01*
X6327541Y-96863840D01*
X6350499Y-96660097D01*
X6350500Y-96660080D01*
X6350500Y-96339919D01*
X6350499Y-96339902D01*
X6324319Y-96107562D01*
X6314653Y-96021771D01*
X6243410Y-95709637D01*
X6137668Y-95407442D01*
X5998755Y-95118987D01*
X5828419Y-94847899D01*
X5628802Y-94597587D01*
X5402413Y-94371198D01*
X5152101Y-94171581D01*
X4881013Y-94001245D01*
X4592558Y-93862332D01*
X4592554Y-93862330D01*
X4290366Y-93756590D01*
X3978231Y-93685347D01*
X3978225Y-93685346D01*
X3660097Y-93649500D01*
X3660081Y-93649500D01*
X3339919Y-93649500D01*
X3339902Y-93649500D01*
X3021774Y-93685346D01*
X3021768Y-93685347D01*
X2709633Y-93756590D01*
X2407445Y-93862330D01*
X2118994Y-94001241D01*
X2118989Y-94001244D01*
X1847898Y-94171581D01*
X1597588Y-94371197D01*
X1371197Y-94597588D01*
X1171581Y-94847898D01*
X1001244Y-95118989D01*
X1001241Y-95118994D01*
X862330Y-95407445D01*
X756590Y-95709633D01*
X696018Y-95975018D01*
X664636Y-96027542D01*
X608374Y-96051589D01*
X548723Y-96037974D01*
X508467Y-95991897D01*
X500500Y-95952988D01*
X500500Y-93031725D01*
X27985500Y-93031725D01*
X27985500Y-93176674D01*
X28023017Y-93316689D01*
X28095487Y-93442210D01*
X28095489Y-93442212D01*
X28095491Y-93442215D01*
X28197985Y-93544709D01*
X28197987Y-93544710D01*
X28197989Y-93544712D01*
X28323511Y-93617182D01*
X28323512Y-93617182D01*
X28323515Y-93617184D01*
X28463525Y-93654700D01*
X28463526Y-93654700D01*
X28608474Y-93654700D01*
X28608475Y-93654700D01*
X28748485Y-93617184D01*
X28748487Y-93617182D01*
X28748489Y-93617182D01*
X28874010Y-93544712D01*
X28874010Y-93544711D01*
X28874015Y-93544709D01*
X28976509Y-93442215D01*
X29048984Y-93316685D01*
X29086500Y-93176675D01*
X29086500Y-93031725D01*
X29048984Y-92891715D01*
X29048982Y-92891712D01*
X29048982Y-92891710D01*
X28976512Y-92766189D01*
X28976510Y-92766187D01*
X28976509Y-92766185D01*
X28874015Y-92663691D01*
X28874012Y-92663689D01*
X28874010Y-92663687D01*
X28748488Y-92591217D01*
X28748489Y-92591217D01*
X28718896Y-92583287D01*
X28608475Y-92553700D01*
X28463525Y-92553700D01*
X28401790Y-92570241D01*
X28323510Y-92591217D01*
X28197989Y-92663687D01*
X28095487Y-92766189D01*
X28023017Y-92891710D01*
X27985500Y-93031725D01*
X500500Y-93031725D01*
X500500Y-89927525D01*
X26512000Y-89927525D01*
X26512000Y-90072474D01*
X26549517Y-90212489D01*
X26621987Y-90338010D01*
X26621989Y-90338012D01*
X26621991Y-90338015D01*
X26724485Y-90440509D01*
X26724487Y-90440510D01*
X26724489Y-90440512D01*
X26850011Y-90512982D01*
X26850012Y-90512982D01*
X26850015Y-90512984D01*
X26990025Y-90550500D01*
X26990026Y-90550500D01*
X27134974Y-90550500D01*
X27134975Y-90550500D01*
X27274985Y-90512984D01*
X27274987Y-90512982D01*
X27274989Y-90512982D01*
X27400510Y-90440512D01*
X27400510Y-90440511D01*
X27400515Y-90440509D01*
X27503009Y-90338015D01*
X27575484Y-90212485D01*
X27613000Y-90072475D01*
X27613000Y-89927525D01*
X27575484Y-89787515D01*
X27575482Y-89787512D01*
X27575482Y-89787510D01*
X27503012Y-89661989D01*
X27503010Y-89661987D01*
X27503009Y-89661985D01*
X27400515Y-89559491D01*
X27400512Y-89559489D01*
X27400510Y-89559487D01*
X27274988Y-89487017D01*
X27274989Y-89487017D01*
X27245396Y-89479087D01*
X27134975Y-89449500D01*
X26990025Y-89449500D01*
X26928290Y-89466041D01*
X26850010Y-89487017D01*
X26724489Y-89559487D01*
X26621987Y-89661989D01*
X26549517Y-89787510D01*
X26512000Y-89927525D01*
X500500Y-89927525D01*
X500500Y-88781225D01*
X25232400Y-88781225D01*
X25232400Y-88926174D01*
X25269917Y-89066189D01*
X25342387Y-89191710D01*
X25342389Y-89191712D01*
X25342391Y-89191715D01*
X25444885Y-89294209D01*
X25444887Y-89294210D01*
X25444889Y-89294212D01*
X25570411Y-89366682D01*
X25570412Y-89366682D01*
X25570415Y-89366684D01*
X25710425Y-89404200D01*
X25710426Y-89404200D01*
X25855374Y-89404200D01*
X25855375Y-89404200D01*
X25995385Y-89366684D01*
X25995387Y-89366682D01*
X25995389Y-89366682D01*
X26120910Y-89294212D01*
X26120910Y-89294211D01*
X26120915Y-89294209D01*
X26223409Y-89191715D01*
X26295884Y-89066185D01*
X26333400Y-88926175D01*
X26333400Y-88781225D01*
X26295884Y-88641215D01*
X26295882Y-88641212D01*
X26295882Y-88641210D01*
X26223412Y-88515689D01*
X26223410Y-88515687D01*
X26223409Y-88515685D01*
X26120915Y-88413191D01*
X26120912Y-88413189D01*
X26120910Y-88413187D01*
X25995388Y-88340717D01*
X25995389Y-88340717D01*
X25965796Y-88332787D01*
X25855375Y-88303200D01*
X25710425Y-88303200D01*
X25648690Y-88319741D01*
X25570410Y-88340717D01*
X25444889Y-88413187D01*
X25342387Y-88515689D01*
X25269917Y-88641210D01*
X25232400Y-88781225D01*
X500500Y-88781225D01*
X500500Y-86765525D01*
X18714400Y-86765525D01*
X18714400Y-86910474D01*
X18751917Y-87050489D01*
X18824387Y-87176010D01*
X18824389Y-87176012D01*
X18824391Y-87176015D01*
X18926885Y-87278509D01*
X18926887Y-87278510D01*
X18926889Y-87278512D01*
X19052411Y-87350982D01*
X19052412Y-87350982D01*
X19052415Y-87350984D01*
X19192425Y-87388500D01*
X19192426Y-87388500D01*
X19337374Y-87388500D01*
X19337375Y-87388500D01*
X19477385Y-87350984D01*
X19477387Y-87350982D01*
X19477389Y-87350982D01*
X19602910Y-87278512D01*
X19602910Y-87278511D01*
X19602915Y-87278509D01*
X19705409Y-87176015D01*
X19777884Y-87050485D01*
X19815400Y-86910475D01*
X19815400Y-86765525D01*
X36188300Y-86765525D01*
X36188300Y-86910474D01*
X36225817Y-87050489D01*
X36298287Y-87176010D01*
X36298289Y-87176012D01*
X36298291Y-87176015D01*
X36400785Y-87278509D01*
X36400787Y-87278510D01*
X36400789Y-87278512D01*
X36526311Y-87350982D01*
X36526312Y-87350982D01*
X36526315Y-87350984D01*
X36666325Y-87388500D01*
X36666326Y-87388500D01*
X36811274Y-87388500D01*
X36811275Y-87388500D01*
X36951285Y-87350984D01*
X36951287Y-87350982D01*
X36951289Y-87350982D01*
X36997980Y-87324025D01*
X47924300Y-87324025D01*
X47924300Y-87468974D01*
X47961817Y-87608989D01*
X48034287Y-87734510D01*
X48034289Y-87734512D01*
X48034291Y-87734515D01*
X48136785Y-87837009D01*
X48136787Y-87837010D01*
X48136789Y-87837012D01*
X48262311Y-87909482D01*
X48262312Y-87909482D01*
X48262315Y-87909484D01*
X48402325Y-87947000D01*
X48402326Y-87947000D01*
X48547274Y-87947000D01*
X48547275Y-87947000D01*
X48687285Y-87909484D01*
X48687287Y-87909482D01*
X48687289Y-87909482D01*
X48812810Y-87837012D01*
X48812810Y-87837011D01*
X48812815Y-87837009D01*
X48915309Y-87734515D01*
X48987784Y-87608985D01*
X49025300Y-87468975D01*
X49025300Y-87324025D01*
X48987784Y-87184015D01*
X48987782Y-87184012D01*
X48987782Y-87184010D01*
X48915312Y-87058489D01*
X48915310Y-87058487D01*
X48915309Y-87058485D01*
X48812815Y-86955991D01*
X48812812Y-86955989D01*
X48812810Y-86955987D01*
X48687288Y-86883517D01*
X48687289Y-86883517D01*
X48657696Y-86875587D01*
X48547275Y-86846000D01*
X48402325Y-86846000D01*
X48340590Y-86862541D01*
X48262310Y-86883517D01*
X48136789Y-86955987D01*
X48034287Y-87058489D01*
X47961817Y-87184010D01*
X47924300Y-87324025D01*
X36997980Y-87324025D01*
X37076810Y-87278512D01*
X37076810Y-87278511D01*
X37076815Y-87278509D01*
X37179309Y-87176015D01*
X37251784Y-87050485D01*
X37289300Y-86910475D01*
X37289300Y-86765525D01*
X37251784Y-86625515D01*
X37251782Y-86625512D01*
X37251782Y-86625510D01*
X37179312Y-86499989D01*
X37179310Y-86499987D01*
X37179309Y-86499985D01*
X37076815Y-86397491D01*
X37076812Y-86397489D01*
X37076810Y-86397487D01*
X36951288Y-86325017D01*
X36951289Y-86325017D01*
X36921696Y-86317087D01*
X36811275Y-86287500D01*
X36666325Y-86287500D01*
X36604590Y-86304041D01*
X36526310Y-86325017D01*
X36400789Y-86397487D01*
X36298287Y-86499989D01*
X36225817Y-86625510D01*
X36188300Y-86765525D01*
X19815400Y-86765525D01*
X19777963Y-86625809D01*
X19777840Y-86625331D01*
X19779724Y-86595320D01*
X19781302Y-86565222D01*
X19781641Y-86564803D01*
X19781675Y-86564266D01*
X19800833Y-86541102D01*
X19819807Y-86517672D01*
X19820344Y-86517512D01*
X19820671Y-86517118D01*
X19828248Y-86515171D01*
X19873727Y-86501700D01*
X20019774Y-86501700D01*
X20019775Y-86501700D01*
X20159785Y-86464184D01*
X20159787Y-86464182D01*
X20159789Y-86464182D01*
X20285310Y-86391712D01*
X20285310Y-86391711D01*
X20285315Y-86391709D01*
X20387809Y-86289215D01*
X20460284Y-86163685D01*
X20497800Y-86023675D01*
X20497800Y-85878725D01*
X20460284Y-85738715D01*
X20460282Y-85738712D01*
X20460282Y-85738710D01*
X20387812Y-85613189D01*
X20387810Y-85613187D01*
X20387809Y-85613185D01*
X20285315Y-85510691D01*
X20285312Y-85510689D01*
X20285310Y-85510687D01*
X20159788Y-85438217D01*
X20159789Y-85438217D01*
X20130196Y-85430287D01*
X20019775Y-85400700D01*
X19874825Y-85400700D01*
X19813090Y-85417241D01*
X19734810Y-85438217D01*
X19609289Y-85510687D01*
X19506787Y-85613189D01*
X19434317Y-85738710D01*
X19434316Y-85738715D01*
X19396800Y-85878725D01*
X19396800Y-86023675D01*
X19434099Y-86162878D01*
X19430898Y-86223978D01*
X19392393Y-86271528D01*
X19338473Y-86287500D01*
X19337375Y-86287500D01*
X19192425Y-86287500D01*
X19130690Y-86304041D01*
X19052410Y-86325017D01*
X18926889Y-86397487D01*
X18824387Y-86499989D01*
X18751917Y-86625510D01*
X18714400Y-86765525D01*
X500500Y-86765525D01*
X500500Y-83818425D01*
X3099800Y-83818425D01*
X3099800Y-83963375D01*
X3129387Y-84073796D01*
X3137317Y-84103389D01*
X3209787Y-84228910D01*
X3209789Y-84228912D01*
X3209791Y-84228915D01*
X3312285Y-84331409D01*
X3312287Y-84331410D01*
X3312289Y-84331412D01*
X3437811Y-84403882D01*
X3437812Y-84403882D01*
X3437815Y-84403884D01*
X3577825Y-84441400D01*
X3577826Y-84441400D01*
X3722774Y-84441400D01*
X3722775Y-84441400D01*
X3862785Y-84403884D01*
X3862787Y-84403882D01*
X3862789Y-84403882D01*
X3878476Y-84394825D01*
X12377300Y-84394825D01*
X12377300Y-84539774D01*
X12414817Y-84679789D01*
X12487287Y-84805310D01*
X12487289Y-84805312D01*
X12487291Y-84805315D01*
X12589785Y-84907809D01*
X12589787Y-84907810D01*
X12589789Y-84907812D01*
X12715311Y-84980282D01*
X12715312Y-84980282D01*
X12715315Y-84980284D01*
X12855325Y-85017800D01*
X12855326Y-85017800D01*
X13000274Y-85017800D01*
X13000275Y-85017800D01*
X13140285Y-84980284D01*
X13140287Y-84980282D01*
X13140289Y-84980282D01*
X13265810Y-84907812D01*
X13265810Y-84907811D01*
X13265815Y-84907809D01*
X13368309Y-84805315D01*
X13440784Y-84679785D01*
X13478300Y-84539775D01*
X13478300Y-84394825D01*
X13440784Y-84254815D01*
X13440782Y-84254812D01*
X13440782Y-84254810D01*
X13368312Y-84129289D01*
X13368310Y-84129287D01*
X13368309Y-84129285D01*
X13265815Y-84026791D01*
X13265812Y-84026789D01*
X13265810Y-84026787D01*
X13140288Y-83954317D01*
X13140289Y-83954317D01*
X13014083Y-83920500D01*
X13000275Y-83916800D01*
X12855325Y-83916800D01*
X12841517Y-83920500D01*
X12715310Y-83954317D01*
X12589789Y-84026787D01*
X12487287Y-84129289D01*
X12414817Y-84254810D01*
X12377300Y-84394825D01*
X3878476Y-84394825D01*
X3988310Y-84331412D01*
X3988310Y-84331411D01*
X3988315Y-84331409D01*
X4090809Y-84228915D01*
X4090812Y-84228910D01*
X4163282Y-84103389D01*
X4163282Y-84103387D01*
X4163284Y-84103385D01*
X4200800Y-83963375D01*
X4200800Y-83818425D01*
X4163284Y-83678415D01*
X4163282Y-83678412D01*
X4163282Y-83678410D01*
X4090812Y-83552889D01*
X4090810Y-83552887D01*
X4090809Y-83552885D01*
X3988315Y-83450391D01*
X3988312Y-83450389D01*
X3988310Y-83450387D01*
X3862788Y-83377917D01*
X3862789Y-83377917D01*
X3833196Y-83369987D01*
X3722775Y-83340400D01*
X3577825Y-83340400D01*
X3516090Y-83356941D01*
X3437810Y-83377917D01*
X3312289Y-83450387D01*
X3209787Y-83552889D01*
X3137317Y-83678410D01*
X3120296Y-83741932D01*
X3099800Y-83818425D01*
X500500Y-83818425D01*
X500500Y-83031625D01*
X7183200Y-83031625D01*
X7183200Y-83176574D01*
X7220717Y-83316589D01*
X7293187Y-83442110D01*
X7293189Y-83442112D01*
X7293191Y-83442115D01*
X7395685Y-83544609D01*
X7395687Y-83544610D01*
X7395689Y-83544612D01*
X7521211Y-83617082D01*
X7521212Y-83617082D01*
X7521215Y-83617084D01*
X7661225Y-83654600D01*
X7661226Y-83654600D01*
X7806174Y-83654600D01*
X7806175Y-83654600D01*
X7946185Y-83617084D01*
X7946187Y-83617082D01*
X7946189Y-83617082D01*
X8071710Y-83544612D01*
X8071710Y-83544611D01*
X8071715Y-83544609D01*
X8174209Y-83442115D01*
X8211274Y-83377917D01*
X8246682Y-83316589D01*
X8246682Y-83316587D01*
X8246684Y-83316585D01*
X8251791Y-83297525D01*
X21624900Y-83297525D01*
X21624900Y-83442474D01*
X21662417Y-83582489D01*
X21734887Y-83708010D01*
X21734889Y-83708012D01*
X21734891Y-83708015D01*
X21837385Y-83810509D01*
X21837387Y-83810510D01*
X21837389Y-83810512D01*
X21962911Y-83882982D01*
X21962912Y-83882982D01*
X21962915Y-83882984D01*
X22102925Y-83920500D01*
X22102926Y-83920500D01*
X22247874Y-83920500D01*
X22247875Y-83920500D01*
X22387885Y-83882984D01*
X22387887Y-83882982D01*
X22387889Y-83882982D01*
X22499704Y-83818425D01*
X39135400Y-83818425D01*
X39135400Y-83963375D01*
X39164987Y-84073796D01*
X39172917Y-84103389D01*
X39245387Y-84228910D01*
X39245389Y-84228912D01*
X39245391Y-84228915D01*
X39347885Y-84331409D01*
X39347887Y-84331410D01*
X39347889Y-84331412D01*
X39473411Y-84403882D01*
X39473412Y-84403882D01*
X39473415Y-84403884D01*
X39613425Y-84441400D01*
X39613426Y-84441400D01*
X39758374Y-84441400D01*
X39758375Y-84441400D01*
X39898385Y-84403884D01*
X39898387Y-84403882D01*
X39898389Y-84403882D01*
X40023910Y-84331412D01*
X40023910Y-84331411D01*
X40023915Y-84331409D01*
X40126409Y-84228915D01*
X40126412Y-84228910D01*
X40198882Y-84103389D01*
X40198882Y-84103387D01*
X40198884Y-84103385D01*
X40236400Y-83963375D01*
X40236400Y-83818425D01*
X40198884Y-83678415D01*
X40198882Y-83678412D01*
X40198882Y-83678410D01*
X40126412Y-83552889D01*
X40126410Y-83552887D01*
X40126409Y-83552885D01*
X40023915Y-83450391D01*
X40023912Y-83450389D01*
X40023910Y-83450387D01*
X39898388Y-83377917D01*
X39898389Y-83377917D01*
X39868796Y-83369987D01*
X39758375Y-83340400D01*
X39613425Y-83340400D01*
X39551690Y-83356941D01*
X39473410Y-83377917D01*
X39347889Y-83450387D01*
X39245387Y-83552889D01*
X39172917Y-83678410D01*
X39155896Y-83741932D01*
X39135400Y-83818425D01*
X22499704Y-83818425D01*
X22513410Y-83810512D01*
X22513410Y-83810511D01*
X22513415Y-83810509D01*
X22615909Y-83708015D01*
X22668408Y-83617084D01*
X22688382Y-83582489D01*
X22688382Y-83582487D01*
X22688384Y-83582485D01*
X22725900Y-83442475D01*
X22725900Y-83297525D01*
X22688384Y-83157515D01*
X22688382Y-83157512D01*
X22688382Y-83157510D01*
X22668934Y-83123825D01*
X45992100Y-83123825D01*
X45992100Y-83268774D01*
X46029617Y-83408789D01*
X46102087Y-83534310D01*
X46102089Y-83534312D01*
X46102091Y-83534315D01*
X46204585Y-83636809D01*
X46204587Y-83636810D01*
X46204589Y-83636812D01*
X46330111Y-83709282D01*
X46330112Y-83709282D01*
X46330115Y-83709284D01*
X46470125Y-83746800D01*
X46470126Y-83746800D01*
X46615074Y-83746800D01*
X46615075Y-83746800D01*
X46755085Y-83709284D01*
X46755087Y-83709282D01*
X46755089Y-83709282D01*
X46880610Y-83636812D01*
X46880610Y-83636811D01*
X46880615Y-83636809D01*
X46983109Y-83534315D01*
X47055584Y-83408785D01*
X47093100Y-83268775D01*
X47093100Y-83123825D01*
X47055584Y-82983815D01*
X47055582Y-82983812D01*
X47055582Y-82983810D01*
X46983112Y-82858289D01*
X46983110Y-82858287D01*
X46983109Y-82858285D01*
X46880615Y-82755791D01*
X46880612Y-82755789D01*
X46880610Y-82755787D01*
X46755088Y-82683317D01*
X46755089Y-82683317D01*
X46681456Y-82663587D01*
X46615075Y-82645800D01*
X46470125Y-82645800D01*
X46408390Y-82662341D01*
X46330110Y-82683317D01*
X46204589Y-82755787D01*
X46102087Y-82858289D01*
X46029617Y-82983810D01*
X45992100Y-83123825D01*
X22668934Y-83123825D01*
X22615912Y-83031989D01*
X22615910Y-83031987D01*
X22615909Y-83031985D01*
X22513415Y-82929491D01*
X22513412Y-82929489D01*
X22513410Y-82929487D01*
X22387888Y-82857017D01*
X22387889Y-82857017D01*
X22358296Y-82849087D01*
X22247875Y-82819500D01*
X22102925Y-82819500D01*
X22041190Y-82836041D01*
X21962910Y-82857017D01*
X21837389Y-82929487D01*
X21734887Y-83031989D01*
X21662417Y-83157510D01*
X21624900Y-83297525D01*
X8251791Y-83297525D01*
X8284200Y-83176575D01*
X8284200Y-83031625D01*
X8246684Y-82891615D01*
X8246682Y-82891612D01*
X8246682Y-82891610D01*
X8174212Y-82766089D01*
X8174210Y-82766087D01*
X8174209Y-82766085D01*
X8071715Y-82663591D01*
X8071712Y-82663589D01*
X8071710Y-82663587D01*
X7946188Y-82591117D01*
X7946189Y-82591117D01*
X7916596Y-82583187D01*
X7806175Y-82553600D01*
X7661225Y-82553600D01*
X7599490Y-82570141D01*
X7521210Y-82591117D01*
X7395689Y-82663587D01*
X7293187Y-82766089D01*
X7220717Y-82891610D01*
X7183200Y-83031625D01*
X500500Y-83031625D01*
X500500Y-82481525D01*
X31377700Y-82481525D01*
X31377700Y-82626474D01*
X31415217Y-82766489D01*
X31487687Y-82892010D01*
X31487689Y-82892012D01*
X31487691Y-82892015D01*
X31590185Y-82994509D01*
X31590187Y-82994510D01*
X31590189Y-82994512D01*
X31715711Y-83066982D01*
X31715712Y-83066982D01*
X31715715Y-83066984D01*
X31855725Y-83104500D01*
X31855726Y-83104500D01*
X32000674Y-83104500D01*
X32000675Y-83104500D01*
X32140685Y-83066984D01*
X32140687Y-83066982D01*
X32140689Y-83066982D01*
X32201973Y-83031600D01*
X32266210Y-82994512D01*
X32266210Y-82994511D01*
X32266215Y-82994509D01*
X32368709Y-82892015D01*
X32441184Y-82766485D01*
X32478700Y-82626475D01*
X32478700Y-82481525D01*
X32441184Y-82341515D01*
X32441182Y-82341512D01*
X32441182Y-82341510D01*
X32368712Y-82215989D01*
X32368710Y-82215987D01*
X32368709Y-82215985D01*
X32266215Y-82113491D01*
X32226345Y-82090472D01*
X32226344Y-82090470D01*
X32140688Y-82041017D01*
X32140689Y-82041017D01*
X32111096Y-82033087D01*
X32029505Y-82011225D01*
X48894900Y-82011225D01*
X48894900Y-82156175D01*
X48924487Y-82266596D01*
X48932417Y-82296189D01*
X49004887Y-82421710D01*
X49004889Y-82421712D01*
X49004891Y-82421715D01*
X49107385Y-82524209D01*
X49107387Y-82524210D01*
X49107389Y-82524212D01*
X49232911Y-82596682D01*
X49232912Y-82596682D01*
X49232915Y-82596684D01*
X49372925Y-82634200D01*
X49372926Y-82634200D01*
X49517874Y-82634200D01*
X49517875Y-82634200D01*
X49657885Y-82596684D01*
X49657887Y-82596682D01*
X49657889Y-82596682D01*
X49783410Y-82524212D01*
X49783410Y-82524211D01*
X49783415Y-82524209D01*
X49885909Y-82421715D01*
X49936949Y-82333312D01*
X49958382Y-82296189D01*
X49958382Y-82296187D01*
X49958384Y-82296185D01*
X49995900Y-82156175D01*
X49995900Y-82011225D01*
X49958384Y-81871215D01*
X49958382Y-81871212D01*
X49958382Y-81871210D01*
X49885912Y-81745689D01*
X49885910Y-81745687D01*
X49885909Y-81745685D01*
X49783415Y-81643191D01*
X49783412Y-81643189D01*
X49783410Y-81643187D01*
X49657888Y-81570717D01*
X49657889Y-81570717D01*
X49628296Y-81562787D01*
X49517875Y-81533200D01*
X49372925Y-81533200D01*
X49311190Y-81549741D01*
X49232910Y-81570717D01*
X49107389Y-81643187D01*
X49004887Y-81745689D01*
X48932417Y-81871210D01*
X48932416Y-81871215D01*
X48894900Y-82011225D01*
X32029505Y-82011225D01*
X32000675Y-82003500D01*
X31855725Y-82003500D01*
X31793990Y-82020041D01*
X31715710Y-82041017D01*
X31590189Y-82113487D01*
X31487687Y-82215989D01*
X31415217Y-82341510D01*
X31377700Y-82481525D01*
X500500Y-82481525D01*
X500500Y-81550625D01*
X15023500Y-81550625D01*
X15023500Y-81695575D01*
X15049046Y-81790913D01*
X15061017Y-81835589D01*
X15133487Y-81961110D01*
X15133489Y-81961112D01*
X15133491Y-81961115D01*
X15235985Y-82063609D01*
X15235987Y-82063610D01*
X15235989Y-82063612D01*
X15361511Y-82136082D01*
X15361512Y-82136082D01*
X15361515Y-82136084D01*
X15501525Y-82173600D01*
X15501526Y-82173600D01*
X15646474Y-82173600D01*
X15646475Y-82173600D01*
X15786485Y-82136084D01*
X15786487Y-82136082D01*
X15786489Y-82136082D01*
X15912010Y-82063612D01*
X15912010Y-82063611D01*
X15912015Y-82063609D01*
X16014509Y-81961115D01*
X16059846Y-81882589D01*
X16086982Y-81835589D01*
X16086982Y-81835587D01*
X16086984Y-81835585D01*
X16091073Y-81820325D01*
X16559000Y-81820325D01*
X16559000Y-81965275D01*
X16579295Y-82041016D01*
X16596517Y-82105289D01*
X16668987Y-82230810D01*
X16668989Y-82230812D01*
X16668991Y-82230815D01*
X16771485Y-82333309D01*
X16771487Y-82333310D01*
X16771489Y-82333312D01*
X16897011Y-82405782D01*
X16897012Y-82405782D01*
X16897015Y-82405784D01*
X17037025Y-82443300D01*
X17037026Y-82443300D01*
X17181974Y-82443300D01*
X17181975Y-82443300D01*
X17321985Y-82405784D01*
X17321987Y-82405782D01*
X17321989Y-82405782D01*
X17447510Y-82333312D01*
X17447510Y-82333311D01*
X17447515Y-82333309D01*
X17550009Y-82230815D01*
X17604702Y-82136084D01*
X17622482Y-82105289D01*
X17622482Y-82105287D01*
X17622484Y-82105285D01*
X17660000Y-81965275D01*
X17660000Y-81820325D01*
X17622484Y-81680315D01*
X17622482Y-81680312D01*
X17622482Y-81680310D01*
X17599576Y-81640636D01*
X17574743Y-81597625D01*
X19876200Y-81597625D01*
X19876200Y-81742575D01*
X19888429Y-81788212D01*
X19913717Y-81882589D01*
X19986187Y-82008110D01*
X19986189Y-82008112D01*
X19986191Y-82008115D01*
X20088685Y-82110609D01*
X20088687Y-82110610D01*
X20088689Y-82110612D01*
X20214211Y-82183082D01*
X20214212Y-82183082D01*
X20214215Y-82183084D01*
X20354225Y-82220600D01*
X20354226Y-82220600D01*
X20499174Y-82220600D01*
X20499175Y-82220600D01*
X20639185Y-82183084D01*
X20639187Y-82183082D01*
X20639189Y-82183082D01*
X20764710Y-82110612D01*
X20764710Y-82110611D01*
X20764715Y-82110609D01*
X20867209Y-82008115D01*
X20867212Y-82008110D01*
X20939682Y-81882589D01*
X20939682Y-81882587D01*
X20939684Y-81882585D01*
X20955643Y-81823025D01*
X28121100Y-81823025D01*
X28121100Y-81967974D01*
X28158617Y-82107989D01*
X28231087Y-82233510D01*
X28231089Y-82233512D01*
X28231091Y-82233515D01*
X28333585Y-82336009D01*
X28333587Y-82336010D01*
X28333589Y-82336012D01*
X28459111Y-82408482D01*
X28459112Y-82408482D01*
X28459115Y-82408484D01*
X28599125Y-82446000D01*
X28599126Y-82446000D01*
X28744074Y-82446000D01*
X28744075Y-82446000D01*
X28884085Y-82408484D01*
X28884087Y-82408482D01*
X28884089Y-82408482D01*
X28917314Y-82389300D01*
X29009610Y-82336012D01*
X29009610Y-82336011D01*
X29009615Y-82336009D01*
X29112109Y-82233515D01*
X29122230Y-82215985D01*
X29184582Y-82107989D01*
X29184582Y-82107987D01*
X29184584Y-82107985D01*
X29222100Y-81967975D01*
X29222100Y-81823025D01*
X29184584Y-81683015D01*
X29184582Y-81683012D01*
X29184582Y-81683010D01*
X29112112Y-81557489D01*
X29112110Y-81557487D01*
X29112109Y-81557485D01*
X29009615Y-81454991D01*
X29009612Y-81454989D01*
X29009610Y-81454987D01*
X28884088Y-81382517D01*
X28884089Y-81382517D01*
X28854496Y-81374587D01*
X28744075Y-81345000D01*
X28599125Y-81345000D01*
X28537390Y-81361541D01*
X28459110Y-81382517D01*
X28333589Y-81454987D01*
X28231087Y-81557489D01*
X28158617Y-81683010D01*
X28121100Y-81823025D01*
X20955643Y-81823025D01*
X20977200Y-81742575D01*
X20977200Y-81597625D01*
X20939684Y-81457615D01*
X20939682Y-81457612D01*
X20939682Y-81457610D01*
X20867212Y-81332089D01*
X20867210Y-81332087D01*
X20867209Y-81332085D01*
X20764715Y-81229591D01*
X20764712Y-81229589D01*
X20764710Y-81229587D01*
X20643267Y-81159472D01*
X20643266Y-81159472D01*
X20639187Y-81157117D01*
X20639186Y-81157116D01*
X20639185Y-81157116D01*
X20499175Y-81119600D01*
X20354225Y-81119600D01*
X20292490Y-81136141D01*
X20214210Y-81157117D01*
X20088689Y-81229587D01*
X19986187Y-81332089D01*
X19913717Y-81457610D01*
X19886442Y-81559400D01*
X19876200Y-81597625D01*
X17574743Y-81597625D01*
X17550012Y-81554789D01*
X17550010Y-81554787D01*
X17550009Y-81554785D01*
X17447515Y-81452291D01*
X17447512Y-81452289D01*
X17447510Y-81452287D01*
X17321988Y-81379817D01*
X17321989Y-81379817D01*
X17267382Y-81365185D01*
X17181975Y-81342300D01*
X17037025Y-81342300D01*
X16975290Y-81358841D01*
X16897010Y-81379817D01*
X16771489Y-81452287D01*
X16668987Y-81554789D01*
X16596517Y-81680310D01*
X16566881Y-81790913D01*
X16559000Y-81820325D01*
X16091073Y-81820325D01*
X16124500Y-81695575D01*
X16124500Y-81550625D01*
X16086984Y-81410615D01*
X16086982Y-81410612D01*
X16086982Y-81410610D01*
X16014512Y-81285089D01*
X16014510Y-81285087D01*
X16014509Y-81285085D01*
X15912015Y-81182591D01*
X15912012Y-81182589D01*
X15912010Y-81182587D01*
X15786488Y-81110117D01*
X15786489Y-81110117D01*
X15709486Y-81089484D01*
X15674931Y-81080225D01*
X21331300Y-81080225D01*
X21331300Y-81225175D01*
X21346477Y-81281815D01*
X21368817Y-81365189D01*
X21441287Y-81490710D01*
X21441289Y-81490712D01*
X21441291Y-81490715D01*
X21543785Y-81593209D01*
X21543787Y-81593210D01*
X21543789Y-81593212D01*
X21669311Y-81665682D01*
X21669312Y-81665682D01*
X21669315Y-81665684D01*
X21809325Y-81703200D01*
X21809326Y-81703200D01*
X21954274Y-81703200D01*
X21954275Y-81703200D01*
X22094285Y-81665684D01*
X22094287Y-81665682D01*
X22094289Y-81665682D01*
X22219810Y-81593212D01*
X22219810Y-81593211D01*
X22219815Y-81593209D01*
X22322309Y-81490715D01*
X22322312Y-81490710D01*
X22394782Y-81365189D01*
X22394782Y-81365187D01*
X22394784Y-81365185D01*
X22432300Y-81225175D01*
X22432300Y-81080225D01*
X22394784Y-80940215D01*
X22392596Y-80936425D01*
X22379843Y-80914335D01*
X22379842Y-80914333D01*
X22355011Y-80871325D01*
X33241200Y-80871325D01*
X33241200Y-81016275D01*
X33258644Y-81081375D01*
X33278717Y-81156289D01*
X33351187Y-81281810D01*
X33351189Y-81281812D01*
X33351191Y-81281815D01*
X33453685Y-81384309D01*
X33453687Y-81384310D01*
X33453689Y-81384312D01*
X33579211Y-81456782D01*
X33579212Y-81456782D01*
X33579215Y-81456784D01*
X33719225Y-81494300D01*
X33719226Y-81494300D01*
X33864174Y-81494300D01*
X33864175Y-81494300D01*
X34004185Y-81456784D01*
X34004187Y-81456782D01*
X34004189Y-81456782D01*
X34129710Y-81384312D01*
X34129710Y-81384311D01*
X34129715Y-81384309D01*
X34232209Y-81281815D01*
X34267096Y-81221389D01*
X34304682Y-81156289D01*
X34304682Y-81156287D01*
X34304684Y-81156285D01*
X34342200Y-81016275D01*
X34342200Y-80871325D01*
X34304684Y-80731315D01*
X34304682Y-80731312D01*
X34304682Y-80731310D01*
X34232212Y-80605789D01*
X34232210Y-80605787D01*
X34232209Y-80605785D01*
X34130449Y-80504025D01*
X54219300Y-80504025D01*
X54219300Y-80648974D01*
X54256817Y-80788989D01*
X54329287Y-80914510D01*
X54329289Y-80914512D01*
X54329291Y-80914515D01*
X54431785Y-81017009D01*
X54431787Y-81017010D01*
X54431789Y-81017012D01*
X54557311Y-81089482D01*
X54557312Y-81089482D01*
X54557315Y-81089484D01*
X54697325Y-81127000D01*
X54697326Y-81127000D01*
X54842274Y-81127000D01*
X54842275Y-81127000D01*
X54982285Y-81089484D01*
X54982287Y-81089482D01*
X54982289Y-81089482D01*
X55107810Y-81017012D01*
X55107810Y-81017011D01*
X55107815Y-81017009D01*
X55188399Y-80936425D01*
X63168400Y-80936425D01*
X63168400Y-81081375D01*
X63180625Y-81127000D01*
X63205917Y-81221389D01*
X63278387Y-81346910D01*
X63278389Y-81346912D01*
X63278391Y-81346915D01*
X63380885Y-81449409D01*
X63380887Y-81449410D01*
X63380889Y-81449412D01*
X63506411Y-81521882D01*
X63506412Y-81521882D01*
X63506415Y-81521884D01*
X63646425Y-81559400D01*
X63646426Y-81559400D01*
X63791374Y-81559400D01*
X63791375Y-81559400D01*
X63931385Y-81521884D01*
X63931387Y-81521882D01*
X63931389Y-81521882D01*
X64056910Y-81449412D01*
X64056910Y-81449411D01*
X64056915Y-81449409D01*
X64159409Y-81346915D01*
X64160515Y-81345000D01*
X64231882Y-81221389D01*
X64231882Y-81221387D01*
X64231884Y-81221385D01*
X64269400Y-81081375D01*
X64269400Y-80936425D01*
X64231884Y-80796415D01*
X64231882Y-80796412D01*
X64231882Y-80796410D01*
X64159412Y-80670889D01*
X64159410Y-80670887D01*
X64159409Y-80670885D01*
X64056915Y-80568391D01*
X64056912Y-80568389D01*
X64056910Y-80568387D01*
X63931388Y-80495917D01*
X63931389Y-80495917D01*
X63835039Y-80470100D01*
X63791375Y-80458400D01*
X63646425Y-80458400D01*
X63602761Y-80470100D01*
X63506410Y-80495917D01*
X63380889Y-80568387D01*
X63278387Y-80670889D01*
X63205917Y-80796410D01*
X63201019Y-80814689D01*
X63168400Y-80936425D01*
X55188399Y-80936425D01*
X55210309Y-80914515D01*
X55267946Y-80814685D01*
X55282782Y-80788989D01*
X55282782Y-80788987D01*
X55282784Y-80788985D01*
X55320300Y-80648975D01*
X55320300Y-80504025D01*
X55282784Y-80364015D01*
X55282782Y-80364012D01*
X55282782Y-80364010D01*
X55210312Y-80238489D01*
X55210310Y-80238487D01*
X55210309Y-80238485D01*
X55107815Y-80135991D01*
X55107812Y-80135989D01*
X55107810Y-80135987D01*
X54982288Y-80063517D01*
X54982289Y-80063517D01*
X54952696Y-80055587D01*
X54842275Y-80026000D01*
X54697325Y-80026000D01*
X54635590Y-80042541D01*
X54557310Y-80063517D01*
X54431789Y-80135987D01*
X54329287Y-80238489D01*
X54256817Y-80364010D01*
X54219300Y-80504025D01*
X34130449Y-80504025D01*
X34129715Y-80503291D01*
X34129712Y-80503289D01*
X34129710Y-80503287D01*
X34004188Y-80430817D01*
X34004189Y-80430817D01*
X33974596Y-80422887D01*
X33864175Y-80393300D01*
X33719225Y-80393300D01*
X33657490Y-80409841D01*
X33579210Y-80430817D01*
X33453689Y-80503287D01*
X33351187Y-80605789D01*
X33278717Y-80731310D01*
X33261272Y-80796415D01*
X33241200Y-80871325D01*
X22355011Y-80871325D01*
X22322312Y-80814689D01*
X22322310Y-80814687D01*
X22322309Y-80814685D01*
X22219815Y-80712191D01*
X22219812Y-80712189D01*
X22219810Y-80712187D01*
X22094288Y-80639717D01*
X22094289Y-80639717D01*
X22064696Y-80631787D01*
X21954275Y-80602200D01*
X21809325Y-80602200D01*
X21747590Y-80618741D01*
X21669310Y-80639717D01*
X21543789Y-80712187D01*
X21441287Y-80814689D01*
X21368817Y-80940210D01*
X21348239Y-81017009D01*
X21331300Y-81080225D01*
X15674931Y-81080225D01*
X15646475Y-81072600D01*
X15501525Y-81072600D01*
X15468777Y-81081375D01*
X15361510Y-81110117D01*
X15235989Y-81182587D01*
X15133487Y-81285089D01*
X15061017Y-81410610D01*
X15048422Y-81457615D01*
X15023500Y-81550625D01*
X500500Y-81550625D01*
X500500Y-78850425D01*
X21045500Y-78850425D01*
X21045500Y-78995375D01*
X21053166Y-79023984D01*
X21083017Y-79135389D01*
X21155487Y-79260910D01*
X21155489Y-79260912D01*
X21155491Y-79260915D01*
X21257985Y-79363409D01*
X21257987Y-79363410D01*
X21257989Y-79363412D01*
X21383511Y-79435882D01*
X21383512Y-79435882D01*
X21383515Y-79435884D01*
X21523525Y-79473400D01*
X21523526Y-79473400D01*
X21668474Y-79473400D01*
X21668475Y-79473400D01*
X21808485Y-79435884D01*
X21808487Y-79435882D01*
X21808489Y-79435882D01*
X21934010Y-79363412D01*
X21934010Y-79363411D01*
X21934015Y-79363409D01*
X22036509Y-79260915D01*
X22065322Y-79211010D01*
X22108982Y-79135389D01*
X22108982Y-79135387D01*
X22108984Y-79135385D01*
X22146500Y-78995375D01*
X22146500Y-78850425D01*
X22108984Y-78710415D01*
X22108982Y-78710412D01*
X22108982Y-78710410D01*
X22036512Y-78584889D01*
X22036510Y-78584887D01*
X22036509Y-78584885D01*
X21934015Y-78482391D01*
X21934012Y-78482389D01*
X21934010Y-78482387D01*
X21808488Y-78409917D01*
X21808489Y-78409917D01*
X21778896Y-78401987D01*
X21668475Y-78372400D01*
X21523525Y-78372400D01*
X21461790Y-78388941D01*
X21383510Y-78409917D01*
X21257989Y-78482387D01*
X21155487Y-78584889D01*
X21083017Y-78710410D01*
X21047496Y-78842975D01*
X21045500Y-78850425D01*
X500500Y-78850425D01*
X500500Y-77503525D01*
X12385500Y-77503525D01*
X12385500Y-77648475D01*
X12411364Y-77745000D01*
X12423017Y-77788489D01*
X12495487Y-77914010D01*
X12495489Y-77914012D01*
X12495491Y-77914015D01*
X12597985Y-78016509D01*
X12597987Y-78016510D01*
X12597989Y-78016512D01*
X12723511Y-78088982D01*
X12723512Y-78088982D01*
X12723515Y-78088984D01*
X12863525Y-78126500D01*
X12863526Y-78126500D01*
X13008474Y-78126500D01*
X13008475Y-78126500D01*
X13148485Y-78088984D01*
X13148487Y-78088982D01*
X13148489Y-78088982D01*
X13274010Y-78016512D01*
X13274010Y-78016511D01*
X13274015Y-78016509D01*
X13274199Y-78016325D01*
X14370500Y-78016325D01*
X14370500Y-78161275D01*
X14389832Y-78233421D01*
X14408017Y-78301289D01*
X14480487Y-78426810D01*
X14480489Y-78426812D01*
X14480491Y-78426815D01*
X14582985Y-78529309D01*
X14582987Y-78529310D01*
X14582989Y-78529312D01*
X14708511Y-78601782D01*
X14708512Y-78601782D01*
X14708515Y-78601784D01*
X14848525Y-78639300D01*
X14848526Y-78639300D01*
X14993474Y-78639300D01*
X14993475Y-78639300D01*
X15133485Y-78601784D01*
X15133487Y-78601782D01*
X15133489Y-78601782D01*
X15259010Y-78529312D01*
X15259010Y-78529311D01*
X15259015Y-78529309D01*
X15361509Y-78426815D01*
X15433984Y-78301285D01*
X15471500Y-78161275D01*
X15471500Y-78016325D01*
X15433984Y-77876315D01*
X15433982Y-77876312D01*
X15433982Y-77876310D01*
X15361512Y-77750789D01*
X15361510Y-77750787D01*
X15361509Y-77750785D01*
X15259015Y-77648291D01*
X15259012Y-77648289D01*
X15259010Y-77648287D01*
X15133488Y-77575817D01*
X15133489Y-77575817D01*
X15103896Y-77567887D01*
X14993475Y-77538300D01*
X14848525Y-77538300D01*
X14786790Y-77554841D01*
X14708510Y-77575817D01*
X14582989Y-77648287D01*
X14480487Y-77750789D01*
X14408017Y-77876310D01*
X14397915Y-77914011D01*
X14370500Y-78016325D01*
X13274199Y-78016325D01*
X13376509Y-77914015D01*
X13448984Y-77788485D01*
X13486500Y-77648475D01*
X13486500Y-77503525D01*
X13448984Y-77363515D01*
X13448982Y-77363512D01*
X13448982Y-77363510D01*
X13376512Y-77237989D01*
X13376510Y-77237987D01*
X13376509Y-77237985D01*
X13316449Y-77177925D01*
X18889400Y-77177925D01*
X18889400Y-77322875D01*
X18911939Y-77406989D01*
X18926917Y-77462889D01*
X18999387Y-77588410D01*
X18999389Y-77588412D01*
X18999391Y-77588415D01*
X19101885Y-77690909D01*
X19101887Y-77690910D01*
X19101889Y-77690912D01*
X19227411Y-77763382D01*
X19227412Y-77763382D01*
X19227415Y-77763384D01*
X19367425Y-77800900D01*
X19367426Y-77800900D01*
X19512374Y-77800900D01*
X19512375Y-77800900D01*
X19652385Y-77763384D01*
X19652387Y-77763382D01*
X19652389Y-77763382D01*
X19777910Y-77690912D01*
X19777910Y-77690911D01*
X19777915Y-77690909D01*
X19880409Y-77588415D01*
X19887683Y-77575817D01*
X19908232Y-77540225D01*
X21871600Y-77540225D01*
X21871600Y-77685175D01*
X21892556Y-77763382D01*
X21909117Y-77825189D01*
X21981587Y-77950710D01*
X21981589Y-77950712D01*
X21981591Y-77950715D01*
X22084085Y-78053209D01*
X22084087Y-78053210D01*
X22084089Y-78053212D01*
X22209611Y-78125682D01*
X22209612Y-78125682D01*
X22209615Y-78125684D01*
X22349625Y-78163200D01*
X22349626Y-78163200D01*
X22494575Y-78163200D01*
X22556615Y-78146576D01*
X22617715Y-78149777D01*
X22665266Y-78188281D01*
X22681102Y-78247382D01*
X22659176Y-78304503D01*
X22631745Y-78327935D01*
X22628187Y-78329989D01*
X22525687Y-78432489D01*
X22453217Y-78558010D01*
X22441488Y-78601784D01*
X22415700Y-78698025D01*
X22415700Y-78842975D01*
X22417696Y-78850425D01*
X22453217Y-78982989D01*
X22525687Y-79108510D01*
X22525689Y-79108512D01*
X22525691Y-79108515D01*
X22628185Y-79211009D01*
X22732751Y-79271380D01*
X22773691Y-79316849D01*
X22780087Y-79377699D01*
X22749494Y-79430687D01*
X22732751Y-79442852D01*
X22669987Y-79479089D01*
X22567487Y-79581589D01*
X22495017Y-79707110D01*
X22457500Y-79847125D01*
X22457500Y-79992074D01*
X22495017Y-80132089D01*
X22567487Y-80257610D01*
X22567489Y-80257612D01*
X22567491Y-80257615D01*
X22669985Y-80360109D01*
X22669987Y-80360110D01*
X22669989Y-80360112D01*
X22795511Y-80432582D01*
X22795512Y-80432582D01*
X22795515Y-80432584D01*
X22935525Y-80470100D01*
X22935526Y-80470100D01*
X23080474Y-80470100D01*
X23080475Y-80470100D01*
X23220485Y-80432584D01*
X23220487Y-80432582D01*
X23220489Y-80432582D01*
X23346010Y-80360112D01*
X23346010Y-80360111D01*
X23346015Y-80360109D01*
X23448509Y-80257615D01*
X23448512Y-80257610D01*
X23520982Y-80132089D01*
X23520982Y-80132087D01*
X23520984Y-80132085D01*
X23558500Y-79992075D01*
X23558500Y-79847125D01*
X23520984Y-79707115D01*
X23520982Y-79707112D01*
X23520982Y-79707110D01*
X23448512Y-79581589D01*
X23448510Y-79581587D01*
X23448509Y-79581585D01*
X23346015Y-79479091D01*
X23346012Y-79479089D01*
X23346010Y-79479087D01*
X23241449Y-79418719D01*
X23200508Y-79373250D01*
X23194112Y-79312400D01*
X23224705Y-79259412D01*
X23241446Y-79247248D01*
X23304215Y-79211009D01*
X23406709Y-79108515D01*
X23455513Y-79023984D01*
X23479182Y-78982989D01*
X23479182Y-78982987D01*
X23479184Y-78982985D01*
X23516700Y-78842975D01*
X23516700Y-78698025D01*
X23479184Y-78558015D01*
X23410196Y-78438525D01*
X46299500Y-78438525D01*
X46299500Y-78583475D01*
X46329087Y-78693896D01*
X46337017Y-78723489D01*
X46409487Y-78849010D01*
X46409489Y-78849012D01*
X46409491Y-78849015D01*
X46511985Y-78951509D01*
X46511987Y-78951510D01*
X46511989Y-78951512D01*
X46637511Y-79023982D01*
X46637512Y-79023982D01*
X46637515Y-79023984D01*
X46777525Y-79061500D01*
X46777526Y-79061500D01*
X46922474Y-79061500D01*
X46922475Y-79061500D01*
X47062485Y-79023984D01*
X47062487Y-79023982D01*
X47062489Y-79023982D01*
X47188010Y-78951512D01*
X47188010Y-78951511D01*
X47188015Y-78951509D01*
X47290509Y-78849015D01*
X47362984Y-78723485D01*
X47400500Y-78583475D01*
X47400500Y-78438525D01*
X47362984Y-78298515D01*
X47362982Y-78298512D01*
X47362982Y-78298510D01*
X47290512Y-78172989D01*
X47290510Y-78172987D01*
X47290509Y-78172985D01*
X47188015Y-78070491D01*
X47188012Y-78070489D01*
X47188010Y-78070487D01*
X47062488Y-77998017D01*
X47062489Y-77998017D01*
X47032896Y-77990087D01*
X46922475Y-77960500D01*
X46777525Y-77960500D01*
X46715790Y-77977041D01*
X46637510Y-77998017D01*
X46511989Y-78070487D01*
X46409487Y-78172989D01*
X46337017Y-78298510D01*
X46329133Y-78327935D01*
X46299500Y-78438525D01*
X23410196Y-78438525D01*
X23406709Y-78432485D01*
X23304215Y-78329991D01*
X23304212Y-78329989D01*
X23304210Y-78329987D01*
X23178688Y-78257517D01*
X23178689Y-78257517D01*
X23140865Y-78247382D01*
X23038675Y-78220000D01*
X22893725Y-78220000D01*
X22831684Y-78236624D01*
X22770582Y-78233421D01*
X22723033Y-78194916D01*
X22707197Y-78135816D01*
X22729124Y-78078694D01*
X22756562Y-78055259D01*
X22760115Y-78053209D01*
X22862609Y-77950715D01*
X22935084Y-77825185D01*
X22972600Y-77685175D01*
X22972600Y-77540225D01*
X22935084Y-77400215D01*
X22935082Y-77400212D01*
X22935082Y-77400210D01*
X22862612Y-77274689D01*
X22862610Y-77274687D01*
X22862609Y-77274685D01*
X22760115Y-77172191D01*
X22760112Y-77172189D01*
X22760110Y-77172187D01*
X22634588Y-77099717D01*
X22634589Y-77099717D01*
X22568159Y-77081917D01*
X22494575Y-77062200D01*
X22349625Y-77062200D01*
X22287890Y-77078741D01*
X22209610Y-77099717D01*
X22084089Y-77172187D01*
X21981587Y-77274689D01*
X21909117Y-77400210D01*
X21881434Y-77503525D01*
X21871600Y-77540225D01*
X19908232Y-77540225D01*
X19940553Y-77484243D01*
X19940557Y-77484236D01*
X19941698Y-77482258D01*
X19952884Y-77462885D01*
X19990400Y-77322875D01*
X19990400Y-77177925D01*
X19952884Y-77037915D01*
X19952882Y-77037912D01*
X19952882Y-77037910D01*
X19880412Y-76912389D01*
X19880410Y-76912387D01*
X19880409Y-76912385D01*
X19777915Y-76809891D01*
X19777912Y-76809889D01*
X19777910Y-76809887D01*
X19714756Y-76773425D01*
X26387400Y-76773425D01*
X26387400Y-76918375D01*
X26408233Y-76996125D01*
X26424917Y-77058389D01*
X26497387Y-77183910D01*
X26497389Y-77183912D01*
X26497391Y-77183915D01*
X26599885Y-77286409D01*
X26599887Y-77286410D01*
X26599889Y-77286412D01*
X26725411Y-77358882D01*
X26725412Y-77358882D01*
X26725415Y-77358884D01*
X26865425Y-77396400D01*
X26865426Y-77396400D01*
X27010374Y-77396400D01*
X27010375Y-77396400D01*
X27150385Y-77358884D01*
X27150387Y-77358882D01*
X27150389Y-77358882D01*
X27275910Y-77286412D01*
X27275910Y-77286411D01*
X27275915Y-77286409D01*
X27378409Y-77183915D01*
X27409968Y-77129253D01*
X27455435Y-77088314D01*
X27516285Y-77081917D01*
X27569273Y-77112509D01*
X27591329Y-77153130D01*
X27625615Y-77281084D01*
X27625617Y-77281088D01*
X27698087Y-77406610D01*
X27698089Y-77406612D01*
X27698091Y-77406615D01*
X27800585Y-77509109D01*
X27800587Y-77509110D01*
X27800589Y-77509112D01*
X27926111Y-77581582D01*
X27926112Y-77581582D01*
X27926115Y-77581584D01*
X28066125Y-77619100D01*
X28066126Y-77619100D01*
X28211074Y-77619100D01*
X28211075Y-77619100D01*
X28351085Y-77581584D01*
X28351087Y-77581582D01*
X28351089Y-77581582D01*
X28476610Y-77509112D01*
X28476610Y-77509111D01*
X28476615Y-77509109D01*
X28579109Y-77406615D01*
X28606668Y-77358882D01*
X28651582Y-77281089D01*
X28651582Y-77281087D01*
X28651584Y-77281085D01*
X28689100Y-77141075D01*
X28689100Y-77089125D01*
X47157900Y-77089125D01*
X47157900Y-77234075D01*
X47170497Y-77281088D01*
X47195417Y-77374089D01*
X47267887Y-77499610D01*
X47267889Y-77499612D01*
X47267891Y-77499615D01*
X47370385Y-77602109D01*
X47370387Y-77602110D01*
X47370389Y-77602112D01*
X47495911Y-77674582D01*
X47495912Y-77674582D01*
X47495915Y-77674584D01*
X47635925Y-77712100D01*
X47635926Y-77712100D01*
X47780874Y-77712100D01*
X47780875Y-77712100D01*
X47920885Y-77674584D01*
X47920887Y-77674582D01*
X47920889Y-77674582D01*
X48046410Y-77602112D01*
X48046410Y-77602111D01*
X48046415Y-77602109D01*
X48148909Y-77499615D01*
X48206301Y-77400210D01*
X48221382Y-77374089D01*
X48221382Y-77374087D01*
X48221384Y-77374085D01*
X48258900Y-77234075D01*
X48258900Y-77122025D01*
X56818000Y-77122025D01*
X56818000Y-77266975D01*
X56823208Y-77286412D01*
X56855517Y-77406989D01*
X56927987Y-77532510D01*
X56927989Y-77532512D01*
X56927991Y-77532515D01*
X57030485Y-77635009D01*
X57030487Y-77635010D01*
X57030489Y-77635012D01*
X57156011Y-77707482D01*
X57156012Y-77707482D01*
X57156015Y-77707484D01*
X57296025Y-77745000D01*
X57296026Y-77745000D01*
X57440974Y-77745000D01*
X57440975Y-77745000D01*
X57580985Y-77707484D01*
X57580987Y-77707482D01*
X57580989Y-77707482D01*
X57706510Y-77635012D01*
X57706510Y-77635011D01*
X57706515Y-77635009D01*
X57809009Y-77532515D01*
X57822523Y-77509109D01*
X57881482Y-77406989D01*
X57881482Y-77406987D01*
X57881484Y-77406985D01*
X57919000Y-77266975D01*
X57919000Y-77122025D01*
X57881484Y-76982015D01*
X57881482Y-76982012D01*
X57881482Y-76982010D01*
X57809012Y-76856489D01*
X57809010Y-76856487D01*
X57809009Y-76856485D01*
X57706515Y-76753991D01*
X57706512Y-76753989D01*
X57706510Y-76753987D01*
X57580988Y-76681517D01*
X57580989Y-76681517D01*
X57551396Y-76673587D01*
X57440975Y-76644000D01*
X57296025Y-76644000D01*
X57234290Y-76660541D01*
X57156010Y-76681517D01*
X57030489Y-76753987D01*
X56927987Y-76856489D01*
X56855517Y-76982010D01*
X56833811Y-77063017D01*
X56818000Y-77122025D01*
X48258900Y-77122025D01*
X48258900Y-77089125D01*
X48221384Y-76949115D01*
X48221382Y-76949112D01*
X48221382Y-76949110D01*
X48148912Y-76823589D01*
X48148910Y-76823587D01*
X48148909Y-76823585D01*
X48046415Y-76721091D01*
X48046412Y-76721089D01*
X48046410Y-76721087D01*
X47920888Y-76648617D01*
X47920889Y-76648617D01*
X47864136Y-76633410D01*
X47780875Y-76611100D01*
X47635925Y-76611100D01*
X47574190Y-76627641D01*
X47495910Y-76648617D01*
X47370389Y-76721087D01*
X47267887Y-76823589D01*
X47195417Y-76949110D01*
X47174948Y-77025500D01*
X47157900Y-77089125D01*
X28689100Y-77089125D01*
X28689100Y-76996125D01*
X28651584Y-76856115D01*
X28651582Y-76856112D01*
X28651582Y-76856110D01*
X28579112Y-76730589D01*
X28579110Y-76730587D01*
X28579109Y-76730585D01*
X28476615Y-76628091D01*
X28476612Y-76628089D01*
X28476610Y-76628087D01*
X28351088Y-76555617D01*
X28351089Y-76555617D01*
X28321496Y-76547687D01*
X28211075Y-76518100D01*
X28066125Y-76518100D01*
X28004390Y-76534641D01*
X27926110Y-76555617D01*
X27800589Y-76628087D01*
X27698087Y-76730589D01*
X27666532Y-76785245D01*
X27621063Y-76826186D01*
X27560212Y-76832582D01*
X27507224Y-76801989D01*
X27485169Y-76761368D01*
X27450884Y-76633415D01*
X27450882Y-76633412D01*
X27450882Y-76633410D01*
X27378412Y-76507889D01*
X27378410Y-76507887D01*
X27378409Y-76507885D01*
X27275915Y-76405391D01*
X27275912Y-76405389D01*
X27275910Y-76405387D01*
X27150388Y-76332917D01*
X27150389Y-76332917D01*
X27120796Y-76324987D01*
X27010375Y-76295400D01*
X26865425Y-76295400D01*
X26803690Y-76311941D01*
X26725410Y-76332917D01*
X26599889Y-76405387D01*
X26497387Y-76507889D01*
X26424917Y-76633410D01*
X26407101Y-76699900D01*
X26387400Y-76773425D01*
X19714756Y-76773425D01*
X19652388Y-76737417D01*
X19652389Y-76737417D01*
X19591445Y-76721087D01*
X19512375Y-76699900D01*
X19367425Y-76699900D01*
X19305690Y-76716441D01*
X19227410Y-76737417D01*
X19101889Y-76809887D01*
X18999387Y-76912389D01*
X18926917Y-77037910D01*
X18890936Y-77172191D01*
X18889400Y-77177925D01*
X13316449Y-77177925D01*
X13274015Y-77135491D01*
X13274012Y-77135489D01*
X13274010Y-77135487D01*
X13148488Y-77063017D01*
X13148489Y-77063017D01*
X13118896Y-77055087D01*
X13008475Y-77025500D01*
X12863525Y-77025500D01*
X12817211Y-77037910D01*
X12723510Y-77063017D01*
X12597989Y-77135487D01*
X12495487Y-77237989D01*
X12423017Y-77363510D01*
X12390667Y-77484243D01*
X12385500Y-77503525D01*
X500500Y-77503525D01*
X500500Y-76548925D01*
X16688300Y-76548925D01*
X16688300Y-76693875D01*
X16695592Y-76721087D01*
X16725817Y-76833889D01*
X16798287Y-76959410D01*
X16798289Y-76959412D01*
X16798291Y-76959415D01*
X16900785Y-77061909D01*
X16900787Y-77061910D01*
X16900789Y-77061912D01*
X17026311Y-77134382D01*
X17026312Y-77134382D01*
X17026315Y-77134384D01*
X17166325Y-77171900D01*
X17166326Y-77171900D01*
X17311274Y-77171900D01*
X17311275Y-77171900D01*
X17451285Y-77134384D01*
X17451287Y-77134382D01*
X17451289Y-77134382D01*
X17535595Y-77085708D01*
X17535603Y-77085702D01*
X17576815Y-77061909D01*
X17679309Y-76959415D01*
X17738736Y-76856485D01*
X17751782Y-76833889D01*
X17751782Y-76833887D01*
X17751784Y-76833885D01*
X17789300Y-76693875D01*
X17789300Y-76548925D01*
X17751784Y-76408915D01*
X17751782Y-76408912D01*
X17751782Y-76408910D01*
X17679312Y-76283389D01*
X17679310Y-76283387D01*
X17679309Y-76283385D01*
X17576815Y-76180891D01*
X17576812Y-76180889D01*
X17576810Y-76180887D01*
X17451288Y-76108417D01*
X17451289Y-76108417D01*
X17421696Y-76100487D01*
X17311275Y-76070900D01*
X17166325Y-76070900D01*
X17104590Y-76087441D01*
X17026310Y-76108417D01*
X16900789Y-76180887D01*
X16798287Y-76283389D01*
X16725817Y-76408910D01*
X16725816Y-76408915D01*
X16688300Y-76548925D01*
X500500Y-76548925D01*
X500500Y-75202525D01*
X17569200Y-75202525D01*
X17569200Y-75347474D01*
X17606717Y-75487489D01*
X17679187Y-75613010D01*
X17679189Y-75613012D01*
X17679191Y-75613015D01*
X17781685Y-75715509D01*
X17781687Y-75715510D01*
X17781689Y-75715512D01*
X17907211Y-75787982D01*
X17907212Y-75787982D01*
X17907215Y-75787984D01*
X18047225Y-75825500D01*
X18047226Y-75825500D01*
X18192174Y-75825500D01*
X18192175Y-75825500D01*
X18332185Y-75787984D01*
X18332187Y-75787982D01*
X18332189Y-75787982D01*
X18457710Y-75715512D01*
X18457710Y-75715511D01*
X18457715Y-75715509D01*
X18560209Y-75613015D01*
X18592593Y-75556925D01*
X19217500Y-75556925D01*
X19217500Y-75701874D01*
X19255017Y-75841889D01*
X19327487Y-75967410D01*
X19327489Y-75967412D01*
X19327491Y-75967415D01*
X19429985Y-76069909D01*
X19429987Y-76069910D01*
X19429989Y-76069912D01*
X19555511Y-76142382D01*
X19555512Y-76142382D01*
X19555515Y-76142384D01*
X19695525Y-76179900D01*
X19695526Y-76179900D01*
X19840474Y-76179900D01*
X19840475Y-76179900D01*
X19980485Y-76142384D01*
X19980487Y-76142382D01*
X19980489Y-76142382D01*
X20106010Y-76069912D01*
X20106010Y-76069911D01*
X20106015Y-76069909D01*
X20208509Y-75967415D01*
X20280984Y-75841885D01*
X20318500Y-75701875D01*
X20318500Y-75556925D01*
X20280984Y-75416915D01*
X20278334Y-75412325D01*
X50012000Y-75412325D01*
X50012000Y-75557274D01*
X50049517Y-75697289D01*
X50121987Y-75822810D01*
X50121989Y-75822812D01*
X50121991Y-75822815D01*
X50224485Y-75925309D01*
X50224487Y-75925310D01*
X50224489Y-75925312D01*
X50350011Y-75997782D01*
X50350012Y-75997782D01*
X50350015Y-75997784D01*
X50490025Y-76035300D01*
X50490026Y-76035300D01*
X50634974Y-76035300D01*
X50634975Y-76035300D01*
X50774985Y-75997784D01*
X50774987Y-75997782D01*
X50774989Y-75997782D01*
X50900510Y-75925312D01*
X50900510Y-75925311D01*
X50900515Y-75925309D01*
X51003009Y-75822815D01*
X51064961Y-75715512D01*
X51075482Y-75697289D01*
X51075482Y-75697287D01*
X51075484Y-75697285D01*
X51113000Y-75557275D01*
X51113000Y-75412325D01*
X51075484Y-75272315D01*
X51075482Y-75272312D01*
X51075482Y-75272310D01*
X51003012Y-75146789D01*
X51003010Y-75146787D01*
X51003009Y-75146785D01*
X50900515Y-75044291D01*
X50900512Y-75044289D01*
X50900510Y-75044287D01*
X50774988Y-74971817D01*
X50774989Y-74971817D01*
X50745396Y-74963887D01*
X50634975Y-74934300D01*
X50490025Y-74934300D01*
X50480005Y-74936985D01*
X50350010Y-74971817D01*
X50224489Y-75044287D01*
X50121987Y-75146789D01*
X50049517Y-75272310D01*
X50012000Y-75412325D01*
X20278334Y-75412325D01*
X20240893Y-75347475D01*
X20208512Y-75291389D01*
X20208510Y-75291387D01*
X20208509Y-75291385D01*
X20106015Y-75188891D01*
X20106012Y-75188889D01*
X20106010Y-75188887D01*
X19980488Y-75116417D01*
X19980489Y-75116417D01*
X19950896Y-75108487D01*
X19840475Y-75078900D01*
X19695525Y-75078900D01*
X19633790Y-75095441D01*
X19555510Y-75116417D01*
X19429989Y-75188887D01*
X19327487Y-75291389D01*
X19255017Y-75416910D01*
X19217500Y-75556925D01*
X18592593Y-75556925D01*
X18632684Y-75487485D01*
X18670200Y-75347475D01*
X18670200Y-75202525D01*
X18632684Y-75062515D01*
X18632682Y-75062512D01*
X18632682Y-75062510D01*
X18560212Y-74936989D01*
X18560210Y-74936987D01*
X18560209Y-74936985D01*
X18457715Y-74834491D01*
X18457712Y-74834489D01*
X18457710Y-74834487D01*
X18332188Y-74762017D01*
X18332189Y-74762017D01*
X18302596Y-74754087D01*
X18192175Y-74724500D01*
X18047225Y-74724500D01*
X17985490Y-74741041D01*
X17907210Y-74762017D01*
X17781689Y-74834487D01*
X17679187Y-74936989D01*
X17606717Y-75062510D01*
X17569200Y-75202525D01*
X500500Y-75202525D01*
X500500Y-73970425D01*
X29656100Y-73970425D01*
X29656100Y-74115374D01*
X29693617Y-74255389D01*
X29766087Y-74380910D01*
X29766089Y-74380912D01*
X29766091Y-74380915D01*
X29868585Y-74483409D01*
X29868587Y-74483410D01*
X29868589Y-74483412D01*
X29994111Y-74555882D01*
X29994112Y-74555882D01*
X29994115Y-74555884D01*
X30134125Y-74593400D01*
X30134126Y-74593400D01*
X30279074Y-74593400D01*
X30279075Y-74593400D01*
X30419085Y-74555884D01*
X30419087Y-74555882D01*
X30419089Y-74555882D01*
X30544610Y-74483412D01*
X30544610Y-74483411D01*
X30544615Y-74483409D01*
X30647109Y-74380915D01*
X30719584Y-74255385D01*
X30757100Y-74115375D01*
X30757100Y-73970425D01*
X30719584Y-73830415D01*
X30719582Y-73830412D01*
X30719582Y-73830410D01*
X30647112Y-73704889D01*
X30647110Y-73704887D01*
X30647109Y-73704885D01*
X30544615Y-73602391D01*
X30544612Y-73602389D01*
X30544610Y-73602387D01*
X30419088Y-73529917D01*
X30419089Y-73529917D01*
X30389496Y-73521987D01*
X30279075Y-73492400D01*
X30134125Y-73492400D01*
X30072390Y-73508941D01*
X29994110Y-73529917D01*
X29868589Y-73602387D01*
X29766087Y-73704889D01*
X29693617Y-73830410D01*
X29656100Y-73970425D01*
X500500Y-73970425D01*
X500500Y-71191425D01*
X30991500Y-71191425D01*
X30991500Y-71336375D01*
X31021087Y-71446796D01*
X31029017Y-71476389D01*
X31101487Y-71601910D01*
X31101489Y-71601912D01*
X31101491Y-71601915D01*
X31203985Y-71704409D01*
X31203987Y-71704410D01*
X31203989Y-71704412D01*
X31329511Y-71776882D01*
X31329512Y-71776882D01*
X31329515Y-71776884D01*
X31469525Y-71814400D01*
X31469526Y-71814400D01*
X31614474Y-71814400D01*
X31614475Y-71814400D01*
X31754485Y-71776884D01*
X31754487Y-71776882D01*
X31754489Y-71776882D01*
X31880010Y-71704412D01*
X31880010Y-71704411D01*
X31880015Y-71704409D01*
X31982509Y-71601915D01*
X32006780Y-71559876D01*
X32054982Y-71476389D01*
X32054982Y-71476387D01*
X32054984Y-71476385D01*
X32092500Y-71336375D01*
X32092500Y-71191425D01*
X32054984Y-71051415D01*
X32054982Y-71051412D01*
X32054982Y-71051410D01*
X31982512Y-70925889D01*
X31982510Y-70925887D01*
X31982509Y-70925885D01*
X31880015Y-70823391D01*
X31880012Y-70823389D01*
X31880010Y-70823387D01*
X31754488Y-70750917D01*
X31754489Y-70750917D01*
X31724896Y-70742987D01*
X31614475Y-70713400D01*
X31469525Y-70713400D01*
X31407790Y-70729941D01*
X31329510Y-70750917D01*
X31203989Y-70823387D01*
X31101487Y-70925889D01*
X31029017Y-71051410D01*
X31029016Y-71051415D01*
X30991500Y-71191425D01*
X500500Y-71191425D01*
X500500Y-70453385D01*
X60899500Y-70453385D01*
X60899500Y-70626614D01*
X60926597Y-70797702D01*
X60926598Y-70797706D01*
X60980123Y-70962438D01*
X60980125Y-70962441D01*
X61025456Y-71051410D01*
X61058768Y-71116788D01*
X61160586Y-71256928D01*
X61283072Y-71379414D01*
X61423212Y-71481232D01*
X61577555Y-71559873D01*
X61577557Y-71559873D01*
X61577558Y-71559874D01*
X61577561Y-71559876D01*
X61742293Y-71613401D01*
X61742297Y-71613402D01*
X61913386Y-71640500D01*
X61913389Y-71640500D01*
X62086614Y-71640500D01*
X62257702Y-71613402D01*
X62257706Y-71613401D01*
X62422438Y-71559876D01*
X62422440Y-71559874D01*
X62422445Y-71559873D01*
X62576788Y-71481232D01*
X62716928Y-71379414D01*
X62839414Y-71256928D01*
X62941232Y-71116788D01*
X63019873Y-70962445D01*
X63019874Y-70962440D01*
X63019876Y-70962438D01*
X63073401Y-70797706D01*
X63073402Y-70797702D01*
X63100500Y-70626614D01*
X63100500Y-70453385D01*
X63073402Y-70282297D01*
X63073401Y-70282293D01*
X63019876Y-70117561D01*
X63019874Y-70117558D01*
X63019873Y-70117557D01*
X63019873Y-70117555D01*
X62941232Y-69963212D01*
X62839414Y-69823072D01*
X62716928Y-69700586D01*
X62576788Y-69598768D01*
X62576787Y-69598767D01*
X62576785Y-69598766D01*
X62422441Y-69520125D01*
X62422438Y-69520123D01*
X62257706Y-69466598D01*
X62257702Y-69466597D01*
X62086614Y-69439500D01*
X62086611Y-69439500D01*
X61913389Y-69439500D01*
X61913386Y-69439500D01*
X61742297Y-69466597D01*
X61742293Y-69466598D01*
X61577561Y-69520123D01*
X61577558Y-69520125D01*
X61423214Y-69598766D01*
X61283073Y-69700585D01*
X61160585Y-69823073D01*
X61058766Y-69963214D01*
X60980125Y-70117558D01*
X60980123Y-70117561D01*
X60926598Y-70282293D01*
X60926597Y-70282297D01*
X60899500Y-70453385D01*
X500500Y-70453385D01*
X500500Y-67125327D01*
X60899500Y-67125327D01*
X60899500Y-68874672D01*
X60899501Y-68874684D01*
X60914033Y-68947736D01*
X60914035Y-68947742D01*
X60969397Y-69030599D01*
X60969399Y-69030601D01*
X61052260Y-69085966D01*
X61107808Y-69097015D01*
X61125315Y-69100498D01*
X61125320Y-69100498D01*
X61125326Y-69100500D01*
X61125327Y-69100500D01*
X62874673Y-69100500D01*
X62874674Y-69100500D01*
X62947740Y-69085966D01*
X63030601Y-69030601D01*
X63085966Y-68947740D01*
X63100500Y-68874674D01*
X63100500Y-67125326D01*
X63089957Y-67072325D01*
X69750600Y-67072325D01*
X69750600Y-67217274D01*
X69788117Y-67357289D01*
X69860587Y-67482810D01*
X69860589Y-67482812D01*
X69860591Y-67482815D01*
X69963085Y-67585309D01*
X69963087Y-67585310D01*
X69963089Y-67585312D01*
X70088611Y-67657782D01*
X70088612Y-67657782D01*
X70088615Y-67657784D01*
X70228625Y-67695300D01*
X70228626Y-67695300D01*
X70373574Y-67695300D01*
X70373575Y-67695300D01*
X70513585Y-67657784D01*
X70513587Y-67657782D01*
X70513589Y-67657782D01*
X70639110Y-67585312D01*
X70639110Y-67585311D01*
X70639115Y-67585309D01*
X70741609Y-67482815D01*
X70814084Y-67357285D01*
X70851600Y-67217275D01*
X70851600Y-67072325D01*
X70814084Y-66932315D01*
X70814082Y-66932312D01*
X70814082Y-66932310D01*
X70741612Y-66806789D01*
X70741610Y-66806787D01*
X70741609Y-66806785D01*
X70639115Y-66704291D01*
X70639112Y-66704289D01*
X70639110Y-66704287D01*
X70513588Y-66631817D01*
X70513589Y-66631817D01*
X70483996Y-66623887D01*
X70373575Y-66594300D01*
X70228625Y-66594300D01*
X70166890Y-66610841D01*
X70088610Y-66631817D01*
X69963089Y-66704287D01*
X69860587Y-66806789D01*
X69788117Y-66932310D01*
X69750600Y-67072325D01*
X63089957Y-67072325D01*
X63085966Y-67052260D01*
X63030601Y-66969399D01*
X63030599Y-66969397D01*
X62947742Y-66914035D01*
X62947740Y-66914034D01*
X62947737Y-66914033D01*
X62947736Y-66914033D01*
X62874684Y-66899501D01*
X62874674Y-66899500D01*
X61125326Y-66899500D01*
X61125325Y-66899500D01*
X61125315Y-66899501D01*
X61052263Y-66914033D01*
X61052257Y-66914035D01*
X60969400Y-66969397D01*
X60969397Y-66969400D01*
X60914035Y-67052257D01*
X60914033Y-67052263D01*
X60899501Y-67125315D01*
X60899500Y-67125327D01*
X500500Y-67125327D01*
X500500Y-58125925D01*
X24596200Y-58125925D01*
X24596200Y-58270874D01*
X24633717Y-58410889D01*
X24706187Y-58536410D01*
X24706189Y-58536412D01*
X24706191Y-58536415D01*
X24808685Y-58638909D01*
X24808687Y-58638910D01*
X24808689Y-58638912D01*
X24934211Y-58711382D01*
X24934212Y-58711382D01*
X24934215Y-58711384D01*
X25074225Y-58748900D01*
X25074226Y-58748900D01*
X25219174Y-58748900D01*
X25219175Y-58748900D01*
X25359185Y-58711384D01*
X25359187Y-58711382D01*
X25359189Y-58711382D01*
X25484710Y-58638912D01*
X25484710Y-58638911D01*
X25484715Y-58638909D01*
X25557448Y-58566175D01*
X25611963Y-58538400D01*
X25672395Y-58547971D01*
X25697450Y-58566174D01*
X25790685Y-58659409D01*
X25790687Y-58659410D01*
X25790689Y-58659412D01*
X25916211Y-58731882D01*
X25916212Y-58731882D01*
X25916215Y-58731884D01*
X26056225Y-58769400D01*
X26056226Y-58769400D01*
X26201174Y-58769400D01*
X26201175Y-58769400D01*
X26341185Y-58731884D01*
X26341187Y-58731882D01*
X26341189Y-58731882D01*
X26466710Y-58659412D01*
X26466710Y-58659411D01*
X26466715Y-58659409D01*
X26569209Y-58556915D01*
X26641684Y-58431385D01*
X26679200Y-58291375D01*
X26679200Y-58146425D01*
X26661756Y-58081325D01*
X65111000Y-58081325D01*
X65111000Y-58226275D01*
X65128444Y-58291375D01*
X65148517Y-58366289D01*
X65220987Y-58491810D01*
X65220989Y-58491812D01*
X65220991Y-58491815D01*
X65323485Y-58594309D01*
X65323487Y-58594310D01*
X65323489Y-58594312D01*
X65449011Y-58666782D01*
X65449012Y-58666782D01*
X65449015Y-58666784D01*
X65589025Y-58704300D01*
X65589026Y-58704300D01*
X65733974Y-58704300D01*
X65733975Y-58704300D01*
X65873985Y-58666784D01*
X65873987Y-58666782D01*
X65873989Y-58666782D01*
X65999510Y-58594312D01*
X65999510Y-58594311D01*
X65999515Y-58594309D01*
X66102009Y-58491815D01*
X66102012Y-58491810D01*
X66174482Y-58366289D01*
X66174482Y-58366287D01*
X66174484Y-58366285D01*
X66212000Y-58226275D01*
X66212000Y-58081325D01*
X66197414Y-58026889D01*
X66200615Y-57965789D01*
X66239120Y-57918238D01*
X66298220Y-57902402D01*
X66318662Y-57905639D01*
X66362922Y-57917499D01*
X66362924Y-57917500D01*
X66362925Y-57917500D01*
X66507874Y-57917500D01*
X66507875Y-57917500D01*
X66647885Y-57879984D01*
X66647887Y-57879982D01*
X66647889Y-57879982D01*
X66773410Y-57807512D01*
X66773410Y-57807511D01*
X66773415Y-57807509D01*
X66875909Y-57705015D01*
X66897049Y-57668400D01*
X66948382Y-57579489D01*
X66948382Y-57579487D01*
X66948384Y-57579485D01*
X66985900Y-57439475D01*
X66985900Y-57294525D01*
X66948384Y-57154515D01*
X66948382Y-57154512D01*
X66948382Y-57154510D01*
X66875912Y-57028989D01*
X66875910Y-57028987D01*
X66875909Y-57028985D01*
X66773415Y-56926491D01*
X66773412Y-56926489D01*
X66773410Y-56926487D01*
X66647888Y-56854017D01*
X66647889Y-56854017D01*
X66576480Y-56834883D01*
X66507875Y-56816500D01*
X66362925Y-56816500D01*
X66301190Y-56833041D01*
X66222910Y-56854017D01*
X66097389Y-56926487D01*
X65994887Y-57028989D01*
X65922417Y-57154510D01*
X65884900Y-57294525D01*
X65884900Y-57439474D01*
X65899486Y-57493910D01*
X65896283Y-57555012D01*
X65857778Y-57602561D01*
X65798678Y-57618397D01*
X65778237Y-57615160D01*
X65733975Y-57603300D01*
X65589025Y-57603300D01*
X65532683Y-57618397D01*
X65449010Y-57640817D01*
X65323489Y-57713287D01*
X65220987Y-57815789D01*
X65148517Y-57941310D01*
X65136565Y-57985915D01*
X65111000Y-58081325D01*
X26661756Y-58081325D01*
X26641684Y-58006415D01*
X26641681Y-58006409D01*
X26569212Y-57880889D01*
X26569210Y-57880887D01*
X26569209Y-57880885D01*
X26466715Y-57778391D01*
X26466712Y-57778389D01*
X26466710Y-57778387D01*
X26341188Y-57705917D01*
X26341189Y-57705917D01*
X26311596Y-57697987D01*
X26201175Y-57668400D01*
X26056225Y-57668400D01*
X25994490Y-57684941D01*
X25916210Y-57705917D01*
X25790689Y-57778387D01*
X25790683Y-57778392D01*
X25717952Y-57851122D01*
X25663435Y-57878899D01*
X25603003Y-57869327D01*
X25577948Y-57851124D01*
X25484715Y-57757891D01*
X25484712Y-57757889D01*
X25484710Y-57757887D01*
X25359188Y-57685417D01*
X25359189Y-57685417D01*
X25295681Y-57668400D01*
X25219175Y-57647900D01*
X25074225Y-57647900D01*
X25012490Y-57664441D01*
X24934210Y-57685417D01*
X24808689Y-57757887D01*
X24706187Y-57860389D01*
X24633717Y-57985910D01*
X24596200Y-58125925D01*
X500500Y-58125925D01*
X500500Y-56280425D01*
X55865200Y-56280425D01*
X55865200Y-56425374D01*
X55902717Y-56565389D01*
X55975187Y-56690910D01*
X55975189Y-56690912D01*
X55975191Y-56690915D01*
X56077685Y-56793409D01*
X56077687Y-56793410D01*
X56077689Y-56793412D01*
X56203211Y-56865882D01*
X56203212Y-56865882D01*
X56203215Y-56865884D01*
X56343225Y-56903400D01*
X56343226Y-56903400D01*
X56488174Y-56903400D01*
X56488175Y-56903400D01*
X56628185Y-56865884D01*
X56744643Y-56798646D01*
X56804489Y-56785925D01*
X56860385Y-56810811D01*
X56879878Y-56834883D01*
X56927987Y-56918210D01*
X56927989Y-56918212D01*
X56927991Y-56918215D01*
X57030485Y-57020709D01*
X57030487Y-57020710D01*
X57030489Y-57020712D01*
X57156011Y-57093182D01*
X57156012Y-57093182D01*
X57156015Y-57093184D01*
X57296025Y-57130700D01*
X57296026Y-57130700D01*
X57440974Y-57130700D01*
X57440975Y-57130700D01*
X57580985Y-57093184D01*
X57580987Y-57093182D01*
X57580989Y-57093182D01*
X57706510Y-57020712D01*
X57706510Y-57020711D01*
X57706515Y-57020709D01*
X57809009Y-56918215D01*
X57809012Y-56918210D01*
X57881482Y-56792689D01*
X57881482Y-56792687D01*
X57881484Y-56792685D01*
X57919000Y-56652675D01*
X57919000Y-56507725D01*
X57881484Y-56367715D01*
X57881482Y-56367712D01*
X57881482Y-56367710D01*
X57809012Y-56242189D01*
X57809010Y-56242187D01*
X57809009Y-56242185D01*
X57706515Y-56139691D01*
X57706512Y-56139689D01*
X57706510Y-56139687D01*
X57580988Y-56067217D01*
X57580989Y-56067217D01*
X57551396Y-56059287D01*
X57440975Y-56029700D01*
X57296025Y-56029700D01*
X57249355Y-56042205D01*
X57156013Y-56067216D01*
X57039557Y-56134453D01*
X56979709Y-56147174D01*
X56923813Y-56122287D01*
X56904321Y-56098216D01*
X56856212Y-56014889D01*
X56856210Y-56014887D01*
X56856209Y-56014885D01*
X56753715Y-55912391D01*
X56753712Y-55912389D01*
X56753710Y-55912387D01*
X56628188Y-55839917D01*
X56628189Y-55839917D01*
X56598596Y-55831987D01*
X56488175Y-55802400D01*
X56343225Y-55802400D01*
X56281490Y-55818941D01*
X56203210Y-55839917D01*
X56077689Y-55912387D01*
X55975187Y-56014889D01*
X55902717Y-56140410D01*
X55865200Y-56280425D01*
X500500Y-56280425D01*
X500500Y-54347425D01*
X9664400Y-54347425D01*
X9664400Y-54492374D01*
X9701917Y-54632389D01*
X9774387Y-54757910D01*
X9774389Y-54757912D01*
X9774391Y-54757915D01*
X9876885Y-54860409D01*
X9876887Y-54860410D01*
X9876889Y-54860412D01*
X10002411Y-54932882D01*
X10002412Y-54932882D01*
X10002415Y-54932884D01*
X10142425Y-54970400D01*
X10142426Y-54970400D01*
X10287374Y-54970400D01*
X10287375Y-54970400D01*
X10427385Y-54932884D01*
X10427387Y-54932882D01*
X10427389Y-54932882D01*
X10552910Y-54860412D01*
X10552910Y-54860411D01*
X10552915Y-54860409D01*
X10655409Y-54757915D01*
X10727884Y-54632385D01*
X10765400Y-54492375D01*
X10765400Y-54347425D01*
X10727884Y-54207415D01*
X10727882Y-54207412D01*
X10727882Y-54207410D01*
X10655412Y-54081889D01*
X10655410Y-54081887D01*
X10655409Y-54081885D01*
X10552915Y-53979391D01*
X10552912Y-53979389D01*
X10552910Y-53979387D01*
X10427388Y-53906917D01*
X10427389Y-53906917D01*
X10397796Y-53898987D01*
X10287375Y-53869400D01*
X10142425Y-53869400D01*
X10080690Y-53885941D01*
X10002410Y-53906917D01*
X9876889Y-53979387D01*
X9774387Y-54081889D01*
X9701917Y-54207410D01*
X9664400Y-54347425D01*
X500500Y-54347425D01*
X500500Y-52248625D01*
X32332700Y-52248625D01*
X32332700Y-52393575D01*
X32362287Y-52503996D01*
X32370217Y-52533589D01*
X32442687Y-52659110D01*
X32442689Y-52659112D01*
X32442691Y-52659115D01*
X32545185Y-52761609D01*
X32545187Y-52761610D01*
X32545189Y-52761612D01*
X32670711Y-52834082D01*
X32670712Y-52834082D01*
X32670715Y-52834084D01*
X32810725Y-52871600D01*
X32810726Y-52871600D01*
X32955674Y-52871600D01*
X32955675Y-52871600D01*
X33095685Y-52834084D01*
X33095687Y-52834082D01*
X33095689Y-52834082D01*
X33221210Y-52761612D01*
X33221210Y-52761611D01*
X33221215Y-52761609D01*
X33323709Y-52659115D01*
X33342706Y-52626212D01*
X33396182Y-52533589D01*
X33396182Y-52533587D01*
X33396184Y-52533585D01*
X33433700Y-52393575D01*
X33433700Y-52248625D01*
X33402546Y-52132358D01*
X33402546Y-52132356D01*
X33397419Y-52113225D01*
X57551000Y-52113225D01*
X57551000Y-52258174D01*
X57588517Y-52398189D01*
X57660987Y-52523710D01*
X57660989Y-52523712D01*
X57660991Y-52523715D01*
X57763485Y-52626209D01*
X57763487Y-52626210D01*
X57763489Y-52626212D01*
X57889011Y-52698682D01*
X57889012Y-52698682D01*
X57889015Y-52698684D01*
X58029025Y-52736200D01*
X58029026Y-52736200D01*
X58173974Y-52736200D01*
X58173975Y-52736200D01*
X58313985Y-52698684D01*
X58313987Y-52698682D01*
X58313989Y-52698682D01*
X58439510Y-52626212D01*
X58439510Y-52626211D01*
X58439515Y-52626209D01*
X58542009Y-52523715D01*
X58614484Y-52398185D01*
X58652000Y-52258175D01*
X58652000Y-52113225D01*
X58614484Y-51973215D01*
X58614482Y-51973212D01*
X58614482Y-51973210D01*
X58542012Y-51847689D01*
X58542010Y-51847687D01*
X58542009Y-51847685D01*
X58439515Y-51745191D01*
X58439512Y-51745189D01*
X58439510Y-51745187D01*
X58313988Y-51672717D01*
X58313989Y-51672717D01*
X58284396Y-51664787D01*
X58173975Y-51635200D01*
X58029025Y-51635200D01*
X57989895Y-51645685D01*
X57889010Y-51672717D01*
X57763489Y-51745187D01*
X57660987Y-51847689D01*
X57588517Y-51973210D01*
X57551000Y-52113225D01*
X33397419Y-52113225D01*
X33396184Y-52108615D01*
X33396182Y-52108611D01*
X33323712Y-51983089D01*
X33323710Y-51983087D01*
X33323709Y-51983085D01*
X33221215Y-51880591D01*
X33221212Y-51880589D01*
X33221210Y-51880587D01*
X33095688Y-51808117D01*
X33095689Y-51808117D01*
X33066096Y-51800187D01*
X32955675Y-51770600D01*
X32810725Y-51770600D01*
X32748990Y-51787141D01*
X32670710Y-51808117D01*
X32545189Y-51880587D01*
X32442687Y-51983089D01*
X32370217Y-52108610D01*
X32332700Y-52248625D01*
X500500Y-52248625D01*
X500500Y-51360725D01*
X16265800Y-51360725D01*
X16265800Y-51505674D01*
X16303317Y-51645689D01*
X16375787Y-51771210D01*
X16375789Y-51771212D01*
X16375791Y-51771215D01*
X16478285Y-51873709D01*
X16478287Y-51873710D01*
X16478289Y-51873712D01*
X16603811Y-51946182D01*
X16603812Y-51946182D01*
X16603815Y-51946184D01*
X16743825Y-51983700D01*
X16743826Y-51983700D01*
X16888774Y-51983700D01*
X16888775Y-51983700D01*
X17028785Y-51946184D01*
X17028787Y-51946182D01*
X17028789Y-51946182D01*
X17154310Y-51873712D01*
X17154310Y-51873711D01*
X17154315Y-51873709D01*
X17256809Y-51771215D01*
X17271836Y-51745187D01*
X17329282Y-51645689D01*
X17329282Y-51645687D01*
X17329284Y-51645685D01*
X17366800Y-51505675D01*
X17366800Y-51360725D01*
X17329284Y-51220715D01*
X17329282Y-51220712D01*
X17329282Y-51220710D01*
X17289749Y-51152239D01*
X17264915Y-51109225D01*
X20941900Y-51109225D01*
X20941900Y-51254174D01*
X20979417Y-51394189D01*
X21051887Y-51519710D01*
X21051889Y-51519712D01*
X21051891Y-51519715D01*
X21154385Y-51622209D01*
X21154387Y-51622210D01*
X21154389Y-51622212D01*
X21279911Y-51694682D01*
X21279912Y-51694682D01*
X21279915Y-51694684D01*
X21419925Y-51732200D01*
X21419926Y-51732200D01*
X21564874Y-51732200D01*
X21564875Y-51732200D01*
X21704885Y-51694684D01*
X21704887Y-51694682D01*
X21704889Y-51694682D01*
X21830410Y-51622212D01*
X21830410Y-51622211D01*
X21830415Y-51622209D01*
X21932909Y-51519715D01*
X22005384Y-51394185D01*
X22042900Y-51254175D01*
X22042900Y-51109225D01*
X22005384Y-50969215D01*
X22005382Y-50969212D01*
X22005382Y-50969210D01*
X21932912Y-50843689D01*
X21932910Y-50843687D01*
X21932909Y-50843685D01*
X21830415Y-50741191D01*
X21830412Y-50741189D01*
X21830410Y-50741187D01*
X21704888Y-50668717D01*
X21704889Y-50668717D01*
X21675296Y-50660787D01*
X21564875Y-50631200D01*
X21419925Y-50631200D01*
X21358190Y-50647741D01*
X21279910Y-50668717D01*
X21154389Y-50741187D01*
X21051887Y-50843689D01*
X20979417Y-50969210D01*
X20941900Y-51109225D01*
X17264915Y-51109225D01*
X17256809Y-51095185D01*
X17154315Y-50992691D01*
X17154312Y-50992689D01*
X17154310Y-50992687D01*
X17028788Y-50920217D01*
X17028789Y-50920217D01*
X16999196Y-50912287D01*
X16888775Y-50882700D01*
X16743825Y-50882700D01*
X16682090Y-50899241D01*
X16603810Y-50920217D01*
X16478289Y-50992687D01*
X16375787Y-51095189D01*
X16303317Y-51220710D01*
X16265800Y-51360725D01*
X500500Y-51360725D01*
X500500Y-50468025D01*
X41873900Y-50468025D01*
X41873900Y-50612975D01*
X41888836Y-50668716D01*
X41911417Y-50752989D01*
X41983887Y-50878510D01*
X41983889Y-50878512D01*
X41983891Y-50878515D01*
X42086385Y-50981009D01*
X42086387Y-50981010D01*
X42086389Y-50981012D01*
X42211911Y-51053482D01*
X42211912Y-51053482D01*
X42211915Y-51053484D01*
X42351925Y-51091000D01*
X42351926Y-51091000D01*
X42496874Y-51091000D01*
X42496875Y-51091000D01*
X42636885Y-51053484D01*
X42636887Y-51053482D01*
X42636889Y-51053482D01*
X42762410Y-50981012D01*
X42762410Y-50981011D01*
X42762415Y-50981009D01*
X42864909Y-50878515D01*
X42937384Y-50752985D01*
X42974900Y-50612975D01*
X42974900Y-50468025D01*
X42937384Y-50328015D01*
X42937382Y-50328012D01*
X42937382Y-50328010D01*
X42864912Y-50202489D01*
X42864910Y-50202487D01*
X42864909Y-50202485D01*
X42762415Y-50099991D01*
X42762412Y-50099989D01*
X42762410Y-50099987D01*
X42636888Y-50027517D01*
X42636889Y-50027517D01*
X42564756Y-50008189D01*
X42496875Y-49990000D01*
X42351925Y-49990000D01*
X42290190Y-50006541D01*
X42211910Y-50027517D01*
X42086389Y-50099987D01*
X41983887Y-50202489D01*
X41911417Y-50328010D01*
X41911416Y-50328015D01*
X41873900Y-50468025D01*
X500500Y-50468025D01*
X500500Y-49723225D01*
X24441900Y-49723225D01*
X24441900Y-49868174D01*
X24479417Y-50008189D01*
X24551887Y-50133710D01*
X24551889Y-50133712D01*
X24551891Y-50133715D01*
X24654385Y-50236209D01*
X24654387Y-50236210D01*
X24654389Y-50236212D01*
X24779911Y-50308682D01*
X24779912Y-50308682D01*
X24779915Y-50308684D01*
X24919925Y-50346200D01*
X24919926Y-50346200D01*
X25064874Y-50346200D01*
X25064875Y-50346200D01*
X25204885Y-50308684D01*
X25204887Y-50308682D01*
X25204889Y-50308682D01*
X25330410Y-50236212D01*
X25330410Y-50236211D01*
X25330415Y-50236209D01*
X25432909Y-50133715D01*
X25505384Y-50008185D01*
X25542900Y-49868175D01*
X25542900Y-49723225D01*
X25505384Y-49583215D01*
X25505382Y-49583212D01*
X25505382Y-49583210D01*
X25432912Y-49457689D01*
X25432910Y-49457687D01*
X25432909Y-49457685D01*
X25330415Y-49355191D01*
X25330412Y-49355189D01*
X25330410Y-49355187D01*
X25204888Y-49282717D01*
X25204889Y-49282717D01*
X25175296Y-49274787D01*
X25064875Y-49245200D01*
X24919925Y-49245200D01*
X24858190Y-49261741D01*
X24779910Y-49282717D01*
X24654389Y-49355187D01*
X24551887Y-49457689D01*
X24479417Y-49583210D01*
X24441900Y-49723225D01*
X500500Y-49723225D01*
X500500Y-48453225D01*
X39005000Y-48453225D01*
X39005000Y-48598174D01*
X39042517Y-48738189D01*
X39114987Y-48863710D01*
X39114989Y-48863712D01*
X39114991Y-48863715D01*
X39217485Y-48966209D01*
X39217487Y-48966210D01*
X39217489Y-48966212D01*
X39343011Y-49038682D01*
X39343012Y-49038682D01*
X39343015Y-49038684D01*
X39483025Y-49076200D01*
X39483026Y-49076200D01*
X39627974Y-49076200D01*
X39627975Y-49076200D01*
X39767985Y-49038684D01*
X39767987Y-49038682D01*
X39767989Y-49038682D01*
X39893510Y-48966212D01*
X39893510Y-48966211D01*
X39893515Y-48966209D01*
X39996009Y-48863715D01*
X40068484Y-48738185D01*
X40106000Y-48598175D01*
X40106000Y-48453225D01*
X40068484Y-48313215D01*
X40068482Y-48313212D01*
X40068482Y-48313210D01*
X39996012Y-48187689D01*
X39996010Y-48187687D01*
X39996009Y-48187685D01*
X39893515Y-48085191D01*
X39893512Y-48085189D01*
X39893510Y-48085187D01*
X39767988Y-48012717D01*
X39767989Y-48012717D01*
X39738396Y-48004787D01*
X39627975Y-47975200D01*
X39483025Y-47975200D01*
X39421290Y-47991741D01*
X39343010Y-48012717D01*
X39217489Y-48085187D01*
X39114987Y-48187689D01*
X39042517Y-48313210D01*
X39005000Y-48453225D01*
X500500Y-48453225D01*
X500500Y-45506125D01*
X21984700Y-45506125D01*
X21984700Y-45651074D01*
X22022217Y-45791089D01*
X22094687Y-45916610D01*
X22094689Y-45916612D01*
X22094691Y-45916615D01*
X22197185Y-46019109D01*
X22197187Y-46019110D01*
X22197189Y-46019112D01*
X22322711Y-46091582D01*
X22322712Y-46091582D01*
X22322715Y-46091584D01*
X22462725Y-46129100D01*
X22462726Y-46129100D01*
X22607674Y-46129100D01*
X22607675Y-46129100D01*
X22747685Y-46091584D01*
X22747687Y-46091582D01*
X22747689Y-46091582D01*
X22873210Y-46019112D01*
X22873210Y-46019111D01*
X22873215Y-46019109D01*
X22975709Y-45916615D01*
X23048184Y-45791085D01*
X23085700Y-45651075D01*
X23085700Y-45506125D01*
X23048184Y-45366115D01*
X23048182Y-45366112D01*
X23048182Y-45366110D01*
X22975712Y-45240589D01*
X22975710Y-45240587D01*
X22975709Y-45240585D01*
X22873215Y-45138091D01*
X22873212Y-45138089D01*
X22873210Y-45138087D01*
X22747688Y-45065617D01*
X22747689Y-45065617D01*
X22718096Y-45057687D01*
X22607675Y-45028100D01*
X22462725Y-45028100D01*
X22400990Y-45044641D01*
X22322710Y-45065617D01*
X22197189Y-45138087D01*
X22094687Y-45240589D01*
X22022217Y-45366110D01*
X21984700Y-45506125D01*
X500500Y-45506125D01*
X500500Y-44769825D01*
X7530400Y-44769825D01*
X7530400Y-44914774D01*
X7567917Y-45054789D01*
X7640387Y-45180310D01*
X7640389Y-45180312D01*
X7640391Y-45180315D01*
X7742885Y-45282809D01*
X7742887Y-45282810D01*
X7742889Y-45282812D01*
X7868411Y-45355282D01*
X7868412Y-45355282D01*
X7868415Y-45355284D01*
X8008425Y-45392800D01*
X8008426Y-45392800D01*
X8153374Y-45392800D01*
X8153375Y-45392800D01*
X8293385Y-45355284D01*
X8293387Y-45355282D01*
X8293389Y-45355282D01*
X8418910Y-45282812D01*
X8418910Y-45282811D01*
X8418915Y-45282809D01*
X8521409Y-45180315D01*
X8545787Y-45138091D01*
X8593882Y-45054789D01*
X8593882Y-45054787D01*
X8593884Y-45054785D01*
X8631400Y-44914775D01*
X8631400Y-44769825D01*
X8593884Y-44629815D01*
X8593882Y-44629812D01*
X8593882Y-44629810D01*
X8521412Y-44504289D01*
X8521410Y-44504287D01*
X8521409Y-44504285D01*
X8418915Y-44401791D01*
X8418912Y-44401789D01*
X8418910Y-44401787D01*
X8293388Y-44329317D01*
X8293389Y-44329317D01*
X8252176Y-44318274D01*
X8153375Y-44291800D01*
X8008425Y-44291800D01*
X7946690Y-44308341D01*
X7868410Y-44329317D01*
X7742889Y-44401787D01*
X7640387Y-44504289D01*
X7567917Y-44629810D01*
X7530400Y-44769825D01*
X500500Y-44769825D01*
X500500Y-44173325D01*
X54036300Y-44173325D01*
X54036300Y-44318275D01*
X54039259Y-44329317D01*
X54073817Y-44458289D01*
X54146287Y-44583810D01*
X54146289Y-44583812D01*
X54146291Y-44583815D01*
X54248785Y-44686309D01*
X54248787Y-44686310D01*
X54248789Y-44686312D01*
X54374311Y-44758782D01*
X54374312Y-44758782D01*
X54374315Y-44758784D01*
X54514325Y-44796300D01*
X54514326Y-44796300D01*
X54659274Y-44796300D01*
X54659275Y-44796300D01*
X54799285Y-44758784D01*
X54799287Y-44758782D01*
X54799289Y-44758782D01*
X54924810Y-44686312D01*
X54924810Y-44686311D01*
X54924815Y-44686309D01*
X55027309Y-44583815D01*
X55027312Y-44583810D01*
X55099782Y-44458289D01*
X55099782Y-44458287D01*
X55099784Y-44458285D01*
X55137300Y-44318275D01*
X55137300Y-44173325D01*
X55099784Y-44033315D01*
X55099782Y-44033312D01*
X55099782Y-44033310D01*
X55027312Y-43907789D01*
X55027310Y-43907787D01*
X55027309Y-43907785D01*
X54924815Y-43805291D01*
X54924812Y-43805289D01*
X54924810Y-43805287D01*
X54799288Y-43732817D01*
X54799289Y-43732817D01*
X54769696Y-43724887D01*
X54659275Y-43695300D01*
X54514325Y-43695300D01*
X54452590Y-43711841D01*
X54374310Y-43732817D01*
X54248789Y-43805287D01*
X54146287Y-43907789D01*
X54073817Y-44033310D01*
X54073816Y-44033315D01*
X54036300Y-44173325D01*
X500500Y-44173325D01*
X500500Y-43230325D01*
X42828100Y-43230325D01*
X42828100Y-43375275D01*
X42854288Y-43473009D01*
X42865617Y-43515289D01*
X42938087Y-43640810D01*
X42938089Y-43640812D01*
X42938091Y-43640815D01*
X43040585Y-43743309D01*
X43040587Y-43743310D01*
X43040589Y-43743312D01*
X43166111Y-43815782D01*
X43166112Y-43815782D01*
X43166115Y-43815784D01*
X43306125Y-43853300D01*
X43306126Y-43853300D01*
X43451074Y-43853300D01*
X43451075Y-43853300D01*
X43591085Y-43815784D01*
X43591087Y-43815782D01*
X43591089Y-43815782D01*
X43716610Y-43743312D01*
X43716610Y-43743311D01*
X43716615Y-43743309D01*
X43819109Y-43640815D01*
X43874150Y-43545482D01*
X43891582Y-43515289D01*
X43891582Y-43515287D01*
X43891584Y-43515285D01*
X43929100Y-43375275D01*
X43929100Y-43230325D01*
X43891584Y-43090315D01*
X43891582Y-43090312D01*
X43891582Y-43090310D01*
X43841194Y-43003036D01*
X43819112Y-42964789D01*
X43819110Y-42964787D01*
X43819109Y-42964785D01*
X43814349Y-42960025D01*
X44949500Y-42960025D01*
X44949500Y-43104974D01*
X44987017Y-43244989D01*
X45059487Y-43370510D01*
X45059489Y-43370512D01*
X45059491Y-43370515D01*
X45161985Y-43473009D01*
X45161987Y-43473010D01*
X45161989Y-43473012D01*
X45287511Y-43545482D01*
X45287512Y-43545482D01*
X45287515Y-43545484D01*
X45427525Y-43583000D01*
X45427526Y-43583000D01*
X45572474Y-43583000D01*
X45572475Y-43583000D01*
X45712485Y-43545484D01*
X45712487Y-43545482D01*
X45712489Y-43545482D01*
X45763163Y-43516225D01*
X75451500Y-43516225D01*
X75451500Y-43661174D01*
X75489017Y-43801189D01*
X75561487Y-43926710D01*
X75561489Y-43926712D01*
X75561491Y-43926715D01*
X75663985Y-44029209D01*
X75663987Y-44029210D01*
X75663989Y-44029212D01*
X75789511Y-44101682D01*
X75789512Y-44101682D01*
X75789515Y-44101684D01*
X75929525Y-44139200D01*
X75929526Y-44139200D01*
X76074474Y-44139200D01*
X76074475Y-44139200D01*
X76214485Y-44101684D01*
X76214487Y-44101682D01*
X76214489Y-44101682D01*
X76340010Y-44029212D01*
X76340010Y-44029211D01*
X76340015Y-44029209D01*
X76442509Y-43926715D01*
X76453438Y-43907785D01*
X76514982Y-43801189D01*
X76514982Y-43801187D01*
X76514984Y-43801185D01*
X76552500Y-43661175D01*
X76552500Y-43516225D01*
X76514984Y-43376215D01*
X76514982Y-43376212D01*
X76514982Y-43376210D01*
X76442512Y-43250689D01*
X76442510Y-43250687D01*
X76442509Y-43250685D01*
X76340015Y-43148191D01*
X76340012Y-43148189D01*
X76340010Y-43148187D01*
X76214488Y-43075717D01*
X76214489Y-43075717D01*
X76184896Y-43067787D01*
X76074475Y-43038200D01*
X75929525Y-43038200D01*
X75867790Y-43054741D01*
X75789510Y-43075717D01*
X75663989Y-43148187D01*
X75561487Y-43250689D01*
X75489017Y-43376210D01*
X75451500Y-43516225D01*
X45763163Y-43516225D01*
X45838010Y-43473012D01*
X45838010Y-43473011D01*
X45838015Y-43473009D01*
X45940509Y-43370515D01*
X46012984Y-43244985D01*
X46050500Y-43104975D01*
X46050500Y-42960025D01*
X46012984Y-42820015D01*
X46012982Y-42820012D01*
X46012982Y-42820010D01*
X45940512Y-42694489D01*
X45940510Y-42694487D01*
X45940509Y-42694485D01*
X45838015Y-42591991D01*
X45838012Y-42591989D01*
X45838010Y-42591987D01*
X45712488Y-42519517D01*
X45712489Y-42519517D01*
X45682896Y-42511587D01*
X45572475Y-42482000D01*
X45427525Y-42482000D01*
X45365790Y-42498541D01*
X45287510Y-42519517D01*
X45161989Y-42591987D01*
X45059487Y-42694489D01*
X44987017Y-42820010D01*
X44949500Y-42960025D01*
X43814349Y-42960025D01*
X43716615Y-42862291D01*
X43716612Y-42862289D01*
X43716610Y-42862287D01*
X43591088Y-42789817D01*
X43591089Y-42789817D01*
X43561496Y-42781887D01*
X43451075Y-42752300D01*
X43306125Y-42752300D01*
X43263162Y-42763812D01*
X43166110Y-42789817D01*
X43040589Y-42862287D01*
X42938087Y-42964789D01*
X42865617Y-43090310D01*
X42865616Y-43090315D01*
X42828100Y-43230325D01*
X500500Y-43230325D01*
X500500Y-42250825D01*
X65659300Y-42250825D01*
X65659300Y-42395774D01*
X65696817Y-42535789D01*
X65769287Y-42661310D01*
X65769289Y-42661312D01*
X65769291Y-42661315D01*
X65871785Y-42763809D01*
X65871787Y-42763810D01*
X65871789Y-42763812D01*
X65997311Y-42836282D01*
X65997312Y-42836282D01*
X65997315Y-42836284D01*
X66137325Y-42873800D01*
X66137326Y-42873800D01*
X66282274Y-42873800D01*
X66282275Y-42873800D01*
X66422285Y-42836284D01*
X66422287Y-42836282D01*
X66422289Y-42836282D01*
X66547810Y-42763812D01*
X66547810Y-42763811D01*
X66547815Y-42763809D01*
X66650309Y-42661315D01*
X66650312Y-42661310D01*
X66722782Y-42535789D01*
X66722782Y-42535787D01*
X66722784Y-42535785D01*
X66760300Y-42395775D01*
X66760300Y-42250825D01*
X66722784Y-42110815D01*
X66722782Y-42110812D01*
X66722782Y-42110810D01*
X66650312Y-41985289D01*
X66650310Y-41985287D01*
X66650309Y-41985285D01*
X66547815Y-41882791D01*
X66547812Y-41882789D01*
X66547810Y-41882787D01*
X66422288Y-41810317D01*
X66422289Y-41810317D01*
X66392696Y-41802387D01*
X66282275Y-41772800D01*
X66137325Y-41772800D01*
X66075590Y-41789341D01*
X65997310Y-41810317D01*
X65871789Y-41882787D01*
X65769287Y-41985289D01*
X65696817Y-42110810D01*
X65659300Y-42250825D01*
X500500Y-42250825D01*
X500500Y-39611925D01*
X73538300Y-39611925D01*
X73538300Y-39756874D01*
X73575817Y-39896889D01*
X73648287Y-40022410D01*
X73648289Y-40022412D01*
X73648291Y-40022415D01*
X73750785Y-40124909D01*
X73750787Y-40124910D01*
X73750789Y-40124912D01*
X73876311Y-40197382D01*
X73876312Y-40197382D01*
X73876315Y-40197384D01*
X74016325Y-40234900D01*
X74016326Y-40234900D01*
X74161274Y-40234900D01*
X74161275Y-40234900D01*
X74301285Y-40197384D01*
X74301287Y-40197382D01*
X74301289Y-40197382D01*
X74426810Y-40124912D01*
X74426810Y-40124911D01*
X74426815Y-40124909D01*
X74529309Y-40022415D01*
X74601784Y-39896885D01*
X74639300Y-39756875D01*
X74639300Y-39611925D01*
X74601784Y-39471915D01*
X74601782Y-39471912D01*
X74601782Y-39471910D01*
X74529312Y-39346389D01*
X74529310Y-39346387D01*
X74529309Y-39346385D01*
X74426815Y-39243891D01*
X74426812Y-39243889D01*
X74426810Y-39243887D01*
X74301288Y-39171417D01*
X74301289Y-39171417D01*
X74271696Y-39163487D01*
X74161275Y-39133900D01*
X74016325Y-39133900D01*
X73954590Y-39150441D01*
X73876310Y-39171417D01*
X73750789Y-39243887D01*
X73648287Y-39346389D01*
X73575817Y-39471910D01*
X73538300Y-39611925D01*
X500500Y-39611925D01*
X500500Y-38950000D01*
X94485000Y-38950000D01*
X94485001Y-38950000D01*
X96574999Y-38950000D01*
X96575000Y-38950000D01*
X96575000Y-37050000D01*
X94485000Y-37050000D01*
X94485000Y-38950000D01*
X500500Y-38950000D01*
X500500Y-37094025D01*
X24813800Y-37094025D01*
X24813800Y-37238975D01*
X24826883Y-37287800D01*
X24851317Y-37378989D01*
X24923787Y-37504510D01*
X24923789Y-37504512D01*
X24923791Y-37504515D01*
X25026285Y-37607009D01*
X25026287Y-37607010D01*
X25026289Y-37607012D01*
X25151811Y-37679482D01*
X25151812Y-37679482D01*
X25151815Y-37679484D01*
X25291825Y-37717000D01*
X25291826Y-37717000D01*
X25436774Y-37717000D01*
X25436775Y-37717000D01*
X25576785Y-37679484D01*
X25576787Y-37679482D01*
X25576789Y-37679482D01*
X25702310Y-37607012D01*
X25702310Y-37607011D01*
X25702315Y-37607009D01*
X25804809Y-37504515D01*
X25877284Y-37378985D01*
X25914800Y-37238975D01*
X25914800Y-37094025D01*
X25877284Y-36954015D01*
X25877282Y-36954012D01*
X25877282Y-36954010D01*
X25804812Y-36828489D01*
X25804810Y-36828487D01*
X25804809Y-36828485D01*
X25702315Y-36725991D01*
X25702312Y-36725989D01*
X25702310Y-36725987D01*
X25596374Y-36664825D01*
X68606400Y-36664825D01*
X68606400Y-36809775D01*
X68624442Y-36877109D01*
X68643917Y-36949789D01*
X68716387Y-37075310D01*
X68716389Y-37075312D01*
X68716391Y-37075315D01*
X68818885Y-37177809D01*
X68818887Y-37177810D01*
X68818889Y-37177812D01*
X68944411Y-37250282D01*
X68944412Y-37250282D01*
X68944415Y-37250284D01*
X69084425Y-37287800D01*
X69084426Y-37287800D01*
X69229374Y-37287800D01*
X69229375Y-37287800D01*
X69369385Y-37250284D01*
X69369387Y-37250282D01*
X69369389Y-37250282D01*
X69494910Y-37177812D01*
X69494910Y-37177811D01*
X69494915Y-37177809D01*
X69597409Y-37075315D01*
X69669884Y-36949785D01*
X69707400Y-36809775D01*
X69707400Y-36664825D01*
X69669884Y-36524815D01*
X69669882Y-36524812D01*
X69669882Y-36524810D01*
X69597412Y-36399289D01*
X69597410Y-36399287D01*
X69597409Y-36399285D01*
X69509549Y-36311425D01*
X77801100Y-36311425D01*
X77801100Y-36456375D01*
X77815221Y-36509074D01*
X77838617Y-36596389D01*
X77911087Y-36721910D01*
X77911089Y-36721912D01*
X77911091Y-36721915D01*
X78013585Y-36824409D01*
X78013587Y-36824410D01*
X78013589Y-36824412D01*
X78139111Y-36896882D01*
X78139112Y-36896882D01*
X78139115Y-36896884D01*
X78279125Y-36934400D01*
X78279126Y-36934400D01*
X78424074Y-36934400D01*
X78424075Y-36934400D01*
X78564085Y-36896884D01*
X78564087Y-36896882D01*
X78564089Y-36896882D01*
X78689610Y-36824412D01*
X78689610Y-36824411D01*
X78689615Y-36824409D01*
X78792109Y-36721915D01*
X78831599Y-36653517D01*
X78864582Y-36596389D01*
X78864582Y-36596387D01*
X78864584Y-36596385D01*
X78902100Y-36456375D01*
X78902100Y-36364125D01*
X91846800Y-36364125D01*
X91846800Y-36509074D01*
X91884317Y-36649089D01*
X91956787Y-36774610D01*
X91956789Y-36774612D01*
X91956791Y-36774615D01*
X92059285Y-36877109D01*
X92059287Y-36877110D01*
X92059289Y-36877112D01*
X92184811Y-36949582D01*
X92184812Y-36949582D01*
X92184815Y-36949584D01*
X92324825Y-36987100D01*
X92324826Y-36987100D01*
X92469774Y-36987100D01*
X92469775Y-36987100D01*
X92609785Y-36949584D01*
X92609787Y-36949582D01*
X92609789Y-36949582D01*
X92655386Y-36923257D01*
X92735310Y-36877112D01*
X92735310Y-36877111D01*
X92735315Y-36877109D01*
X92837809Y-36774615D01*
X92865882Y-36725991D01*
X92910282Y-36649089D01*
X92910282Y-36649087D01*
X92910284Y-36649085D01*
X92947800Y-36509075D01*
X92947800Y-36364125D01*
X92910284Y-36224115D01*
X92910282Y-36224112D01*
X92910282Y-36224110D01*
X92837812Y-36098589D01*
X92837810Y-36098587D01*
X92837809Y-36098585D01*
X92735315Y-35996091D01*
X92735312Y-35996089D01*
X92735310Y-35996087D01*
X92609788Y-35923617D01*
X92609789Y-35923617D01*
X92580196Y-35915687D01*
X92469775Y-35886100D01*
X92324825Y-35886100D01*
X92263090Y-35902641D01*
X92184810Y-35923617D01*
X92059289Y-35996087D01*
X91956787Y-36098589D01*
X91884317Y-36224110D01*
X91846800Y-36364125D01*
X78902100Y-36364125D01*
X78902100Y-36311425D01*
X78864584Y-36171415D01*
X78864582Y-36171412D01*
X78864582Y-36171410D01*
X78792112Y-36045889D01*
X78792110Y-36045887D01*
X78792109Y-36045885D01*
X78689615Y-35943391D01*
X78689612Y-35943389D01*
X78689610Y-35943387D01*
X78564088Y-35870917D01*
X78564089Y-35870917D01*
X78534496Y-35862987D01*
X78424075Y-35833400D01*
X78279125Y-35833400D01*
X78217390Y-35849941D01*
X78139110Y-35870917D01*
X78013589Y-35943387D01*
X77911087Y-36045889D01*
X77838617Y-36171410D01*
X77824496Y-36224110D01*
X77801100Y-36311425D01*
X69509549Y-36311425D01*
X69494915Y-36296791D01*
X69494912Y-36296789D01*
X69494910Y-36296787D01*
X69369388Y-36224317D01*
X69369389Y-36224317D01*
X69339796Y-36216387D01*
X69229375Y-36186800D01*
X69084425Y-36186800D01*
X69022690Y-36203341D01*
X68944410Y-36224317D01*
X68818889Y-36296787D01*
X68716387Y-36399289D01*
X68643917Y-36524810D01*
X68619483Y-36616000D01*
X68606400Y-36664825D01*
X25596374Y-36664825D01*
X25576788Y-36653517D01*
X25576789Y-36653517D01*
X25547196Y-36645587D01*
X25436775Y-36616000D01*
X25291825Y-36616000D01*
X25230090Y-36632541D01*
X25151810Y-36653517D01*
X25026289Y-36725987D01*
X24923787Y-36828489D01*
X24851317Y-36954010D01*
X24825596Y-37050001D01*
X24813800Y-37094025D01*
X500500Y-37094025D01*
X500500Y-35878025D01*
X50962200Y-35878025D01*
X50962200Y-36022974D01*
X50999717Y-36162989D01*
X51072187Y-36288510D01*
X51072189Y-36288512D01*
X51072191Y-36288515D01*
X51174685Y-36391009D01*
X51174687Y-36391010D01*
X51174689Y-36391012D01*
X51300211Y-36463482D01*
X51300212Y-36463482D01*
X51300215Y-36463484D01*
X51440225Y-36501000D01*
X51440226Y-36501000D01*
X51585174Y-36501000D01*
X51585175Y-36501000D01*
X51725185Y-36463484D01*
X51725187Y-36463482D01*
X51725189Y-36463482D01*
X51850710Y-36391012D01*
X51850710Y-36391011D01*
X51850715Y-36391009D01*
X51953209Y-36288515D01*
X51990274Y-36224317D01*
X52025682Y-36162989D01*
X52025682Y-36162987D01*
X52025684Y-36162985D01*
X52063200Y-36022975D01*
X52063200Y-35878025D01*
X54697000Y-35878025D01*
X54697000Y-36022974D01*
X54734517Y-36162989D01*
X54806987Y-36288510D01*
X54806989Y-36288512D01*
X54806991Y-36288515D01*
X54909485Y-36391009D01*
X54909487Y-36391010D01*
X54909489Y-36391012D01*
X55035011Y-36463482D01*
X55035012Y-36463482D01*
X55035015Y-36463484D01*
X55175025Y-36501000D01*
X55175026Y-36501000D01*
X55319974Y-36501000D01*
X55319975Y-36501000D01*
X55459985Y-36463484D01*
X55459987Y-36463482D01*
X55459989Y-36463482D01*
X55585510Y-36391012D01*
X55585510Y-36391011D01*
X55585515Y-36391009D01*
X55688009Y-36288515D01*
X55725074Y-36224317D01*
X55760482Y-36162989D01*
X55760482Y-36162987D01*
X55760484Y-36162985D01*
X55798000Y-36022975D01*
X55798000Y-35878025D01*
X55760484Y-35738015D01*
X55760482Y-35738012D01*
X55760482Y-35738010D01*
X55688012Y-35612489D01*
X55688010Y-35612487D01*
X55688009Y-35612485D01*
X55585515Y-35509991D01*
X55585512Y-35509989D01*
X55585510Y-35509987D01*
X55459988Y-35437517D01*
X55459989Y-35437517D01*
X55430396Y-35429587D01*
X55319975Y-35400000D01*
X55175025Y-35400000D01*
X55113290Y-35416541D01*
X55035010Y-35437517D01*
X54909489Y-35509987D01*
X54806987Y-35612489D01*
X54734517Y-35738010D01*
X54697000Y-35878025D01*
X52063200Y-35878025D01*
X52025684Y-35738015D01*
X52025682Y-35738012D01*
X52025682Y-35738010D01*
X51953212Y-35612489D01*
X51953210Y-35612487D01*
X51953209Y-35612485D01*
X51850715Y-35509991D01*
X51850712Y-35509989D01*
X51850710Y-35509987D01*
X51725188Y-35437517D01*
X51725189Y-35437517D01*
X51695596Y-35429587D01*
X51585175Y-35400000D01*
X51440225Y-35400000D01*
X51378490Y-35416541D01*
X51300210Y-35437517D01*
X51174689Y-35509987D01*
X51072187Y-35612489D01*
X50999717Y-35738010D01*
X50962200Y-35878025D01*
X500500Y-35878025D01*
X500500Y-33125327D01*
X5899500Y-33125327D01*
X5899500Y-34874672D01*
X5899501Y-34874684D01*
X5914033Y-34947736D01*
X5914035Y-34947742D01*
X5969397Y-35030599D01*
X5969399Y-35030601D01*
X6052260Y-35085966D01*
X6107808Y-35097015D01*
X6125315Y-35100498D01*
X6125320Y-35100498D01*
X6125326Y-35100500D01*
X6125327Y-35100500D01*
X7874673Y-35100500D01*
X7874674Y-35100500D01*
X7947740Y-35085966D01*
X8030601Y-35030601D01*
X8085966Y-34947740D01*
X8100500Y-34874674D01*
X8100500Y-33913385D01*
X8439500Y-33913385D01*
X8439500Y-34086614D01*
X8466597Y-34257702D01*
X8466598Y-34257706D01*
X8520123Y-34422438D01*
X8520125Y-34422441D01*
X8598765Y-34576784D01*
X8598768Y-34576788D01*
X8700586Y-34716928D01*
X8823072Y-34839414D01*
X8963212Y-34941232D01*
X9117555Y-35019873D01*
X9117557Y-35019873D01*
X9117558Y-35019874D01*
X9117561Y-35019876D01*
X9282293Y-35073401D01*
X9282297Y-35073402D01*
X9453386Y-35100500D01*
X9453389Y-35100500D01*
X9626614Y-35100500D01*
X9797702Y-35073402D01*
X9797706Y-35073401D01*
X9962438Y-35019876D01*
X9962440Y-35019874D01*
X9962445Y-35019873D01*
X10116788Y-34941232D01*
X10256928Y-34839414D01*
X10379414Y-34716928D01*
X10481232Y-34576788D01*
X10559873Y-34422445D01*
X10559874Y-34422440D01*
X10559876Y-34422438D01*
X10613401Y-34257706D01*
X10613402Y-34257702D01*
X10640500Y-34086614D01*
X10640500Y-33913385D01*
X10979500Y-33913385D01*
X10979500Y-34086614D01*
X11006597Y-34257702D01*
X11006598Y-34257706D01*
X11060123Y-34422438D01*
X11060125Y-34422441D01*
X11138765Y-34576784D01*
X11138768Y-34576788D01*
X11240586Y-34716928D01*
X11363072Y-34839414D01*
X11503212Y-34941232D01*
X11657555Y-35019873D01*
X11657557Y-35019873D01*
X11657558Y-35019874D01*
X11657561Y-35019876D01*
X11822293Y-35073401D01*
X11822297Y-35073402D01*
X11993386Y-35100500D01*
X11993389Y-35100500D01*
X12166614Y-35100500D01*
X12337702Y-35073402D01*
X12337706Y-35073401D01*
X12502438Y-35019876D01*
X12502440Y-35019874D01*
X12502445Y-35019873D01*
X12656788Y-34941232D01*
X12796928Y-34839414D01*
X12919414Y-34716928D01*
X12998682Y-34607825D01*
X42084100Y-34607825D01*
X42084100Y-34752774D01*
X42121617Y-34892789D01*
X42194087Y-35018310D01*
X42194089Y-35018312D01*
X42194091Y-35018315D01*
X42296585Y-35120809D01*
X42296587Y-35120810D01*
X42296589Y-35120812D01*
X42422111Y-35193282D01*
X42422112Y-35193282D01*
X42422115Y-35193284D01*
X42562125Y-35230800D01*
X42562126Y-35230800D01*
X42707074Y-35230800D01*
X42707075Y-35230800D01*
X42847085Y-35193284D01*
X42847087Y-35193282D01*
X42847089Y-35193282D01*
X42972610Y-35120812D01*
X42972610Y-35120811D01*
X42972615Y-35120809D01*
X43075109Y-35018315D01*
X43114825Y-34949525D01*
X69393200Y-34949525D01*
X69393200Y-35094475D01*
X69400256Y-35120809D01*
X69430717Y-35234489D01*
X69503187Y-35360010D01*
X69503189Y-35360012D01*
X69503191Y-35360015D01*
X69605685Y-35462509D01*
X69605687Y-35462510D01*
X69605689Y-35462512D01*
X69731211Y-35534982D01*
X69731212Y-35534982D01*
X69731215Y-35534984D01*
X69871225Y-35572500D01*
X69871226Y-35572500D01*
X70016174Y-35572500D01*
X70016175Y-35572500D01*
X70156185Y-35534984D01*
X70156187Y-35534982D01*
X70156189Y-35534982D01*
X70281710Y-35462512D01*
X70281710Y-35462511D01*
X70281715Y-35462509D01*
X70384209Y-35360015D01*
X70456684Y-35234485D01*
X70494200Y-35094475D01*
X70494200Y-34949525D01*
X70456684Y-34809515D01*
X70456682Y-34809512D01*
X70456682Y-34809510D01*
X70384212Y-34683989D01*
X70384210Y-34683987D01*
X70384209Y-34683985D01*
X70281715Y-34581491D01*
X70281712Y-34581489D01*
X70281710Y-34581487D01*
X70156188Y-34509017D01*
X70156189Y-34509017D01*
X70126596Y-34501087D01*
X70016175Y-34471500D01*
X69871225Y-34471500D01*
X69809490Y-34488041D01*
X69731210Y-34509017D01*
X69605689Y-34581487D01*
X69503187Y-34683989D01*
X69430717Y-34809510D01*
X69408203Y-34893533D01*
X69393200Y-34949525D01*
X43114825Y-34949525D01*
X43147151Y-34893536D01*
X43147152Y-34893533D01*
X43147584Y-34892785D01*
X43185100Y-34752775D01*
X43185100Y-34607825D01*
X43147584Y-34467815D01*
X43147582Y-34467812D01*
X43147582Y-34467810D01*
X43075112Y-34342289D01*
X43075110Y-34342287D01*
X43075109Y-34342285D01*
X42972615Y-34239791D01*
X42972612Y-34239789D01*
X42972610Y-34239787D01*
X42847088Y-34167317D01*
X42847089Y-34167317D01*
X42772430Y-34147312D01*
X42707075Y-34129800D01*
X42562125Y-34129800D01*
X42500390Y-34146341D01*
X42422110Y-34167317D01*
X42296589Y-34239787D01*
X42194087Y-34342289D01*
X42121617Y-34467810D01*
X42084100Y-34607825D01*
X12998682Y-34607825D01*
X13021232Y-34576788D01*
X13021935Y-34575407D01*
X13031626Y-34556390D01*
X13076756Y-34467815D01*
X13099873Y-34422445D01*
X13099874Y-34422441D01*
X13099876Y-34422438D01*
X13153401Y-34257706D01*
X13153402Y-34257702D01*
X13180500Y-34086614D01*
X13180500Y-33913385D01*
X13153402Y-33742301D01*
X13153402Y-33742299D01*
X13126151Y-33658429D01*
X13126151Y-33658425D01*
X13118320Y-33634325D01*
X53682500Y-33634325D01*
X53682500Y-33779274D01*
X53720017Y-33919289D01*
X53792487Y-34044810D01*
X53792489Y-34044812D01*
X53792491Y-34044815D01*
X53894985Y-34147309D01*
X53894987Y-34147310D01*
X53894989Y-34147312D01*
X54020511Y-34219782D01*
X54020512Y-34219782D01*
X54020515Y-34219784D01*
X54160525Y-34257300D01*
X54160526Y-34257300D01*
X54305474Y-34257300D01*
X54305475Y-34257300D01*
X54445485Y-34219784D01*
X54445487Y-34219782D01*
X54445489Y-34219782D01*
X54571010Y-34147312D01*
X54571010Y-34147311D01*
X54571015Y-34147309D01*
X54673509Y-34044815D01*
X54745984Y-33919285D01*
X54783500Y-33779275D01*
X54783500Y-33704525D01*
X92196400Y-33704525D01*
X92196400Y-33849474D01*
X92233917Y-33989489D01*
X92306387Y-34115010D01*
X92306389Y-34115012D01*
X92306391Y-34115015D01*
X92408885Y-34217509D01*
X92408887Y-34217510D01*
X92408889Y-34217512D01*
X92534411Y-34289982D01*
X92534412Y-34289982D01*
X92534415Y-34289984D01*
X92674425Y-34327500D01*
X92674426Y-34327500D01*
X92819374Y-34327500D01*
X92819375Y-34327500D01*
X92959385Y-34289984D01*
X92959387Y-34289982D01*
X92959389Y-34289982D01*
X93084910Y-34217512D01*
X93084910Y-34217511D01*
X93084915Y-34217509D01*
X93187409Y-34115015D01*
X93187412Y-34115010D01*
X93259882Y-33989489D01*
X93259882Y-33989487D01*
X93259884Y-33989485D01*
X93297400Y-33849475D01*
X93297400Y-33704525D01*
X93259884Y-33564515D01*
X93259882Y-33564512D01*
X93259882Y-33564510D01*
X93187412Y-33438989D01*
X93187410Y-33438987D01*
X93187409Y-33438985D01*
X93084915Y-33336491D01*
X93084912Y-33336489D01*
X93084910Y-33336487D01*
X92959388Y-33264017D01*
X92959389Y-33264017D01*
X92929796Y-33256087D01*
X92819375Y-33226500D01*
X92674425Y-33226500D01*
X92612690Y-33243041D01*
X92534410Y-33264017D01*
X92408889Y-33336487D01*
X92306387Y-33438989D01*
X92233917Y-33564510D01*
X92196400Y-33704525D01*
X54783500Y-33704525D01*
X54783500Y-33634325D01*
X54745984Y-33494315D01*
X54745982Y-33494312D01*
X54745982Y-33494310D01*
X54673512Y-33368789D01*
X54673510Y-33368787D01*
X54673509Y-33368785D01*
X54571015Y-33266291D01*
X54571012Y-33266289D01*
X54571010Y-33266287D01*
X54445488Y-33193817D01*
X54445489Y-33193817D01*
X54321470Y-33160586D01*
X54305475Y-33156300D01*
X54160525Y-33156300D01*
X54144530Y-33160586D01*
X54020510Y-33193817D01*
X53894989Y-33266287D01*
X53792487Y-33368789D01*
X53720017Y-33494310D01*
X53682500Y-33634325D01*
X13118320Y-33634325D01*
X13099876Y-33577561D01*
X13099874Y-33577558D01*
X13099873Y-33577557D01*
X13099873Y-33577555D01*
X13021232Y-33423212D01*
X12919414Y-33283072D01*
X12796928Y-33160586D01*
X12656788Y-33058768D01*
X12656787Y-33058767D01*
X12656785Y-33058766D01*
X12502445Y-32980127D01*
X12428778Y-32956191D01*
X12428775Y-32956189D01*
X12337706Y-32926598D01*
X12337702Y-32926597D01*
X12166614Y-32899500D01*
X12166611Y-32899500D01*
X11993389Y-32899500D01*
X11993386Y-32899500D01*
X11822297Y-32926597D01*
X11822293Y-32926598D01*
X11657561Y-32980123D01*
X11657558Y-32980125D01*
X11503214Y-33058766D01*
X11363073Y-33160585D01*
X11240585Y-33283073D01*
X11138766Y-33423214D01*
X11060125Y-33577558D01*
X11060123Y-33577561D01*
X11006598Y-33742293D01*
X11006597Y-33742297D01*
X10979500Y-33913385D01*
X10640500Y-33913385D01*
X10613402Y-33742297D01*
X10613401Y-33742293D01*
X10559876Y-33577561D01*
X10559874Y-33577558D01*
X10559873Y-33577557D01*
X10559873Y-33577555D01*
X10481232Y-33423212D01*
X10379414Y-33283072D01*
X10256928Y-33160586D01*
X10116788Y-33058768D01*
X10116787Y-33058767D01*
X10116785Y-33058766D01*
X9962441Y-32980125D01*
X9962438Y-32980123D01*
X9797706Y-32926598D01*
X9797702Y-32926597D01*
X9626614Y-32899500D01*
X9626611Y-32899500D01*
X9453389Y-32899500D01*
X9453386Y-32899500D01*
X9282297Y-32926597D01*
X9282293Y-32926598D01*
X9117561Y-32980123D01*
X9117558Y-32980125D01*
X8963214Y-33058766D01*
X8823073Y-33160585D01*
X8700585Y-33283073D01*
X8598766Y-33423214D01*
X8520125Y-33577558D01*
X8520123Y-33577561D01*
X8466598Y-33742293D01*
X8466597Y-33742297D01*
X8439500Y-33913385D01*
X8100500Y-33913385D01*
X8100500Y-33125326D01*
X8085966Y-33052260D01*
X8060051Y-33013475D01*
X8030602Y-32969400D01*
X8030599Y-32969397D01*
X7947742Y-32914035D01*
X7947740Y-32914034D01*
X7947737Y-32914033D01*
X7947736Y-32914033D01*
X7874684Y-32899501D01*
X7874674Y-32899500D01*
X6125326Y-32899500D01*
X6125325Y-32899500D01*
X6125315Y-32899501D01*
X6052263Y-32914033D01*
X6052257Y-32914035D01*
X5969400Y-32969397D01*
X5969397Y-32969400D01*
X5914035Y-33052257D01*
X5914033Y-33052263D01*
X5899501Y-33125315D01*
X5899500Y-33125327D01*
X500500Y-33125327D01*
X500500Y-32868525D01*
X41296500Y-32868525D01*
X41296500Y-33013475D01*
X41326087Y-33123896D01*
X41334017Y-33153489D01*
X41406487Y-33279010D01*
X41406489Y-33279012D01*
X41406491Y-33279015D01*
X41508985Y-33381509D01*
X41508987Y-33381510D01*
X41508989Y-33381512D01*
X41634511Y-33453982D01*
X41634512Y-33453982D01*
X41634515Y-33453984D01*
X41774525Y-33491500D01*
X41774526Y-33491500D01*
X41919474Y-33491500D01*
X41919475Y-33491500D01*
X42059485Y-33453984D01*
X42059487Y-33453982D01*
X42059489Y-33453982D01*
X42185010Y-33381512D01*
X42185010Y-33381511D01*
X42185015Y-33381509D01*
X42287509Y-33279015D01*
X42336699Y-33193816D01*
X42359982Y-33153489D01*
X42359982Y-33153487D01*
X42359984Y-33153485D01*
X42397500Y-33013475D01*
X42397500Y-32868525D01*
X42359984Y-32728515D01*
X42359982Y-32728512D01*
X42359982Y-32728510D01*
X42287512Y-32602989D01*
X42287510Y-32602987D01*
X42287509Y-32602985D01*
X42185015Y-32500491D01*
X42185012Y-32500489D01*
X42185010Y-32500487D01*
X42059488Y-32428017D01*
X42059489Y-32428017D01*
X42029896Y-32420087D01*
X41919475Y-32390500D01*
X41774525Y-32390500D01*
X41712790Y-32407041D01*
X41634510Y-32428017D01*
X41508989Y-32500487D01*
X41406487Y-32602989D01*
X41334017Y-32728510D01*
X41334016Y-32728515D01*
X41296500Y-32868525D01*
X500500Y-32868525D01*
X500500Y-31111725D01*
X41347800Y-31111725D01*
X41347800Y-31256674D01*
X41385317Y-31396689D01*
X41457787Y-31522210D01*
X41457789Y-31522212D01*
X41457791Y-31522215D01*
X41560285Y-31624709D01*
X41560287Y-31624710D01*
X41560289Y-31624712D01*
X41685811Y-31697182D01*
X41685812Y-31697182D01*
X41685815Y-31697184D01*
X41825825Y-31734700D01*
X41825826Y-31734700D01*
X41970774Y-31734700D01*
X41970775Y-31734700D01*
X42110785Y-31697184D01*
X42110787Y-31697182D01*
X42110789Y-31697182D01*
X42236310Y-31624712D01*
X42236310Y-31624711D01*
X42236315Y-31624709D01*
X42338809Y-31522215D01*
X42411284Y-31396685D01*
X42448800Y-31256675D01*
X42448800Y-31111725D01*
X42411284Y-30971715D01*
X42411282Y-30971712D01*
X42411282Y-30971710D01*
X42398748Y-30950000D01*
X94485000Y-30950000D01*
X94485001Y-30950000D01*
X96574999Y-30950000D01*
X96575000Y-30950000D01*
X96575000Y-29050000D01*
X94485000Y-29050000D01*
X94485000Y-30950000D01*
X42398748Y-30950000D01*
X42338812Y-30846189D01*
X42338810Y-30846187D01*
X42338809Y-30846185D01*
X42236315Y-30743691D01*
X42236312Y-30743689D01*
X42236310Y-30743687D01*
X42110788Y-30671217D01*
X42110789Y-30671217D01*
X42081196Y-30663287D01*
X41970775Y-30633700D01*
X41825825Y-30633700D01*
X41764090Y-30650241D01*
X41685810Y-30671217D01*
X41560289Y-30743687D01*
X41457787Y-30846189D01*
X41385317Y-30971710D01*
X41347800Y-31111725D01*
X500500Y-31111725D01*
X500500Y-27445825D01*
X17810200Y-27445825D01*
X17810200Y-27590774D01*
X17847717Y-27730789D01*
X17920187Y-27856310D01*
X17920189Y-27856312D01*
X17920191Y-27856315D01*
X18022685Y-27958809D01*
X18022687Y-27958810D01*
X18022689Y-27958812D01*
X18148211Y-28031282D01*
X18148212Y-28031282D01*
X18148215Y-28031284D01*
X18288225Y-28068800D01*
X18288226Y-28068800D01*
X18433174Y-28068800D01*
X18433175Y-28068800D01*
X18573185Y-28031284D01*
X18573187Y-28031282D01*
X18573189Y-28031282D01*
X18698710Y-27958812D01*
X18698710Y-27958811D01*
X18698715Y-27958809D01*
X18801209Y-27856315D01*
X18873684Y-27730785D01*
X18911200Y-27590775D01*
X18911200Y-27445825D01*
X18873684Y-27305815D01*
X18873682Y-27305812D01*
X18873682Y-27305810D01*
X18801212Y-27180289D01*
X18801210Y-27180287D01*
X18801209Y-27180285D01*
X18698715Y-27077791D01*
X18698712Y-27077789D01*
X18698710Y-27077787D01*
X18573188Y-27005317D01*
X18573189Y-27005317D01*
X18543596Y-26997387D01*
X18433175Y-26967800D01*
X18288225Y-26967800D01*
X18226490Y-26984341D01*
X18148210Y-27005317D01*
X18022689Y-27077787D01*
X17920187Y-27180289D01*
X17847717Y-27305810D01*
X17810200Y-27445825D01*
X500500Y-27445825D01*
X500500Y-21929325D01*
X53870900Y-21929325D01*
X53870900Y-22074274D01*
X53908417Y-22214289D01*
X53980887Y-22339810D01*
X53980889Y-22339812D01*
X53980891Y-22339815D01*
X54083385Y-22442309D01*
X54083387Y-22442310D01*
X54083389Y-22442312D01*
X54208911Y-22514782D01*
X54208912Y-22514782D01*
X54208915Y-22514784D01*
X54348925Y-22552300D01*
X54348926Y-22552300D01*
X54493874Y-22552300D01*
X54493875Y-22552300D01*
X54633885Y-22514784D01*
X54633887Y-22514782D01*
X54633889Y-22514782D01*
X54759410Y-22442312D01*
X54759410Y-22442311D01*
X54759415Y-22442309D01*
X54861909Y-22339815D01*
X54934384Y-22214285D01*
X54971900Y-22074275D01*
X54971900Y-21929325D01*
X54934384Y-21789315D01*
X54934382Y-21789312D01*
X54934382Y-21789310D01*
X54861912Y-21663789D01*
X54861910Y-21663787D01*
X54861909Y-21663785D01*
X54759415Y-21561291D01*
X54759412Y-21561289D01*
X54759410Y-21561287D01*
X54633888Y-21488817D01*
X54633889Y-21488817D01*
X54604296Y-21480887D01*
X54493875Y-21451300D01*
X54348925Y-21451300D01*
X54287190Y-21467841D01*
X54208910Y-21488817D01*
X54083389Y-21561287D01*
X53980887Y-21663789D01*
X53908417Y-21789310D01*
X53870900Y-21929325D01*
X500500Y-21929325D01*
X500500Y-20210925D01*
X23668100Y-20210925D01*
X23668100Y-20355874D01*
X23705617Y-20495889D01*
X23778087Y-20621410D01*
X23778089Y-20621412D01*
X23778091Y-20621415D01*
X23880585Y-20723909D01*
X23880587Y-20723910D01*
X23880589Y-20723912D01*
X24006111Y-20796382D01*
X24006112Y-20796382D01*
X24006115Y-20796384D01*
X24146125Y-20833900D01*
X24146126Y-20833900D01*
X24291074Y-20833900D01*
X24291075Y-20833900D01*
X24431085Y-20796384D01*
X24431087Y-20796382D01*
X24431089Y-20796382D01*
X24556610Y-20723912D01*
X24556610Y-20723911D01*
X24556615Y-20723909D01*
X24659109Y-20621415D01*
X24731584Y-20495885D01*
X24769100Y-20355875D01*
X24769100Y-20210925D01*
X24731584Y-20070915D01*
X24731582Y-20070912D01*
X24731582Y-20070910D01*
X24659112Y-19945389D01*
X24659110Y-19945387D01*
X24659109Y-19945385D01*
X24556615Y-19842891D01*
X24556612Y-19842889D01*
X24556610Y-19842887D01*
X24431088Y-19770417D01*
X24431089Y-19770417D01*
X24401496Y-19762487D01*
X24291075Y-19732900D01*
X24146125Y-19732900D01*
X24084390Y-19749441D01*
X24006110Y-19770417D01*
X23880589Y-19842887D01*
X23778087Y-19945389D01*
X23705617Y-20070910D01*
X23668100Y-20210925D01*
X500500Y-20210925D01*
X500500Y-18299025D01*
X72338700Y-18299025D01*
X72338700Y-18443974D01*
X72376217Y-18583989D01*
X72448687Y-18709510D01*
X72448689Y-18709512D01*
X72448691Y-18709515D01*
X72551185Y-18812009D01*
X72551187Y-18812010D01*
X72551189Y-18812012D01*
X72676711Y-18884482D01*
X72676712Y-18884482D01*
X72676715Y-18884484D01*
X72816725Y-18922000D01*
X72816726Y-18922000D01*
X72961674Y-18922000D01*
X72961675Y-18922000D01*
X73101685Y-18884484D01*
X73101687Y-18884482D01*
X73101689Y-18884482D01*
X73227210Y-18812012D01*
X73227210Y-18812011D01*
X73227215Y-18812009D01*
X73329709Y-18709515D01*
X73402184Y-18583985D01*
X73439700Y-18443975D01*
X73439700Y-18299025D01*
X73402184Y-18159015D01*
X73402182Y-18159012D01*
X73402182Y-18159010D01*
X73329712Y-18033489D01*
X73329710Y-18033487D01*
X73329709Y-18033485D01*
X73227215Y-17930991D01*
X73227212Y-17930989D01*
X73227210Y-17930987D01*
X73101688Y-17858517D01*
X73101689Y-17858517D01*
X73072096Y-17850587D01*
X72961675Y-17821000D01*
X72816725Y-17821000D01*
X72754990Y-17837541D01*
X72676710Y-17858517D01*
X72551189Y-17930987D01*
X72448687Y-18033489D01*
X72376217Y-18159010D01*
X72338700Y-18299025D01*
X500500Y-18299025D01*
X500500Y-15555425D01*
X72338700Y-15555425D01*
X72338700Y-15700374D01*
X72376217Y-15840389D01*
X72448687Y-15965910D01*
X72448689Y-15965912D01*
X72448691Y-15965915D01*
X72551185Y-16068409D01*
X72551187Y-16068410D01*
X72551189Y-16068412D01*
X72676711Y-16140882D01*
X72676712Y-16140882D01*
X72676715Y-16140884D01*
X72816725Y-16178400D01*
X72816726Y-16178400D01*
X72961674Y-16178400D01*
X72961675Y-16178400D01*
X73101685Y-16140884D01*
X73101687Y-16140882D01*
X73101689Y-16140882D01*
X73227210Y-16068412D01*
X73227210Y-16068411D01*
X73227215Y-16068409D01*
X73329709Y-15965915D01*
X73402184Y-15840385D01*
X73439700Y-15700375D01*
X73439700Y-15555425D01*
X73402184Y-15415415D01*
X73402182Y-15415412D01*
X73402182Y-15415410D01*
X73329712Y-15289889D01*
X73329710Y-15289887D01*
X73329709Y-15289885D01*
X73227215Y-15187391D01*
X73227212Y-15187389D01*
X73227210Y-15187387D01*
X73101688Y-15114917D01*
X73101689Y-15114917D01*
X73072096Y-15106987D01*
X72961675Y-15077400D01*
X72816725Y-15077400D01*
X72754990Y-15093941D01*
X72676710Y-15114917D01*
X72551189Y-15187387D01*
X72448687Y-15289889D01*
X72376217Y-15415410D01*
X72338700Y-15555425D01*
X500500Y-15555425D01*
X500500Y-14417625D01*
X10269200Y-14417625D01*
X10269200Y-14562575D01*
X10287291Y-14630089D01*
X10306717Y-14702589D01*
X10379187Y-14828110D01*
X10379189Y-14828112D01*
X10379191Y-14828115D01*
X10481685Y-14930609D01*
X10481687Y-14930610D01*
X10481689Y-14930612D01*
X10607211Y-15003082D01*
X10607212Y-15003082D01*
X10607215Y-15003084D01*
X10747225Y-15040600D01*
X10747226Y-15040600D01*
X10892174Y-15040600D01*
X10892175Y-15040600D01*
X11032185Y-15003084D01*
X11032187Y-15003082D01*
X11032189Y-15003082D01*
X11157710Y-14930612D01*
X11157710Y-14930611D01*
X11157715Y-14930609D01*
X11192699Y-14895625D01*
X26849100Y-14895625D01*
X26849100Y-15040575D01*
X26869020Y-15114916D01*
X26886617Y-15180589D01*
X26959087Y-15306110D01*
X26959089Y-15306112D01*
X26959091Y-15306115D01*
X27061585Y-15408609D01*
X27061587Y-15408610D01*
X27061589Y-15408612D01*
X27187111Y-15481082D01*
X27187112Y-15481082D01*
X27187115Y-15481084D01*
X27327125Y-15518600D01*
X27327126Y-15518600D01*
X27472074Y-15518600D01*
X27472075Y-15518600D01*
X27612085Y-15481084D01*
X27737615Y-15408609D01*
X27840109Y-15306115D01*
X27849477Y-15289889D01*
X27912582Y-15180589D01*
X27912582Y-15180587D01*
X27912584Y-15180585D01*
X27950100Y-15040575D01*
X27950100Y-14895625D01*
X27912584Y-14755615D01*
X27912582Y-14755612D01*
X27912582Y-14755610D01*
X27840112Y-14630089D01*
X27840110Y-14630087D01*
X27840109Y-14630085D01*
X27737615Y-14527591D01*
X27737612Y-14527589D01*
X27737610Y-14527587D01*
X27612088Y-14455117D01*
X27612089Y-14455117D01*
X27582496Y-14447187D01*
X27472075Y-14417600D01*
X27327125Y-14417600D01*
X27265390Y-14434141D01*
X27187110Y-14455117D01*
X27061589Y-14527587D01*
X26959087Y-14630089D01*
X26886617Y-14755610D01*
X26886616Y-14755615D01*
X26849100Y-14895625D01*
X11192699Y-14895625D01*
X11260209Y-14828115D01*
X11332684Y-14702585D01*
X11370200Y-14562575D01*
X11370200Y-14417625D01*
X11332684Y-14277615D01*
X11332682Y-14277612D01*
X11332682Y-14277610D01*
X11260212Y-14152089D01*
X11260210Y-14152087D01*
X11260209Y-14152085D01*
X11157715Y-14049591D01*
X11157712Y-14049589D01*
X11157710Y-14049587D01*
X11032188Y-13977117D01*
X11032189Y-13977117D01*
X11026128Y-13975493D01*
X10892175Y-13939600D01*
X10747225Y-13939600D01*
X10685490Y-13956141D01*
X10607210Y-13977117D01*
X10481689Y-14049587D01*
X10379187Y-14152089D01*
X10306717Y-14277610D01*
X10277189Y-14387809D01*
X10269200Y-14417625D01*
X500500Y-14417625D01*
X500500Y-13874825D01*
X72338700Y-13874825D01*
X72338700Y-14019775D01*
X72341444Y-14030015D01*
X72376217Y-14159789D01*
X72448687Y-14285310D01*
X72448689Y-14285312D01*
X72448691Y-14285315D01*
X72551185Y-14387809D01*
X72551187Y-14387810D01*
X72551189Y-14387812D01*
X72676711Y-14460282D01*
X72676712Y-14460282D01*
X72676715Y-14460284D01*
X72816725Y-14497800D01*
X72816726Y-14497800D01*
X72961674Y-14497800D01*
X72961675Y-14497800D01*
X73101685Y-14460284D01*
X73101687Y-14460282D01*
X73101689Y-14460282D01*
X73227210Y-14387812D01*
X73227210Y-14387811D01*
X73227215Y-14387809D01*
X73329709Y-14285315D01*
X73334155Y-14277615D01*
X73402182Y-14159789D01*
X73402182Y-14159787D01*
X73402184Y-14159785D01*
X73439700Y-14019775D01*
X73439700Y-13874825D01*
X73402184Y-13734815D01*
X73402182Y-13734812D01*
X73402182Y-13734810D01*
X73329712Y-13609289D01*
X73329710Y-13609287D01*
X73329709Y-13609285D01*
X73227215Y-13506791D01*
X73227212Y-13506789D01*
X73227210Y-13506787D01*
X73101688Y-13434317D01*
X73101689Y-13434317D01*
X73072096Y-13426387D01*
X72961675Y-13396800D01*
X72816725Y-13396800D01*
X72754990Y-13413341D01*
X72676710Y-13434317D01*
X72551189Y-13506787D01*
X72448687Y-13609289D01*
X72376217Y-13734810D01*
X72338700Y-13874825D01*
X500500Y-13874825D01*
X500500Y-13087625D01*
X18754700Y-13087625D01*
X18754700Y-13232574D01*
X18792217Y-13372589D01*
X18864687Y-13498110D01*
X18864689Y-13498112D01*
X18864691Y-13498115D01*
X18967185Y-13600609D01*
X18967187Y-13600610D01*
X18967189Y-13600612D01*
X19092711Y-13673082D01*
X19092712Y-13673082D01*
X19092715Y-13673084D01*
X19232725Y-13710600D01*
X19232726Y-13710600D01*
X19377674Y-13710600D01*
X19377675Y-13710600D01*
X19517685Y-13673084D01*
X19517687Y-13673082D01*
X19517689Y-13673082D01*
X19643210Y-13600612D01*
X19643210Y-13600611D01*
X19643215Y-13600609D01*
X19745709Y-13498115D01*
X19782543Y-13434317D01*
X19818182Y-13372589D01*
X19818182Y-13372587D01*
X19818184Y-13372585D01*
X19855700Y-13232575D01*
X19855700Y-13087625D01*
X19855459Y-13086725D01*
X27348300Y-13086725D01*
X27348300Y-13231675D01*
X27353609Y-13251487D01*
X27385817Y-13371689D01*
X27458287Y-13497210D01*
X27458289Y-13497212D01*
X27458291Y-13497215D01*
X27560785Y-13599709D01*
X27560787Y-13599710D01*
X27560789Y-13599712D01*
X27686311Y-13672182D01*
X27686312Y-13672182D01*
X27686315Y-13672184D01*
X27826325Y-13709700D01*
X27826326Y-13709700D01*
X27971274Y-13709700D01*
X27971275Y-13709700D01*
X28111285Y-13672184D01*
X28111287Y-13672182D01*
X28111289Y-13672182D01*
X28236810Y-13599712D01*
X28236810Y-13599711D01*
X28236815Y-13599709D01*
X28339309Y-13497215D01*
X28411031Y-13372989D01*
X28411782Y-13371689D01*
X28411782Y-13371687D01*
X28411784Y-13371685D01*
X28449300Y-13231675D01*
X28449300Y-13086725D01*
X28411784Y-12946715D01*
X28411782Y-12946712D01*
X28411782Y-12946710D01*
X28339312Y-12821189D01*
X28339310Y-12821187D01*
X28339309Y-12821185D01*
X28236815Y-12718691D01*
X28236812Y-12718689D01*
X28236810Y-12718687D01*
X28111288Y-12646217D01*
X28111289Y-12646217D01*
X28063944Y-12633531D01*
X27971275Y-12608700D01*
X27826325Y-12608700D01*
X27764590Y-12625241D01*
X27686310Y-12646217D01*
X27560789Y-12718687D01*
X27458287Y-12821189D01*
X27385817Y-12946710D01*
X27372771Y-12995398D01*
X27348300Y-13086725D01*
X19855459Y-13086725D01*
X19818184Y-12947615D01*
X19818182Y-12947612D01*
X19818182Y-12947610D01*
X19745712Y-12822089D01*
X19745710Y-12822087D01*
X19745709Y-12822085D01*
X19643215Y-12719591D01*
X19643212Y-12719589D01*
X19643210Y-12719587D01*
X19517688Y-12647117D01*
X19517689Y-12647117D01*
X19488096Y-12639187D01*
X19377675Y-12609600D01*
X19232725Y-12609600D01*
X19170990Y-12626141D01*
X19092710Y-12647117D01*
X18967189Y-12719587D01*
X18864687Y-12822089D01*
X18792217Y-12947610D01*
X18754700Y-13087625D01*
X500500Y-13087625D01*
X500500Y-12428425D01*
X10351800Y-12428425D01*
X10351800Y-12573375D01*
X10361507Y-12609600D01*
X10389317Y-12713389D01*
X10461787Y-12838910D01*
X10461789Y-12838912D01*
X10461791Y-12838915D01*
X10564285Y-12941409D01*
X10564287Y-12941410D01*
X10564289Y-12941412D01*
X10689811Y-13013882D01*
X10689812Y-13013882D01*
X10689815Y-13013884D01*
X10829825Y-13051400D01*
X10829826Y-13051400D01*
X10974774Y-13051400D01*
X10974775Y-13051400D01*
X11114785Y-13013884D01*
X11146802Y-12995399D01*
X11146805Y-12995398D01*
X11240310Y-12941412D01*
X11240310Y-12941411D01*
X11240315Y-12941409D01*
X11342809Y-12838915D01*
X11353043Y-12821189D01*
X11415282Y-12713389D01*
X11415282Y-12713387D01*
X11415284Y-12713385D01*
X11452800Y-12573375D01*
X11452800Y-12428425D01*
X11415284Y-12288415D01*
X11415282Y-12288412D01*
X11415282Y-12288410D01*
X11342812Y-12162889D01*
X11342810Y-12162887D01*
X11342809Y-12162885D01*
X11240315Y-12060391D01*
X11240312Y-12060389D01*
X11240310Y-12060387D01*
X11114788Y-11987917D01*
X11114789Y-11987917D01*
X11032897Y-11965974D01*
X10974775Y-11950400D01*
X10829825Y-11950400D01*
X10771703Y-11965974D01*
X10689810Y-11987917D01*
X10564289Y-12060387D01*
X10461787Y-12162889D01*
X10389317Y-12288410D01*
X10389316Y-12288415D01*
X10351800Y-12428425D01*
X500500Y-12428425D01*
X500500Y-11821025D01*
X88752300Y-11821025D01*
X88752300Y-11965975D01*
X88777598Y-12060387D01*
X88789817Y-12105989D01*
X88862287Y-12231510D01*
X88862289Y-12231512D01*
X88862291Y-12231515D01*
X88964785Y-12334009D01*
X88964787Y-12334010D01*
X88964789Y-12334012D01*
X89090311Y-12406482D01*
X89090309Y-12406482D01*
X89090313Y-12406483D01*
X89090315Y-12406484D01*
X89230325Y-12444000D01*
X89230329Y-12444000D01*
X89235852Y-12445480D01*
X89287166Y-12478804D01*
X89309093Y-12535926D01*
X89293257Y-12595026D01*
X89245707Y-12633531D01*
X89235854Y-12636733D01*
X89195614Y-12647516D01*
X89195611Y-12647517D01*
X89070089Y-12719987D01*
X88967587Y-12822489D01*
X88895117Y-12948010D01*
X88877466Y-13013884D01*
X88857600Y-13088025D01*
X88857600Y-13232975D01*
X88887187Y-13343396D01*
X88895117Y-13372989D01*
X88967587Y-13498510D01*
X88967589Y-13498512D01*
X88967591Y-13498515D01*
X89070085Y-13601009D01*
X89070087Y-13601010D01*
X89070089Y-13601012D01*
X89195611Y-13673482D01*
X89195612Y-13673482D01*
X89195615Y-13673484D01*
X89335625Y-13711000D01*
X89335626Y-13711000D01*
X89480574Y-13711000D01*
X89480575Y-13711000D01*
X89620585Y-13673484D01*
X89620587Y-13673482D01*
X89620589Y-13673482D01*
X89714045Y-13619525D01*
X92803100Y-13619525D01*
X92803100Y-13764474D01*
X92840617Y-13904489D01*
X92913087Y-14030010D01*
X92913089Y-14030012D01*
X92913091Y-14030015D01*
X93015585Y-14132509D01*
X93015587Y-14132510D01*
X93015589Y-14132512D01*
X93141111Y-14204982D01*
X93141112Y-14204982D01*
X93141115Y-14204984D01*
X93281125Y-14242500D01*
X93281126Y-14242500D01*
X93426074Y-14242500D01*
X93426075Y-14242500D01*
X93566085Y-14204984D01*
X93566087Y-14204982D01*
X93566089Y-14204982D01*
X93691610Y-14132512D01*
X93691610Y-14132511D01*
X93691615Y-14132509D01*
X93794109Y-14030015D01*
X93824650Y-13977117D01*
X93866582Y-13904489D01*
X93866582Y-13904487D01*
X93866584Y-13904485D01*
X93904100Y-13764475D01*
X93904100Y-13619525D01*
X93866584Y-13479515D01*
X93866582Y-13479512D01*
X93866582Y-13479510D01*
X93794112Y-13353989D01*
X93794110Y-13353987D01*
X93794109Y-13353985D01*
X93691615Y-13251491D01*
X93691612Y-13251489D01*
X93691610Y-13251487D01*
X93566088Y-13179017D01*
X93566089Y-13179017D01*
X93536496Y-13171087D01*
X93426075Y-13141500D01*
X93281125Y-13141500D01*
X93219390Y-13158041D01*
X93141110Y-13179017D01*
X93015589Y-13251487D01*
X92913087Y-13353989D01*
X92840617Y-13479510D01*
X92803100Y-13619525D01*
X89714045Y-13619525D01*
X89746110Y-13601012D01*
X89746110Y-13601011D01*
X89746115Y-13601009D01*
X89848609Y-13498515D01*
X89849360Y-13497215D01*
X89921082Y-13372989D01*
X89921082Y-13372987D01*
X89921084Y-13372985D01*
X89958600Y-13232975D01*
X89958600Y-13088025D01*
X89921084Y-12948015D01*
X89921082Y-12948012D01*
X89921082Y-12948010D01*
X89848612Y-12822489D01*
X89848610Y-12822487D01*
X89848609Y-12822485D01*
X89746115Y-12719991D01*
X89746112Y-12719989D01*
X89746110Y-12719987D01*
X89620588Y-12647517D01*
X89620589Y-12647517D01*
X89568393Y-12633531D01*
X89480575Y-12610000D01*
X89480574Y-12610000D01*
X89475047Y-12608519D01*
X89423732Y-12575194D01*
X89401806Y-12518073D01*
X89417642Y-12458972D01*
X89465192Y-12420467D01*
X89475031Y-12417269D01*
X89515285Y-12406484D01*
X89515287Y-12406482D01*
X89515289Y-12406482D01*
X89640810Y-12334012D01*
X89640810Y-12334011D01*
X89640815Y-12334009D01*
X89743309Y-12231515D01*
X89743312Y-12231510D01*
X89815782Y-12105989D01*
X89815782Y-12105987D01*
X89815784Y-12105985D01*
X89853300Y-11965975D01*
X89853300Y-11821025D01*
X89815784Y-11681015D01*
X89815782Y-11681012D01*
X89815782Y-11681010D01*
X89743312Y-11555489D01*
X89743310Y-11555487D01*
X89743309Y-11555485D01*
X89640815Y-11452991D01*
X89640812Y-11452989D01*
X89640810Y-11452987D01*
X89515288Y-11380517D01*
X89515289Y-11380517D01*
X89485696Y-11372587D01*
X89375275Y-11343000D01*
X89230325Y-11343000D01*
X89168590Y-11359541D01*
X89090310Y-11380517D01*
X88964789Y-11452987D01*
X88862287Y-11555489D01*
X88789817Y-11681010D01*
X88789816Y-11681015D01*
X88752300Y-11821025D01*
X500500Y-11821025D01*
X500500Y-10910025D01*
X27364600Y-10910025D01*
X27364600Y-11054974D01*
X27402117Y-11194989D01*
X27474587Y-11320510D01*
X27474589Y-11320512D01*
X27474591Y-11320515D01*
X27577085Y-11423009D01*
X27577087Y-11423010D01*
X27577089Y-11423012D01*
X27702611Y-11495482D01*
X27702612Y-11495482D01*
X27702615Y-11495484D01*
X27842625Y-11533000D01*
X27842626Y-11533000D01*
X27987574Y-11533000D01*
X27987575Y-11533000D01*
X28127585Y-11495484D01*
X28127587Y-11495482D01*
X28127589Y-11495482D01*
X28253110Y-11423012D01*
X28253110Y-11423011D01*
X28253115Y-11423009D01*
X28355609Y-11320515D01*
X28428084Y-11194985D01*
X28465600Y-11054975D01*
X28465600Y-10910025D01*
X28428084Y-10770015D01*
X28428082Y-10770012D01*
X28428082Y-10770010D01*
X28355612Y-10644489D01*
X28355610Y-10644487D01*
X28355609Y-10644485D01*
X28253115Y-10541991D01*
X28253112Y-10541989D01*
X28253110Y-10541987D01*
X28127588Y-10469517D01*
X28127589Y-10469517D01*
X28097996Y-10461587D01*
X27987575Y-10432000D01*
X27842625Y-10432000D01*
X27780890Y-10448541D01*
X27702610Y-10469517D01*
X27577089Y-10541987D01*
X27474587Y-10644489D01*
X27402117Y-10770010D01*
X27364600Y-10910025D01*
X500500Y-10910025D01*
X500500Y-10140925D01*
X86289000Y-10140925D01*
X86289000Y-10285874D01*
X86326517Y-10425889D01*
X86398987Y-10551410D01*
X86398989Y-10551412D01*
X86398991Y-10551415D01*
X86501485Y-10653909D01*
X86501487Y-10653910D01*
X86501489Y-10653912D01*
X86627011Y-10726382D01*
X86627012Y-10726382D01*
X86627015Y-10726384D01*
X86767025Y-10763900D01*
X86767026Y-10763900D01*
X86911974Y-10763900D01*
X86911975Y-10763900D01*
X87051985Y-10726384D01*
X87051987Y-10726382D01*
X87051989Y-10726382D01*
X87177510Y-10653912D01*
X87177510Y-10653911D01*
X87177515Y-10653909D01*
X87280009Y-10551415D01*
X87327294Y-10469516D01*
X87352482Y-10425889D01*
X87352482Y-10425887D01*
X87352484Y-10425885D01*
X87390000Y-10285875D01*
X87390000Y-10140925D01*
X87352484Y-10000915D01*
X87352482Y-10000912D01*
X87352482Y-10000910D01*
X87280012Y-9875389D01*
X87280010Y-9875387D01*
X87280009Y-9875385D01*
X87177515Y-9772891D01*
X87177512Y-9772889D01*
X87177510Y-9772887D01*
X87051988Y-9700417D01*
X87051989Y-9700417D01*
X87022396Y-9692487D01*
X86911975Y-9662900D01*
X86767025Y-9662900D01*
X86705290Y-9679441D01*
X86627010Y-9700417D01*
X86501489Y-9772887D01*
X86398987Y-9875389D01*
X86326517Y-10000910D01*
X86289000Y-10140925D01*
X500500Y-10140925D01*
X500500Y-7193825D01*
X10269200Y-7193825D01*
X10269200Y-7338774D01*
X10306717Y-7478789D01*
X10379187Y-7604310D01*
X10379189Y-7604312D01*
X10379191Y-7604315D01*
X10481685Y-7706809D01*
X10481687Y-7706810D01*
X10481689Y-7706812D01*
X10607211Y-7779282D01*
X10607212Y-7779282D01*
X10607215Y-7779284D01*
X10747225Y-7816800D01*
X10747226Y-7816800D01*
X10892174Y-7816800D01*
X10892175Y-7816800D01*
X11032185Y-7779284D01*
X11032187Y-7779282D01*
X11032189Y-7779282D01*
X11157710Y-7706812D01*
X11157710Y-7706811D01*
X11157715Y-7706809D01*
X11260209Y-7604315D01*
X11332684Y-7478785D01*
X11370200Y-7338775D01*
X11370200Y-7193825D01*
X11332684Y-7053815D01*
X11332682Y-7053812D01*
X11332682Y-7053810D01*
X11260212Y-6928289D01*
X11260210Y-6928287D01*
X11260209Y-6928285D01*
X11157715Y-6825791D01*
X11157712Y-6825789D01*
X11157710Y-6825787D01*
X11032188Y-6753317D01*
X11032189Y-6753317D01*
X11002596Y-6745387D01*
X10892175Y-6715800D01*
X10747225Y-6715800D01*
X10685490Y-6732341D01*
X10607210Y-6753317D01*
X10481689Y-6825787D01*
X10379187Y-6928289D01*
X10306717Y-7053810D01*
X10269200Y-7193825D01*
X500500Y-7193825D01*
X500500Y-4047011D01*
X519407Y-3988820D01*
X568907Y-3952856D01*
X630093Y-3952856D01*
X679593Y-3988820D01*
X696018Y-4024981D01*
X756590Y-4290366D01*
X862330Y-4592554D01*
X862332Y-4592558D01*
X1001245Y-4881013D01*
X1171581Y-5152101D01*
X1371198Y-5402413D01*
X1597587Y-5628802D01*
X1847899Y-5828419D01*
X2118987Y-5998755D01*
X2407442Y-6137668D01*
X2407445Y-6137669D01*
X2709633Y-6243409D01*
X2709636Y-6243409D01*
X2709637Y-6243410D01*
X3021771Y-6314653D01*
X3107562Y-6324319D01*
X3339902Y-6350499D01*
X3339918Y-6350499D01*
X3339919Y-6350500D01*
X3339920Y-6350500D01*
X3660080Y-6350500D01*
X3660081Y-6350500D01*
X3660082Y-6350499D01*
X3660097Y-6350499D01*
X3863840Y-6327541D01*
X3978229Y-6314653D01*
X4290363Y-6243410D01*
X4592558Y-6137668D01*
X4881013Y-5998755D01*
X5152101Y-5828419D01*
X5402413Y-5628802D01*
X5628802Y-5402413D01*
X5828419Y-5152101D01*
X5998755Y-4881013D01*
X6137668Y-4592558D01*
X6243410Y-4290363D01*
X6314653Y-3978229D01*
X6327541Y-3863840D01*
X6350499Y-3660097D01*
X6350500Y-3660080D01*
X6350500Y-3339919D01*
X6350499Y-3339902D01*
X6324319Y-3107562D01*
X6314653Y-3021771D01*
X6243410Y-2709637D01*
X6137668Y-2407442D01*
X5998755Y-2118987D01*
X5828419Y-1847899D01*
X5628802Y-1597587D01*
X5402413Y-1371198D01*
X5152101Y-1171581D01*
X4881013Y-1001245D01*
X4592558Y-862332D01*
X4592554Y-862330D01*
X4290366Y-756590D01*
X4024981Y-696018D01*
X3972457Y-664636D01*
X3948410Y-608374D01*
X3962025Y-548723D01*
X4008102Y-508467D01*
X4047011Y-500500D01*
X95952989Y-500500D01*
X96011180Y-519407D01*
G37*
%TD.AperFunction*%
%TA.AperFunction,Conductor*%
G36*
X99451277Y-96962025D02*
G01*
X99491533Y-97008102D01*
X99499500Y-97047011D01*
X99499500Y-99400500D01*
X99480593Y-99458691D01*
X99431093Y-99494655D01*
X99400500Y-99499500D01*
X97047011Y-99499500D01*
X96988820Y-99480593D01*
X96952856Y-99431093D01*
X96952856Y-99369907D01*
X96988820Y-99320407D01*
X97024981Y-99303982D01*
X97290363Y-99243410D01*
X97592558Y-99137668D01*
X97881013Y-98998755D01*
X98152101Y-98828419D01*
X98402413Y-98628802D01*
X98628802Y-98402413D01*
X98828419Y-98152101D01*
X98998755Y-97881013D01*
X99137668Y-97592558D01*
X99243410Y-97290363D01*
X99303982Y-97024980D01*
X99335364Y-96972457D01*
X99391626Y-96948410D01*
X99451277Y-96962025D01*
G37*
%TD.AperFunction*%
%TA.AperFunction,Conductor*%
G36*
X3011180Y-519407D02*
G01*
X3047144Y-568907D01*
X3047144Y-630093D01*
X3011180Y-679593D01*
X2975019Y-696018D01*
X2709633Y-756590D01*
X2407445Y-862330D01*
X2118994Y-1001241D01*
X2118989Y-1001244D01*
X1847898Y-1171581D01*
X1597588Y-1371197D01*
X1371197Y-1597588D01*
X1171581Y-1847898D01*
X1001244Y-2118989D01*
X1001241Y-2118994D01*
X862330Y-2407445D01*
X756590Y-2709633D01*
X696018Y-2975018D01*
X664636Y-3027542D01*
X608374Y-3051589D01*
X548723Y-3037974D01*
X508467Y-2991897D01*
X500500Y-2952988D01*
X500500Y-599500D01*
X519407Y-541309D01*
X568907Y-505345D01*
X599500Y-500500D01*
X2952989Y-500500D01*
X3011180Y-519407D01*
G37*
%TD.AperFunction*%
%TA.AperFunction,Conductor*%
G36*
X99458691Y-519407D02*
G01*
X99494655Y-568907D01*
X99499500Y-599500D01*
X99499500Y-2952988D01*
X99480593Y-3011179D01*
X99431093Y-3047143D01*
X99369907Y-3047143D01*
X99320407Y-3011179D01*
X99303982Y-2975018D01*
X99243409Y-2709633D01*
X99137669Y-2407445D01*
X98998758Y-2118994D01*
X98998755Y-2118987D01*
X98828419Y-1847899D01*
X98628802Y-1597587D01*
X98402413Y-1371198D01*
X98152101Y-1171581D01*
X97881013Y-1001245D01*
X97592558Y-862332D01*
X97592554Y-862330D01*
X97290366Y-756590D01*
X97024981Y-696018D01*
X96972457Y-664636D01*
X96948410Y-608374D01*
X96962025Y-548723D01*
X97008102Y-508467D01*
X97047011Y-500500D01*
X99400500Y-500500D01*
X99458691Y-519407D01*
G37*
%TD.AperFunction*%
%TD*%
M02*
