%TF.GenerationSoftware,KiCad,Pcbnew,9.0.7+dfsg-1*%
%TF.CreationDate,2026-04-17T21:28:18-04:00*%
%TF.ProjectId,warden-apex-master,77617264-656e-42d6-9170-65782d6d6173,rev?*%
%TF.SameCoordinates,Original*%
%TF.FileFunction,Soldermask,Top*%
%TF.FilePolarity,Negative*%
%FSLAX46Y46*%
G04 Gerber Fmt 4.6, Leading zero omitted, Abs format (unit mm)*
G04 Created by KiCad (PCBNEW 9.0.7+dfsg-1) date 2026-04-17 21:28:18*
%MOMM*%
%LPD*%
G01*
G04 APERTURE LIST*
G04 Aperture macros list*
%AMRoundRect*
0 Rectangle with rounded corners*
0 $1 Rounding radius*
0 $2 $3 $4 $5 $6 $7 $8 $9 X,Y pos of 4 corners*
0 Add a 4 corners polygon primitive as box body*
4,1,4,$2,$3,$4,$5,$6,$7,$8,$9,$2,$3,0*
0 Add four circle primitives for the rounded corners*
1,1,$1+$1,$2,$3*
1,1,$1+$1,$4,$5*
1,1,$1+$1,$6,$7*
1,1,$1+$1,$8,$9*
0 Add four rect primitives between the rounded corners*
20,1,$1+$1,$2,$3,$4,$5,0*
20,1,$1+$1,$4,$5,$6,$7,0*
20,1,$1+$1,$6,$7,$8,$9,0*
20,1,$1+$1,$8,$9,$2,$3,0*%
G04 Aperture macros list end*
%ADD10RoundRect,0.250000X-0.250000X-0.475000X0.250000X-0.475000X0.250000X0.475000X-0.250000X0.475000X0*%
%ADD11RoundRect,0.150000X-0.512500X-0.150000X0.512500X-0.150000X0.512500X0.150000X-0.512500X0.150000X0*%
%ADD12R,1.700000X1.700000*%
%ADD13C,1.700000*%
%ADD14RoundRect,0.250000X0.250000X0.475000X-0.250000X0.475000X-0.250000X-0.475000X0.250000X-0.475000X0*%
%ADD15RoundRect,0.250000X0.450000X-0.262500X0.450000X0.262500X-0.450000X0.262500X-0.450000X-0.262500X0*%
%ADD16C,5.200000*%
%ADD17RoundRect,0.150000X0.150000X0.625000X-0.150000X0.625000X-0.150000X-0.625000X0.150000X-0.625000X0*%
%ADD18RoundRect,0.250000X0.350000X0.650000X-0.350000X0.650000X-0.350000X-0.650000X0.350000X-0.650000X0*%
%ADD19C,1.500000*%
%ADD20RoundRect,0.250000X-0.275000X-0.250000X0.275000X-0.250000X0.275000X0.250000X-0.275000X0.250000X0*%
%ADD21RoundRect,0.250000X-0.850000X-0.275000X0.850000X-0.275000X0.850000X0.275000X-0.850000X0.275000X0*%
%ADD22RoundRect,0.250000X-0.262500X-0.450000X0.262500X-0.450000X0.262500X0.450000X-0.262500X0.450000X0*%
%ADD23RoundRect,0.112500X-0.187500X-0.112500X0.187500X-0.112500X0.187500X0.112500X-0.187500X0.112500X0*%
%ADD24RoundRect,0.250000X0.475000X-0.250000X0.475000X0.250000X-0.475000X0.250000X-0.475000X-0.250000X0*%
%ADD25R,1.000000X1.500000*%
%ADD26R,1.800000X1.300000*%
%ADD27R,1.600000X2.000000*%
%ADD28RoundRect,0.062500X-0.375000X-0.062500X0.375000X-0.062500X0.375000X0.062500X-0.375000X0.062500X0*%
%ADD29RoundRect,0.062500X-0.062500X-0.375000X0.062500X-0.375000X0.062500X0.375000X-0.062500X0.375000X0*%
%ADD30R,1.600000X1.600000*%
%ADD31RoundRect,0.250000X-0.250000X-0.550000X0.250000X-0.550000X0.250000X0.550000X-0.250000X0.550000X0*%
%ADD32RoundRect,0.250000X-0.350000X-0.250000X0.350000X-0.250000X0.350000X0.250000X-0.350000X0.250000X0*%
%ADD33RoundRect,0.200000X-0.200000X-0.200000X0.200000X-0.200000X0.200000X0.200000X-0.200000X0.200000X0*%
%ADD34RoundRect,0.375000X-0.375000X-0.375000X0.375000X-0.375000X0.375000X0.375000X-0.375000X0.375000X0*%
%ADD35RoundRect,0.250000X1.425000X-0.362500X1.425000X0.362500X-1.425000X0.362500X-1.425000X-0.362500X0*%
%ADD36RoundRect,0.200000X-0.200000X-0.400000X0.200000X-0.400000X0.200000X0.400000X-0.200000X0.400000X0*%
%ADD37RoundRect,0.200000X-0.400000X-0.200000X0.400000X-0.200000X0.400000X0.200000X-0.400000X0.200000X0*%
%ADD38R,0.700000X0.280000*%
%ADD39R,0.280000X0.700000*%
%ADD40RoundRect,0.362500X-0.362500X-0.862500X0.362500X-0.862500X0.362500X0.862500X-0.362500X0.862500X0*%
%ADD41RoundRect,0.150000X-0.150000X-0.300000X0.150000X-0.300000X0.150000X0.300000X-0.150000X0.300000X0*%
%ADD42RoundRect,0.150000X-0.300000X-0.150000X0.300000X-0.150000X0.300000X0.150000X-0.300000X0.150000X0*%
%ADD43RoundRect,0.150000X-0.150000X-0.150000X0.150000X-0.150000X0.150000X0.150000X-0.150000X0.150000X0*%
%ADD44R,2.450000X5.900000*%
%ADD45R,1.450000X1.450000*%
%ADD46RoundRect,0.287500X0.612500X-0.287500X0.612500X0.287500X-0.612500X0.287500X-0.612500X-0.287500X0*%
%ADD47RoundRect,0.243750X-0.243750X-0.456250X0.243750X-0.456250X0.243750X0.456250X-0.243750X0.456250X0*%
%ADD48R,2.000000X1.500000*%
%ADD49RoundRect,0.150000X0.150000X-0.875000X0.150000X0.875000X-0.150000X0.875000X-0.150000X-0.875000X0*%
%ADD50RoundRect,0.150000X-0.587500X-0.150000X0.587500X-0.150000X0.587500X0.150000X-0.587500X0.150000X0*%
%ADD51RoundRect,0.100000X0.100000X-0.637500X0.100000X0.637500X-0.100000X0.637500X-0.100000X-0.637500X0*%
%ADD52RoundRect,0.250000X-0.450000X-0.350000X0.450000X-0.350000X0.450000X0.350000X-0.450000X0.350000X0*%
%ADD53RoundRect,0.250000X0.650000X-0.325000X0.650000X0.325000X-0.650000X0.325000X-0.650000X-0.325000X0*%
%ADD54RoundRect,0.250000X-0.300000X-1.600000X0.300000X-1.600000X0.300000X1.600000X-0.300000X1.600000X0*%
G04 APERTURE END LIST*
%TO.C,J2*%
G36*
X94485000Y-29060000D02*
G01*
X96575000Y-29060000D01*
X96575000Y-30940000D01*
X94485000Y-30940000D01*
X94485000Y-29060000D01*
G37*
%TO.C,JP1*%
G36*
X27850000Y-28250000D02*
G01*
X28150000Y-28250000D01*
X28150000Y-29750000D01*
X27850000Y-29750000D01*
X27850000Y-28250000D01*
G37*
%TO.C,JP4*%
G36*
X34850000Y-55250000D02*
G01*
X35150000Y-55250000D01*
X35150000Y-56750000D01*
X34850000Y-56750000D01*
X34850000Y-55250000D01*
G37*
%TO.C,J1*%
G36*
X94485000Y-37060000D02*
G01*
X96575000Y-37060000D01*
X96575000Y-38940000D01*
X94485000Y-38940000D01*
X94485000Y-37060000D01*
G37*
%TO.C,JP2*%
G36*
X92850000Y-53250000D02*
G01*
X93150000Y-53250000D01*
X93150000Y-54750000D01*
X92850000Y-54750000D01*
X92850000Y-53250000D01*
G37*
%TO.C,JP3*%
G36*
X34850000Y-51250000D02*
G01*
X35150000Y-51250000D01*
X35150000Y-52750000D01*
X34850000Y-52750000D01*
X34850000Y-51250000D01*
G37*
%TD*%
D10*
%TO.C,C1*%
X18050000Y-74000000D03*
X19950000Y-74000000D03*
%TD*%
D11*
%TO.C,U5*%
X90862500Y-63050000D03*
X90862500Y-64000000D03*
X90862500Y-64950000D03*
X93137500Y-64950000D03*
X93137500Y-64000000D03*
X93137500Y-63050000D03*
%TD*%
D12*
%TO.C,J3*%
X62000000Y-68000000D03*
D13*
X62000000Y-70540000D03*
%TD*%
D14*
%TO.C,C28*%
X73450000Y-12000000D03*
X71550000Y-12000000D03*
%TD*%
D15*
%TO.C,R4*%
X33000000Y-76912500D03*
X33000000Y-75087500D03*
%TD*%
D16*
%TO.C,MH1*%
X3500000Y-3500000D03*
%TD*%
D15*
%TO.C,R12*%
X66000000Y-80912500D03*
X66000000Y-79087500D03*
%TD*%
D17*
%TO.C,J5*%
X6500000Y-50000000D03*
X5500000Y-50000000D03*
X4500000Y-50000000D03*
X3500000Y-50000000D03*
D18*
X7800000Y-46125000D03*
X2200000Y-46125000D03*
%TD*%
D15*
%TO.C,R2*%
X33000000Y-72912500D03*
X33000000Y-71087500D03*
%TD*%
D19*
%TO.C,TP2*%
X10000000Y-94000000D03*
%TD*%
D10*
%TO.C,C19*%
X22050000Y-74000000D03*
X23950000Y-74000000D03*
%TD*%
D16*
%TO.C,MH4*%
X96500000Y-96500000D03*
%TD*%
D20*
%TO.C,J2*%
X93950000Y-30000000D03*
D21*
X95475000Y-28525000D03*
X95475000Y-31475000D03*
%TD*%
D22*
%TO.C,R24*%
X10587500Y-68000000D03*
X12412500Y-68000000D03*
%TD*%
D23*
%TO.C,D3*%
X13950000Y-74000000D03*
X16050000Y-74000000D03*
%TD*%
D10*
%TO.C,C16*%
X55050000Y-74000000D03*
X56950000Y-74000000D03*
%TD*%
D24*
%TO.C,C30*%
X38940000Y-3950000D03*
X38940000Y-2050000D03*
%TD*%
D25*
%TO.C,JP1*%
X27350000Y-29000000D03*
X28650000Y-29000000D03*
%TD*%
D22*
%TO.C,R18*%
X41087500Y-52000000D03*
X42912500Y-52000000D03*
%TD*%
D15*
%TO.C,R20*%
X36000000Y-72912500D03*
X36000000Y-71087500D03*
%TD*%
D26*
%TO.C,Card1*%
X75500000Y-37000000D03*
X80500000Y-37000000D03*
X75500000Y-39500000D03*
X80500000Y-39500000D03*
X75500000Y-42000000D03*
X80500000Y-42000000D03*
D27*
X72400000Y-36500000D03*
X83600000Y-36500000D03*
X72400000Y-47500000D03*
X83600000Y-47500000D03*
%TD*%
D28*
%TO.C,IC2*%
X17562500Y-79250000D03*
X17562500Y-79750000D03*
X17562500Y-80250000D03*
X17562500Y-80750000D03*
D29*
X18250000Y-81437500D03*
X18750000Y-81437500D03*
X19250000Y-81437500D03*
X19750000Y-81437500D03*
D28*
X20437500Y-80750000D03*
X20437500Y-80250000D03*
X20437500Y-79750000D03*
X20437500Y-79250000D03*
D29*
X19750000Y-78562500D03*
X19250000Y-78562500D03*
X18750000Y-78562500D03*
X18250000Y-78562500D03*
D30*
X19000000Y-80000000D03*
%TD*%
D31*
%TO.C,U1*%
X9450000Y-7380000D03*
X9450000Y-9920000D03*
X9450000Y-12460000D03*
X9450000Y-15000000D03*
X9450000Y-17540000D03*
X9450000Y-20080000D03*
X9450000Y-22620000D03*
X25550000Y-7380000D03*
X25550000Y-9920000D03*
X25550000Y-12460000D03*
X25550000Y-15000000D03*
X25550000Y-17540000D03*
X25550000Y-20080000D03*
X25550000Y-22620000D03*
D32*
X13690000Y-23500000D03*
X21310000Y-23500000D03*
D33*
X12420000Y-11500000D03*
X14960000Y-11500000D03*
X17500000Y-11500000D03*
X20040000Y-11500000D03*
X22580000Y-11500000D03*
X16230000Y-18000000D03*
X18770000Y-18000000D03*
D34*
X17500000Y-15000000D03*
%TD*%
D24*
%TO.C,C33*%
X43000000Y-51150000D03*
X43000000Y-49250000D03*
%TD*%
D35*
%TO.C,RSNS*%
X33000000Y-90962500D03*
X33000000Y-85037500D03*
%TD*%
D14*
%TO.C,C32*%
X45150000Y-79250000D03*
X43250000Y-79250000D03*
%TD*%
D22*
%TO.C,R17*%
X19087500Y-29000000D03*
X20912500Y-29000000D03*
%TD*%
D10*
%TO.C,C25*%
X19050000Y-54000000D03*
X20950000Y-54000000D03*
%TD*%
D36*
%TO.C,U3*%
X38935000Y-5900000D03*
X40205000Y-5900000D03*
X41475000Y-5900000D03*
X42745000Y-5900000D03*
X44015000Y-5900000D03*
X45285000Y-5900000D03*
X46555000Y-5900000D03*
X47825000Y-5900000D03*
X49095000Y-5900000D03*
X50365000Y-5900000D03*
X51635000Y-5900000D03*
X52905000Y-5900000D03*
X54175000Y-5900000D03*
X55445000Y-5900000D03*
X56715000Y-5900000D03*
X57985000Y-5900000D03*
X59255000Y-5900000D03*
X60525000Y-5900000D03*
X61795000Y-5900000D03*
X63065000Y-5900000D03*
D37*
X71600000Y-9285000D03*
X71600000Y-10555000D03*
X71600000Y-11825000D03*
X71600000Y-13095000D03*
X71600000Y-14365000D03*
X71600000Y-15635000D03*
X71600000Y-16905000D03*
X71600000Y-18175000D03*
X71600000Y-19445000D03*
X71600000Y-20715000D03*
D36*
X63065000Y-24100000D03*
X61795000Y-24100000D03*
X60525000Y-24100000D03*
X59255000Y-24100000D03*
X57985000Y-24100000D03*
X56715000Y-24100000D03*
X55445000Y-24100000D03*
X54175000Y-24100000D03*
X52905000Y-24100000D03*
X51635000Y-24100000D03*
X50365000Y-24100000D03*
X49095000Y-24100000D03*
X47825000Y-24100000D03*
X46555000Y-24100000D03*
X45285000Y-24100000D03*
X44015000Y-24100000D03*
X42745000Y-24100000D03*
X41475000Y-24100000D03*
X40205000Y-24100000D03*
X38935000Y-24100000D03*
D37*
X30400000Y-20715000D03*
X30400000Y-19445000D03*
X30400000Y-18175000D03*
X30400000Y-16905000D03*
X30400000Y-15635000D03*
X30400000Y-14365000D03*
X30400000Y-13095000D03*
X30400000Y-11825000D03*
X30400000Y-10555000D03*
X30400000Y-9285000D03*
%TD*%
D10*
%TO.C,C26*%
X14050000Y-54000000D03*
X15950000Y-54000000D03*
%TD*%
%TO.C,C14*%
X23050000Y-94000000D03*
X24950000Y-94000000D03*
%TD*%
D38*
%TO.C,IC3*%
X46650000Y-79250000D03*
X46650000Y-79750000D03*
X46650000Y-80250000D03*
X46650000Y-80750000D03*
X49350000Y-79250000D03*
X49350000Y-79750000D03*
X49350000Y-80250000D03*
X49350000Y-80750000D03*
D39*
X47250000Y-81850000D03*
X47750000Y-81850000D03*
X48250000Y-81850000D03*
X48750000Y-81850000D03*
X47500000Y-78150000D03*
X48000000Y-78150000D03*
X48500000Y-78150000D03*
D40*
X48000000Y-80000000D03*
%TD*%
D10*
%TO.C,C2*%
X39050000Y-74000000D03*
X40950000Y-74000000D03*
%TD*%
D19*
%TO.C,TP3*%
X16000000Y-94000000D03*
%TD*%
D22*
%TO.C,R19*%
X41087500Y-58000000D03*
X42912500Y-58000000D03*
%TD*%
D15*
%TO.C,R21*%
X36000000Y-76912500D03*
X36000000Y-75087500D03*
%TD*%
D23*
%TO.C,D2*%
X89950000Y-30000000D03*
X92050000Y-30000000D03*
%TD*%
D41*
%TO.C,IC1*%
X43400000Y-32700000D03*
X44500000Y-32700000D03*
X45600000Y-32700000D03*
X46700000Y-32700000D03*
X47800000Y-32700000D03*
X48900000Y-32700000D03*
X50000000Y-32700000D03*
X51100000Y-32700000D03*
X52200000Y-32700000D03*
X53300000Y-32700000D03*
X54400000Y-32700000D03*
X55500000Y-32700000D03*
X56600000Y-32700000D03*
D42*
X57800000Y-35600000D03*
X57800000Y-36700000D03*
X57800000Y-37800000D03*
X57800000Y-38900000D03*
X57800000Y-40000000D03*
X57800000Y-41100000D03*
X57800000Y-42200000D03*
X57800000Y-43300000D03*
X57800000Y-44400000D03*
D41*
X56600000Y-47300000D03*
X55500000Y-47300000D03*
X54400000Y-47300000D03*
X53300000Y-47300000D03*
X52200000Y-47300000D03*
X51100000Y-47300000D03*
X50000000Y-47300000D03*
X48900000Y-47300000D03*
X47800000Y-47300000D03*
X46700000Y-47300000D03*
X45600000Y-47300000D03*
X44500000Y-47300000D03*
D42*
X42200000Y-44400000D03*
X42200000Y-43300000D03*
X42200000Y-42200000D03*
X42200000Y-41100000D03*
X42200000Y-40000000D03*
X42200000Y-38900000D03*
X42200000Y-37800000D03*
X42200000Y-36700000D03*
D43*
X44600000Y-37000000D03*
X46400000Y-37000000D03*
X48200000Y-37000000D03*
X50000000Y-37000000D03*
X51800000Y-37000000D03*
X53600000Y-37000000D03*
X55400000Y-37000000D03*
X44600000Y-38500000D03*
X46400000Y-38500000D03*
X48200000Y-38500000D03*
X50000000Y-38500000D03*
X51800000Y-38500000D03*
X53600000Y-38500000D03*
X55400000Y-38500000D03*
X44600000Y-40000000D03*
X46400000Y-40000000D03*
X48200000Y-40000000D03*
X50000000Y-40000000D03*
X51800000Y-40000000D03*
X53600000Y-40000000D03*
X55400000Y-40000000D03*
X44600000Y-41500000D03*
X46400000Y-41500000D03*
X48200000Y-41500000D03*
X50000000Y-41500000D03*
X51800000Y-41500000D03*
X53600000Y-41500000D03*
X55400000Y-41500000D03*
X44600000Y-43000000D03*
X46400000Y-43000000D03*
X48200000Y-43000000D03*
X50000000Y-43000000D03*
X51800000Y-43000000D03*
X53600000Y-43000000D03*
X55400000Y-43000000D03*
%TD*%
D10*
%TO.C,C17*%
X59050000Y-74000000D03*
X60950000Y-74000000D03*
%TD*%
D44*
%TO.C,L1*%
X11225000Y-88000000D03*
X16775000Y-88000000D03*
%TD*%
D28*
%TO.C,IC4*%
X56562500Y-63250000D03*
X56562500Y-63750000D03*
X56562500Y-64250000D03*
X56562500Y-64750000D03*
D29*
X57250000Y-65437500D03*
X57750000Y-65437500D03*
X58250000Y-65437500D03*
X58750000Y-65437500D03*
D28*
X59437500Y-64750000D03*
X59437500Y-64250000D03*
X59437500Y-63750000D03*
X59437500Y-63250000D03*
D29*
X58750000Y-62562500D03*
X58250000Y-62562500D03*
X57750000Y-62562500D03*
X57250000Y-62562500D03*
D45*
X58000000Y-64000000D03*
%TD*%
D10*
%TO.C,C27*%
X14350000Y-77000000D03*
X16250000Y-77000000D03*
%TD*%
D19*
%TO.C,TP5*%
X58000000Y-90000000D03*
%TD*%
D46*
%TO.C,C34*%
X46500000Y-51937500D03*
X46500000Y-49062500D03*
%TD*%
D47*
%TO.C,F1*%
X10562500Y-56000000D03*
X12437500Y-56000000D03*
%TD*%
D22*
%TO.C,R13*%
X65087500Y-60000000D03*
X66912500Y-60000000D03*
%TD*%
D12*
%TO.C,J4*%
X5000000Y-54500000D03*
D13*
X7540000Y-54500000D03*
X5000000Y-57040000D03*
X7540000Y-57040000D03*
X5000000Y-59580000D03*
X7540000Y-59580000D03*
X5000000Y-62120000D03*
X7540000Y-62120000D03*
X5000000Y-64660000D03*
X7540000Y-64660000D03*
X5000000Y-67200000D03*
X7540000Y-67200000D03*
X5000000Y-69740000D03*
X7540000Y-69740000D03*
%TD*%
D24*
%TO.C,C20*%
X6000000Y-80950000D03*
X6000000Y-79050000D03*
%TD*%
D10*
%TO.C,C3*%
X43050000Y-74000000D03*
X44950000Y-74000000D03*
%TD*%
D48*
%TO.C,U2*%
X75500000Y-8000000D03*
X75500000Y-10000000D03*
X75500000Y-12000000D03*
X75500000Y-14000000D03*
X75500000Y-16000000D03*
X75500000Y-18000000D03*
X75500000Y-20000000D03*
X75500000Y-22000000D03*
X91500000Y-22000000D03*
X91500000Y-20000000D03*
X91500000Y-18000000D03*
X91500000Y-16000000D03*
X91500000Y-14000000D03*
X91500000Y-12000000D03*
X91500000Y-10000000D03*
X91500000Y-8000000D03*
%TD*%
D49*
%TO.C,U4*%
X69745000Y-68650000D03*
X71015000Y-68650000D03*
X72285000Y-68650000D03*
X73555000Y-68650000D03*
X74825000Y-68650000D03*
X76095000Y-68650000D03*
X77365000Y-68650000D03*
X78635000Y-68650000D03*
X79905000Y-68650000D03*
X81175000Y-68650000D03*
X82445000Y-68650000D03*
X83715000Y-68650000D03*
X84985000Y-68650000D03*
X86255000Y-68650000D03*
X86255000Y-59350000D03*
X84985000Y-59350000D03*
X83715000Y-59350000D03*
X82445000Y-59350000D03*
X81175000Y-59350000D03*
X79905000Y-59350000D03*
X78635000Y-59350000D03*
X77365000Y-59350000D03*
X76095000Y-59350000D03*
X74825000Y-59350000D03*
X73555000Y-59350000D03*
X72285000Y-59350000D03*
X71015000Y-59350000D03*
X69745000Y-59350000D03*
%TD*%
D22*
%TO.C,R16*%
X31087500Y-29000000D03*
X32912500Y-29000000D03*
%TD*%
D25*
%TO.C,JP4*%
X34350000Y-56000000D03*
X35650000Y-56000000D03*
%TD*%
D50*
%TO.C,Q3*%
X39062500Y-28050000D03*
X39062500Y-29950000D03*
X40937500Y-29000000D03*
%TD*%
D15*
%TO.C,R22*%
X36000000Y-68912500D03*
X36000000Y-67087500D03*
%TD*%
%TO.C,R3*%
X30000000Y-76912500D03*
X30000000Y-75087500D03*
%TD*%
D51*
%TO.C,U6*%
X22725000Y-56862500D03*
X23375000Y-56862500D03*
X24025000Y-56862500D03*
X24675000Y-56862500D03*
X25325000Y-56862500D03*
X25975000Y-56862500D03*
X26625000Y-56862500D03*
X27275000Y-56862500D03*
X27275000Y-51137500D03*
X26625000Y-51137500D03*
X25975000Y-51137500D03*
X25325000Y-51137500D03*
X24675000Y-51137500D03*
X24025000Y-51137500D03*
X23375000Y-51137500D03*
X22725000Y-51137500D03*
%TD*%
D15*
%TO.C,R5*%
X27000000Y-88912500D03*
X27000000Y-87087500D03*
%TD*%
D19*
%TO.C,TP4*%
X12000000Y-42000000D03*
%TD*%
D15*
%TO.C,R15*%
X40000000Y-80912500D03*
X40000000Y-79087500D03*
%TD*%
D10*
%TO.C,C5*%
X51050000Y-74000000D03*
X52950000Y-74000000D03*
%TD*%
D20*
%TO.C,J1*%
X93950000Y-38000000D03*
D21*
X95475000Y-36525000D03*
X95475000Y-39475000D03*
%TD*%
D52*
%TO.C,X1*%
X28900000Y-52850000D03*
X31100000Y-52850000D03*
X31100000Y-51150000D03*
X28900000Y-51150000D03*
%TD*%
D53*
%TO.C,C31*%
X63060000Y-4375000D03*
X63060000Y-1425000D03*
%TD*%
D24*
%TO.C,C21*%
X6000000Y-84950000D03*
X6000000Y-83050000D03*
%TD*%
D25*
%TO.C,JP2*%
X92350000Y-54000000D03*
X93650000Y-54000000D03*
%TD*%
D24*
%TO.C,C15*%
X6000000Y-74950000D03*
X6000000Y-73050000D03*
%TD*%
D22*
%TO.C,R14*%
X65087500Y-63000000D03*
X66912500Y-63000000D03*
%TD*%
D54*
%TO.C,L3*%
X53500000Y-80000000D03*
X56500000Y-80000000D03*
%TD*%
D12*
%TO.C,H1*%
X7000000Y-34000000D03*
D13*
X9540000Y-34000000D03*
X12080000Y-34000000D03*
%TD*%
D10*
%TO.C,C13*%
X19050000Y-94000000D03*
X20950000Y-94000000D03*
%TD*%
D25*
%TO.C,JP3*%
X34350000Y-52000000D03*
X35650000Y-52000000D03*
%TD*%
D11*
%TO.C,Q1*%
X24862500Y-79050000D03*
X24862500Y-80000000D03*
X24862500Y-80950000D03*
X27137500Y-80950000D03*
X27137500Y-80000000D03*
X27137500Y-79050000D03*
%TD*%
D15*
%TO.C,R1*%
X30000000Y-72912500D03*
X30000000Y-71087500D03*
%TD*%
D16*
%TO.C,MH2*%
X96500000Y-3500000D03*
%TD*%
D24*
%TO.C,C22*%
X6000000Y-92950000D03*
X6000000Y-91050000D03*
%TD*%
D16*
%TO.C,MH3*%
X3500000Y-96500000D03*
%TD*%
D15*
%TO.C,R11*%
X62000000Y-80912500D03*
X62000000Y-79087500D03*
%TD*%
D23*
%TO.C,D1*%
X93950000Y-48000000D03*
X96050000Y-48000000D03*
%TD*%
D22*
%TO.C,R23*%
X53087500Y-64750000D03*
X54912500Y-64750000D03*
%TD*%
D10*
%TO.C,C24*%
X29050000Y-58000000D03*
X30950000Y-58000000D03*
%TD*%
D50*
%TO.C,Q2*%
X35062500Y-28050000D03*
X35062500Y-29950000D03*
X36937500Y-29000000D03*
%TD*%
D19*
%TO.C,TP1*%
X52000000Y-90000000D03*
%TD*%
D15*
%TO.C,R10*%
X27000000Y-92912500D03*
X27000000Y-91087500D03*
%TD*%
D10*
%TO.C,C18*%
X63050000Y-74000000D03*
X64950000Y-74000000D03*
%TD*%
%TO.C,C23*%
X29050000Y-55000000D03*
X30950000Y-55000000D03*
%TD*%
%TO.C,C4*%
X47050000Y-74000000D03*
X48950000Y-74000000D03*
%TD*%
M02*
