M48
; DRILL file {KiCad 9.0.7+dfsg-1} date 2026-04-17T18:06:51-0400
; FORMAT={-:-/ absolute / metric / decimal}
; #@! TF.CreationDate,2026-04-17T18:06:51-04:00
; #@! TF.GenerationSoftware,Kicad,Pcbnew,9.0.7+dfsg-1
; #@! TF.FileFunction,Plated,1,4,PTH
FMAT,2
METRIC
; #@! TA.AperFunction,Plated,PTH,ViaDrill
T1C0.300
; #@! TA.AperFunction,Plated,PTH,ComponentDrill
T2C1.000
; #@! TA.AperFunction,Plated,PTH,ComponentDrill
T3C3.200
%
G90
G05
T1
X3.65Y-86.838
X3.65Y-86.838
X4.5Y-51.791
X4.5Y-51.791
X7.734Y-83.891
X7.734Y-83.891
X9.018Y-76.321
X9.018Y-76.321
X9.48Y-68.942
X9.48Y-68.942
X9.602Y-48.95
X9.602Y-48.95
X10.82Y-7.266
X10.82Y-7.266
X10.82Y-14.49
X10.82Y-14.49
X10.902Y-12.501
X10.902Y-12.501
X11.033Y-82.973
X11.033Y-82.973
X11.175Y-54.123
X11.175Y-54.123
X12.82Y-36.753
X12.82Y-36.753
X13.006Y-58.827
X13.006Y-58.827
X13.204Y-80.985
X13.204Y-80.985
X14.057Y-82.157
X14.057Y-82.157
X15.179Y-80.313
X15.179Y-80.313
X15.667Y-79.024
X15.667Y-79.024
X15.88Y-80.942
X15.88Y-80.942
X17.545Y-76.785
X17.545Y-76.785
X19.305Y-13.16
X19.305Y-13.16
X19.981Y-76.197
X19.981Y-76.197
X20.007Y-83.519
X20.007Y-83.519
X20.448Y-30.953
X20.448Y-30.953
X20.566Y-77.475
X20.566Y-77.475
X21.081Y-83.828
X21.081Y-83.828
X21.087Y-30.276
X21.087Y-30.276
X21.204Y-78.682
X21.204Y-78.682
X22.124Y-42.097
X22.124Y-42.097
X22.15Y-81.356
X22.15Y-81.356
X22.178Y-78.989
X22.178Y-78.989
X22.833Y-80.597
X22.833Y-80.597
X23.456Y-75.548
X23.456Y-75.548
X24.263Y-19.103
X24.263Y-19.103
X24.321Y-55.006
X24.321Y-55.006
X25.069Y-77.415
X25.069Y-77.415
X25.333Y-53.95
X25.333Y-53.95
X27.062Y-90.0
X27.062Y-90.0
X27.219Y-77.376
X27.219Y-77.376
X27.219Y-81.937
X27.219Y-81.937
X27.219Y-83.37
X27.424Y-14.969
X27.424Y-14.969
X27.486Y-58.354
X27.486Y-58.354
X27.805Y-74.78
X27.899Y-13.159
X27.899Y-13.159
X27.915Y-10.982
X27.915Y-10.982
X28.435Y-87.414
X28.435Y-87.414
X28.854Y-81.005
X28.854Y-81.005
X28.895Y-78.254
X28.895Y-78.254
X29.07Y-86.212
X29.07Y-86.212
X29.9Y-28.547
X29.9Y-28.547
X31.5Y-76.903
X31.5Y-76.903
X31.704Y-73.222
X31.704Y-73.222
X32.735Y-73.939
X32.782Y-77.975
X34.473Y-72.581
X34.693Y-82.982
X34.792Y-78.096
X37.026Y-31.083
X37.026Y-31.083
X37.667Y-83.891
X39.686Y-36.737
X39.686Y-36.737
X39.686Y-67.276
X39.686Y-67.276
X40.781Y-50.649
X40.781Y-50.649
X42.636Y-21.998
X42.636Y-21.998
X45.253Y-34.207
X45.253Y-34.207
X45.5Y-42.737
X45.5Y-42.737
X46.695Y-78.418
X46.695Y-78.418
X47.51Y-39.217
X47.51Y-39.217
X47.6Y-83.144
X47.6Y-83.144
X49.424Y-82.732
X49.424Y-82.732
X49.725Y-81.514
X49.725Y-81.514
X50.9Y-42.163
X50.9Y-42.163
X51.355Y-77.837
X51.355Y-77.837
X54.421Y-53.528
X54.421Y-53.528
X54.421Y-71.745
X54.421Y-71.745
X54.499Y-38.899
X54.499Y-38.899
X54.521Y-21.709
X54.521Y-21.709
X56.406Y-40.471
X56.406Y-40.471
X56.622Y-36.382
X56.622Y-36.382
X57.357Y-30.835
X57.357Y-30.835
X58.094Y-53.126
X58.094Y-53.126
X60.316Y-53.398
X60.316Y-53.398
X61.337Y-82.046
X61.337Y-82.046
X61.719Y-72.483
X61.719Y-72.483
X63.719Y-81.009
X63.719Y-81.009
X64.528Y-40.865
X64.528Y-40.865
X65.719Y-53.533
X65.719Y-53.533
X66.21Y-54.421
X66.21Y-54.421
X68.564Y-68.784
X68.564Y-68.784
X69.191Y-57.787
X69.191Y-57.787
X69.846Y-61.082
X69.846Y-61.082
X72.642Y-57.07
X72.642Y-57.07
X72.889Y-13.947
X72.889Y-13.947
X72.889Y-15.628
X72.889Y-15.628
X72.889Y-18.371
X72.889Y-18.371
X73.227Y-38.875
X73.227Y-38.875
X73.672Y-57.109
X73.672Y-57.109
X75.051Y-43.377
X75.051Y-43.377
X75.249Y-57.109
X75.249Y-57.109
X77.329Y-61.26
X77.329Y-61.26
X78.433Y-61.372
X78.433Y-61.372
X80.436Y-40.654
X80.436Y-40.654
X80.945Y-35.807
X80.945Y-35.807
X86.84Y-10.213
X86.84Y-10.213
X86.84Y-33.79
X86.84Y-33.79
X89.303Y-11.893
X89.303Y-11.893
X89.408Y-13.16
X89.408Y-13.16
X92.734Y-33.79
X92.734Y-33.79
X93.354Y-13.692
X93.354Y-13.692
T2
X5.0Y-54.5
X5.0Y-57.04
X5.0Y-59.58
X5.0Y-62.12
X5.0Y-64.66
X5.0Y-67.2
X5.0Y-69.74
X7.0Y-34.0
X7.54Y-54.5
X7.54Y-57.04
X7.54Y-59.58
X7.54Y-62.12
X7.54Y-64.66
X7.54Y-67.2
X7.54Y-69.74
X9.54Y-34.0
X12.08Y-34.0
X62.0Y-68.0
X62.0Y-70.54
T3
X3.5Y-3.5
X3.5Y-96.5
X96.5Y-3.5
X96.5Y-96.5
M30
